<?xml version="1.0" encoding="UTF-8"?>
<svg id="Layer_1" data-name="Layer 1" xmlns="http://www.w3.org/2000/svg" viewBox="0 0 898.48 952.9">
  <path d="m231.64,952.9l-3.98-.44c.14-1.23,13.01-123.38-34.24-166.59-14.78-13.51-34.16-17.96-57.61-13.23-37.85,7.64-64.14,3.36-78.13-12.73-19.46-22.38-8.2-59.33-6.44-64.64l-6.94-26.61,2.41-1.75c-1.81.48-3.63.48-5.17-.49-3.66-2.32-3.36-8.47-2.58-16.26.39-3.93,5.57-9.57,42.43-18.33,12.06-2.87,24.17-5.25,31.89-6.69-19.86-1.91-60.92,12.53-77.2,19.2l-1.76.72-.81-1.72c-12.09-25.57-14.76-42.74-7.96-51.04,1.37-1.66,2.97-2.81,4.65-3.59,5.11-9.77,3.49-27.82-1.07-35.12-1.68-2.69-1.95-5.73-1.42-8.75-2.17.57-4.33,1.16-6.47,1.75l-1.38.38-.81-1.19c-26.42-39-18.04-58.4-17-60.49,1.94-3.88,15.81-13.7,22.98-18.6l-10.63-3.04,17.15-4.68c-2.75-7.35-11.44-31.83-9.43-42.86.44-2.42,1.82-4.36,3.99-5.61,6.74-3.9,20.37-.72,27.69,1.45l-11.73-22.55-14.75,1.92c-.82.79-1.68,1.4-2.6,1.83-4.62,2.2-8.48-.86-8.64-.99l-3.61-2.93,12.89-1.68c3.42-4.24,7.98-16.21,7.98-49.79,0-61.04,48.16-109.4,83.32-144.71,4.15-4.17,8.07-8.11,11.69-11.85,7.61-7.86,18.66-11.03,32.85-9.39,42.11,4.83,102.46,51.97,110.86,65.98,8.74,14.56,4.12,28.18,2,32.9,6.71,4.22,33.77,21.48,50.4,35.17,14.88,12.25,23.08,33.64,33.46,60.71,3.38,8.83,6.88,17.96,10.97,27.77,4.17,10,9.76,16.23,17.1,19.04,16.46,6.3,40.25-5.03,67.8-18.16,4.42-2.11,8.99-4.28,13.62-6.43,18.51-8.58,35.7-7.17,48.39,3.97,19.88,17.45,23.94,54.77,10.58,97.39-.96,3.06-2.05,6.01-3.28,8.88,60.29,25.87,109.45,44.43,116.6,44.75,2.78.13,5.35-1.23,7.88-4.13,12.14-13.89,16.37-55.8,15.67-59.69-.69-3.45-8.43-21.91-11.35-28.73l-4.09-9.55,15.69,15.69c1.21-2.61,3.61-6.5,8.05-12.53,4.44-6.02,3.03-12.92,1.07-17.64-4.86-11.72-18.77-23.44-29.76-25.09-18.1-2.72-33.99-18.43-34.66-19.1l-4.26-4.26,61.06,8.86.33.19c7.48,4.25,13.05,8.38,17.15,12.29,5.48-6.6,12.64-16.98,18.86-31.63,3.57-8.42,2.93-15.34-1.9-20.63-3.07,11.47-9.35,30.64-18.78,38.81l-5.82,5.05,2.63-7.24c.03-.09,3.17-9.1-2.3-14.72-5.15-5.28-19.06-9.02-56.1,3.18l-17.46,5.75,15.82-9.37c16.44-9.74,48.61-29.07,52.7-32.48,4.03-3.36,17.72-1.88,26.95,3.93.22-.97.39-1.72.49-2.19-5.7-13.72-6.86-25.78-3.47-35.94l-.14.04.16-.09c.43-1.3.94-2.56,1.53-3.8,5.32-11.25,15.29-16.64,20.12-18.68-7.51-8.89-15.23-13.02-22.97-12.29-16.47,1.56-28.32,24.46-28.44,24.69l-.62,1.22-1.37-.14c-13.7-1.44-22.12-6.09-25.03-13.83-6.22-16.53,15.77-40.58,16.71-41.6l6.85-7.41-3.5,9.46c-1.74,4.69-1.59,7.78.43,9.19,6.41,4.46,27.38-4.17,31.7-7.87,3.83-3.28,19.26-7.25,33.04-5.6-2.45-4.15-5.15-7.6-7.56-10-12.42-12.42-40.63-63.6-41.83-65.77l-.24-.43v-.49c-.87-36.22-22.54-80.81-22.76-81.26l-.14-.39c-3.07-12.18-7.12-22.64-12.13-31.35-1.76,1.75-3.54,3.48-5.33,5.16,9.3,12.09,10.72,23.92,10.8,24.59l.49,4.46-3.64-2.62c-8.13-5.84-16.6-9.79-25.38-11.85-2.94,2-5.8,3.69-8.54,4.97,2.4,4.21,7.82,14.6,10.77,27.19,3.49,14.89,2.29,27.88-3.42,38.34,15.72,5.64,15.54,6.86,15.3,8.49-.2,1.38-1.36,2.08-3.45,2.08-1.25,0-9.27-1.02-17.9-2.17-1.42,1.54-2.98,3-4.67,4.37l-.52.42-.67.03c-.36.01-27.06.83-42.33-12.41l-.33.06.26-.12c-3.23-2.81-5.94-6.26-7.77-10.48h-7.64l6.95-1.74c-.68-1.9-1.2-3.95-1.51-6.16l-.44-3.1,3,.9c.11.03,6.06,1.83,14.56,4.46l6.82-1.71c-12.52-3.49-36.92-11.21-46.32-20.61l-1.35-1.35,1.29-1.41c.59-.64,14.62-15.85,35.9-26.27,17.58-8.6,34.83-11.25,51.05-7.99,4.27-3.02,8.72-6.71,13.17-10.76-2.79-3.18-6.2-6.31-10.37-9.13-21.97-14.93-55.65-16.4-100.12-4.36l-11.16,3.02,9.5-6.6c2.09-1.45,51.54-35.28,93-19.73,12.34,4.63,22.61,13.17,30.73,25.52,17.21-17.74,31.81-36.81,32.06-37.14l1.98-2.6,1.41,2.95c9.76,20.4,18.36,124.28,18.72,128.69l-3.99.33c-.08-1.03-8.14-98.33-17.1-124.18-4.82,6.15-17,21.27-30.9,35.48,5.42,9.17,9.77,20.22,13.04,33.11,1.76,3.63,22.02,46.1,23.05,82.24,2.79,5.03,29.48,53.01,40.92,64.45,2.84,2.84,6.62,7.66,9.83,13.74,1.83.44,3.6,1.01,5.27,1.71,8.43,3.57,13.18,10.28,13.73,19.39,1.84,30.43-37.3,40.8-37.69,40.9l-10.13,2.59c-4.25,9.82-3.36,21.98,2.65,36.18l.24.57-.12.6c-.06.3-.41,2-1.03,4.61,7.4,6.57,8.99,15.95,4.45,26.67-6.54,15.41-14.01,26.17-19.71,32.98,9.02,10.09,8.44,18.47,6.66,23.42-1.7,4.74-5.5,8.49-8.14,8.03-1.24-.22-2.07-1.24-2.07-2.54,0-2.7-5.03-13.47-8.6-20.25l-.78-1.48,1.32-1.03c.06-.05,2.48-1.97,6.13-6-3.76-3.64-8.97-7.56-16.15-11.68l-47.66-6.92c5.93,4.77,16.4,11.95,27.44,13.61,12.4,1.86,27.45,14.46,32.87,27.51,3.38,8.14,2.85,15.6-1.54,21.55-6.29,8.53-7.83,11.98-8.2,13.23l2.7,2.7-3.66.73c-.87.17-2.04-.12-2.7-1.16-.11-.17-.21-.36-.29-.58l-3.06-3.06c3.15,7.58,7.06,17.31,7.62,20.09.8,3.98-3.38,47.7-16.42,62.92-3.38,3.94-7.16,5.86-11.23,5.68-7.59-.33-56.85-18.81-118.09-45.09-11.92,24.7-34.31,41.75-65.49,49.67-23.48,5.96-44.48,4.99-50.39,4.55-4.52,13.83-36.1,110.02-44.58,128.03-1.48,3.15-7.63,8.91-43.81,22.61-21.46,8.13-50.31,17.85-85.73,28.91-55.43,17.3-111.5,32.99-123.97,35.78,8.31-.32,17.49-1.49,27.55-3.52,24.77-5,45.33-.22,61.1,14.2,20.53,18.77,32.74,53.13,36.29,102.12,2.63,36.28-.75,67.54-.78,67.85ZM48.87,670.3l6.56,25.13-.2.58c-.14.39-13.54,39.41,5.49,61.29,8.83,10.15,23.24,15.21,42.99,15.04-.54-.3-1.11-.83-1.57-1.78-4.41-9.08,1.1-62.1,28.35-96.69,28.88-36.65,53.63-103.96,56.96-120.59,3.53-17.63,29.95-67.83,83.83-73.56,11.72-1.25,18.13-6.56,19.62-16.25,3.77-24.66-25.21-66.06-30.5-69.63-5.04,1.75-28.68,7.12-49.56,11.73-.96,2.2-2.32,4.52-4.24,6.85-11.13,13.47-34.71,20.05-70.06,19.57l-2.41-.03,3.93-19.63c-4.64,1.52-7.41,2.62-7.5,2.66l-.47.19-.5-.06c-4.29-.5-7.09-2.32-8.34-5.4-3.93-9.7,10.94-28.36,12.65-30.46l.2-.25.27-.17c28.55-18.44,53.39-15.87,69.2-10.47,4.95,1.69,9.32,3.74,13.05,5.8-.57-1.75-.76-3.49-.58-5.23.86-8.12,9.72-13.38,13.59-15.31-1.91-4.79-4.48-8.98-7.67-12.57-3.93-.67-8.08-1.21-12.4-1.56-38.06-3.08-70.82,9.3-97.4,36.79l-1.96,2.03-17.94-35.87,1.9-.86c2.96-1.33,72.87-32.44,114.35-14.81,6.09,2.59,11.26,6.11,15.48,10.55,21.73,3.85,36.3,11.25,37.02,11.62l.76.39.24.81c6.48,21.59,72.91,62.73,187.05,115.83,23.87,11.1,47.87,21.79,70.42,31.51,1.16-2.74,2.2-5.57,3.12-8.5,12.88-41.09,9.28-76.8-9.4-93.19-11.43-10.03-27.09-11.22-44.07-3.35-4.61,2.13-9.17,4.31-13.58,6.41-22.56,10.75-42.68,20.33-59.06,20.34-4.22,0-8.19-.64-11.89-2.05-8.42-3.22-14.75-10.17-19.36-21.24-4.11-9.86-7.62-19.02-11.01-27.87-10.17-26.53-18.2-47.48-32.26-59.06-18.79-15.48-51.18-35.62-51.51-35.83l-1.64-1.02.96-1.67c.34-.6,8.26-14.98-1.1-30.59-6.96-11.6-65.03-59.14-107.89-64.06-12.89-1.48-22.82,1.28-29.52,8.2-3.64,3.76-7.57,7.71-11.73,11.89-34.67,34.82-82.16,82.51-82.16,141.89,0,24.05-2.28,40.49-6.81,49.11l13.81-1.8,17.61,33.87-4.8-1.71c-5.97-2.13-22.81-6.86-29.04-3.26-1.17.68-1.82,1.59-2.06,2.86-2.12,11.67,9.89,42.45,10.01,42.76l.81,2.07-7.61,2.08,5.14,1.47-3.6,2.4c-9.62,6.41-23.8,16.7-25.18,19.47-.37.74-8.66,18.32,15.93,55.26,1.78-.49,4.37-1.19,7.44-1.99,2.28-5.75,6.44-10.77,7.8-12.33l1.04-7.27c.38-2.68,1.86-3.82,3.03-4.3,4.77-1.99,13.14,4.01,14.77,5.23l.08.06s6.24,4.59,21.49-2.53c3.85-1.8,6.13-4.23,6.77-7.22,1.42-6.63-5.12-14.32-5.19-14.4l-10.17-11.79,12.82,8.84c15.67,10.8,14.85,20.73,11.41,27.15-5.69,10.61-22.16,17.56-26.78,15.71-2.56-1.02-17.81,2.05-33.99,6.18-.83,2.83-.91,5.59.45,7.77,4.6,7.36,6.61,24.37,2.57,35.87,2.84-.36,5.35-.04,6.61.18,3.38-1.96,17.86-9.43,32.64-3.09,6.6,2.83,19.34,8.79,30.91,14.72,22.01,11.27,21.52,12.86,20.95,14.69-.74,2.39-3.91,1.75-5.81,1.38-14.79-2.96-53.07-3.29-61.09-3.33-3.36,10.75-8.06,17.64-14,20.48-5.23,2.5-9.44.8-9.62.72l-.69-.29-.33-.66c-1-2-6.88-14.08-8.72-25.05.51,7.14,3.33,17.58,10.39,32.83,11.17-4.44,69.43-26.75,86.63-16l4.46,2.79-5.19.88c-.2.03-20.14,3.42-39.95,8.13-37.71,8.97-39.3,14.26-39.36,14.83-.34,3.38-1.13,11.3.74,12.48.34.22,1.8.71,6.36-2.03l28.11-16.87,2.2,3.34-31.5,22.81Zm211.55-280.6c1.28,0,2.43.97,2.93,1.4,8.61,7.29,38.22,52.07,30.62,76.78-2.84,9.22-10.33,14.54-22.28,15.81-51.66,5.5-76.96,53.5-80.33,70.37-3.38,16.88-28.47,85.14-57.74,122.28-27.04,34.32-31.03,85.88-28.02,92.26,7.1-1.33,66.12-17.66,125.57-36.23,109.08-34.08,124.59-45.7,126.2-49.12,8.84-18.79,44.53-127.98,44.89-129.08l.5-1.54,1.61.17c.24.03,24.23,2.41,50.71-4.34,30.3-7.72,51.34-23.62,62.72-47.33-22.45-9.67-46.42-20.35-70.46-31.54-80.7-37.54-178.55-88.22-188.92-117.46-2.91-1.39-14.34-6.54-30.47-9.95,2.48,3.5,4.5,7.43,6.05,11.78l.64,1.8-1.77.73c-.12.05-12.08,5.04-12.9,12.85-.32,3.11,1.16,6.37,4.44,9.75,4.28,3.05,6.67,5.42,6.87,5.62l-2.54,3.07c-2.67-1.82-4.93-3.65-6.77-5.49-4.56-3.24-11.37-7.32-19.89-10.21-21.64-7.34-43.61-4-65.31,9.93-5.86,7.27-14.11,20.59-11.84,26.19.23.58.93,2.3,4.62,2.86,3.93-1.51,30.4-11.27,57.51-12.32,17.11-.66,21.03-3.28,21.88-4.18-.05-.76-.13-1.22-.15-1.3l-1.5-7.67,5,5.99c.55.66,1.26,2.19.67,3.92,0,1.48-.14,3.41-.67,5.62,23.43-5.19,44.93-10.14,47.04-11.18.36-.18.73-.26,1.08-.26Zm-222.54,239.88c1.03.22,3.21.42,5.84-.87,3.49-1.72,8.44-6.48,12.2-19.38l.42-1.44h1.5c1.79,0,41.81.03,60.4,2.89-9.62-5.83-32.71-17.21-45.45-22.67-14.6-6.26-29.47,3.12-29.62,3.22l-.73.47-.84-.21c-.06-.01-4.52-1.07-8.63.35-.53.87-1.11,1.67-1.75,2.4-4.97,5.68,1.3,24.28,6.65,35.25Zm5.28-109.54c-.29,0-.53.04-.73.12-.13.05-.46.19-.6,1.17l-1.21,8.49-.42.46c-1.61,1.75-4.23,5.1-6.18,8.82,12.74-3.19,29.58-6.88,33.56-5.29,2.3.74,17.33-4.85,22.01-14.35,2.28-4.63,1.59-9.32-2.06-14.01.66,2.34.93,4.88.39,7.39-.92,4.29-3.94,7.66-9,10.02-17.13,7.99-24.82,2.68-25.67,2.03-3.39-2.54-7.9-4.85-10.1-4.85Zm634.29-108.81c2.05,3.98,6.63,13.18,7.95,18.38,1.32-1.3,3.09-3.9,3.51-7.54.4-3.45-.33-9.07-6.3-15.98-2.24,2.45-4.04,4.14-5.17,5.14Zm-538.46,16.76c7.69.03,14.51-.29,20.59-.9-7.37-1.44-14.61-6.89-18.39-10.13l-2.21,11.03Zm39.66-15.44c-1.81,6.45-4.7,10.84-8.62,13.11,18.96-3.39,28.55-9.9,33.4-15.71.92-1.11,1.7-2.21,2.35-3.29-12.27,2.7-22.89,4.98-27.12,5.89Zm-37.64-1.2l.33.33c.14.14,14.4,14.22,24.55,11.4,4.29-1.19,7.39-5.47,9.2-12.72l.3-1.21,1.22-.26c9.48-2.03,20.46-4.41,31.27-6.8.31-.93.54-1.81.7-2.63-3.5,1.51-9.79,2.82-21.35,3.26-17.88.69-35.49,5.27-46.22,8.62Zm517.65-50.57c8.92,0,15.41,2.06,19.4,6.18,3.49,3.6,4.38,8.03,4.36,11.69,6.71-9.48,11.36-24.89,13.65-33.78-8.74-6.23-21.48-6.57-23.38-4.99-3.56,2.97-25.05,16-39.63,24.74,10.03-2.55,18.57-3.83,25.6-3.83Zm-560.97-16.4l13.55,27.09c33.77-33.59,72.22-38.16,98.77-35.98,2.32.19,4.58.43,6.79.71-2.93-2.29-6.22-4.22-9.87-5.77-36.17-15.38-97.63,9.05-109.23,13.94Zm596.9-80.68c9.02,0,17.78,5.39,26.06,16.04l1.8,2.31-2.81.83c-.13.04-13.37,4.12-19.84,16.51l7.71-4.29c13.19-7.33,20.71-17.01,22.36-28.78,1.28-9.15-1.22-18.39-4.94-26.04-13.45-2.56-29.83,1.7-32.8,4.24-5.07,4.34-28,14.1-36.59,8.12-1.55-1.08-3.04-2.92-3.29-6.04-5.93,7.8-14.87,21.86-11.16,31.71,2.25,5.97,9.1,9.7,20.37,11.1,2.86-5.12,14.48-24.05,30.95-25.62.73-.07,1.45-.1,2.17-.1Zm35.39-22.05c3.15,7.41,5.12,16.16,3.85,25.23-1.15,8.22-4.82,15.49-10.95,21.74,9.82-5.59,20.72-15.28,19.79-30.48-.46-7.6-4.26-12.96-11.3-15.95-.46-.19-.93-.38-1.4-.55Zm-165.26-105.29c12.91,9.07,32.38,9.37,36.21,9.34.59-.49,1.15-.99,1.69-1.5-8.39-1.13-16.25-2.23-18-2.47l-4.74-.66,10.67-8.16c-.66-.22-1.33-.43-2-.65l-23.83,4.11Zm45.9,4.87c2.46.33,4.77.63,6.79.89-1.74-.66-3.72-1.38-5.89-2.15-.29.43-.59.85-.9,1.27Zm-20.7-2.81c5.09.7,10.78,1.48,16.09,2.19.55-.67,1.08-1.34,1.57-2.03-3.79-1.31-7.99-2.72-12.42-4.18l-5.24,4.01Zm-33.89-11.68c1.83,3.49,4.39,6.33,7.38,8.66l14.52-6.53c-2.25-.71-4.51-1.42-6.75-2.12h-15.15Zm42.99,4.73c4.14,1.37,7.72,2.58,10.8,3.65,15.08-26.66-7.8-63.61-8.07-64.04l-1.28-2.03,2.23-.89c2.05-.82,4.19-1.92,6.42-3.25-14.09-1.95-28.94.85-44.41,8.4-16.9,8.25-29.39,19.95-33.42,23.99,13.31,11.21,50.17,20.12,50.56,20.21l7.95,1.9-13.36,3.34h24.85l-11.76,5.29,18.06-3.11-8.57,6.55Zm-45.04-10.03c.24.89.51,1.75.83,2.58l4.2-1.05c-1.72-.53-3.4-1.04-5.03-1.53Zm65-58.44c6.68,1.88,13.16,4.8,19.41,8.74-1.2-4.25-3.71-10.88-8.78-17.61-3.56,3.22-7.12,6.22-10.62,8.87Zm-49.44-37.52c20.09,0,36.64,4.38,49.48,13.15,4.41,3.01,8.03,6.3,11,9.64,1.93-1.82,3.85-3.7,5.75-5.6-7.73-12.03-17.5-20.3-29.25-24.71-27.97-10.49-60.85,3.36-77.85,12.46,14.92-3.29,28.57-4.94,40.87-4.94Z"/>
</svg>