<?xml version="1.0" encoding="UTF-8"?>
<svg id="Woman" xmlns="http://www.w3.org/2000/svg" viewBox="0 0 2000 2000">
  <path d="m922.58,1778.8c-14.86,0-24.88-4.62-29.81-13.76-7.8-14.45-2.49-39,16.23-75.03,12.59-24.24,31.08-53.15,54.94-85.94,62.3-85.59,142.02-126.17,197.94-145.13,66.56-22.58,120.98-22.77,139.65-17.59,1.4.39,2.86.87,4.39,1.44-10.13-14.37-23.23-27.84-35.25-40.19-4.61-4.74-8.97-9.22-12.96-13.54-97.11-105.32-103.32-187.86-105.36-214.98-.19-2.47-.33-4.43-.51-5.93-.34-2.93-.68-5.9-1.03-8.88-5.32-46.03-11.94-103.32-26.75-111.47-2.16-1.19-4.39-1.15-7.03.12-31.88,15.39-60.45,36.01-89.92,64.9-48.57,47.6-125.13,64.34-186.65,77.8-43.12,9.43-80.37,17.58-87.99,33.5-2.39,4.99-1.86,10.81,1.61,17.79l2.15,4.32c19.97,40.04,40.41,81.01,58.57,123.44,9.64-1.78,19.57-3.29,29.79-4.53,7.11-.86,12.79,1.02,16.9,5.6,13.85,15.44,6.31,60.03-4.47,108.25,22.95,60.11,46.83,129.83,23.11,167.91-9.84,15.8-27.27,24.92-51.82,27.1-2.58.23-4.84-.61-6.51-2.43-6.97-7.61-3.03-31.96,5.83-81.91,1.42-7.99,2.88-16.26,4.38-24.98,2.92-17.01,7.61-37.11,12.58-58.38,2.06-8.84,4.17-17.87,6.19-26.86-1.73-4.53-3.46-9.01-5.16-13.41-4.9-12.7-9.53-24.71-13.38-35.59-6.46-18.27-13.55-36.26-21.06-54-207.5,40.52-218.36,199.38-225.67,306.3-2.67,39.07-4.78,69.94-15.53,87.29-.87,1.41-2.72,1.84-4.13.97-1.41-.87-1.84-2.72-.97-4.13,9.96-16.09,12.13-47.81,14.65-84.54,3.91-57.15,8.77-128.28,43.38-189.71,18.86-33.47,45.12-60.84,78.05-81.36,29.79-18.56,65.94-32.11,107.83-40.45-17.97-41.85-38.16-82.34-57.91-121.92l-2.15-4.32c-4.3-8.62-4.85-16.37-1.66-23.05,8.89-18.57,45.62-26.6,92.12-36.77,60.77-13.29,136.4-29.83,183.74-76.22,29.95-29.35,59.03-50.33,91.51-66.01,4.35-2.1,8.68-2.09,12.53.02,17.53,9.64,23.78,63.73,29.82,116.04.34,2.99.69,5.95,1.03,8.88.19,1.62.34,3.63.53,6.17,2,26.61,8.09,107.58,103.78,211.37,3.93,4.26,8.26,8.71,12.84,13.43,13.91,14.3,30.02,30.86,41.08,49.06,25.93,13.92,63.03,47.08,95.73,93.95,33.68,48.26,73.82,126.85,73.82,227.15,0,1.66-1.34,3-3,3s-3-1.34-3-3c0-98.74-39.56-176.16-72.74-223.72-28.47-40.79-60.89-71.42-85.21-87.08,10.38,21.81,12.14,45.67-6.02,70.64-28.74,39.51-86.17,101.02-161.16,155.16-56.99,41.14-142.83,91.03-228.16,95.13-1.27.06-2.51.09-3.72.09Zm351.39-334.21c-26.69,0-66.74,5.31-110.16,20.04-55.09,18.69-133.64,58.66-195.01,142.98-57.09,78.43-82.21,133.33-70.74,154.58,4.14,7.67,13.55,11.21,27.96,10.52,144.57-6.94,315.06-151.98,384.76-247.83,18.78-25.82,14.42-50.31,1.18-72.78-4.45-2.32-8.49-3.99-12.03-4.97-5.74-1.59-14.65-2.55-25.95-2.55Zm-419.35,44.97c-1.38,6.02-2.79,12.06-4.2,18.08-4.94,21.19-9.61,41.2-12.51,58.03-1.5,8.74-2.97,17.01-4.39,25.01-6.76,38.12-12.59,71.05-7.31,76.81.33.36.72.59,1.56.51,22.89-2.04,38.34-9.98,47.26-24.3,21.17-33.99.97-97.35-20.41-154.16Zm-37.41-114.27c7.36,17.45,14.32,35.15,20.68,53.13,3.82,10.8,8.44,22.76,13.32,35.43.63,1.64,1.27,3.28,1.9,4.94,9.12-42.21,15.1-81.59,3.92-94.06-2.76-3.08-6.59-4.28-11.71-3.65-9.75,1.18-19.1,2.59-28.11,4.22Z"/>
  <path d="m1350.62,1248.98c-.39,0-.79-.08-1.17-.24-30.16-12.82-48.91-31.14-54.47-53.18-29.44-1.77-54.83-10.55-63.17-23.83-14.94-23.77-2.66-52.53,33.67-78.89,33.81-24.53,84.31-42.53,96.32-28.11,7.73,9.28-2.53,27.49-30.49,54.11-23.7,22.57-35.1,48.4-31.39,71.02,12.46.41,25.82-.48,39.22-3.06,32.42-6.24,88.7-27.1,101.43-96.73,16.4-89.71,39.34-142.06,57.78-184.12,19.09-43.56,32.89-75.04,28.71-124.83-3.9-46.42-26.65-88.3-64.05-117.92-39.48-31.27-89.32-44.31-140.34-36.74-63.5,9.43-109.49,31.89-146.44,49.94-2.75,1.34-5.43,2.65-8.06,3.93-11.93,5.78-22.89,11.22-32.57,16.01-40.12,19.88-63.96,31.69-81.72,31.7-4.03,0-7.75-.61-11.28-1.87-15.26-5.47-25.67-23.19-39.53-53.98-8.11-18.01-12.9-34.97-17.54-51.38-13.44-47.53-25.04-88.59-108.89-138.4-55.72-33.1-104.42-40.51-135.46-40.9-38.36-.49-64.57,9.73-72.68,19.42-40.86,48.8-63.3,88.36-74.93,112.96-14.64,30.95-17.49,49.22-15.84,54.1.25.52.97,2.05,1.98,4.32,5.46,4.18,9.15,12.26,10.04,14.36,12.89,30.31,20,90.89-77.28,156-17.06,11.42-26.44,34.03-20.48,49.38,2.85,7.34,8.67,10.79,15.4,14.79,6.71,3.99,14.32,8.5,18.88,17.7,9.04,18.24,1.12,31.17-3.6,38.9-1.12,1.83-2.64,4.31-2.77,5.29.06.04.14.09.25.14,21.11,10.5,45.22,25.17,47.87,38.42,19.66,15.03,36.38,27.28,60.95,44.72,2.73,1.94,2.96,4.23,2.86,5.42-.45,5.11-7.76,8.92-19.74,14.59-1.72.82-3.41,1.61-4.98,2.39-40.65,20.04-67.12,28.11-82.53,25.07,1,2.56,2.16,5.24,3.48,8.06,8.38,17.95,5.83,36.78,3.38,54.98-2.54,18.78-4.93,36.52,5.94,50.08,48.58,60.6,153.69,22.43,238.15-8.24,27.73-10.07,53.93-19.59,75.25-24.54,36.65-8.52,150.29-55.08,162.24-88.96,2.77-7.86,4.43-22.03,6.19-37.03,3.71-31.64,7.91-67.5,24.61-76.54,2.7-1.46,5.52-2.57,8.36-3.49.57-1.3,1.16-2.62,1.76-3.98,10.97-24.86,29.33-66.48,22.36-75.93-.63-.85-1.86-1.93-5.31-1.53-59.49,6.92-106.23-4.3-151.44-15.16-6.35-1.53-12.73-3.06-19.17-4.55-.7,7.68-3.57,14.62-8.52,19.73-31.4,32.43-64.49,56.88-98.35,72.65-28.6,13.32-56.87,19.9-81.75,19.05-22.37-.77-40.73-7.8-50.39-19.26-9.29-11.03-11.32-29.71-5.18-47.59,9.44-27.51,35.57-47.7,71.68-55.39,68.34-14.55,119.36-7.24,166.52,3.3-.49-4.93-1.94-10.06-4.36-15.05-4.92-10.15-16.01-24.31-40.88-34.07-13.75-5.4-29.8-8.7-48.01-9.89-3.43,1.16-7.88,2.14-13.38,3.17-6.29,1.17-11.36,2.52-16.27,3.83-13.39,3.57-23.97,6.39-47.43,2.44-23.45-3.94-38.61-13.94-40.54-19.64-.55-1.64-.26-3.23.81-4.37,1.96-2.1,5.32-1.51,7.67-.89,3.15.84,6.5,1.84,10.06,2.91,14.37,4.31,32.25,9.67,50.77,7.78,17.06-1.74,32.9-2.17,47.45-1.29,2.81-1.03,3.56-1.81,3.67-2.31.07-.32.06-2.24-7.18-8.31-5.92-4.97-15-11.42-27.55-20.34-2.35-1.67-4.81-3.42-7.39-5.25-20.89-14.88-42.06-5.38-57.52,1.56-8.9,3.99-15.33,6.88-19.41,3.34-3.77-3.26-3.51-10.28.94-25.87,3.62-12.65,9.21-26.63,23.26-34.35,16.16-8.88,40.43-8.07,76.37,2.56,15.09,4.46,25.79,10,37.11,15.85,8.98,4.64,18.21,9.42,30.03,13.72-8.34-7.23-25.22-19.55-47.52-31.7-26.43-14.4-65.67-31.36-102.59-30.42-41.35,1.06-44.78,15.29-47.05,24.7-.28,1.15-.54,2.23-.85,3.25-22.46,73.04-30.29,127.45-23.27,161.71.49,2.4,1.01,4.75,1.51,7.05,3.62,16.51,6.75,30.77-3.49,42.58-21.53,24.81-45.66,20.6-55.4,14.91-.84-.49-1.61-.96-2.33-1.4-19.03-3.91-32.81-7.37-40.97-10.29-7.62-2.73-10.58-5.01-10.58-8.13,0-.3.04-.66.04-.66.02-.18.06-.35.11-.52,1.09-3.56,6.02-7.11,12.01-8.62,5.4-1.36,15.96-2.15,26.06,7.86,2.73,2.71,4.66,4.81,6.21,6.51,3.13,3.42,4.93,5.38,9.78,8.44.04.03.09.05.13.08.77.48,1.62,1,2.57,1.55,8.26,4.82,28.89,8.18,47.84-13.66,8.27-9.53,5.57-21.81,2.16-37.36-.51-2.32-1.03-4.7-1.53-7.13-7.22-35.26.66-90.67,23.42-164.68.26-.84.5-1.84.75-2.89,2.54-10.52,6.78-28.12,52.73-29.29,38.23-.98,78.53,16.39,105.6,31.14,27.9,15.2,52.89,34.13,55.77,40.27,1.02,2.18.07,3.63-.39,4.15-1.65,1.88-4.25,1.06-5.1.8-16.03-5.06-27.41-10.95-38.41-16.63-11.06-5.72-21.51-11.12-36.05-15.43-33.84-10.01-57.32-11.01-71.78-3.06-12.12,6.66-17.1,19.28-20.38,30.74-4.82,16.86-3.16,19.36-2.78,19.69,1.19,1.03,8.6-2.29,13.02-4.28,15.84-7.11,39.77-17.85,63.46-.97,2.57,1.83,5.03,3.58,7.38,5.25,28.18,20.02,38.73,27.51,37.11,34.84-.14.61-.35,1.19-.64,1.73,15.73,1.58,29.82,4.81,42.17,9.66,26.67,10.47,38.69,25.92,44.08,37.03,3.05,6.29,4.72,12.81,5.06,19.06,6.88,1.58,13.69,3.22,20.47,4.85,46.75,11.23,90.91,21.83,149.34,15.03,6.04-.7,9.22,1.75,10.83,3.93,8.32,11.27-4.76,43.5-21.47,81.39.5-.13.99-.25,1.48-.37,11.69-2.93,18.32-5.02,18.87-13.98,1.25-20.56,8.48-28.06,14.33-30.73,5.73-2.62,12.61-1.54,18.39,2.89,7.33,5.61,11.12,14.97,9.66,23.84-3.88,23.48,1.52,30.51,5.09,32.62,4.47,2.63,11.56.86,18.49-4.63,9.04-7.16,17.07-20.31,13.36-32.26-.98-3.14-4.43-7.96-8.09-13.06-8.17-11.39-18.33-25.57-14.02-37.98,2.67-7.69,10.26-13.25,23.21-16.98,15.74-4.54,24.54,9.48,33.06,23.03,3.42,5.45,6.96,11.08,10.88,15.36,16.11,17.63,22.51,34.88,19.04,51.26-7.26,34.25-55.86,55.53-79.21,65.76-3.24,1.42-6.04,2.64-8.11,3.64-62.94,30.1-92.83,6.46-96.86-1-7.33-13.58,5.18-46.77,5.71-48.18,1.03-2.71,2.35-5.88,3.87-9.42-.73.33-1.44.69-2.14,1.06-13.96,7.56-18.15,43.27-21.51,71.96-1.88,16.01-3.5,29.84-6.49,38.33-7.27,20.61-44.58,42.54-74.59,57.31-35.29,17.37-73.72,31.25-91.95,35.49-20.97,4.88-47,14.33-74.56,24.34-52.26,18.98-112.28,40.77-162.86,40.78-32.9,0-61.81-9.21-82.01-34.42-12.47-15.56-9.91-34.54-7.2-54.63,2.34-17.35,4.76-35.29-2.87-51.64-2.24-4.81-4.05-9.24-5.45-13.38-3.62-2.2-6.3-5.47-8.14-9.92-2.54-6.13-4.66-28.18,8.66-35.28-.02-2.52-.34-4.96-.95-7.35-.71-2.79-2.93-7.41-4.9-11.48-4.06-8.41-5.91-12.25-3.29-14.59.3-.27.63-.48.97-.63-7.2-6.22-8.47-15.51-8.43-24,.05-9.81,2.78-16.04,8.14-18.51,2.29-1.06,4.88-1.33,7.68-.98-1.45-.86-2.39-2.02-2.8-3.45-.89-3.11,1.02-6.23,3.44-10.18,4.6-7.53,10.91-17.83,3.34-33.11-3.77-7.61-9.98-11.3-16.56-15.21-7.05-4.19-14.34-8.52-17.93-17.78-6.9-17.78,3.51-43.67,22.74-56.54,58.79-39.35,78.16-76.59,81.42-105.94-.85.35-2.07.55-3.67.13-6.43-1.71-16.11-12.81-21.39-22.11-3.8-6.69-8.1-14.27-6.18-23.79,1.23-6.09,5.61-15.29,12.71-16.13-5.35-16.48,20.46-87.46,91.88-172.76,20.5-24.49,115.26-39.56,215.81,20.17,85.91,51.03,98.39,95.18,111.6,141.92,4.58,16.19,9.31,32.94,17.24,50.55,13.18,29.29,22.84,46.06,36.08,50.8,16.64,5.96,40.59-5.91,88.31-29.55,9.68-4.8,20.66-10.24,32.61-16.03,2.62-1.27,5.3-2.58,8.04-3.92,37.33-18.23,83.78-40.92,148.2-50.48,26.64-3.96,53.06-2.45,78.51,4.48,24.4,6.64,46.75,17.91,66.43,33.49,38.71,30.66,62.26,74.03,66.3,122.12,4.31,51.31-9.74,83.37-29.19,127.74-18.31,41.78-41.1,93.77-57.37,182.79-5.35,29.26-18.72,53.18-39.75,71.08-17.55,14.94-40.52,25.47-66.44,30.46-12.89,2.48-26.24,3.47-39,3.14,5.65,19.39,22.99,35.69,50.53,47.39,1.53.65,2.24,2.41,1.59,3.93-.49,1.14-1.59,1.83-2.76,1.83Zm-3.53-183.44c-17.08,0-50.49,12.13-78.09,32.16-15.83,11.48-50.64,41.37-32.12,70.84,6.66,10.59,29.06,19.09,56.91,21.01-3.42-24.29,8.65-51.5,33.37-75.05,35.33-33.64,31.91-43.66,30.02-45.93-1.71-2.05-5.25-3.03-10.09-3.03Zm-824.97-13.03c.2.09.41.17.61.25,12.8,4.83,39.53-2.94,81.7-23.73,1.6-.79,3.31-1.6,5.07-2.43,4.9-2.31,14.9-7.04,16.23-9.5-.06-.05-.14-.12-.25-.2-23.44-16.63-39.75-28.56-58.26-42.66-1.62,3.4-5.1,6.01-10.25,7.77,16.21,2.47,47.01,23.7,55.75,31.13,2.25,1.91,1.74,3.83,1.42,4.57-1.48,3.39-5.06,3.2-29.31.3-19.79-2.37-48.93-5.85-61.32-2.38-.32,3.3-1.04,6.75-2.17,10.42-2.47,8.02-2.31,16.24.79,26.46Zm-5.45-32.24c-4.19,6-4.04,16.19-2.84,21.72-.61-6.25,0-11.99,1.77-17.71.42-1.37.78-2.71,1.08-4.01Zm22.32-12.12c13.95,0,31.38,2.09,46.54,3.9,6.63.79,13.82,1.65,18.71,2.01-14.75-11.17-42.02-27.42-50.96-26.23-2.41.32-4.61.63-6.63.92-14.7,2.07-20.76,2.92-31.38-2.82.64,1.38,1.34,2.84,1.96,4.12,2.19,4.54,4.45,9.23,5.31,12.61.57,2.24.92,4.49,1.07,6.78,4.22-.92,9.49-1.29,15.38-1.29Zm517.55-69.42c-2.45,5.6-4.54,10.47-6.01,14.32-4.7,12.32-10.49,34.94-6.04,43.19.86,1.6,7.58,8.68,22.49,11.52,12.77,2.43,34.67,2.14,66.5-13.08,2.16-1.03,5-2.28,8.29-3.72,22.44-9.83,69.13-30.28,75.75-61.51,3.05-14.38-2.87-29.85-17.6-45.97-4.28-4.69-7.96-10.55-11.53-16.22-9.29-14.77-15.7-23.52-26.32-20.46-10.79,3.11-17.25,7.54-19.21,13.18-3.29,9.47,5.87,22.25,13.23,32.51,4.12,5.75,7.68,10.71,8.94,14.78,4.55,14.65-4.77,30.36-15.36,38.75-9.06,7.17-18.5,9.08-25.26,5.1-5.98-3.52-12.21-13.11-7.97-38.77,1.11-6.71-1.79-13.81-7.38-18.09-4.05-3.1-8.52-3.9-12.26-2.19-6.15,2.81-9.99,11.91-10.83,25.64-.84,13.78-12.31,16.65-23.4,19.43-2,.5-4.03,1.01-6.04,1.58Zm-541.74,1.03c-1.13,0-2.16.19-3.06.61-3.8,1.76-4.63,8.09-4.65,13.09-.07,14.53,4.22,24.37,25.36,25.13,20.24.74,28.63-3.73,29.66-7.77.04-.14.06-.28.09-.43-2.7-2.07-5.46-4.19-8.3-6.39-.82-.63-2-1.63-3.49-2.89-6.59-5.56-25.3-21.35-35.6-21.35Zm287.79-120.07c-22.36,0-46.57,2.27-73.49,8-34,7.24-58.51,26-67.25,51.47-5.38,15.69-3.74,32.48,4.1,41.78,8.57,10.17,25.33,16.41,46.01,17.13,53.67,1.85,119.3-31.74,175.58-89.88,4.16-4.3,6.49-10.25,6.94-16.9-28.29-6.36-57.94-11.61-91.89-11.61Zm-276.09,52.97c2.07,1.43,9.36,4.7,34.93,10.36-.45-.48-.9-.98-1.38-1.5-1.59-1.73-3.39-3.69-6.01-6.3-7.89-7.82-15.98-7.35-20.1-6.37-3.82.91-6.35,2.67-7.43,3.82Zm165.38-115.82c4.68,3.77,15.49,9.83,33.16,12.8,22.18,3.73,32.2,1.06,44.89-2.32,1.87-.5,3.83-1.02,5.92-1.55-7.21.24-14.69.75-22.44,1.54-19.7,2.01-38.22-3.54-53.1-8-2.96-.89-5.79-1.74-8.44-2.47Zm-118.85-121.07c-.07,0-.14,0-.2,0-3.2.24-6.6,6.18-7.64,11.36-1.48,7.32,2.08,13.58,5.51,19.64,5.65,9.96,13.78,17.65,17.06,19.08,1.15-14.9-8.15-38.63-12.88-49.56-.64-.34-1.26-.53-1.85-.53Z"/>
  <path d="m1203.44,1224.43c-.27,0-.55-.04-.82-.12-1.59-.45-2.52-2.11-2.07-3.71.29-1.01.58-2.02.88-3.03,2.92-10.01,5.67-19.47.33-27.22-8.18-11.87-34.98-19.47-81.92-23.24-25.25-2.03-33.52-13.73-36-23.18-7.62-28.99,27.45-74.76,89.36-116.62,26.01-17.58,49.11-45.86,63.39-77.59,14.4-32,17.63-63.03,8.85-85.14-12.44-31.34-47.07-43.33-100.15-34.68-52.33,8.53-81.55,5.4-89.35-9.55-4.89-9.38,2.79-24.62,10.09-35.74,16.12-24.55,45.26-52.18,76.05-72.09,26.98-17.45,68.19-37.61,111.2-34.54,64.71,4.62,90.33,20.3,124.63,76.27,15.07,24.59,26.27,51.19,37.11,76.9,14.95,35.51,29.08,69.04,51.03,90.59,24.18,23.74,55.35,30.28,98.1,20.6,1.62-.37,3.22.65,3.59,2.26.37,1.62-.65,3.22-2.26,3.59-44.93,10.18-77.86,3.13-103.63-22.17-22.8-22.39-37.16-56.47-52.35-92.54-10.75-25.51-21.86-51.89-36.69-76.1-33.41-54.51-56.95-68.92-119.94-73.42-70.78-5.06-151.07,57.11-181.8,103.94-8.82,13.43-12.47,24.52-9.79,29.68,3.58,6.86,19.13,16.83,83.06,6.41,29.13-4.75,53.23-3.42,71.62,3.93,16.87,6.75,28.67,18.34,35.07,34.46,9.38,23.61,6.11,56.35-8.95,89.82-14.72,32.71-38.6,61.91-65.5,80.1-67.96,45.95-92.63,88.42-86.92,110.12,3.61,13.73,18.68,17.76,30.68,18.73,50.21,4.03,76.86,11.99,86.38,25.81,6.96,10.1,3.67,21.39.49,32.31-.29,1-.58,2-.87,2.99-.37,1.32-1.58,2.18-2.88,2.18Z"/>
  <path d="m1601.16,745.11c-5.44,0-10.76-.58-15.96-1.74-30.05-6.7-42.76-31.25-57.47-59.68-13.77-26.62-29.38-56.79-63.11-77.33-36.91-22.47-80.95-34.87-138.6-39.01l-2.82-.2c-51.1-3.67-88.01-6.33-138.46-12.89-164.65-21.4-223.12-105.92-270.1-173.83-27.75-40.12-51.73-74.76-91.43-86.17-29.68-8.53-56.39-8.19-79.37,1.02-26.72,10.7-49.14,33.26-64.84,65.22-15.76,32.11-23.97,72.1-23.73,115.64,0,1.66-1.33,3.01-2.98,3.02h-.02c-1.65,0-2.99-1.33-3-2.98-.24-44.46,8.18-85.38,24.35-118.31,16.36-33.32,39.87-56.88,67.99-68.15,24.25-9.71,52.26-10.12,83.26-1.21,41.76,12,66.3,47.46,94.71,88.53,46.31,66.93,103.94,150.23,265.94,171.29,50.28,6.54,87.12,9.19,138.12,12.85l2.82.2c58.64,4.22,103.54,16.89,141.29,39.87,35.17,21.41,51.19,52.37,65.32,79.69,14.02,27.09,26.12,50.49,53.44,56.58,14.12,3.15,29.39,1.62,45.38-4.55,1.55-.6,3.28.17,3.88,1.72.6,1.55-.17,3.28-1.72,3.88-11.3,4.36-22.31,6.54-32.88,6.54Z"/>
  <path d="m1482.27,617.57c-1.43,0-2.69-1.02-2.95-2.48-4.77-27.07-19.59-90.03-61.21-158.63-15.4,2.81-31.39,6.53-48.02,10.41-42.36,9.88-90.38,21.07-141.91,19.03-59.13-2.34-114.18-21.73-168.29-59.28-19.62-13.61-39.3-31.24-60.13-49.91-60.73-54.41-129.56-116.07-223.3-99.09-1.84.33-2.85-.44-3.37-1.15-.68-.92-.77-2.18-.25-3.19.49-.95,1.17-2.25,23.52-9,12.1-3.65,31.93-9.17,57.72-14.73,43.65-9.41,111.08-20.3,184.53-18.65,83.59,1.87,153.5,19.88,213.71,55.07,80.49,47.05,133.7,107.17,168.75,163.85,38.78-6.71,74.08-7.23,107.07,10.65,1.46.79,2,2.61,1.21,4.07-.79,1.46-2.61,2-4.07,1.21-30.74-16.65-64.11-16.51-100.84-10.4,41.24,68.71,56,131.53,60.79,158.69.29,1.63-.8,3.19-2.43,3.48-.18.03-.35.05-.52.05Zm-674.18-348.84c80.14,0,141.11,54.63,195.67,103.51,20.69,18.54,40.23,36.05,59.55,49.45,119.24,82.74,218.15,59.68,305.42,39.34,15.88-3.7,31.2-7.27,46-10.05-34.62-55.38-86.87-113.9-165.43-159.81-59.31-34.66-128.27-52.41-210.82-54.26-101.65-2.27-194.01,19.41-236.67,31.94,2.11-.07,4.21-.11,6.29-.11Z"/>
</svg>