<?xml version="1.0" encoding="UTF-8"?>
<svg id="Layer_1" data-name="Layer 1" xmlns="http://www.w3.org/2000/svg" viewBox="0 0 4527.2 2343.49">
  <defs>
    <style>
      .cls-1 {
        fill: none;
        stroke: #1d1d1b;
        stroke-linecap: round;
        stroke-linejoin: round;
        stroke-width: 12px;
      }
    </style>
  </defs>
  <path class="cls-1" d="m4521.2,461.95c-61.61,45.66-180.57,119.34-344.93,138.8-61.53,7.28-113.41,3.86-156.77-.09-177.88-16.21-313.56-106.08-426.84-179.47-168.21-108.99-347-.27-348.27,128.27-1.64,166.26,206.19,162.35,161.87-41.99-28.37-130.79-442.89-467.74-1142.65-329.82-321,63.26-449.8,220.9-461.71,373.18-11.2,143.14,180.49,296.12,359.55,305.26,94.85,4.84,165.94-31.8,203.09-51.54,165.48-87.93,341.52-309.77,266.85-460.8-63.32-128.08-286.53-163.94-443.25-99.39-133.2,54.87-262.4,200.4-230.67,316.23,6.98,25.47,30.65,82.07,189.96,149.08,237.26,99.8,617.86,156.46,678.44,27.11,58.04-123.94-208.55-352.73-239.72-379.48-55.19-47.36-352.52-302.54-538.23-203.29-208.17,111.26-225.45,640.8,4.52,763.48,174.23,92.94,510.69-36.83,538.23-239.43,19.36-142.4-117.38-295.25-266.85-338.82-226.07-65.9-485.05,117.03-479.43,239.43,2.07,45.04,39.66,75.27,99.5,121.98,82.68,64.53,271.3,211.74,502.4,153.35,130.31-32.93,321.98-142.43,334.23-312.47,13.59-188.55-153.58-362.05-391.42-402.49-237.85-40.44-490.88,96.03-608.89,222.12-89.04,95.13-152.35,252.17-159.81,380.77-10.7,184.42,72.02,309.93,110.39,394.88,240.65,532.92-192.65,1153.54-264.75,1072.94-72.86-81.43,663.23,7.68,845.43,10.71,20.97.35,38.39-16.52,38.75-37.46,1.54-88.78,22.27-184.06,71.59-245.69,79.23-98.98-10.18-196.01-29.61-188.4-6.03,2.36-5.33,14.77,9.22,40.31,61.45,107.9,346.23,140.03,462.99,71.63s7.06-187.28,75.12-200.51c33.16-6.45,50.4-22.99,57.43-40.61,6.69-16.77,2.25-36.47-5.03-48.7-22.6-38.01-89.63-43.84-105.86-22.19-5.37,7.15-6.5,19.07-1.41,23.72,14.16,12.93,64.72-40.87,108.67-43.06,4.48-.22,19.32-.73,26.95-10.41,2.04-2.59,3.39-6,3.81-10.62,2.06-22.82-32.17-55.04-27.97-99.57,4.2-44.53,74.63-50.33,86.9-73.99s-111.5-1.49-92.42,24.33c19.08,25.82,136.25,29.04,160.61-27.24,30.71-70.93-185.73-280.75-150.59-435.62,26.26-115.79,9.47-284.2-56.53-441.99-55.66-133.06-182.73-262.27-257.1-310.3-300.63-194.15-709.68-214.14-1005.39,140.29-87.41,104.77-159.54,264.07-167.35,398.73-11.2,193.11,75.86,324.35,115.6,413.5,161.95,363.35,58.21,696.95-61.93,886.8-76.96,121.6-212.17,176.61-314.79,183.74-155.25,10.78-318.29-.66-374.28-145.15-67.95-175.36,230.33-234.18,186.47-15.15-43.86,219.03-311.92,406.43-512.8,299.9-200.44-106.29-354.24-181.96-546.53-90.98"/>
</svg>