<?xml version="1.0" encoding="UTF-8"?>
<svg id="Layer_1" data-name="Layer 1" xmlns="http://www.w3.org/2000/svg" viewBox="0 0 2866.44 1340.08">
  <defs>
    <style>
      .cls-1 {
        fill-rule: evenodd;
      }
    </style>
  </defs>
  <path class="cls-1" d="m484.6,1316.45l499.84,13.33,64.47-75.27-273.28-11.24c-1.59,1.05-3.02,1.91-4.2,2.55-20.69,11.13-41.96,9.32-60.12-5.93-1.17-.98-1.57-2.53-1.02-3.96.56-1.43,1.9-2.31,3.42-2.24l59.78,2.46c7.66-5.45,18.7-14.91,19.03-20.32,1.22-37.3,1.33-74.65.15-111.95-1.12-35.1-3.25-70.21-6.11-105.21-5.28-64.53-12.9-129.57-23.8-193.4-5.99-35.14-15.34-90.33-30.27-122.52-6.5-12.82-90.63-98.1-105.09-102.13.03.32.08.63.12.81,4.49,24.62,32.1,180.09,12.46,202.87-21.43,24.86-1.22,64.82-23.43,96.42-25.79,36.69-45.73,77.15-62.91,118.47-9.13,21.95-17.19,44.89-26.04,67.17,26.15,14.33,54.28,30.43,60.26,33.76,2.08,1.16,6.46,3.61,12.3,6.85,21.48-9.68,41.79-32.77,64.57-15.03,8.02,6.24,21.12,13.11,26.73,21.39,6.92,10.23,11.58,29.22,7.79,41.86,5.99,1.55,10.88,3.15,12.49,4.56,8.78,7.65,12.17,17.24,9.18,26.16.12-.05.23-.1.33-.15,4.37-7.46,21.72,11.39,24.68,14.28,3.3,3.22,16.5,15.91,16.96,20.32,1.36,12.96-27.78-4.7-30.57-6.34-4.08-2.4-20.58-11.68-22.37-19.21-3.4.5-7.11.94-11.01,1.33.69.34,1.36.69,2,1.04,8.59,4.79,8.92,18.66-1.6,23.62-1.13.53-2.4,1.06-3.79,1.57.31.1.62.21.92.32,4.49,1.58,5.62,9.52,4.65,13.52-2.45,10.13-14.65,15.18-23.6,17.69-.53.15-1.06.3-1.59.44.42.18.81.36,1.21.55,12.4,5.97-11.58,23.17-17,25.58-10.84,4.8-28.64,3.66-40.65,4.54-22.52,1.64-47.23,6.79-69.52,1.97-16.78-3.63-11.12-15.92-16.14-24.34-5.95-10.01-17.54-15.03-20.42-28.32-2.01-9.24,4.47-12.6,3.47-20.09-1.33-9.91-9.79-20.85-10.76-31.5-1.69-18.42,18.75-15.6,19.08-35.49.05-2.83-1.65-5.48-4.41-7.98-12.17,16.23-24.58,41.18-28.03,48.72-5.22,11.41-9.95,23.23-13.72,35.2-7.68,24.42,23.72,40,20.01,47.69-1.03,2.13-3.25,2.61-5.39,2.52-54.41-2.26-247.98-25.96-248.11-97.51-.1-54.61,28.23-89.1,53.4-134.78,45.06-81.77,92.53-167.28,128.63-253.3,20.82-49.6,36.17-100.38,51.63-151.78,6.17-20.52,20.81-74.35,36.05-88.87,13.91-13.25,31.09-20.08,49.9-23.67-.22-.06-.45-.12-.67-.18-3.16-.84-10.5-1.91-10.32-6.29.09-2.28,1.86-3.41,3.81-3.96,25.39-7.19,72.28-22.86,87.54-45.34,48.48-71.38,62.29-187.15,90.64-269.81,18.71-54.57,50.43-105.42,92.44-145.09,19.98-18.87,60.03-50.06,88.71-52.06,62.78-4.37,94.11,9.64,132.94,52.55-.42-.74-.85-1.47-1.29-2.19-6.63-10.99-15.15-20.18-25.13-28.18-3.31-2.65-15.74-9.84-14.25-14.61.71-2.26,2.85-2.96,4.97-3.13,50.11-3.97,100.21,23.79,140.24,51.08,32.41,22.09,74.53,64.35,83.08,103.91,6.62,30.62,10.3,94.29-1.58,122.84-.53,1.27-1.56,2.24-2.95,2.5-6.51,1.26-11.96-22.12-13.23-26.15-1.66-5.26-3.29-10.52-4.93-15.78-2.21,19.04-5.8,37.92-9.77,56.66-2.17,10.25-6.2,24.74-6.92,34.94-2.96,42.08-10.19,82.86-9.54,125.39.55,35.73,10.1,73.4,8.55,107.95-.93,20.85-14.15,85.09-37.37,120.43,9,6.19,18.56,13.18,20.52,16.71,35.15,63.28-38.24,417.7-57.28,506.22,23.2,6.66,221.46,7.33,258.91,2.04-19.39-12.83-37.38-28.52-53.8-44.62-26.86-26.36-50.85-55.33-74.3-84.69-2.89-3.63-17.5-22.5-27.51-34.02-3.29,43.91-7.41,87.77-9.75,131.92-.13,2.43-.6,5.53-3.71,5.81-6.4.57-7.55-22.12-7.99-25.8-2.01-16.75-3.32-33.76-3.96-50.62-.54-14.42-3.04-70.26,13.76-76.84,1.46-.57,3.4-.05,5.65,1.25,3-42.77,4.94-85.61,3.38-128.84-1.48-41.35-1.73-82.56-.28-123.91.97-27.92,2.84-55.82,3.67-83.74,1.15-38.86-.93-75.7-5.86-114.29-.39-3.05-.74-7.67,2.82-9.06,13.2-5.16,46.24,85.86,49.44,95.13,4.66,13.51,8.89,27.29,12.18,41.21,10.18,43.04,11.26,78.44,43.86,112.74,28.34,29.82,50.97,75.4,72.25,110.93,10.51,17.56,21.59,34.99,34.18,51.14,2.7,3.46,12.6,10.77,16.32,13.83,10.09,8.33,19.99,16.96,29.11,26.36,2.64,2.72,5.22,5.51,7.69,8.38,10.83,12.55,17.62,26.2,24.04,41.21,3.81,8.38,61.24,3.9,73.46,4.52,8.4.42,16.81.79,25.22,1.15,26.48,1.12,53.1,1.89,79.54,3.71,6.78.46,38.29,1.45,41.29,9.04.21.53.34,1.06.39,1.59,7.9-.61,14.93,0,19.82,2.04,47.57,19.95,113.62-4.99,162.71,17.12,22.48,10.13,44.72,20.66,67.05,31.11,6.14,2.87,13.17,4.14,19.29,7.28,20.34,10.43,32.78,23.47,50.58,36.23,6.45,4.63,18.85,10.81,23.57,16.4,2.8,3.34,4.38,7.77,3.35,12.11-2.77,11.67-18.38,10.83-27.3,8.79-1.59-.36-3.4-1.02-5.4-1.91-6.22,6.75-27.71,5.71-35.71,1.73-7.68-3.82-16.03-10.9-23.34-16.64,4.29,8.19,5.72,14.71,1.46,17.11-23.97,13.53-74.03-33.63-97.99-42.69-19.18-7.25-49-18.57-71.24-21.73,3.78,2.22,8.09,4.43,9.68,5.22,5.42,2.68,11.65,4.32,17.26,6.75,17.22,7.45,22.99,24.67,14.13,41.35-5.48,10.32-24.16,4.95-33.16,3.83-7.96-.98-15.91-2.09-23.83-3.35-5.22-.83-8.19-5.18-12.33-6.21-8.61-2.13-32.57-1.71-41.57.93l-56.74,9.65c-16.34,6.81-36.3,13.52-48.39,18.45l501.12,33.93,270.65-547.03c.61-1.22,1.77-1.95,3.14-1.96l222.07-.65c1.25,0,2.31.59,2.98,1.63.67,1.05.74,2.27.21,3.39l-258.81,544.61c-.47.98-1.27,1.64-2.32,1.9l-103.83,25.96,585.94.24v7.03l-613.98-.26-120.66,30.17c-.37.09-.7.12-1.08.1l-594.05-38.06c-.97-.07-1.78-.46-2.42-1.19-.64-.73-.93-1.59-.86-2.56l2.26-33.06c.14-1.93,1.82-3.4,3.75-3.27l601.94,40.81,110.22.05,129.45-32.37,255.7-538.07-214.31.62-270.73,547.19c-.65,1.3-1.94,2.04-3.38,1.95l-514.98-34.87c-1.7-.11-3.2-1.01-3.71-2.73-1.56-5.28,12-9.22,15.21-10.51,4.7-1.88,9.43-3.72,14.15-5.54l-115.39,19.62c-.27.04-.51.06-.79.04-26.03-1.49-53.56-10.89-79.56-15.48-19.21-3.39-52.01-1.54-68.13-10.79-1.47-.84-2.92-1.7-4.37-2.58-.73.2-1.47.4-2.21.61-11.7,3.3-36.73,3.4-49.21,3.78-28.23.86-56.54,1.01-84.78.85-31.15-.17-62.49-.65-93.6-2.19-4.75-.24-46.98-.08-44.94-9.55,17.59-81.55,92.37-442.74,58.52-503.69-1.19-2.13-10-8.49-18.47-14.34-12.1,15.79-26.64,23.43-43.33,14.05-12.38-6.96-25.17-40.09-35.82-71.98-4.59,11.8-10.47,31.33-15.35,36.7-4.57,5.04-8.02,9.45-11.3,13.49,4.88,33.92,7.39,70.07,9.99,103.77,4.75,61.56,8.11,123.38,9.85,185.1,1.51,53.45,1.93,107.41-.65,160.83-1.77,36.67-36.73,46.98-37.54,73.08-.63,20.22-98.02,12.67-111.08,12.17-25.09-.96-50.5-2.4-75.59-2.27-2.81.01-5.56-.67-7.59-2.71-9.14-9.19,11.52-55.34,15.27-66.16,14.65-42.27,24.54-84.5,23.87-129.55-.55-36.78-3.69-73.65-7.75-110.19-5.29-47.72-12.36-95.18-18.41-142.8-4.78-37.63-9.94-78.72-8.68-116.63.09-2.73.51-6.03,3.35-7.3,5.21-2.35,25.16,16.49,30.04,19.94,24.57,17.37,52.85,28.59,81.95,35.76,17.2,4.23,45.66,12.06,62.27,3.49,11.7-6.04,17.68-11.79,23.3-18.48-.42-2.85-.86-5.68-1.32-8.49-4.26-26.07-20.92-104-13.19-127.63.52-1.61,1.48-3,2.91-3.94,12.87-8.44,29.89,23.48,33.17,31.67,3.32,8.3,8.58,25.47,14.8,44.57,3.6-2.12,7.7-.85,12.48,6.14,13.88,20.25,33.01,36.7,52.8,50.97,1.97,1.42,5.64,3.86,9.92,6.75,21.73-32.47,35.04-94.38,36.05-116.86,1.54-34.18-8.01-72-8.56-107.52-.66-42.78,6.58-83.69,9.56-125.99.74-10.62,4.8-25.25,7.05-35.9,4.01-18.92,7.63-37.99,9.8-57.22.51-4.51,1.03-9.72,1.41-15.34-2.84-8.96-5.73-17.91-8.78-26.81-6.38-18.65-13.71-39.16-23.15-56.47-.71-1.29-.56-2.79.37-3.92.94-1.13,2.38-1.56,3.78-1.12,5.86,1.86,11.13,4.84,15.67,8.99,19.23,17.55,20.94,52.09,19.13,79.56,5.33,17.24,11.61,37.23,15.34,47.08,8.35-29.6,4.69-85.06-1.1-111.9-8.13-37.61-49.4-78.62-80.17-99.59-36.94-25.17-83.49-51.45-130.24-50.13,3.9,2.97,9.05,6.62,10.95,8.25,10.37,8.85,19.08,19.13,25.63,31.12,3.38,6.18,6.05,12.54,8.08,19.02,14.9,16.5,29.71,30.11,52.18,38.64,50.51,19.18,72.49,47.05,72.81,102.98.09,15.37,7.32,29.65,5.95,46.2-1.19,14.31-19.24,30.05-21.48,42.8-4.86,27.53,7.02,43.22,8.11,67.69,1.69,37.71-27.64,21.65-36.72,32.68-3.01,3.66-.82,15.78-1.07,20.87-.58,11.61-14.83,8.81-17.6,16.16-.26,4.78,7.61,15.1,6.13,23.53-1.1,6.3-6.01,7.82-7.21,10.5-1.51,27.42-.84,56.47-34.16,62.4-11.14,1.98-22.6,1.77-33.85,1.04-67.71-4.39-127.97-64.87-148.05-127.09-.99-3.06-1.89-6.14-2.72-9.24-.96,5.58-1.82,11.15-2.6,16.67-5.53,39.1-6.5,86.29-17.2,123.58-11.68,40.7-37.75,97.86-79.93,115.58-5.31,2.23-10.89,3.54-16.64,3.89-37.86,2.29-80.67-40.01-106.68-63.81-13.44-12.3-26.99-24.79-41.44-35.9-17.61-13.55-37.52-23.41-58.57-30.39-.91-.3-1.82-.59-2.72-.88-23.91,2.61-45.66,8.74-61.67,23.99-13.65,13.01-28.59,67.25-34.17,85.81-15.54,51.65-30.97,102.65-51.88,152.48-36.2,86.25-83.77,171.97-128.96,253.97-24.31,44.11-52.62,78.72-52.53,131.38.09,49.98,122.85,75.45,158.8,81.58,25.67,4.39,51.86,7.4,78.31,8.69-3.4-3.88-8.68-9.39-10.58-12.08-6.93-9.85-10.51-21.12-6.77-33,4.95-15.75,23.35-60.96,42.57-86.08-10.91-6.7-27.43-12.37-33.74-17.94-6.01-5.3,9.14-9.47,12.1-11.01,7.03-3.66,13.41-8.81,16.76-16.17.09-.19.17-.38.26-.57-1.94-1.35-3.87-2.7-5.79-4.07-10.49-7.48-20.6-15.61-31.11-22.96-8.94-6.26-1.27-19.59,6.21-19.67,3.23-.03,21.25,9.24,41.77,20.38,8.74-22.06,16.73-44.77,25.75-66.49,17.38-41.8,37.57-82.69,63.66-119.81,20.98-29.84.05-69.34,23.86-96.96,4.6-5.34,5.16-31.33,5.16-37.71-.05-51.12-10.06-109.19-19.21-159.29-.52-2.85-.45-6.15,2.07-8.08,11-8.42,57.47,40.96,64.52,48.06,8.62,8.68,47.29,47.61,51.68,57.09,15.27,32.92,24.7,88.42,30.83,124.31,10.93,64.04,18.57,129.28,23.87,194.02,2.88,35.12,5.01,70.34,6.14,105.57,1.19,37.45,1.07,74.95-.15,112.4-.21,6.26-7.49,14.24-15,20.54l271.9,11.18c1.38.05,2.53.84,3.08,2.11.55,1.27.34,2.65-.56,3.69l-70.27,82.05c-.71.84-1.67,1.26-2.76,1.23l-516.65-13.78c-1.66-.04-3.02-1.19-3.35-2.81-.33-1.62.48-3.21,1.98-3.9l51.39-23.57-519.3-.24v-7.03l535.4.25c1.67,0,3.08,1.13,3.43,2.77.36,1.63-.45,3.25-1.97,3.94l-52.26,23.97h0Zm276.89-73.76l-35.64-1.47c11.3,5.77,23.41,6.21,35.64,1.47h0Zm-236.4-170.09c-1.95,4.78-3.94,9.51-5.99,14.2,13.92,9.48,28.23,18.31,43.01,26.45,1.61.88,3.43,1.61,5.41,2.24,8.24-1.12,16.39-2.79,24.05-5.27-2.38-1.32-4.76-2.65-7.13-3.97-7.14-3.97-34.36-19.74-59.35-33.65h0Zm-8.91,20.72c-6.44,13.7-15.4,16.29-26.16,21.47,7.97,4.87,20.22,8.95,29.48,14.64,6.35-7.12,12.67-11.64,18.54-11.78,5.24-.13,10.66-.36,16.14-.77-13-7.33-25.64-15.2-37.99-23.56h0Zm9.14,40.32c4.26,3.72,7.02,8.15,6.92,13.71-.39,23.01-20.3,21.8-19.12,34.72.87,9.54,9.35,20.96,10.73,31.21,1.2,8.93-4.87,13.53-3.57,19.54,2.19,10.1,14.45,17.56,19.6,26.21,4.78,8.04.43,18.66,11.58,21.07,21.16,4.57,46.03-.55,67.52-2.11,10.57-.77,28.99.17,38.31-3.96,2.88-1.27,13.76-9.44,15.86-13.25-3.09-1.35-7.08-2.46-11.46-3.36-9.25,1.62-18.76,2.65-27.68,3.43-5.89.52-68.31,6.68-64.56-6.87,2.92-10.51,49.55-7.94,57.85-7.5,8.91.48,22.68,1.47,34.44,3.78,4.76-.86,9.43-1.9,13.88-3.14,5.86-1.64,16.1-5.31,18.42-11.76.65-1.81.62-5.07.09-6.06-3.49-1.22-7.1-2.33-10.79-3.32-16,3.96-36.84,6.83-47.96,7.29-16.16.68-33.39-1.15-49.16-4.78-4.57-1.06-25.74-5.34-24.24-12.83,2.52-12.53,73.66-4.88,82.76-3.79,12.54,1.5,25.98,3.58,38.66,6.85,5.22-1.35,9.74-2.8,12.94-4.31,5.19-2.44,5.03-8.73,1.17-11.11-3.99-2.23-9.44-4.14-15.74-5.84-17.54,1.08-34.43,1.35-38.83,1.28-12.01-.2-24.18-.92-36.06-2.72-11.61-1.76-23.57-5.94-33.87-11.56-3.07-1.68-19.36-10.54-11.91-15.62,3.54-2.41,44.32,8.26,50.02,9.37,17.82,3.44,49.05,6.33,71.59,12.24,11.2-.63,22.3-1.51,29.88-2.65,4.49-8.23,2.16-16.11-5.43-22.72-3.7-2.68-34.58-8.43-40.36-9.57-7.4-1.46-37.93-6.74-43.22-10.3-7.36-4.95-14.89-9.67-22.5-14.22-7.8-4.66-22.45-5.31-33.86-8.38-9.78,1.27-19.64,1.82-29.01,2.05-3.71.09-8.2,3.6-12.89,8.96h0Zm107.74,120.24c-2.25-.16-4.31-.28-6.12-.37-6.01-.32-33.69-1.06-45.84,1.21,13.46,1.65,44.48-.21,51.96-.84h0Zm33.79-31.6c-7.74-1.44-15.51-2.53-22.93-3.42-9.43-1.13-57.69-5.03-72.35-1.79,13.2,6.62,53.07,9.61,63.53,9.18,7.37-.31,19.71-1.8,31.76-3.98h0Zm-14.26-30.63c-16.08-2.55-32.31-4.49-42.8-6.52-5.72-1.1-25.34-6.22-37.25-8.67,10.25,6.05,28.67,11.61,35.4,12.63,11.57,1.76,23.44,2.46,35.12,2.65,2.03.03,5.36,0,9.54-.08h0Zm-45.03-80.59c26.63,14.7,70.59,38.47,83.29,42.13.52.12,1.04.24,1.56.36,3.4-10.43-1.03-27.77-6.78-36.27-4.65-6.88-18.28-14.38-25.22-19.78-4.18-3.25-8.79-5.44-14.18-5.18-9.56.46-26.15,12-38.66,18.76h0Zm-7.82,3.71c-4.54,1.79-9.3,3.26-14.17,4.47,7.12,1.26,14.09,2.73,19.11,5.73,7.72,4.62,15.35,9.4,22.81,14.42,2.97,1.92,21.18,5.52,32.52,7.69-.85-.46-1.53-.82-1.96-1.04-19.62-9.96-39.03-20.57-58.32-31.27h0Zm-18.09-593.63c40.5-4.09,85.91,1.86,121.58-10.02,42.26-14.08,70.66-66.51,87.38-104.66,16.37-37.31,31.9-75,47.91-112.47,24.88-58.24,94.62-232.81,164.12-246.4,1.88-.86,4-1.21,5.76.22,5.13,4.19-5.28,20.63-7.45,24.67-8.66,16.11-17.58,32.03-26.02,48.27-24.29,46.75-46.12,96.54-58.23,147.94-7.23,30.71-11.15,63.11-8.32,94.75,2.66-9.42,5.83-18.66,9.66-27.53,16.44-38.05,41.62-66.88,72.3-94.04,13.92-12.31,46.94-37.06,53.96-53.49,15.03-35.12,25.79-77.18,14.68-114.53-2.77-3.09-5.55-6.28-8.39-9.55-40.07-46.21-69.2-60.95-132.79-56.53-26.64,1.86-65.85,32.66-84.38,50.16-41.18,38.89-72.28,88.77-90.62,142.27-28.76,83.87-42.09,198.76-91.47,271.47-14.94,21.99-55.18,37.23-83.26,45.76,4.2,1.21,9.22,2.53,13.58,3.7h0Zm329.27-138.83c1.49,8.19,3.49,16.3,6.06,24.27,19.18,59.44,77.02,118.04,141.81,122.23,10.65.69,21.61.93,32.16-.94,28.88-5.14,27.08-32.34,28.38-55.86.28-5.04,6.61-7.35,7.31-11.34,1.08-6.17-8.03-18.63-5.88-24.44,3.98-10.74,16.99-9.16,17.25-14.4.39-7.96-2.78-18.37,2.67-24.99,12.54-15.23,36.54,3.77,35.13-27.89-1.13-25.24-13.19-39.84-8.01-69.24,2.39-13.57,20.43-30.56,21.4-42.15,1.29-15.47-5.88-30.48-5.97-45.58-.3-53.02-20.51-78.32-68.27-96.46-19.37-7.35-33.29-18.16-46.3-31.35,6.4,35.71-3.79,74.03-17.89,106.96-7.83,18.31-40.45,42.43-55.76,55.99-29.89,26.45-54.49,54.49-70.51,91.56-5.97,13.83-10.29,28.62-13.57,43.61h0Zm-311.86,144.61c17.24,6.8,33.56,15.68,48.31,27.02,14.61,11.24,28.31,23.86,41.9,36.29,26.19,23.97,76.27,75.25,115.85,58.62,39.88-16.75,64.89-72.71,75.89-111.03,10.56-36.79,11.53-83.99,17-122.63,1.54-10.92,3.38-22.01,5.74-33.01-6.65-38.03-2.71-77.71,6.1-115.1,11.81-50.13,32.73-98.74,56.19-144.45,3.28-6.38,29.63-53.89,35.71-67.63-64.71,16.22-133.57,187.47-156.76,241.76-16.02,37.49-31.57,75.19-47.94,112.53-17.69,40.34-47,93.65-91.6,108.51-30.68,10.22-69.95,7.29-106.39,9.13h0Zm474.72,100.43c-6.5-20.02-12.02-38.43-15.88-48.06-1.83-4.57-15.84-31.06-22.87-28.15-7,21.43,9.53,100.33,13.45,124.31.12.74.24,1.49.36,2.23,2.21-2.75,4.63-5.69,7.51-8.86,5.12-5.64,10.16-29.42,17.44-41.46h0Zm318.06,584.37c39.65-10.15,65.53-4.62,104.63,7.12,32.79,9.84,56.62,13.88,90.71,5.14,22.27-5.71,50.1-13.71,69.15-26.62,15.84-10.72,15.33-23.28,17.3-37.29-2-8.8-2.39-18.31-1.15-28.27,2.08-16.6,29.53-29.6,53.2-33.44-13.98-5.62-124.13-8.66-139.08-9.4-6.08-.31-12.19-.28-18.27-.16-12.54.25-55.07,5.1-61.23-8.47-6.72-14.8-12.03-26.85-22.97-39.53-2.39-2.77-4.87-5.46-7.41-8.08-8.93-9.21-18.65-17.66-28.54-25.83-4.36-3.6-14.11-10.73-17.38-14.93-12.77-16.38-24.01-34.04-34.67-51.85-20.91-34.92-43.5-80.44-71.31-109.7-33.95-35.72-35.05-71.31-45.61-115.97-3.24-13.69-7.39-27.24-11.98-40.53-3.85-11.17-26.45-69.42-38.29-86.56,4.73,37.98,6.7,74.37,5.57,112.7-.83,27.93-2.7,55.84-3.67,83.78-1.43,41.18-1.19,82.23.29,123.41,1.62,45.07-.54,89.71-3.75,134.26,11.7,10.78,26.4,31.3,29.8,35.56,24.11,30.24,48.62,60.12,76.27,87.24,17.66,17.33,37.23,34.23,58.41,47.41h0Zm286.97-70.03c.15-.3.3-.59.44-.89,3.36-6.56,8.34-12.24,13.77-17.18,2.31-2.1,12.27-9.19,20.78-15.24-17.02,5.01-33.06,14.07-34.34,24.3-.38,3.06-.6,6.06-.65,9.01h0Zm-278.09,75.15c15.16,6.9,47.07,5.95,63.72,8.89,25.47,4.49,52.9,13.83,78.34,15.36l147.52-25.08c8.22-3.46,17.22-7.48,21.41-10.18-15.51-7.17-26.57-18.06-33.07-31.41-1.47,10.07-4.65,19.48-18.36,28.77-19.85,13.45-48.17,21.67-71.35,27.61-35.39,9.07-60.43,5-94.48-5.22-35.42-10.63-59.34-16.13-93.73-8.73h0Zm314.25-5.02l33.97-5.77c9.85-2.91,34.93-3.32,44.74-.89,4.43,1.09,8.75,5.61,11.75,6.09,7.84,1.24,15.71,2.34,23.59,3.32,4.52.56,23.34,5.02,26.09-.16,6.88-12.96,2.76-25.77-10.71-31.6-5.75-2.49-11.99-4.14-17.59-6.91-4.04-1.99-21.99-10.06-19.37-16.51.99-2.44,3.55-2.91,5.88-2.78,23.52,1.32,58.41,14.52,80.65,22.93,20.12,7.6,73.86,53.41,91.35,44.01.57-3.59-5.9-13.59-14.11-24.54-10.12-7.62-20.14-15.38-29.4-23.99-4.98-4.63-34.62-26.13-26.08-33.75,7.39-6.59,25.84,11.3,30.77,16.72,3.87,4.24,18.74,20.55,30.45,36.55,4.08,3.06,8.17,6.1,12.23,9.17,7.5,5.67,17.1,14.25,25.28,18.32,3.08,1.54,21.76,4.4,25.89,1.1-17.11-9.86-41.02-29.97-49.38-39.41-15.96-18.01.14-22.71,7.6-15.32,13.66,13.55,37.21,32.1,47.6,47.18.96,1.39,1.63,2.67,2.05,3.86,2.2,1.07,4.17,1.84,5.8,2.21,6.93,1.58,26.13,1.3,17.01-9.5-3.73-4.43-16.87-11.34-22.29-15.22-17.42-12.49-29.84-25.52-49.68-35.69-5.91-3.02-12.99-4.33-19.06-7.17-22.3-10.43-44.5-20.95-66.96-31.07-47.37-21.33-113.69,3.44-162.55-17.04-4.67-1.96-12.23-2.17-20.7-1.03-2.69,2.71-6.25,4.98-8.44,6.48-8.11,5.57-16.29,10.77-23.61,17.42-4.78,4.35-9.28,9.38-12.23,15.17-2.68,5.23-4.05,10.24-4.9,15.07,4.37,18.42,16.65,33.2,36.81,41.58,1.5.63,2.72,1.74,3.11,3.38.57,2.36-1.59,5-5.56,7.78h0Zm235.98-38.01c-4.29-5.06-7.81-9.08-9.65-11.09-2.57-2.82-13.11-12.69-18.91-15.29,5.16,5.87,21.58,20,24.2,22.44,1.43,1.33,2.89,2.65,4.36,3.94h0Zm80.83,35.41c-11.54-12.26-28.01-25.75-38.17-35.82-.4-.4-1.4-.9-2.28-1.13,1.01,2.21,3.99,5.76,4.9,6.78,5.89,6.65,21.41,20.1,35.55,30.17h0Zm191.73,100.58l-82.48-.03-598.61-40.58-1.78,26.04,589.98,37.8,92.9-23.23h0Zm-1003.36-266.2c-1.15-1.1-2.04-1.79-2.57-1.96-11.21,4.39-9.67,59.99-9.3,70.02.26,6.67,1.41,27.48,3.14,45.12,2.52-37.81,5.98-75.47,8.72-113.19h0Zm-69.89-352.79c-4.53-3.08-8.33-5.64-9.88-6.75-20.48-14.76-40.13-31.74-54.48-52.7-.43-.62-2.87-3.88-3.82-3.74-.21.03-.43.15-.67.36,10.79,32.74,23.95,68.66,34.73,74.71,3.69,2.07,7.72,3.22,11.96,2.8,8.03-.79,15.45-6.27,22.15-14.68h0Zm-106.13,3.33c-5.12,5.46-11.19,10.42-21.36,15.66-18.82,9.71-47.71,1.89-67.18-2.91-28.61-7.04-56.48-17.95-80.97-34.52-2.88-1.95-19.67-15.49-25.67-19.99-1.19,37.38,3.93,77.96,8.64,115.04,6.05,47.65,13.12,95.15,18.42,142.91,4.08,36.77,7.24,73.86,7.79,110.86.69,45.89-9.32,88.9-24.26,131.96-2.16,6.23-21.45,54.36-16.93,58.9.56.57,1.83.65,2.57.64,16.15-.08,179.29,9.2,179.67-3.08.93-29.78,35.91-39.13,37.55-73.2,2.56-53.24,2.14-107.02.64-160.29-1.74-61.61-5.1-123.31-9.84-184.76-2.43-31.53-4.78-65.24-9.09-97.21h0Zm166.11-488.72c-.57-22.31-5.33-45.63-21.5-56.49,7.41,15.43,13.46,32.45,18.86,48.24.54,1.58,1.46,4.47,2.64,8.25h0Zm-691.37,863.77c-18.74-10.34-35.09-18.92-39.01-19.58-1.66.44-5.29,4.9-2.44,6.89,10.52,7.37,20.65,15.51,31.15,23,1.54,1.09,3.07,2.18,4.62,3.25,1.95-4.48,3.84-9,5.69-13.57h0Zm197.93,124.43c2.09,4.59,23.56,17.71,35.02,22.66-7.4-8.27-22.21-22.4-26.89-25.11-1.88.92-4.68,1.73-8.13,2.45h0Z"/>
</svg>