<?xml version="1.0" encoding="UTF-8"?>
<svg id="Layer_1" data-name="Layer 1" xmlns="http://www.w3.org/2000/svg" viewBox="0 0 801.48 1021.4">
  <defs>
    <style>
      .cls-1 {
        fill: none;
        stroke: #1d1d1b;
        stroke-linecap: round;
        stroke-linejoin: round;
        stroke-width: 12px;
      }
    </style>
  </defs>
  <path class="cls-1" d="m164.5,1013.3c21.75.99,39.46-1.18,50.23-5.4,19.71-7.71,28.57-21.23,55.63-29.18,9.72-2.86,12.31-14.55,16.42-23.81,18.37-41.38,31.5-189.84,49.36-223.93,14.42-27.52,53.14-120.32,171.06-114.08-41.63,8.36-75.59,28.01-103,54.46-33.74,32.56-42.39,83.15-15.39,94.71,33.32,14.26,97.38-4.37,147.98-60.38,42.75-47.32,98.67-143.91,84.29-154.81-2.84-2.15-7.16.05-13.55,2.38-48.09,17.56-71.6-9.34-126.29-1.17-15.24,2.28-49.98,6.65-74.47,32.49-24.49,25.83-26.1,59.52-28.87,58.99-5.19-.99,36.26-112.63-3.39-215.15-7.48-19.34-24.71-62.22-67.76-91.48-70.02-47.59-157.48-24.59-157.55-22.02-.06,1.98,51.62-3,115.2,23.72,28.08,11.8,50.16,26.28,66.07,49.13,5,7.17,25.25,36.26,15.25,52.52-6.62,10.75-24.9,13.35-62.68,8.47-61.1-7.89-127.37-16.45-191.43-71.15C39.41,333.03,3.62,270.6,11.97,262.39c3.35-3.3,12.09,3.86,27.11,8.47,40.06,12.3,71.01-10.05,108.42-22.02,56.93-18.22,135.77-13.98,174.49,23.72,36.7,35.73,26.11,90.39,38.4,90.92,18.18.79-4.28-178.7,89.22-245.08,28.45-20.2,65.6-28.56,89.22-33.88,62.33-14.04,118.41-7.92,118.59-4.52.12,2.4-27.43,3.2-81.32,14.68-63.96,13.62-82.74,24.75-94.87,33.88-13.57,10.22-35.04,26.37-37.27,51.95-2.14,24.51,14.61,43.51,18.07,47.44,38.11,43.21,115.47,28.5,128.75,25.98,73.66-14.01,118.14-65.87,136.66-88.09,53.99-64.79,77.76-151.18,64.38-159.25-4.14-2.5-10.21,3.5-21.46,10.16-37.62,22.3-67.31,13.04-132.14,14.68-52.13,1.32-87.71,2.22-128.75,20.33-41.59,18.35-61.65,42.41-68.89,51.95-6.51,8.57-13.09,19.16-20.33,36.14-18.89,44.3-15.13,68.51-24.62,143.1-5.79,45.47-16.07,108.5,1.31,120.97.47.34.91.58,1.29.78,17.21,8.86,50.31-8.54,60.99-32.19,7.89-17.46-2.18-25.66,3.39-40.66,16.39-44.15,130.63-45.69,140.61-45.74,41.86-.23,84.81,7.29,98.22-14.72,3.81-6.26,7.13-18,10.2-17.47,3.11.54,3.32,13.21,3.39,16.94,1.2,70.38-45.74,128.75-45.74,128.75-11.88,14.77-72.56,90.24-142.31,79.62-22.42-3.41-56.1-17.29-59.29-38.96-1.55-10.54,4.52-20.06,10.16-27.11,44.87-56.04,146.42-60.58,145.69-67.76-.47-4.68-44.26-10.31-88.09,5.08-32.05,11.25-55.24,30.62-60.99,35.58-8.85,7.63-11.25,11.19-32.19,30.49-23.64,21.79-26.39,22.6-32.19,28.8-21.46,22.93-17.23,47.52-25.41,84.71-13.16,59.83-48.3,106.33-57.6,103.34-8.84-2.84,11.46-48.58-11.86-89.79-10.5-18.56-26.62-30.1-48.34-41.65C159.58,444.94,8.22,447.66,6.03,467.88c-.33,3.01,2.01,6.39,7.5,10.1,49.33,33.27,49.07,93.97,86.93,162.81,53.91,98.02,184.96,173.21,194.43,77.32,13.22-133.82-179.51-201.22-179.51-201.22,0,0,117.17,8.85,177.82,102.11,40.83,62.78,21.94,278.71,35.3,338.97,1.64,7.37,5.38,15.34,12.74,17.05,45.58,10.59,79.05,40,107.78,40.38"/>
</svg>