<?xml version="1.0" encoding="UTF-8"?>
<svg id="Layer_1" data-name="Layer 1" xmlns="http://www.w3.org/2000/svg" viewBox="0 0 596.06 703.93">
  <defs>
    <style>
      .cls-1 {
        fill: none;
        stroke: #1d1d1b;
        stroke-linecap: round;
        stroke-linejoin: round;
      }

      .cls-2, .cls-3 {
        fill: #010101;
      }

      .cls-4 {
        fill: #231f20;
      }

      .cls-3 {
        fill-rule: evenodd;
      }
    </style>
  </defs>
  <path class="cls-3" d="m61.33,163.47l48.16,1.28,6.21-7.25-26.33-1.08c-.15.1-.29.18-.4.25-1.99,1.07-4.04.9-5.79-.57-.11-.09-.15-.24-.1-.38.05-.14.18-.22.33-.22l5.76.24c.74-.53,1.8-1.44,1.83-1.96.12-3.59.13-7.19.01-10.79-.11-3.38-.31-6.77-.59-10.14-.51-6.22-1.24-12.48-2.29-18.63-.58-3.39-1.48-8.7-2.92-11.81-.63-1.24-8.73-9.45-10.13-9.84,0,.03,0,.06.01.08.43,2.37,3.09,17.35,1.2,19.55-2.06,2.4-.12,6.25-2.26,9.29-2.48,3.54-4.41,7.43-6.06,11.42-.88,2.11-1.66,4.33-2.51,6.47,2.52,1.38,5.23,2.93,5.81,3.25.2.11.62.35,1.19.66,2.07-.93,4.03-3.16,6.22-1.45.77.6,2.04,1.26,2.58,2.06.67.99,1.12,2.82.75,4.03.58.15,1.05.3,1.2.44.85.74,1.17,1.66.88,2.52.01,0,.02,0,.03-.01.42-.72,2.09,1.1,2.38,1.38.32.31,1.59,1.53,1.63,1.96.13,1.25-2.68-.45-2.95-.61-.39-.23-1.98-1.13-2.16-1.85-.33.05-.69.09-1.06.13.07.03.13.07.19.1.83.46.86,1.8-.15,2.28-.11.05-.23.1-.37.15.03,0,.06.02.09.03.43.15.54.92.45,1.3-.24.98-1.41,1.46-2.27,1.7-.05.01-.1.03-.15.04.04.02.08.03.12.05,1.19.58-1.12,2.23-1.64,2.46-1.04.46-2.76.35-3.92.44-2.17.16-4.55.65-6.7.19-1.62-.35-1.07-1.53-1.56-2.35-.57-.96-1.69-1.45-1.97-2.73-.19-.89.43-1.21.33-1.94-.13-.95-.94-2.01-1.04-3.04-.16-1.77,1.81-1.5,1.84-3.42,0-.27-.16-.53-.42-.77-1.17,1.56-2.37,3.97-2.7,4.69-.5,1.1-.96,2.24-1.32,3.39-.74,2.35,2.29,3.85,1.93,4.6-.1.21-.31.25-.52.24-5.24-.22-23.89-2.5-23.91-9.4,0-5.26,2.72-8.59,5.15-12.99,4.34-7.88,8.92-16.12,12.39-24.41,2.01-4.78,3.49-9.67,4.97-14.62.59-1.98,2.01-7.16,3.47-8.56,1.34-1.28,3-1.93,4.81-2.28-.02,0-.04-.01-.06-.02-.3-.08-1.01-.18-.99-.61,0-.22.18-.33.37-.38,2.45-.69,6.96-2.2,8.43-4.37,4.67-6.88,6-18.03,8.73-26,1.8-5.26,4.86-10.16,8.91-13.98,1.93-1.82,5.78-4.82,8.55-5.02,6.05-.42,9.07.93,12.81,5.06-.04-.07-.08-.14-.12-.21-.64-1.06-1.46-1.94-2.42-2.72-.32-.26-1.52-.95-1.37-1.41.07-.22.27-.29.48-.3,4.83-.38,9.66,2.29,13.51,4.92,3.12,2.13,7.18,6.2,8.01,10.01.64,2.95.99,9.09-.15,11.84-.05.12-.15.22-.28.24-.63.12-1.15-2.13-1.27-2.52-.16-.51-.32-1.01-.48-1.52-.21,1.83-.56,3.65-.94,5.46-.21.99-.6,2.38-.67,3.37-.29,4.05-.98,7.98-.92,12.08.05,3.44.97,7.07.82,10.4-.09,2.01-1.36,8.2-3.6,11.6.87.6,1.79,1.27,1.98,1.61,3.39,6.1-3.68,40.25-5.52,48.78,2.24.64,21.34.71,24.95.2-1.87-1.24-3.6-2.75-5.18-4.3-2.59-2.54-4.9-5.33-7.16-8.16-.28-.35-1.69-2.17-2.65-3.28-.32,4.23-.71,8.46-.94,12.71-.01.23-.06.53-.36.56-.62.05-.73-2.13-.77-2.49-.19-1.61-.32-3.25-.38-4.88-.05-1.39-.29-6.77,1.33-7.4.14-.05.33,0,.54.12.29-4.12.48-8.25.33-12.41-.14-3.98-.17-7.96-.03-11.94.09-2.69.27-5.38.35-8.07.11-3.74-.09-7.29-.56-11.01-.04-.29-.07-.74.27-.87,1.27-.5,4.46,8.27,4.76,9.17.45,1.3.86,2.63,1.17,3.97.98,4.15,1.08,7.56,4.23,10.86,2.73,2.87,4.91,7.27,6.96,10.69,1.01,1.69,2.08,3.37,3.29,4.93.26.33,1.21,1.04,1.57,1.33.97.8,1.93,1.63,2.8,2.54.25.26.5.53.74.81,1.04,1.21,1.7,2.52,2.32,3.97.37.81,5.9.38,7.08.44.81.04,1.62.08,2.43.11,2.55.11,5.12.18,7.66.36.65.04,3.69.14,3.98.87.02.05.03.1.04.15.76-.06,1.44,0,1.91.2,4.58,1.92,10.95-.48,15.68,1.65,2.17.98,4.31,1.99,6.46,3,.59.28,1.27.4,1.86.7,1.96,1,3.16,2.26,4.87,3.49.62.45,1.82,1.04,2.27,1.58.27.32.42.75.32,1.17-.27,1.12-1.77,1.04-2.63.85-.15-.03-.33-.1-.52-.18-.6.65-2.67.55-3.44.17-.74-.37-1.54-1.05-2.25-1.6.41.79.55,1.42.14,1.65-2.31,1.3-7.13-3.24-9.44-4.11-1.85-.7-4.72-1.79-6.86-2.09.36.21.78.43.93.5.52.26,1.12.42,1.66.65,1.66.72,2.22,2.38,1.36,3.98-.53.99-2.33.48-3.2.37-.77-.09-1.53-.2-2.3-.32-.5-.08-.79-.5-1.19-.6-.83-.21-3.14-.16-4.01.09l-5.47.93c-1.57.66-3.5,1.3-4.66,1.78l48.29,3.27,26.08-52.71c.06-.12.17-.19.3-.19l21.4-.06c.12,0,.22.06.29.16.06.1.07.22.02.33l-24.94,52.48c-.05.09-.12.16-.22.18l-10,2.5,18.88.23-21.59.44-11.63,2.91s-.07.01-.1,0l-57.24-3.67c-.09,0-.17-.04-.23-.11-.06-.07-.09-.15-.08-.25l.22-3.19c.01-.19.18-.33.36-.32l58,3.93h10.62s12.47-3.11,12.47-3.11l24.64-51.85-20.65.06-26.09,52.72c-.06.13-.19.2-.33.19l-49.62-3.36c-.16-.01-.31-.1-.36-.26-.15-.51,1.16-.89,1.47-1.01.45-.18.91-.36,1.36-.53l-11.12,1.89s-.05,0-.08,0c-2.51-.14-5.16-1.05-7.67-1.49-1.85-.33-5.01-.15-6.56-1.04-.14-.08-.28-.16-.42-.25-.07.02-.14.04-.21.06-1.13.32-3.54.33-4.74.36-2.72.08-5.45.1-8.17.08-3-.02-6.02-.06-9.02-.21-.46-.02-4.53,0-4.33-.92,1.69-7.86,8.9-42.66,5.64-48.53-.11-.21-.96-.82-1.78-1.38-1.17,1.52-2.57,2.26-4.18,1.35-1.19-.67-2.43-3.86-3.45-6.94-.44,1.14-1.01,3.02-1.48,3.54-.44.49-.77.91-1.09,1.3.47,3.27.71,6.75.96,10,.46,5.93.78,11.89.95,17.84.15,5.15.19,10.35-.06,15.5-.17,3.53-3.54,4.53-3.62,7.04-.06,1.95-9.44,1.22-10.7,1.17-2.42-.09-4.87-.23-7.28-.22-.27,0-.54-.06-.73-.26-.88-.89,1.11-5.33,1.47-6.37,1.41-4.07,2.36-8.14,2.3-12.48-.05-3.54-.36-7.1-.75-10.62-.51-4.6-1.19-9.17-1.77-13.76-.46-3.63-.96-7.59-.84-11.24,0-.26.05-.58.32-.7.5-.23,2.42,1.59,2.89,1.92,2.37,1.67,5.09,2.75,7.9,3.45,1.66.41,4.4,1.16,6,.34,1.13-.58,1.7-1.14,2.25-1.78-.04-.27-.08-.55-.13-.82-.41-2.51-2.02-10.02-1.27-12.3.05-.16.14-.29.28-.38,1.24-.81,2.88,2.26,3.2,3.05.32.8.83,2.45,1.43,4.29.35-.2.74-.08,1.2.59,1.34,1.95,3.18,3.54,5.09,4.91.19.14.54.37.96.65,2.09-3.13,3.38-9.09,3.47-11.26.15-3.29-.77-6.94-.82-10.36-.06-4.12.63-8.06.92-12.14.07-1.02.46-2.43.68-3.46.39-1.82.74-3.66.94-5.51.05-.43.1-.94.14-1.48-.27-.86-.55-1.73-.85-2.58-.61-1.8-1.32-3.77-2.23-5.44-.07-.12-.05-.27.04-.38.09-.11.23-.15.36-.11.56.18,1.07.47,1.51.87,1.85,1.69,2.02,5.02,1.84,7.67.51,1.66,1.12,3.59,1.48,4.54.8-2.85.45-8.2-.11-10.78-.78-3.62-4.76-7.58-7.72-9.6-3.56-2.43-8.04-4.96-12.55-4.83.38.29.87.64,1.06.79,1,.85,1.84,1.84,2.47,3,.33.6.58,1.21.78,1.83,1.44,1.59,2.86,2.9,5.03,3.72,4.87,1.85,6.98,4.53,7.02,9.92,0,1.48.71,2.86.57,4.45-.11,1.38-1.85,2.9-2.07,4.12-.47,2.65.68,4.16.78,6.52.16,3.63-2.66,2.09-3.54,3.15-.29.35-.08,1.52-.1,2.01-.06,1.12-1.43.85-1.7,1.56-.03.46.73,1.45.59,2.27-.11.61-.58.75-.69,1.01-.15,2.64-.08,5.44-3.29,6.01-1.07.19-2.18.17-3.26.1-6.52-.42-12.33-6.25-14.27-12.25-.1-.29-.18-.59-.26-.89-.09.54-.18,1.07-.25,1.61-.53,3.77-.63,8.31-1.66,11.91-1.13,3.92-3.64,9.43-7.7,11.14-.51.21-1.05.34-1.6.37-3.65.22-7.77-3.86-10.28-6.15-1.3-1.19-2.6-2.39-3.99-3.46-1.7-1.31-3.62-2.26-5.64-2.93-.09-.03-.18-.06-.26-.08-2.3.25-4.4.84-5.94,2.31-1.32,1.25-2.75,6.48-3.29,8.27-1.5,4.98-2.98,9.89-5,14.69-3.49,8.31-8.07,16.57-12.43,24.47-2.34,4.25-5.07,7.59-5.06,12.66,0,4.82,11.84,7.27,15.3,7.86,2.47.42,5,.71,7.55.84-.33-.37-.84-.9-1.02-1.16-.67-.95-1.01-2.04-.65-3.18.48-1.52,2.25-5.87,4.1-8.29-1.05-.65-2.64-1.19-3.25-1.73-.58-.51.88-.91,1.17-1.06.68-.35,1.29-.85,1.61-1.56,0-.02.02-.04.03-.05-.19-.13-.37-.26-.56-.39-1.01-.72-1.98-1.5-3-2.21-.86-.6-.12-1.89.6-1.9.31,0,2.05.89,4.02,1.96.84-2.13,1.61-4.31,2.48-6.41,1.67-4.03,3.62-7.97,6.13-11.54,2.02-2.88,0-6.68,2.3-9.34.44-.51.5-3.02.5-3.63,0-4.93-.97-10.52-1.85-15.35-.05-.27-.04-.59.2-.78,1.06-.81,5.54,3.95,6.22,4.63.83.84,4.56,4.59,4.98,5.5,1.47,3.17,2.38,8.52,2.97,11.98,1.05,6.17,1.79,12.46,2.3,18.69.28,3.38.48,6.78.59,10.17.11,3.61.1,7.22-.01,10.83-.02.6-.72,1.37-1.45,1.98l26.2,1.08c.13,0,.24.08.3.2.05.12.03.26-.05.36l-6.77,7.91c-.07.08-.16.12-.27.12l-49.78-1.33c-.16,0-.29-.11-.32-.27-.03-.16.05-.31.19-.38l4.95-2.27c-1.25.16-2.89.33-4.83.47-1.7.12-3.06.21-4.89.19-.73,0-3.28-.06-6.68-.56-2.15-.32-4.82-.85-4.8-1.04.02-.17,2.41,0,4.89.19,3.56.26,4.24.44,6.49.47.66,0,2,.02,3.76-.09,3.68-.25,5.52-.37,5.55-.38,0,0,.3-.06,2.05.08.04,0,.15.01.23.09.05.05.09.11.1.18.03.16-.04.31-.19.38-1.68.77-3.35,1.54-5.03,2.31Zm26.68-7.11l-3.43-.14c1.09.56,2.26.6,3.43.14h0Zm-22.78-16.39c-.19.46-.38.92-.58,1.37,1.34.91,2.72,1.76,4.14,2.55.16.08.33.16.52.22.79-.11,1.58-.27,2.32-.51-.23-.13-.46-.26-.69-.38-.69-.38-3.31-1.9-5.72-3.24h0Zm-.86,2c-.62,1.32-1.48,1.57-2.52,2.07.77.47,1.95.86,2.84,1.41.61-.69,1.22-1.12,1.79-1.14.5-.01,1.03-.03,1.56-.07-1.25-.71-2.47-1.46-3.66-2.27h0Zm.88,3.89c.41.36.68.79.67,1.32-.04,2.22-1.96,2.1-1.84,3.35.08.92.9,2.02,1.03,3.01.12.86-.47,1.3-.34,1.88.21.97,1.39,1.69,1.89,2.53.46.77.04,1.8,1.12,2.03,2.04.44,4.44-.05,6.51-.2,1.02-.07,2.79.02,3.69-.38.28-.12,1.33-.91,1.53-1.28-.3-.13-.68-.24-1.1-.32-.89.16-1.81.26-2.67.33-.57.05-6.58.64-6.22-.66.28-1.01,4.77-.77,5.57-.72.86.05,2.19.14,3.32.36.46-.08.91-.18,1.34-.3.56-.16,1.55-.51,1.77-1.13.06-.17.06-.49,0-.58-.34-.12-.68-.22-1.04-.32-1.54.38-3.55.66-4.62.7-1.56.07-3.22-.11-4.74-.46-.44-.1-2.48-.51-2.34-1.24.24-1.21,7.1-.47,7.97-.37,1.21.14,2.5.34,3.73.66.5-.13.94-.27,1.25-.42.5-.24.48-.84.11-1.07-.38-.21-.91-.4-1.52-.56-1.69.1-3.32.13-3.74.12-1.16-.02-2.33-.09-3.47-.26-1.12-.17-2.27-.57-3.26-1.11-.3-.16-1.87-1.02-1.15-1.51.34-.23,4.27.8,4.82.9,1.72.33,4.73.61,6.9,1.18,1.08-.06,2.15-.15,2.88-.26.43-.79.21-1.55-.52-2.19-.36-.26-3.33-.81-3.89-.92-.71-.14-3.65-.65-4.16-.99-.71-.48-1.43-.93-2.17-1.37-.75-.45-2.16-.51-3.26-.81-.94.12-1.89.18-2.8.2-.36,0-.79.35-1.24.86h0Zm10.38,11.59c-.22-.02-.42-.03-.59-.04-.58-.03-3.25-.1-4.42.12,1.3.16,4.29-.02,5.01-.08h0Zm3.26-3.04c-.75-.14-1.49-.24-2.21-.33-.91-.11-5.56-.48-6.97-.17,1.27.64,5.11.93,6.12.88.71-.03,1.9-.17,3.06-.38h0Zm-1.37-2.95c-1.55-.25-3.11-.43-4.12-.63-.55-.11-2.44-.6-3.59-.84.99.58,2.76,1.12,3.41,1.22,1.11.17,2.26.24,3.38.26.2,0,.52,0,.92,0h0Zm-4.34-7.77c2.57,1.42,6.8,3.71,8.03,4.06.05.01.1.02.15.03.33-1-.1-2.68-.65-3.49-.45-.66-1.76-1.39-2.43-1.91-.4-.31-.85-.52-1.37-.5-.92.04-2.52,1.16-3.73,1.81h0Zm-.75.36c-.44.17-.9.31-1.37.43.69.12,1.36.26,1.84.55.74.45,1.48.91,2.2,1.39.29.19,2.04.53,3.13.74-.08-.04-.15-.08-.19-.1-1.89-.96-3.76-1.98-5.62-3.01h0Zm-1.74-57.2c3.9-.39,8.28.18,11.71-.97,4.07-1.36,6.81-6.41,8.42-10.08,1.58-3.59,3.07-7.23,4.62-10.84,2.4-5.61,9.12-22.43,15.81-23.74.18-.08.39-.12.56.02.49.4-.51,1.99-.72,2.38-.83,1.55-1.69,3.09-2.51,4.65-2.34,4.5-4.44,9.3-5.61,14.25-.7,2.96-1.07,6.08-.8,9.13.26-.91.56-1.8.93-2.65,1.58-3.67,4.01-6.44,6.97-9.06,1.34-1.19,4.52-3.57,5.2-5.15,1.45-3.38,2.48-7.44,1.41-11.04-.27-.3-.53-.61-.81-.92-3.86-4.45-6.67-5.87-12.79-5.45-2.57.18-6.34,3.15-8.13,4.83-3.97,3.75-6.96,8.55-8.73,13.71-2.77,8.08-4.06,19.15-8.81,26.16-1.44,2.12-5.32,3.59-8.02,4.41.4.12.89.24,1.31.36h0Zm31.73-13.38c.14.79.34,1.57.58,2.34,1.85,5.73,7.42,11.37,13.66,11.78,1.03.07,2.08.09,3.1-.09,2.78-.5,2.61-3.12,2.73-5.38.03-.49.64-.71.7-1.09.1-.59-.77-1.8-.57-2.35.38-1.03,1.64-.88,1.66-1.39.04-.77-.27-1.77.26-2.41,1.21-1.47,3.52.36,3.38-2.69-.11-2.43-1.27-3.84-.77-6.67.23-1.31,1.97-2.94,2.06-4.06.12-1.49-.57-2.94-.58-4.39-.03-5.11-1.98-7.55-6.58-9.29-1.87-.71-3.21-1.75-4.46-3.02.62,3.44-.37,7.13-1.72,10.31-.75,1.76-3.9,4.09-5.37,5.39-2.88,2.55-5.25,5.25-6.79,8.82-.58,1.33-.99,2.76-1.31,4.2h0Zm-30.05,13.94c1.66.66,3.23,1.51,4.65,2.6,1.41,1.08,2.73,2.3,4.04,3.5,2.52,2.31,7.35,7.25,11.16,5.65,3.84-1.61,6.25-7.01,7.31-10.7,1.02-3.54,1.11-8.09,1.64-11.82.15-1.05.33-2.12.55-3.18-.64-3.66-.26-7.49.59-11.09,1.14-4.83,3.15-9.51,5.41-13.92.32-.61,2.85-5.19,3.44-6.52-6.24,1.56-12.87,18.06-15.1,23.29-1.54,3.61-3.04,7.24-4.62,10.84-1.7,3.89-4.53,9.02-8.83,10.46-2.96.98-6.74.7-10.25.88h0Zm45.74,9.68c-.63-1.93-1.16-3.7-1.53-4.63-.18-.44-1.53-2.99-2.2-2.71-.67,2.06.92,9.67,1.3,11.98.01.07.02.14.03.21.21-.26.45-.55.72-.85.49-.54.98-2.83,1.68-3.99h0Zm30.65,56.31c3.82-.98,6.31-.45,10.08.69,3.16.95,5.46,1.34,8.74.5,2.15-.55,4.83-1.32,6.66-2.56,1.53-1.03,1.48-2.24,1.67-3.59-.19-.85-.23-1.76-.11-2.72.2-1.6,2.85-2.85,5.13-3.22-1.35-.54-11.96-.83-13.4-.91-.59-.03-1.17-.03-1.76-.02-1.21.02-5.31.49-5.9-.82-.65-1.43-1.16-2.59-2.21-3.81-.23-.27-.47-.53-.71-.78-.86-.89-1.8-1.7-2.75-2.49-.42-.35-1.36-1.03-1.67-1.44-1.23-1.58-2.31-3.28-3.34-5-2.01-3.36-4.19-7.75-6.87-10.57-3.27-3.44-3.38-6.87-4.39-11.17-.31-1.32-.71-2.62-1.15-3.91-.37-1.08-2.55-6.69-3.69-8.34.46,3.66.65,7.17.54,10.86-.08,2.69-.26,5.38-.35,8.07-.14,3.97-.11,7.92.03,11.89.16,4.34-.05,8.64-.36,12.94,1.13,1.04,2.54,3.02,2.87,3.43,2.32,2.91,4.68,5.79,7.35,8.41,1.7,1.67,3.59,3.3,5.63,4.57h0Zm27.65-6.75s.03-.06.04-.09c.32-.63.8-1.18,1.33-1.66.22-.2,1.18-.89,2-1.47-1.64.48-3.19,1.36-3.31,2.34-.04.29-.06.58-.06.87h0Zm-26.8,7.24c1.46.66,4.54.57,6.14.86,2.45.43,5.1,1.33,7.55,1.48l14.21-2.42c.79-.33,1.66-.72,2.06-.98-1.49-.69-2.56-1.74-3.19-3.03-.14.97-.45,1.88-1.77,2.77-1.91,1.3-4.64,2.09-6.87,2.66-3.41.87-5.82.48-9.1-.5-3.41-1.02-5.72-1.55-9.03-.84h0Zm30.28-.48l3.27-.56c.95-.28,3.37-.32,4.31-.09.43.11.84.54,1.13.59.76.12,1.51.23,2.27.32.44.05,2.25.48,2.51-.02.66-1.25.27-2.48-1.03-3.04-.55-.24-1.16-.4-1.69-.67-.39-.19-2.12-.97-1.87-1.59.1-.24.34-.28.57-.27,2.27.13,5.63,1.4,7.77,2.21,1.94.73,7.12,5.15,8.8,4.24.05-.35-.57-1.31-1.36-2.36-.98-.73-1.94-1.48-2.83-2.31-.48-.45-3.34-2.52-2.51-3.25.71-.63,2.49,1.09,2.96,1.61.37.41,1.81,1.98,2.93,3.52.39.29.79.59,1.18.88.72.55,1.65,1.37,2.44,1.77.3.15,2.1.42,2.49.11-1.65-.95-3.95-2.89-4.76-3.8-1.54-1.74.01-2.19.73-1.48,1.32,1.31,3.59,3.09,4.59,4.55.09.13.16.26.2.37.21.1.4.18.56.21.67.15,2.52.13,1.64-.92-.36-.43-1.63-1.09-2.15-1.47-1.68-1.2-2.88-2.46-4.79-3.44-.57-.29-1.25-.42-1.84-.69-2.15-1-4.29-2.02-6.45-2.99-4.56-2.06-10.95.33-15.66-1.64-.45-.19-1.18-.21-1.99-.1-.26.26-.6.48-.81.62-.78.54-1.57,1.04-2.27,1.68-.46.42-.89.9-1.18,1.46-.26.5-.39.99-.47,1.45.42,1.77,1.6,3.2,3.55,4.01.14.06.26.17.3.33.05.23-.15.48-.54.75h0Zm22.74-3.66c-.41-.49-.75-.87-.93-1.07-.25-.27-1.26-1.22-1.82-1.47.5.57,2.08,1.93,2.33,2.16.14.13.28.26.42.38h0Zm7.79,3.41c-1.11-1.18-2.7-2.48-3.68-3.45-.04-.04-.13-.09-.22-.11.1.21.38.56.47.65.57.64,2.06,1.94,3.43,2.91h0Zm18.47,9.69h-7.95s-57.68-3.91-57.68-3.91l-.17,2.51,56.85,3.64,8.95-2.24h0Zm-96.68-25.65c-.11-.11-.2-.17-.25-.19-1.08.42-.93,5.78-.9,6.75.03.64.14,2.65.3,4.35.24-3.64.58-7.27.84-10.91h0Zm-6.73-33.99c-.44-.3-.8-.54-.95-.65-1.97-1.42-3.87-3.06-5.25-5.08-.04-.06-.28-.37-.37-.36-.02,0-.04.01-.06.03,1.04,3.15,2.31,6.62,3.35,7.2.36.2.74.31,1.15.27.77-.08,1.49-.6,2.13-1.41h0Zm-10.23.32c-.49.53-1.08,1-2.06,1.51-1.81.94-4.6.18-6.47-.28-2.76-.68-5.44-1.73-7.8-3.33-.28-.19-1.9-1.49-2.47-1.93-.11,3.6.38,7.51.83,11.08.58,4.59,1.26,9.17,1.77,13.77.39,3.54.7,7.12.75,10.68.07,4.42-.9,8.57-2.34,12.71-.21.6-2.07,5.24-1.63,5.68.05.05.18.06.25.06,1.56,0,17.28.89,17.31-.3.09-2.87,3.46-3.77,3.62-7.05.25-5.13.21-10.31.06-15.44-.17-5.94-.49-11.88-.95-17.8-.23-3.04-.46-6.29-.88-9.37h0Zm16.01-47.09c-.05-2.15-.51-4.4-2.07-5.44.71,1.49,1.3,3.13,1.82,4.65.05.15.14.43.25.79h0Zm-66.62,83.23c-1.81-1-3.38-1.82-3.76-1.89-.16.04-.51.47-.24.66,1.01.71,1.99,1.49,3,2.22.15.11.3.21.45.31.19-.43.37-.87.55-1.31h0Zm19.07,11.99c.2.44,2.27,1.71,3.37,2.18-.71-.8-2.14-2.16-2.59-2.42-.18.09-.45.17-.78.24h0Z"/>
  <path class="cls-4" d="m131.68,663.58c-.34-.73-.8-1.83-1.09-3.25-.22-1.07-.26-1.87-.28-2.36-.17-3.28-.27-2.18-.53-6.88-.1-1.83-.2-4.13-.27-6.8-.46.23-1.12.53-1.94.81-.7.24-1.46.46-2.29.65-4.99,1.17-12.44,1.53-22.76,2.03l-.47.02c-5.48.6-12.42.74-20.24-.64-2.99-.53-5.75-1.22-8.24-1.98-.61,3.14-1.01,5.68-1.27,7.44-.41,2.76-1.09,5.49-1.22,8.28,0,.19-.04.88-.28,1.74-.12.4-.25.72-.33.93-.03-2.83.07-5.17.19-6.91.12-1.8.27-3.02.33-3.53.23-1.85.48-3.15.66-4.09.39-2.03.3-1.02.56-2.4,0,0,.15-.78.89-2.23.03-.07.12-.22.28-.29.13-.05.27-.04.4.02.07.04,7.4,3.7,28.23,2.69l.47-.02c14.34-.69,22.52-1.09,26.98-3.59-.48-10.08-.82-22.17-1.06-32.48l-3.24.3v8.17c0,.1-.81,10.4-9.06,10.4h-31.89c-.37.02-4.73.25-7.52-2.33-1.49-1.38-2.24-3.29-2.24-5.69v-8.44h-4.86c-.3,1.14-.77,2.42-1.43,3.84-.04.08-.1.15-.17.2-.18.12-4.3,2.82-9.22,1.46-.84.11-5.01.61-6.43-.45-.81-.61-.8-1.61-.79-2.78,0-1.39.02-3.12-1.06-5.29-1.29-2.58-2.93-7.84-.93-11.22,1.08-1.82,3.03-2.79,5.8-2.89.03,0,.06,0,.1,0,.06,0,5.73.96,7.97.03.2-.08.43-.02.56.15,1.2,1.53,4.82,5.46,7.15,5.35h.02c.24,0,1.39.02,2.55.3,3.59-6.38,10.65-5.84,11.2-5.79h21.26c-1.17-2.73-3.65-6.59-8.24-6.59-7.05,0-7.75,4.68-7.76,4.73-.03.24-.24.42-.48.42h-3.43c-.26,0-.47-.2-.48-.46,0-.24-1.09-23.62-4.44-31-.06-.14-.06-.31.03-.45.08-.13.22-.22.38-.23.23-.01,22.03-1.44,27.99-3.31-.54-.53-1.39-1.4-2.27-2.46-4.55-.65-8.85-1.05-12.19-.98-1.55,2.78-6.71,3.18-6.93,3.2-.26.02-.49-.18-.51-.44-.07-.86.24-1.59.91-2.17,1.09-.93,3.19-1.37,5.88-1.49.27-.84.09-1.85-.56-3.01-1.66-2.99-3.53-3.88-5.33-4.74-.22-.1-.43-.21-.65-.31-.51,4.28-2.4,6.4-2.51,6.52-.04.04-.08.07-.13.1l-20.87,11.11c3.4,7.43,3.2,15.24,2.42,20.53-.86,5.83-2.53,9.82-2.61,9.98-.1.23-.36.35-.6.26-4.86-1.72-8.87-1.62-11.91.29-4.87,3.08-5.63,9.87-5.64,9.94,0,.03,0,.05-.01.07-3.38,12.58-1.92,16.61-.1,17.78,3.37,2.16,10.24-3.46,10.31-3.52.17-.14.41-.15.58-.02.18.12.25.35.18.56-.12.32-2.93,7.85-9.69,8.21-1.84.1-3.64-.87-5.35-2.88-3.83-4.49-6.52-13.81-5.44-18.8.62-2.85,1.24-3.68,1.7-4.29.48-.63.72-.95.35-4.65-.5-4.98,2.78-7.25,5.96-9.45,1.42-.99,2.89-2.01,4.02-3.27,3.38-3.78,5.57-13.4,5.8-14.44-.74-4.16-.25-7.1,1.47-8.76,1.75-1.69,4.15-1.44,4.8-1.34,10.01-4.39,20.11-9.67,21.6-10.46l1.94-7.82c.05-.21.23-.36.45-.37.22,0,.41.12.48.33.46,1.39,1.14,2.19,1.97,2.78.05-1.4-.06-3-.42-4.8-.04-.22.07-.45.28-.54.21-.09.45-.02.58.17.04.06,4.51,6.28,11.46,5.63,2.29-.21,4.2-2,5.74-4.29-.34-1.85-.52-3.3-.57-3.75-.01-.11.01-.22.07-.32,3.99-6.11,3.21-16.48,2.5-21.61-2.39-1.78-5.87-2.34-10.34-1.67-9.16,1.38-12.15,4.48-13.12,6.22.78,5.98,1.58,11.32,1.59,11.42.03.22-.09.44-.31.52-.67.25-1.31.21-1.9-.13-1.74-.98-2.44-4.29-2.51-4.66-1.01-3.2-1.02-5.2-.03-6.12.58-.53,1.34-.52,1.84-.43.06-.22.16-.49.31-.8-.39-3.02-.78-6.18-1.05-8.9-2.08.34-3.7.19-4.09.14h0c-7.45-.8-11.17-2.24-11.71-4.54-.78-3.32,5.46-7.34,12.08-11.59,3.11-2,6.33-4.07,8.64-5.99,9.2-7.62,16.52-10.54,21.76-8.68,3.99,1.42,6.72,5.61,8.09,12.47,1.45,7.22,1.03,11.39-1.27,12.76-1.23.73-2.77.47-4.18-.1l.4,9.29c0,.21-.12.4-.32.47s-.42,0-.55-.16c-.44-.56-1.67-1.87-2.8-2.16.09.48.22,1.21.36,2.13,2.3,1.89,3,4.35,3.21,5.54,1.05-.46,2.21-.77,2.99-.15.78.62.89,1.93.34,4.1-.88,3.51-1.97,5.51-3.25,5.95-.27.09-.51.11-.71.08-.42,1.66-1.88,6.85-4.47,10.86.31,1.59.72,3.33,1.23,4.94.69-.62,2.04-2.17,3.16-5.53.07-.21.28-.35.5-.33.22.02.4.19.43.42l.9,6.98c.76.89,6.76,7.59,17.03,7.9.35.01,8.58.43,11.07,6.83.01.03.02.06.03.1.46,2.82,2.23,10.29,4.8,11.01,3.26.91,5,2.52,5.82,5.41.15.53,1.06,1.25,2.1,2.09,3.09,2.47,8.25,6.61,8.75,15.95,0,.11.08,9.42-5.07,18.35-.11.18-.32.27-.52.23-.2-.05-.36-.22-.38-.43-.01-.15-1.4-15.07-7.61-19.68-1.6-1.19-3.41-1.58-5.38-1.17-.07.01-.14.01-.2,0-.19-.04-4.67-1.05-6.4-1.74-.39-.16-.85-.24-1.35-.21.01,4.12-.39,6.97-.4,7.03-.03.19-.16.34-.35.39s-.38,0-.5-.15c-.2-.24-.44-.35-.77-.37-1.05-.05-2.55.96-3.63,1.85.02.94.04,1.92.06,2.93,2.14-1.69,5.69-2.92,6.27-3.11.05-.02.1-.02.15-.02.59,0,.9.29,1.07.53.69,1.01-.11,3.14-.28,3.56-.04.11-.13.2-.23.25-1.3.65-1.96,1.31-1.93,1.91.06,1.03,2.04,2.02,2.84,2.33,2.29.07,4.21,2.86,5.36,5.02.72-.35,1.31-.88,1.66-1.66.75-1.63,1.13-3.4,1.49-5.11.61-2.89,1.19-5.61,3.54-6.78.12-.06.25-.07.38-.02.13.05.22.14.28.26.32.73,7.66,17.96,1.48,20.87-1.7.8-3.28.88-4.69.25-2.71-1.22-3.8-4.67-3.9-4.99-.16-.42-.4-.98-.7-1.6-2.78.85-6.4.01-7.72-.35-.61,2.84-.18,6.21.28,9.77.57,4.41,1.15,8.97-.17,13.11-.72,2.27-1.97,3.95-3.95,5.2.43,8.84.95,16.02,1.6,18.87l-.38.96Zm-2.3-52.91c.23,10.14.57,22.01,1.03,31.97,1.5-1.08,2.48-2.5,3.08-4.38,1.25-3.93.68-8.39.13-12.69-.49-3.85-.96-7.49-.14-10.62.03-.13.12-.24.23-.3s.25-.08.38-.04c.06.02,4.42,1.38,7.48.54-1.12-2.08-2.8-4.4-4.54-4.4-.06,0-.11,0-.17-.03-.35-.13-3.44-1.32-3.54-3.21-.06-.99.72-1.91,2.29-2.74.31-.83.59-2.09.31-2.5-.02-.03-.06-.09-.2-.11-2.31.78-5.17,2.13-6.47,3.42,0,.37.01.74.02,1.11h2.6c.24,0,.45.18.48.42l.34,2.75c.02.13-.02.26-.1.36-.08.1-.2.17-.33.18l-2.9.26h0Zm-59.57,1.52h5.12c.26,0,.48.22.48.48v8.92c0,2.12.65,3.8,1.93,4.98,2.54,2.36,6.78,2.09,6.82,2.08h31.95c7.22,0,8.06-9.07,8.1-9.49v-8.56c0-.25.19-.46.44-.48l3.74-.34c-.02-.72-.03-1.43-.05-2.13h-.22c-.22,0-.41-.15-.47-.36-.18-.71.1-1.4.64-2.05-.02-1.03-.04-2.02-.06-2.99-.04.04-.08.08-.12.12-.03.03-.06.05-.09.07-1.09.65-3.21.23-4.51-.58-.97-.61-1.13-1.21-1.09-1.61.05-.58.52-1.05,1.4-1.41,1.68-.68,3.21-1.7,4.3-2.55-.08-4.67-.12-7.78-.13-8.34,0-.24.18-.45.42-.48,1.94-.25,3.64-.62,5.09-1.11-.53-4.69-1.78-9.9-4.43-14.28,0-.01-.01-.02-.02-.03-.11-.22-2.57-5.25-.55-11.2-5.26-1.29-12.63-2.86-19.59-3.92.78.87,1.51,1.6,2.03,2.08.12.11.18.27.15.44-.03.16-.13.3-.28.36-4.43,1.9-24.32,3.33-28.34,3.6,3,7.57,4.07,26.93,4.24,30.26h2.59c.37-1.29,2.02-5.15,8.62-5.15,5.35,0,8.08,4.59,9.28,7.55h2.73c11.55,0,14.5,9.86,14.53,9.96.04.14.01.3-.08.42s-.23.19-.38.19h-49.96v2.95c0,.26-.22.48-.48.48h-3.63c.06.63.02,1.33-.12,2.13h0Zm-9.99-50.6c-.87,0-2.16.19-3.15,1.14-1.48,1.43-1.87,4.12-1.17,7.99.01.06,0,.13,0,.19-.09.44-2.32,10.81-6.04,14.98-1.2,1.34-2.72,2.4-4.19,3.41-3.08,2.14-5.99,4.16-5.55,8.57.39,3.92.13,4.44-.54,5.33-.4.53-.96,1.27-1.53,3.91-.92,4.25,1.32,13.37,5.23,17.98,1.51,1.77,3.04,2.62,4.56,2.54,4.22-.22,6.81-3.7,8.02-5.87-1.82,1.25-4.89,3.05-7.52,3.05-.85,0-1.65-.19-2.35-.63-3.08-1.98-3.18-8.13-.32-18.8.07-.64.96-7.38,6.08-10.61,3.2-2.02,7.34-2.21,12.3-.54.99-2.61,5.93-16.95-.16-29.73-.11-.23-.02-.51.21-.63l21.19-11.28c.3-.36,1.87-2.45,2.24-6.32-.85-.51-1.62-1.17-2.22-2.24l-1.65,6.66c-.03.13-.12.25-.24.31-.11.06-11.12,5.9-21.99,10.65-.09.04-.2.05-.3.03,0,0-.39-.08-.95-.08h0Zm83.1,54.09c.43.89.67,1.54.71,1.63,0,.01,0,.02.01.03,0,.03,1,3.33,3.38,4.4,1.14.51,2.45.43,3.88-.24,4.29-2.02.38-14.03-1.74-19.12-1.57,1.09-2.04,3.32-2.58,5.86-.37,1.76-.76,3.59-1.56,5.31-.46,1.01-1.21,1.68-2.1,2.12h0Zm-84.11,2.01s.09,0,.13.02c4.11,1.18,7.74-.84,8.41-1.24.56-1.22.98-2.33,1.25-3.3h-6.36c-.26,0-.48-.22-.48-.48v-3.09c0-.26.22-.48.48-.48h6.46c-.1-.22-.24-.41-.39-.58-1.64-1.73-6.04-.49-7.6.13-.12.05-.25.05-.37,0-.12-.05-.21-.15-.26-.27-.53-1.37-.48-2.49.13-3.33,1.18-1.6,4-1.45,4.12-1.44.08,0,.17.03.24.08,3.42,2.28,7.45.47,8.27.06.13-.35.27-.69.42-1.01-.81-.17-1.63-.23-2.08-.23-.04,0-.09,0-.13,0-2.91,0-6.64-4.3-7.59-5.44-2.54.79-7.52.01-8.11-.09-2.39.1-4.06.91-4.96,2.42-1.56,2.63-.6,7.18.96,10.3,1.19,2.37,1.17,4.31,1.16,5.72,0,1.11,0,1.7.41,2,.88.66,4.04.5,5.82.25.02,0,.05,0,.07,0h0Zm85.47-24.19c1.6,0,3.09.51,4.46,1.52,5.4,4.01,7.3,14.82,7.82,18.85,4.29-8.28,4.22-16.43,4.22-16.52-.48-8.9-5.43-12.87-8.39-15.24-1.27-1.02-2.19-1.76-2.43-2.58-.73-2.55-2.22-3.92-5.16-4.74-3.57-1-5.26-10.42-5.48-11.73-2.28-5.76-10.11-6.16-10.19-6.17-.76-.02-1.5-.08-2.22-.17,4.94,1.89,9.43,4.4,10.6,7.5.6,1.6.31,3.24-.89,4.87,1.15,1.45,5.74,7.68,3.74,12.86-.86,2.23-2.81,3.92-5.82,5.07.16,1.66.25,3.24.27,4.69.63-.03,1.22.07,1.72.27,1.52.61,5.48,1.52,6.16,1.67.54-.11,1.07-.16,1.59-.16h0Zm-81.56,18.7h6.11c.16-.82.2-1.53.13-2.13h-6.24v2.13Zm66.59-4.53c.01.67.03,1.35.05,2.04l2.34-.21-.23-1.83h-2.16Zm-59.58,1.44h3.35v-2.95c0-.26.22-.48.48-.48h49.76c-.34-.85-1.1-2.45-2.49-4.04-2.69-3.06-6.36-4.61-10.89-4.61h-2.37c.16.46.27.84.34,1.1,7.82.17,9.94,5.56,10.02,5.8.06.15.03.31-.06.44-.09.13-.24.21-.39.21h-41.52c-.24,0-.44-.17-.47-.4-.09-.54-.62-.91-1.3-1.16-.19.39-.36.8-.52,1.25-.04.11-.12.2-.21.25-.2.12-5.03,2.81-9.31.06-.75-.02-2.49.13-3.16,1.06-.35.47-.4,1.13-.16,1.97,1.51-.52,6.13-1.89,8.18.27.33.34.57.76.73,1.24h0Zm6.6-5.49h40.38c-.81-1.39-3.27-4.53-9.18-4.53-.23,0-.42-.16-.47-.38,0-.02-.16-.7-.51-1.68h-21.66s-.04,0-.06,0c-.3-.03-6.78-.72-10.18,5.13.75.31,1.41.77,1.68,1.46h0Zm51.82-6.13c-1.08.78-2.45,1.64-3.97,2.25-.57.23-.79.47-.8.6-.01.15.18.42.64.71,1.08.67,2.76.96,3.46.6.12-.12.38-.37.73-.67-.02-1.23-.04-2.4-.06-3.49h0Zm.95-.73c.02,1.07.04,2.23.06,3.45,1.09-.82,2.5-1.65,3.7-1.6.26.01.5.06.71.15.12-1.09.29-3.21.3-5.91-1.04.33-2.19,1.13-3.3,2.61-.01.02-.03.04-.05.05-.05.05-.57.56-1.42,1.24h0Zm-.13-8.38c.01.97.05,3.53.11,7.15.4-.34.66-.59.74-.67,1.33-1.77,2.76-2.67,4.04-3-.02-1.39-.09-2.91-.25-4.51-1.36.44-2.91.78-4.65,1.03h0Zm.95-16.76c2.68,4.44,3.96,9.68,4.52,14.42,2.61-1.04,4.29-2.52,5.03-4.43,2.02-5.24-3.76-12.12-3.82-12.19-.15-.18-.15-.43,0-.61,1.18-1.47,1.5-2.86.98-4.24-2.6-6.91-24.56-10.96-25.37-11.1-2.08-.18-3.59-2.62-4.66-5.55-.84.39-1.33.94-1.48,1.66-.35,1.71,1.2,4.21,2.88,6.28,10.15,1.47,20.49,4.02,21.27,4.21.13.03.25.12.31.24.06.12.07.26.02.39-2.13,5.6.17,10.61.32,10.92h0Zm-35.85-15.82c-2.19.14-3.84.54-4.7,1.27-.3.25-.48.53-.55.86,1.17-.16,3.95-.67,5.24-2.13Zm2.12-.99c3.06,0,6.7.34,10.43.84-1.51-2.01-2.83-4.39-2.45-6.28.22-1.06.93-1.86,2.1-2.38-.47-1.45-.85-2.96-1.14-4.35-1.59,2.12-3.55,3.72-5.9,3.95-5.43.51-9.35-2.73-11.19-4.66.18,1.41.21,2.68.14,3.82.31.16.63.32.97.48,1.85.88,3.95,1.89,5.76,5.15.7,1.27.95,2.42.72,3.45.18,0,.37,0,.55,0Zm11.28-7.35c.98,2.74,2.27,4.91,3.88,5.04.01,0,.03,0,.05,0,.33.06,3.23.58,7,1.55-4.59-2.41-7.05-5.49-7.09-5.54-.05-.07-.09-.15-.1-.24l-.68-5.22c-1.18,2.73-2.45,3.94-3.06,4.4h0Zm-2.18-9.81c.08.68.2,1.52.36,2.46,2.59-4.48,3.9-10.07,3.92-10.16.04-.16.15-.29.31-.35.15-.06.33-.03.46.07,0,0,.19.12.47,0,.43-.17,1.54-1.01,2.61-5.27.58-2.34.19-2.96-.01-3.12-.26-.21-.91-.28-2.56.54-.14.07-.32.07-.46-.01s-.23-.23-.24-.39c0-.03-.17-2.61-2.14-4.77.67,5.48,1.1,14.97-2.72,20.98h0Zm-23.68-15.93c-.24,0-.49.06-.68.23-.38.36-.86,1.5.31,5.14,0,.02,0,.04.01.06.17.9.87,3.37,2.04,4.03.23.13.47.18.72.15-.19-1.28-.75-5.09-1.34-9.49-.12.05-.25.05-.37,0,0,0-.33-.13-.7-.13h0Zm.72-10.8c.24,2.39.57,5.13.91,7.82,1.56-1.96,5.11-4.49,13.17-5.7,4.29-.65,7.75-.2,10.3,1.33-.18-1.1-.31-1.76-.32-1.79-.03-.13,0-.28.08-.39.08-.11.21-.18.35-.19,1.22-.11,2.46.82,3.28,1.59l-.37-8.48c-1.26-.65-2.28-1.43-2.67-1.74-4.34.48-7.06-2.22-7.94-3.27-2.33,1.71-5.11,2.91-7.77,3.75-2.21,4.55-5.93,6.37-9,7.06h0Zm-4.92-.63c.17.02,1.78.21,3.88-.14-.19-2.01-.31-3.72-.31-4.87,0-.25.2-.46.45-.48.07,0,4.41-.3,9.22-1.75,2.56-5.24,8.33-7.96,12.81-7.96h.12c3.26.04,5.73,1.43,6.79,3.82.02.06.04.11.04.17l.24,5.42c1.32.6,2.74.93,3.74.34,1.3-.77,2.49-3.43.82-11.74-1.31-6.5-3.82-10.45-7.47-11.75-4.89-1.74-11.9,1.13-20.83,8.52-2.36,1.95-5.6,4.04-8.74,6.05-5.76,3.7-12.29,7.9-11.66,10.56.43,1.8,4.09,3.08,10.88,3.81h.01,0Zm4.54-4.57c.02,1.08.13,2.55.29,4.24,2.63-.62,5.75-2.14,7.81-5.72-3.68,1.02-6.92,1.38-8.1,1.48Zm25.25-3.33c.11,0,.22.04.31.11.46.39,1.25.97,2.17,1.49l-.21-4.78c-.92-1.98-3.06-3.14-5.88-3.17h-.11c-3.93,0-8.92,2.24-11.49,6.57,2.43-.84,4.9-1.99,6.92-3.55.1-.08.24-.12.37-.1s.25.09.32.2c.11.16,2.76,3.87,7.55,3.23.02,0,.04,0,.06,0h0Z"/>
  <path class="cls-1" d="m549.91,617.47c2.42,1.07,6.59,2.59,11.86,2.73,16.52.43,33.64-13.02,33.79-25.22.07-5.62-3.51-9.76-5.36-12.05-17.17-21.22-23.32-53.96-22.87-72,.69-27.87,24.39-35.31,18.35-57.88-4.38-16.39-20.27-25.17-21.08-25.6-15.02-8.03-22.67.63-40.66-6.4-17.24-6.74-26.58-21.09-30.49-27.11-4.34-6.66-10.97-16.86-10.92-30.49.02-5.96,1.32-11.02,3.23-18.47,3.91-15.25,7.09-16.27,7-23.82-.13-11.07-7.09-19.35-10.13-22.97-2.69-3.19-9.59-10.5-21.05-14.1-20.6-6.47-37.85,4.7-39.81,6.02-3.21,2.16-11.29,7.74-15.56,17.87-4.13,9.8-.05,12.84-3.42,25.46-3.88,14.51-12.14,21.27-9.12,25.09,2.11,2.67,8.78,2.72,9.72,1.57.04-.05.13-.16.12-.31-.05-1.11-5.47-2.08-5.76-1.34-.03.09.01.18.04.24.83,1.55,4.76,2.48,5.26,4.26.46,1.62-1.88,4.14-1.69,5.74.01.11.04.35.21.59.38.55,1.18.61,1.65.63,1.98.08,5.95-.27,5.95-1.08,0-.11-.08-.2-.11-.23-.73-.71-5.26.8-5.76,3.7-.38,2.21,1.73,4.29,3.17,5.14.7.41.75.24,1.08.55,1.72,1.58-.78,5.08.58,8.18.61,1.4,1.75,2.11,2.89,2.83,7.47,4.69,25.05,3.07,28.03-4.13.08-.2.88-2.13.56-2.32-.47-.27-3.76,2.87-3.73,6.32.01,1.69.81,2.19,1.94,4.53,3.01,6.22.82,9.88,4.33,14.15,0,0,.87,1.05,2.35,2.16,10.96,8.18,50.37-4.33,51.48-1.29.09.26-.09.62-.3.68-2.42.7-24.48-33.84-16.03-61.8,2.71-8.96,7.24-12.89,6.68-22.75-.66-11.68-7.78-19.83-9.67-21.93-7.74-8.6-21.94-16.51-36.86-12.79-9.95,2.48-24.78,11.27-23.69,23.18,1.09,11.95,17.33,17.87,20.23,18,1.51.07,3.07-.32,3.07-.32.94-.23,2.25-.58,3.35-1.67.18-.18.6-.63,1-1.37,1.69-3.21.96-8.4,2.99-12.9.49-1.07,1.78-3.83,4.77-5.42,2.71-1.44,5.58-1.27,5.6-1.15.01.08-1.4.2-3.27,1.09-1.05.5-2.13,1.02-2.97,2.05-1.33,1.63-1.97,4.48-.93,5.46,1.44,1.34,6.07-.89,8.97-3.48,3.71-3.3,5.86-8.31,5.12-8.91-.2-.16-.58.02-.83.13-4.37,1.9-8.52-.55-12.17,1.8-2.6,1.67-3.09,4.58-3.84,4.32-.67-.24.12-2.45-.85-4.92-.84-2.15-2.56-3.32-3.79-4.15-6.36-4.32-15.63-3.14-15.81-1.96-.03.22.25.42.45.58,2.96,2.29,3.33,6.11,5.27,9.38,2.82,4.76,8.7,7.88,10.79,6.56.86-.54.97-1.78,1-2.11.52-5.81-11.24-10.94-10.88-11.59.27-.49,8.12.51,10.78,5.88,2.8,5.66-.58,15.31,2.14,19.52.35.54.77.98.77.98s2.09,2.18,6.53,2.33c5.14.17,21.68-7.29,21.76-17.58.1-11.49-20.37-18.79-27.95-21.5-22.31-7.96-43.25-3.5-52.77-1.35-7.73,1.75-13.9,3.99-17.98,5.65"/>
  <path class="cls-2" d="m550.35,617.2c.56-.68.96-1.41,1.21-2.13.82-2.42.05-4.95-1.96-6.45-2.51-1.87-5.09-1.51-7.43-.98,2.08-2.93,2.53-6.52,1.22-10-1.58-4.17-5.34-7.34-9.36-7.91-5.84-.82-9.08,1.31-10.78,3.25-2.7,3.09-3.13,7.39-2.38,10.07l.21.75.43-.64c.74-1.1,2.39-2,4.3-2.35,1.41-.26,4.14-.43,6.66,1.34,2.16,1.52,3.35,3.94,3.26,6.63-.11,3.15-1.91,6.07-4.81,7.84l-1.25.76,1.46-.09c4.7-.29,10.84-.14,17.61.49-1.34,1.03-3.27,1.75-5.9,1.72-15.23-.18-50.39,7.11-52.63,7.58l-16.1-6.67.12-9.45,10.36,2.22-.39-21.62-10.43.07-.24,18.46-6.47-1.38-.07-19.24-10.03-.18.25,18.05,9.14,1.95.03,8.65-14.41-5.5.38-29.81,38.52.9-.99,2.56.93,33.78,10.37-.82.17,3.48,17.17-3.08-.62-30.5,6.93-.55-13.68-41.18-16.04,35.69-3.21-.08,17.23-44.8.27-.71-45.38,15.4-.09-11.26-6.07-5.9-5.66,2.8-.24,18.46-11.1,3.77,10.01,17.48.82-.04-.05,3.88-2.13-.05-11.2-21.62-34.29-21.35-3.08,6.83-4.5-6.87-18.7,46.64,5.86.41,17.45-38.68,26.04,39.78.11.16,21.17.16-.55,25.89-4.36,1.37.87-23.45-18.03-.1-.25,26.58-7.08,3.06-13.61-3.61.04-.7,13.4,1.32.69-31.41c0-.09-3.05-5.3-9.16-15.63-4.55-7.71-9.11-15.41-9.11-15.41l-.35-.59-14.56,31.34c-.04.09-.07.2-.07.32.45,8.18,1.6,29.57,1.54,30.33l-.03.34.34.04c4.29.55,13.43,2.05,15.26,2.35l-.22,3.25-22.48-6.54-.39,3.86,15.43,3.23-.13,3.28c-2.55-.86-15.11-5.01-22.6-5.74-7.84-.76-19.08-1.23-28.15.82-1.16-.49-2.3-1.04-3.27-1.75,12.03-2.69,24.02-3.5,35.87-2.4h.13s.11-.06.11-.06c2.16-1.45,3.52-3.48,3.95-5.87.43-2.43-.14-5.05-1.55-6.99-1.22-1.69-2.53-2.82-3.79-3.56-.17-1.78-.66-3.62-1.45-5.37-1.6-3.56-4.27-6.3-7.51-7.73-5.1-2.26-13.58-1.76-18.37,2.98-2.57,2.55-4.92,7.23-1.69,15.16-3.35.06-6.06,1.09-7.67,2.91-1.43,1.61-1.96,3.78-1.6,6.45.24,1.74,1,3.06,2.03,4.1-1.6.28-3.87.78-6.48,1.71-3.6,1.28-7.26,2.58-10.35,5.84-1.22,1.29-3.27,3.83-4.42,8,1.68-3.92,3.93-6.38,5.36-7.72,3.39-3.16,6.97-4.46,9.78-5.48,2.71-.99,5.08-1.49,6.76-1.76,1.18.97,2.6,1.67,4,2.26l.11.04.11-.03c9-2.06,20.21-1.59,28.03-.83,8.23.8,22.74,5.81,22.89,5.86l.46.16.19-4.85-15.39-3.23.24-2.36,22.51,6.55.33-4.79-.32-.05c-.11-.02-10.38-1.73-15.29-2.37-.08-3.37-1.46-28.68-1.54-30.07l13.98-30.1c2.44,4.13,16.91,28.59,17.82,30.17l-.67,30.54-12.65-1.25,1.65-26.75-12.97-.74,2.47,27.34,8.1.8-.08,1.31,14.3,3.79.12.03,7.74-3.34.24-26.33,16.57.09-.88,23.72,5.82-1.83.58-27.14-21.52-.16-26.18-40.01,2.93-6.5,33.43,20.81,11.3,21.83,2.57.06-.39,30.32,15.85,6.05-.03-9.54,6.45,1.38-.13,10.08,16.75,6.94.11-.02c.36-.08,36.11-7.59,52-7.59.2,0,.39,0,.58,0,3.19.04,5.44-.97,6.91-2.34,2.16,1.07,5.28,2.28,9.12,2.63,8.9.82,16.81-3.41,16.85-3.29.02.05-1.32.67-3.48,1.32-2.27.68-7.11,2.08-13.18,1.32-3.23-.4-5.55-1.26-6.28-1.54-.9-.35-1.71-.72-2.42-1.08Zm-75.87-24.88l9.02-.06.36,20.01-9.62-2.06.24-17.89h0Zm-16.56,14.4l-.23-16.74,8.59.16.07,18.39-8.43-1.8h0Zm42.5-17.46l10.47-.19-1.66,28.58-7.35.58-1.45-28.97h0Zm-4.84-5.66l15.48-34.45,12.81,38.56-6.69.53.62,30.57-15.76,2.83-.13-2.69,7.99-.64,1.75-29.97-11.98.21,1.49,29.73-9.63.77-.9-32.88,1.03-2.67,3.94.09h0Zm-42.65-44.83l4.81-2.38,5.49,5.34.09,11.2-10.63,3.61.23-17.76h0Zm-.24,18.53l10.64-3.61.1,12.31-4.77,10.88-6.23.34.26-19.92h0Zm-.27,20.64l6.72-.37,5.01-11.43-.11-12.7,44.16-14.98-17.05,44.32-38.78-.91.05-3.94h0Zm-69.25,7.14l-4.38-.31,17.82-44.44,4,6.11-17.44,38.65h0Zm-7.85,19.97c-.85,3.49-3.29,5.37-6.7,5.16-2.15-.13-3.86-1.28-4.46-2.98-.57-1.64,0-3.44,1.53-4.81,1.58-1.42,3.63-2.2,5.73-2.2.3,0,.61.02.91.05.93.1,2.06.38,3.26,1.02.1,1.32,0,2.6-.28,3.77h0Zm-36.61,10.09c-.33-2.45.14-4.43,1.43-5.88,2.03-2.3,5.47-2.67,7.47-2.67.07,0,.13,0,.2,0h.55s-.22-.5-.22-.5c-3.38-7.86-1.14-12.42,1.33-14.86,4.43-4.39,12.67-5.01,17.58-2.84,4.89,2.16,7.84,7.28,8.47,12.04-1.14-.54-2.21-.79-3.1-.88-2.62-.28-5.24.57-7.2,2.33-1.75,1.57-2.39,3.66-1.72,5.58.69,1.99,2.64,3.31,5.09,3.46,3.79.23,6.5-1.85,7.44-5.71.27-1.09.37-2.27.33-3.49,1.05.69,2.13,1.68,3.15,3.09,1.27,1.77,1.82,4.24,1.42,6.45-.38,2.15-1.61,3.99-3.54,5.33-12.06-1.1-24.27-.24-36.51,2.55-1.11-1-1.91-2.27-2.15-4.01h0Zm58.56-.38l-2.34-25.92,11.42.65-1.6,26-7.48-.74Zm54.45-37.5l-.43.02-9.36-16.34,10.04-3.41-.25,19.72h0Zm97.76,39.85c-4.85-.47-9.4-.7-13.35-.7-1.32,0-2.58.03-3.75.08,2.48-1.91,3.99-4.71,4.09-7.69.1-2.94-1.2-5.58-3.56-7.24-2.74-1.92-5.69-1.74-7.2-1.46-1.76.32-3.32,1.09-4.28,2.07-.46-2.57.17-6.18,2.38-8.71,2.26-2.59,5.77-3.63,10.14-3.01,3.77.53,7.3,3.53,8.79,7.45.79,2.09,1.62,6.18-1.73,10.09l-.71.83,1.26-.3c2.51-.59,5.11-1.21,7.63.68,1.78,1.33,2.44,3.49,1.71,5.64-.26.78-.73,1.57-1.41,2.27h0Z"/>
  <g>
    <path class="cls-2" d="m484.44,204.88c-1.97,0-3.29-.61-3.95-1.82-1.03-1.91-.33-5.16,2.15-9.93,1.67-3.21,4.11-7.03,7.27-11.37,8.25-11.33,18.8-16.7,26.2-19.21,8.81-2.99,16.01-3.01,18.48-2.33.19.05.38.12.58.19-1.34-1.9-3.07-3.68-4.67-5.32-.61-.63-1.19-1.22-1.72-1.79-12.85-13.94-13.67-24.86-13.94-28.45-.03-.33-.04-.59-.07-.78-.04-.39-.09-.78-.14-1.18-.7-6.09-1.58-13.67-3.54-14.75-.29-.16-.58-.15-.93.02-4.22,2.04-8,4.77-11.9,8.59-6.43,6.3-16.56,8.52-24.7,10.3-5.71,1.25-10.64,2.33-11.65,4.43-.32.66-.25,1.43.21,2.35l.28.57c2.64,5.3,5.35,10.72,7.75,16.34,1.28-.24,2.59-.44,3.94-.6.94-.11,1.69.13,2.24.74,1.83,2.04.84,7.94-.59,14.33,3.04,7.96,6.2,17.18,3.06,22.22-1.3,2.09-3.61,3.3-6.86,3.59-.34.03-.64-.08-.86-.32-.92-1.01-.4-4.23.77-10.84.19-1.06.38-2.15.58-3.31.39-2.25,1.01-4.91,1.66-7.73.27-1.17.55-2.37.82-3.55-.23-.6-.46-1.19-.68-1.77-.65-1.68-1.26-3.27-1.77-4.71-.85-2.42-1.79-4.8-2.79-7.15-9.56,1.87-15.97,5.63-20.3,10.35,0,0-8.12,9.43-9.57,30.19-.12,1.75-.35,3.5-.48,5.25-.08,1-.28,1.99-.39,2.98-.06.54-.12,1.11-.41,1.82-.3.72-.82,1.49-1.01,1.41-.17-.07-.04-.8.05-1.32.18-1.03.44-1.64.63-2.24.23-.7.32-1.42.5-2.85.16-1.21.21-2.14.26-3.18.05-1.04.07-1.81.07-1.94.3-15.65,5.74-25.11,5.74-25.11,2.5-4.43,5.97-8.05,10.33-10.77,3.94-2.46,8.73-4.25,14.27-5.35-2.38-5.54-5.05-10.9-7.66-16.14l-.28-.57c-.57-1.14-.64-2.17-.22-3.05,1.18-2.46,6.04-3.52,12.19-4.87,8.04-1.76,18.05-3.95,24.32-10.09,3.96-3.88,7.81-6.66,12.11-8.74.58-.28,1.15-.28,1.66,0,2.32,1.28,3.15,8.43,3.95,15.36.05.4.09.79.14,1.18.03.21.04.48.07.82.26,3.52,1.07,14.24,13.74,27.97.52.56,1.09,1.15,1.7,1.78,1.84,1.89,3.97,4.08,5.44,6.49,7.54,5,11.12,9.94,12.67,12.43,2.19,3.52,4.71,9.18,5.48,10.99.31.73.82,1.97,1.34,3.32.67,1.73,1.11,2.87,1.58,4.4.31,1.01.6,2.11.82,3.46,0,.06.04.23.07.45.18,1.19.31,2.6.31,4.35,0,1.64-.11,3.49-.22,3.49-.04,0-.06-.28-.21-1.48-.06-.47-.14-1.07-.25-1.83-.16-1.06-.27-1.58-.45-2.89-.12-.89-.2-1.55-.21-1.67-.13-1.07-.54-2.8-.89-4.07-1.05-3.73-2.66-7.41-2.66-7.41-2.02-4.62-3.29-7.51-5.35-10.65-1.92-2.92-5.37-7.34-11.28-11.52,1.37,2.89,1.61,6.04-.8,9.35-3.8,5.23-11.4,13.37-21.33,20.54-16.89,12.2-26.15,12.48-30.2,12.59-.21,0-.38,0-.49.01Zm46.51-44.23c-3.53,0-8.83.7-14.58,2.65-7.29,2.47-17.69,7.76-25.81,18.92-7.56,10.38-10.88,17.65-9.36,20.46.55,1.02,1.79,1.48,3.7,1.39,19.13-.92,41.7-20.11,50.92-32.8,2.49-3.42,1.91-6.66.16-9.63-.59-.31-1.12-.53-1.59-.66-.76-.21-1.94-.34-3.43-.34h0Zm-55.5,5.95c-.18.8-.37,1.6-.56,2.39-.65,2.8-1.27,5.45-1.66,7.68-.2,1.16-.39,2.25-.58,3.31-.89,5.05-1.67,9.4-.97,10.17.04.05.1.08.21.07,3.03-.27,5.07-1.32,6.25-3.22,2.8-4.5.13-12.88-2.7-20.4h0Zm-4.95-15.12c.97,2.31,1.9,4.65,2.74,7.03.51,1.43,1.12,3.01,1.76,4.69.08.22.17.43.25.65,1.21-5.59,2-10.8.52-12.45-.37-.41-.87-.57-1.55-.48-1.29.16-2.53.34-3.72.56h0Z"/>
    <path class="cls-2" d="m541.09,134.76c-.05,0-.1-.01-.15-.03-3.99-1.7-6.47-4.12-7.21-7.04-3.9-.23-7.26-1.4-8.36-3.15-1.98-3.15-.35-6.95,4.46-10.44,4.47-3.25,11.16-5.63,12.75-3.72,1.02,1.23-.33,3.64-4.04,7.16-3.14,2.99-4.65,6.41-4.15,9.4,1.65.05,3.42-.06,5.19-.4,4.29-.83,11.74-3.59,13.42-12.8,2.17-11.87,5.21-18.8,7.65-24.37,2.53-5.77,4.35-9.93,3.8-16.52-.52-6.14-3.53-11.69-8.48-15.61-5.23-4.14-11.82-5.86-18.57-4.86-8.4,1.25-14.49,4.22-19.38,6.61-.36.18-.72.35-1.07.52-1.58.76-3.03,1.48-4.31,2.12-5.31,2.63-8.47,4.19-10.82,4.2-.53,0-1.03-.08-1.49-.25-2.02-.72-3.4-3.07-5.23-7.14-1.07-2.38-1.71-4.63-2.32-6.8-1.78-6.29-3.31-11.72-14.41-18.32-7.37-4.38-13.82-5.36-17.93-5.41-5.08-.06-8.55,1.29-9.62,2.57-5.41,6.46-8.38,11.69-9.92,14.95-1.94,4.1-2.31,6.51-2.1,7.16.03.07.13.27.26.57.72.55,1.21,1.62,1.33,1.9,1.71,4.01,2.65,12.03-10.23,20.65-2.26,1.51-3.5,4.5-2.71,6.54.38.97,1.15,1.43,2.04,1.96.89.53,1.9,1.12,2.5,2.34,1.2,2.41.15,4.13-.48,5.15-.15.24-.35.57-.37.7,0,0,.02.01.03.02,2.79,1.39,5.98,3.33,6.34,5.08,2.6,1.99,4.81,3.61,8.07,5.92.36.26.39.56.38.72-.06.68-1.03,1.18-2.61,1.93-.23.11-.45.21-.66.32-5.38,2.65-8.88,3.72-10.92,3.32.13.34.29.69.46,1.07,1.11,2.38.77,4.87.45,7.28-.34,2.49-.65,4.83.79,6.63,6.43,8.02,20.34,2.97,31.52-1.09,3.67-1.33,7.14-2.59,9.96-3.25,4.85-1.13,19.89-7.29,21.47-11.77.37-1.04.59-2.92.82-4.9.49-4.19,1.05-8.93,3.26-10.13.36-.19.73-.34,1.11-.46.08-.17.15-.35.23-.53,1.45-3.29,3.88-8.8,2.96-10.05-.08-.11-.25-.26-.7-.2-7.87.92-14.06-.57-20.04-2.01-.84-.2-1.68-.4-2.54-.6-.09,1.02-.47,1.93-1.13,2.61-4.16,4.29-8.54,7.53-13.02,9.62-3.79,1.76-7.53,2.63-10.82,2.52-2.96-.1-5.39-1.03-6.67-2.55-1.23-1.46-1.5-3.93-.69-6.3,1.25-3.64,4.71-6.31,9.49-7.33,9.04-1.93,15.8-.96,22.04.44-.06-.65-.26-1.33-.58-1.99-.65-1.34-2.12-3.22-5.41-4.51-1.82-.71-3.94-1.15-6.35-1.31-.45.15-1.04.28-1.77.42-.83.15-1.5.33-2.15.51-1.77.47-3.17.85-6.28.32-3.1-.52-5.11-1.84-5.37-2.6-.07-.22-.03-.43.11-.58.26-.28.7-.2,1.02-.12.42.11.86.24,1.33.39,1.9.57,4.27,1.28,6.72,1.03,2.26-.23,4.35-.29,6.28-.17.37-.14.47-.24.49-.31,0-.04,0-.3-.95-1.1-.78-.66-1.99-1.51-3.65-2.69-.31-.22-.64-.45-.98-.69-2.76-1.97-5.57-.71-7.61.21-1.18.53-2.03.91-2.57.44-.5-.43-.46-1.36.12-3.42.48-1.67,1.22-3.52,3.08-4.55,2.14-1.18,5.35-1.07,10.11.34,2,.59,3.41,1.32,4.91,2.1,1.19.61,2.41,1.25,3.97,1.82-1.1-.96-3.34-2.59-6.29-4.2-3.5-1.91-8.69-4.15-13.58-4.03-5.47.14-5.93,2.02-6.23,3.27-.04.15-.07.3-.11.43-2.97,9.67-4.01,16.87-3.08,21.4.06.32.13.63.2.93.48,2.19.89,4.07-.46,5.64-2.85,3.28-6.04,2.73-7.33,1.97-.11-.06-.21-.13-.31-.19-2.52-.52-4.34-.98-5.42-1.36-1.01-.36-1.4-.66-1.4-1.08,0-.04,0-.09,0-.09,0-.02,0-.05.01-.07.14-.47.8-.94,1.59-1.14.71-.18,2.11-.28,3.45,1.04.36.36.62.64.82.86.41.45.65.71,1.29,1.12,0,0,.01,0,.02.01.1.06.21.13.34.21,1.09.64,3.82,1.08,6.33-1.81,1.09-1.26.74-2.89.29-4.94-.07-.31-.14-.62-.2-.94-.96-4.67.09-12,3.1-21.8.03-.11.07-.24.1-.38.34-1.39.9-3.72,6.98-3.88,5.06-.13,10.39,2.17,13.98,4.12,3.69,2.01,7,4.52,7.38,5.33.13.29,0,.48-.05.55-.22.25-.56.14-.67.11-2.12-.67-3.63-1.45-5.08-2.2-1.46-.76-2.85-1.47-4.77-2.04-4.48-1.32-7.59-1.46-9.5-.4-1.6.88-2.26,2.55-2.7,4.07-.64,2.23-.42,2.56-.37,2.61.16.14,1.14-.3,1.72-.57,2.1-.94,5.26-2.36,8.4-.13.34.24.67.47.98.69,3.73,2.65,5.13,3.64,4.91,4.61-.02.08-.05.16-.08.23,2.08.21,3.95.64,5.58,1.28,3.53,1.39,5.12,3.43,5.83,4.9.4.83.62,1.7.67,2.52.91.21,1.81.43,2.71.64,6.19,1.49,12.03,2.89,19.76,1.99.8-.09,1.22.23,1.43.52,1.1,1.49-.63,5.76-2.84,10.77.07-.02.13-.03.2-.05,1.55-.39,2.42-.66,2.5-1.85.17-2.72,1.12-3.71,1.9-4.07.76-.35,1.67-.2,2.43.38.97.74,1.47,1.98,1.28,3.16-.51,3.11.2,4.04.67,4.32.59.35,1.53.11,2.45-.61,1.2-.95,2.26-2.69,1.77-4.27-.13-.42-.59-1.05-1.07-1.73-1.08-1.51-2.43-3.38-1.86-5.03.35-1.02,1.36-1.75,3.07-2.25,2.08-.6,3.25,1.25,4.38,3.05.45.72.92,1.47,1.44,2.03,2.13,2.33,2.98,4.62,2.52,6.78-.96,4.53-7.39,7.35-10.48,8.7-.43.19-.8.35-1.07.48-8.33,3.98-12.29.85-12.82-.13-.97-1.8.69-6.19.76-6.38.14-.36.31-.78.51-1.25-.1.04-.19.09-.28.14-1.85,1-2.4,5.73-2.85,9.52-.25,2.12-.46,3.95-.86,5.07-.96,2.73-5.9,5.63-9.87,7.58-4.67,2.3-9.76,4.14-12.17,4.7-2.78.65-6.22,1.9-9.87,3.22-6.92,2.51-14.86,5.4-21.55,5.4-4.35,0-8.18-1.22-10.85-4.56-1.65-2.06-1.31-4.57-.95-7.23.31-2.3.63-4.67-.38-6.83-.3-.64-.54-1.22-.72-1.77-.48-.29-.83-.72-1.08-1.31-.34-.81-.62-3.73,1.15-4.67,0-.33-.05-.66-.13-.97-.09-.37-.39-.98-.65-1.52-.54-1.11-.78-1.62-.44-1.93.04-.04.08-.06.13-.08-.95-.82-1.12-2.05-1.12-3.18,0-1.3.37-2.12,1.08-2.45.3-.14.65-.18,1.02-.13-.19-.11-.32-.27-.37-.46-.12-.41.13-.82.46-1.35.61-1,1.44-2.36.44-4.38-.5-1.01-1.32-1.5-2.19-2.01-.93-.55-1.9-1.13-2.37-2.35-.91-2.35.46-5.78,3.01-7.48,7.78-5.21,10.34-10.14,10.78-14.02-.11.05-.27.07-.49.02-.85-.23-2.13-1.7-2.83-2.93-.5-.89-1.07-1.89-.82-3.15.16-.81.74-2.02,1.68-2.13-.71-2.18,2.71-11.58,12.16-22.86,2.71-3.24,15.25-5.24,28.56,2.67,11.37,6.75,13.02,12.6,14.77,18.78.61,2.14,1.23,4.36,2.28,6.69,1.74,3.88,3.02,6.1,4.78,6.72,2.2.79,5.37-.78,11.69-3.91,1.28-.64,2.73-1.36,4.32-2.12.35-.17.7-.34,1.06-.52,4.94-2.41,11.09-5.42,19.61-6.68,3.53-.52,7.02-.32,10.39.59,3.23.88,6.19,2.37,8.79,4.43,5.12,4.06,8.24,9.8,8.77,16.16.57,6.79-1.29,11.03-3.86,16.91-2.42,5.53-5.44,12.41-7.59,24.19-.71,3.87-2.48,7.04-5.26,9.41-2.32,1.98-5.36,3.37-8.79,4.03-1.71.33-3.47.46-5.16.42.75,2.57,3.04,4.72,6.69,6.27.2.09.3.32.21.52-.06.15-.21.24-.37.24h0Zm-.47-24.29c-2.26,0-6.68,1.61-10.34,4.26-2.1,1.52-6.7,5.48-4.25,9.38.88,1.4,3.85,2.53,7.53,2.78-.45-3.21,1.14-6.82,4.42-9.93,4.68-4.45,4.22-5.78,3.97-6.08-.23-.27-.69-.4-1.34-.4h0Zm-109.18-1.72s.05.02.08.03c1.69.64,5.23-.39,10.81-3.14.21-.1.44-.21.67-.32.65-.31,1.97-.93,2.15-1.26,0,0-.02-.02-.03-.03-3.1-2.2-5.26-3.78-7.71-5.65-.21.45-.67.8-1.36,1.03,2.15.33,6.22,3.14,7.38,4.12.3.25.23.51.19.6-.2.45-.67.42-3.88.04-2.62-.31-6.48-.77-8.12-.31-.04.44-.14.89-.29,1.38-.33,1.06-.31,2.15.1,3.5h0Zm-.72-4.27c-.55.79-.53,2.14-.38,2.87-.08-.83,0-1.59.23-2.34.06-.18.1-.36.14-.53h0Zm2.95-1.6c1.85,0,4.15.28,6.16.52.88.1,1.83.22,2.48.27-1.95-1.48-5.56-3.63-6.74-3.47-.32.04-.61.08-.88.12-1.95.27-2.75.39-4.15-.37.08.18.18.38.26.55.29.6.59,1.22.7,1.67.08.3.12.59.14.9.56-.12,1.26-.17,2.04-.17h0Zm68.5-9.19c-.32.74-.6,1.39-.8,1.9-.62,1.63-1.39,4.62-.8,5.72.11.21,1,1.15,2.98,1.52,1.69.32,4.59.28,8.8-1.73.29-.14.66-.3,1.1-.49,2.97-1.3,9.15-4.01,10.03-8.14.4-1.9-.38-3.95-2.33-6.08-.57-.62-1.05-1.4-1.53-2.15-1.23-1.95-2.08-3.11-3.48-2.71-1.43.41-2.28,1-2.54,1.74-.44,1.25.78,2.94,1.75,4.3.55.76,1.02,1.42,1.18,1.96.6,1.94-.63,4.02-2.03,5.13-1.2.95-2.45,1.2-3.34.67-.79-.47-1.62-1.74-1.05-5.13.15-.89-.24-1.83-.98-2.39-.54-.41-1.13-.52-1.62-.29-.81.37-1.32,1.58-1.43,3.39-.11,1.82-1.63,2.2-3.1,2.57-.26.07-.53.13-.8.21h0Zm-71.7.14c-.15,0-.29.03-.4.08-.5.23-.61,1.07-.62,1.73,0,1.92.56,3.23,3.36,3.33,2.68.1,3.79-.49,3.93-1.03,0-.02,0-.04.01-.06-.36-.27-.72-.55-1.1-.85-.11-.08-.26-.22-.46-.38-.87-.74-3.35-2.83-4.71-2.83h0Zm38.09-15.89c-2.96,0-6.16.3-9.73,1.06-4.5.96-7.74,3.44-8.9,6.81-.71,2.08-.49,4.3.54,5.53,1.13,1.35,3.35,2.17,6.09,2.27,7.1.24,15.79-4.2,23.24-11.9.55-.57.86-1.36.92-2.24-3.74-.84-7.67-1.54-12.16-1.54h0Zm-36.54,7.01c.27.19,1.24.62,4.62,1.37-.06-.06-.12-.13-.18-.2-.21-.23-.45-.49-.8-.83-1.04-1.03-2.11-.97-2.66-.84-.51.12-.84.35-.98.51h0Zm21.89-15.33c.62.5,2.05,1.3,4.39,1.69,2.94.49,4.26.14,5.94-.31.25-.07.51-.13.78-.21-.95.03-1.94.1-2.97.2-2.61.27-5.06-.47-7.03-1.06-.39-.12-.77-.23-1.12-.33h0Zm-15.73-16.02h-.03c-.42.03-.87.82-1.01,1.5-.2.97.28,1.8.73,2.6.75,1.32,1.82,2.34,2.26,2.53.15-1.97-1.08-5.11-1.7-6.56-.08-.05-.17-.07-.24-.07h0Z"/>
    <path class="cls-2" d="m521.61,131.51s-.07,0-.11-.02c-.21-.06-.33-.28-.27-.49.04-.13.08-.27.12-.4.39-1.32.75-2.58.04-3.6-1.08-1.57-4.63-2.58-10.84-3.08-3.34-.27-4.44-1.82-4.76-3.07-1.01-3.84,3.63-9.89,11.83-15.43,3.44-2.33,6.5-6.07,8.39-10.27,1.91-4.24,2.33-8.34,1.17-11.27-1.65-4.15-6.23-5.73-13.25-4.59-6.93,1.13-10.79.71-11.83-1.26-.65-1.24.37-3.26,1.34-4.73,2.13-3.25,5.99-6.91,10.07-9.54,3.57-2.31,9.02-4.98,14.72-4.57,8.56.61,11.96,2.69,16.49,10.09,1.99,3.25,3.48,6.77,4.91,10.18,1.98,4.7,3.85,9.14,6.75,11.99,3.2,3.14,7.33,4.01,12.98,2.73.21-.05.43.09.48.3.05.21-.09.43-.3.48-5.95,1.35-10.3.41-13.72-2.93-3.02-2.96-4.92-7.47-6.93-12.25-1.42-3.38-2.89-6.87-4.86-10.07-4.42-7.21-7.54-9.12-15.87-9.72-9.37-.67-19.99,7.56-24.06,13.76-1.17,1.78-1.65,3.25-1.3,3.93.47.91,2.53,2.23,10.99.85,3.86-.63,7.04-.45,9.48.52,2.23.89,3.79,2.43,4.64,4.56,1.24,3.12.81,7.46-1.18,11.89-1.95,4.33-5.11,8.19-8.67,10.6-8.99,6.08-12.26,11.7-11.5,14.57.48,1.82,2.47,2.35,4.06,2.48,6.65.53,10.17,1.59,11.43,3.42.92,1.34.49,2.83.06,4.28-.04.13-.08.26-.12.4-.05.17-.21.29-.38.29h0Z"/>
    <path class="cls-2" d="m574.25,68.08c-.72,0-1.42-.08-2.11-.23-3.98-.89-5.66-4.14-7.61-7.9-1.82-3.52-3.89-7.52-8.35-10.23-4.89-2.97-10.71-4.62-18.34-5.16l-.37-.03c-6.76-.49-11.65-.84-18.33-1.71-21.79-2.83-29.53-14.02-35.75-23.01-3.67-5.31-6.85-9.89-12.1-11.4-3.93-1.13-7.46-1.08-10.5.13-3.54,1.42-6.5,4.4-8.58,8.63-2.09,4.25-3.17,9.54-3.14,15.3,0,.22-.18.4-.39.4h0c-.22,0-.4-.18-.4-.39-.03-5.88,1.08-11.3,3.22-15.66,2.17-4.41,5.28-7.53,9-9.02,3.21-1.29,6.92-1.34,11.02-.16,5.53,1.59,8.77,6.28,12.53,11.72,6.13,8.86,13.76,19.88,35.2,22.67,6.65.87,11.53,1.22,18.28,1.7l.37.03c7.76.56,13.7,2.24,18.7,5.28,4.65,2.83,6.77,6.93,8.65,10.55,1.86,3.59,3.46,6.68,7.07,7.49,1.87.42,3.89.21,6.01-.6.21-.08.43.02.51.23s-.02.43-.23.51c-1.5.58-2.95.87-4.35.87h0Z"/>
    <path class="cls-2" d="m558.51,51.2c-.19,0-.36-.13-.39-.33-.63-3.58-2.59-11.92-8.1-20.99-2.04.37-4.15.86-6.36,1.38-5.61,1.31-11.96,2.79-18.78,2.52-7.83-.31-15.11-2.88-22.27-7.85-2.6-1.8-5.2-4.13-7.96-6.61-8.04-7.2-17.15-15.36-29.55-13.11-.24.04-.38-.06-.45-.15-.09-.12-.1-.29-.03-.42.06-.13.15-.3,3.11-1.19,1.6-.48,4.23-1.21,7.64-1.95,5.78-1.25,14.7-2.69,24.42-2.47,11.06.25,20.32,2.63,28.28,7.29,10.65,6.23,17.7,14.18,22.33,21.69,5.13-.89,9.8-.96,14.17,1.41.19.1.26.35.16.54-.1.19-.35.26-.54.16-4.07-2.2-8.48-2.19-13.35-1.38,5.46,9.09,7.41,17.41,8.05,21,.04.22-.11.42-.32.46-.02,0-.05,0-.07,0h0ZM469.29,5.03c10.61,0,18.68,7.23,25.9,13.7,2.74,2.45,5.32,4.77,7.88,6.54,15.78,10.95,28.87,7.9,40.42,5.21,2.1-.49,4.13-.96,6.09-1.33-4.58-7.33-11.5-15.07-21.89-21.15-7.85-4.59-16.98-6.94-27.9-7.18-13.45-.3-25.68,2.57-31.32,4.23.28,0,.56-.01.83-.01h0Z"/>
  </g>
  <path class="cls-1" d="m391.04,291.54c-4.54,1.13-49.73,12.96-56.09,41.79-1.6,7.25-.9,16.24-.75,18.07,1.55,19.79,9.65,24.23,11.67,38.4,3.47,24.35-15.69,44.64-16.94,45.93-14.16,14.57-31.4,17.1-36.14,17.69-5.4.68-30.9,3.9-45.93-12.8-8.75-9.72-9.81-21.6-10.54-29.74-2.35-26.31,11.2-33.88,9.79-56.47-1.48-23.53-17.72-39.72-20.9-42.89-17.05-16.98-43.14-23.8-66.5-19.19-18.68,3.68-26.18,12.86-26.87,21.72-.65,8.33,10.5,17.23,20.93,17.77,5.52.28,9.66-1.85,11.82-3,9.63-5.12,19.88-18.03,15.53-26.82-3.69-7.45-16.68-9.54-25.8-5.78-7.75,3.19-15.27,11.66-13.42,18.4.41,1.48,1.78,4.78,11.06,8.68,13.81,5.81,35.96,9.11,39.48,1.58,3.38-7.21-12.14-20.53-13.95-22.09-3.21-2.76-20.52-17.61-31.32-11.83-12.12,6.48-13.12,37.29.26,44.43,10.14,5.41,29.72-2.14,31.32-13.93,1.13-8.29-6.83-17.18-15.53-19.72-13.16-3.84-28.23,6.81-27.9,13.93.12,2.62,2.31,4.38,5.79,7.1,4.81,3.76,15.79,12.32,29.24,8.92,7.58-1.92,18.74-8.29,19.45-18.19.79-10.97-8.94-21.07-22.78-23.42-13.84-2.35-28.57,5.59-35.44,12.93-5.18,5.54-8.87,14.68-9.3,22.16-.62,10.73,4.19,18.04,6.42,22.98,14.01,31.01-11.21,67.13-15.41,62.44-4.24-4.74,38.6.45,49.2.62,1.22.02,2.23-.96,2.26-2.18.09-5.17,1.3-10.71,4.17-14.3,4.61-5.76-.59-11.41-1.72-10.96-.35.14-.31.86.54,2.35,3.58,6.28,20.15,8.15,26.95,4.17,6.8-3.98.41-10.9,4.37-11.67,1.93-.38,2.93-1.34,3.34-2.36.39-.98.13-2.12-.29-2.83-1.32-2.21-5.22-2.55-6.16-1.29-.31.42-.38,1.11-.08,1.38.82.75,3.77-2.38,6.32-2.51.26-.01,1.12-.04,1.57-.61.12-.15.2-.35.22-.62.12-1.33-1.87-3.2-1.63-5.79.24-2.59,4.34-2.93,5.06-4.31.71-1.38-6.49-.09-5.38,1.42,1.11,1.5,7.93,1.69,9.35-1.59,1.79-4.13-10.81-16.34-8.76-25.35,1.53-6.74.55-16.54-3.29-25.72-3.24-7.74-10.63-15.26-14.96-18.06-17.5-11.3-41.3-12.46-58.51,8.16-5.09,6.1-9.28,15.37-9.74,23.21-.65,11.24,4.41,18.88,6.73,24.06,9.43,21.15,3.39,40.56-3.6,51.61-1.55,2.45-8.72,10.01-18.32,10.69-13.08.92-27.49-11.68-32.99-31.68"/>
  <path class="cls-1" d="m438.29,201.37c-.65,2.45-1.85,5.56-4.27,8.4-18.42,21.67-84.64,1.54-86.36-17.61-.98-10.92,19.69-13.58,22.87-31.62,3.18-18.06-12.84-41.99-28.8-43.2-17.58-1.33-20.92,25.99-54.78,38.12-15.55,5.57-33.69,6.94-33.69,6.94-7.93.6-14.72.4-19.86.03"/>
  <path class="cls-1" d="m66.9,376.44c-2.59-11.27-5.37-29.7-1.88-51.86,1.7-10.83,5.15-33.42,21.18-53.36,14.17-17.63,31.63-25.66,48.28-32.19,65.44-25.66,108.24-42.43,160.94-33.04,56.02,9.99,48.82,36.28,119.44,53.36,10.36,2.51,93.49,22.12,125.36-12.71,18.05-19.72,18.42-40.73,18.42-40.73.04-1.99-.06-3.63-.14-4.66-.16-1.62-.33-3.25-.49-4.87"/>
  <path class="cls-1" d="m340.02,619.34c-1.98.4-4.83,1.14-8.08,2.56-2.86,1.25-5.63,2.46-8.28,5.08-1.82,1.79-4.41,4.36-4.89,7.91-.7,5.17,3.11,7.26,6.21,15.62,1.24,3.33,4.57,12.33,1.32,15.62-3.26,3.29-9.54-2.74-18.73-2.26-15.21.8-17.01,18.35-32.09,21.46-7,1.45-16.56-3.37-35.67-12.99-10.57-5.32-18.04-10.25-31.33-12.95-5.56-1.13-8.34-1.69-11.87-1.45-15.43,1.05-17.91,13.23-34.45,17.51-8.2,2.12-19.3,2.16-24.85-3.29-4.44-4.37-5.84-10.07-5.84-10.07-.42-1.7-.54-3.18-.56-4.24"/>
  <path class="cls-1" d="m.5,698.94c5.72-6.29,10.04-11.18,12.71-14.22,5.06-5.77,7.6-8.81,12-9.46.78-.12,5.05-.74,8.19,1.79,4.77,3.85,1.06,10.26,4.89,16.94,4.79,8.36,16.87,9.24,18.54,9.36,6.01.44,16.86-.84,19.48-7.39.23-.58.96-2.39.47-4.52-1.53-6.7-12.85-6.88-13.84-12.89-.37-2.26.87-4.47,1.32-5.27,1.54-2.75,4.89-5.54,5.62-8.05.12-.42.25-.9.25-.9.27-1.06.44-2,.6-3.12.38-2.65.67-6.1.71-6.49"/>
  <path class="cls-1" d="m.5,115.07c.63-.2,9.27-2.83,15.53,2.61.61.53,5.17,4.61,4.73,9.88-.31,3.75-2.86,4.68-6.85,10.09-2.46,3.33-9.23,12.52-6.56,19.27,1.49,3.77,5.4,5.47,6.28,5.86,8.79,3.83,14.95-4.98,27.88-2.96,1.81.28,4.13.83,8.26,1.2,4.3.38,7.82.32,10.02.21"/>
</svg>