<?xml version="1.0" encoding="UTF-8"?>
<svg id="Layer_1" data-name="Layer 1" xmlns="http://www.w3.org/2000/svg" viewBox="0 0 1200.69 287.22">
  <defs>
    <style>
      .cls-1 {
        fill: #010101;
      }

      .cls-2 {
        fill: none;
        stroke: #231f20;
        stroke-miterlimit: 10;
      }
    </style>
  </defs>
  <g>
    <path class="cls-1" d="m577.03,253.07c-2.43,0-4.07-.76-4.87-2.25-1.28-2.36-.41-6.38,2.65-12.27,2.06-3.96,5.08-8.69,8.98-14.05,10.18-13.99,23.22-20.63,32.36-23.73,10.88-3.69,19.78-3.72,22.83-2.88.23.06.47.14.72.24-1.66-2.35-3.8-4.55-5.76-6.57-.75-.77-1.47-1.51-2.12-2.21-15.88-17.22-16.89-30.71-17.22-35.14-.03-.4-.05-.72-.08-.97-.06-.48-.11-.96-.17-1.45-.87-7.52-1.95-16.89-4.37-18.22-.35-.19-.72-.19-1.15.02-5.21,2.52-9.88,5.89-14.7,10.61-7.94,7.78-20.46,10.52-30.51,12.72-7.05,1.54-13.14,2.87-14.38,5.48-.39.82-.3,1.77.26,2.91l.35.71c3.26,6.55,6.61,13.24,9.57,20.18,1.58-.29,3.2-.54,4.87-.74,1.16-.14,2.09.17,2.76.92,2.26,2.52,1.03,9.81-.73,17.7,3.75,9.83,7.66,21.22,3.78,27.45-1.61,2.58-4.46,4.07-8.47,4.43-.42.04-.79-.1-1.06-.4-1.14-1.24-.5-5.22.95-13.39.23-1.31.47-2.66.72-4.08.48-2.78,1.24-6.07,2.06-9.54.34-1.45.68-2.92,1.01-4.39-.28-.74-.57-1.47-.84-2.19-.8-2.08-1.56-4.04-2.19-5.82-1.06-2.99-2.22-5.93-3.44-8.83-15.38,2.44-22.47,9.67-25.08,12.78-10.31,12.33-11.53,33.5-11.55,37.15,0,.68.02,3.49-.84,7.06-.38,1.58-.96,3.95-2.5,6.59-2.17,3.73-5.23,6.25-5.51,6.02-.36-.3,4.81-4.89,6.82-12.85.64-2.52.65-4.15.8-6.73.49-8.35,1.23-20.76,7.07-31.03,1.99-3.5,4.08-5.87,4.78-6.65,2.31-2.55,4.97-4.77,7.98-6.65,4.87-3.03,10.78-5.25,17.63-6.61-2.94-6.84-6.24-13.46-9.47-19.93l-.35-.71c-.7-1.41-.79-2.68-.27-3.77,1.45-3.04,7.46-4.35,15.06-6.01,9.93-2.17,22.3-4.88,30.04-12.46,4.9-4.8,9.65-8.23,14.96-10.79.71-.34,1.42-.34,2.05,0,2.87,1.58,3.89,10.42,4.87,18.97.06.49.11.97.17,1.45.03.26.06.59.09,1.01.33,4.35,1.32,17.59,16.97,34.55.64.7,1.35,1.42,2.1,2.2,2.27,2.34,4.91,5.04,6.72,8.02,4.28,2.97,10.25,7.87,15.65,15.36,0,0,6.16,8.54,9.52,19.29,1.46,4.67,2.16,9.22,2.16,9.22.14.88.42,2.77.56,5.04.43,6.94-.77,13.11-1.13,13.08-.39-.03.88-7.29-.85-17.93-.71-4.36-1.7-7.95-2.54-10.54-1.13-3.49-3.36-10.19-8.54-17.6-4.65-6.64-9.84-11.23-13.93-14.24,1.7,3.57,1.98,7.47-.98,11.55-4.7,6.46-14.09,16.51-26.35,25.36-20.87,15.06-32.3,15.41-37.3,15.55-.26,0-.47.01-.61.01Zm57.44-54.63c-4.36,0-10.91.87-18.01,3.28-9.01,3.06-21.85,9.59-31.88,23.37-9.33,12.82-13.44,21.8-11.56,25.27.68,1.25,2.22,1.83,4.57,1.72,23.63-1.13,51.5-24.84,62.9-40.51,3.07-4.22,2.36-8.22.19-11.9-.73-.38-1.39-.65-1.97-.81-.94-.26-2.39-.42-4.24-.42h0Zm-68.55,7.35c-.23.98-.46,1.97-.69,2.96-.81,3.46-1.57,6.74-2.05,9.49-.25,1.43-.49,2.78-.72,4.09-1.11,6.23-2.06,11.61-1.2,12.56.05.06.12.1.26.08,3.74-.33,6.27-1.63,7.73-3.97,3.46-5.56.16-15.91-3.34-25.2h0Zm-6.12-18.68c1.2,2.85,2.34,5.75,3.38,8.69.62,1.77,1.38,3.72,2.18,5.79.1.27.21.54.31.81,1.49-6.9,2.47-13.34.64-15.38-.45-.5-1.08-.7-1.91-.6-1.59.19-3.12.42-4.6.69h0Z"/>
    <path class="cls-1" d="m647,166.46c-.06,0-.13-.01-.19-.04-4.93-2.1-8-5.09-8.9-8.69-4.81-.29-8.96-1.72-10.33-3.9-2.44-3.89-.43-8.59,5.5-12.9,5.53-4.01,13.78-6.95,15.75-4.6,1.26,1.52-.41,4.49-4.98,8.85-3.87,3.69-5.74,7.91-5.13,11.61,2.04.07,4.22-.08,6.41-.5,5.3-1.02,14.5-4.43,16.58-15.81,2.68-14.67,6.43-23.22,9.45-30.1,3.12-7.12,5.38-12.27,4.69-20.41-.64-7.59-4.36-14.43-10.47-19.28-6.45-5.11-14.6-7.24-22.94-6.01-10.38,1.54-17.9,5.21-23.94,8.16-.45.22-.89.43-1.32.64-1.95.94-3.74,1.83-5.32,2.62-6.56,3.25-10.46,5.18-13.36,5.18-.66,0-1.27-.1-1.84-.31-2.49-.89-4.2-3.79-6.46-8.82-1.33-2.94-2.11-5.72-2.87-8.4-2.2-7.77-4.09-14.48-17.8-22.62-9.11-5.41-17.07-6.62-22.14-6.69-6.27-.08-10.56,1.59-11.88,3.17-6.68,7.98-10.35,14.44-12.25,18.47-2.39,5.06-2.86,8.05-2.59,8.84.04.09.16.34.32.71.89.68,1.5,2,1.64,2.35,2.11,4.95,3.27,14.86-12.63,25.5-2.79,1.87-4.32,5.56-3.35,8.07.47,1.2,1.42,1.76,2.52,2.42,1.1.65,2.34,1.39,3.09,2.89,1.48,2.98.18,5.1-.59,6.36-.18.3-.43.7-.45.86,0,0,.02.01.04.02,3.45,1.72,7.39,4.11,7.83,6.28,3.21,2.46,5.95,4.46,9.96,7.31.45.32.48.69.47.89-.07.84-1.27,1.46-3.23,2.39-.28.13-.56.26-.81.39-6.65,3.28-10.97,4.6-13.49,4.1.16.42.35.86.57,1.32,1.37,2.93.95,6.01.55,8.99-.42,3.07-.81,5.97.97,8.19,7.94,9.91,25.12,3.67,38.93-1.35,4.53-1.65,8.82-3.2,12.3-4.01,5.99-1.39,24.57-9,26.52-14.54.45-1.28.72-3.6,1.01-6.05.61-5.17,1.29-11.03,4.02-12.51.44-.24.9-.42,1.37-.57.09-.21.19-.43.29-.65,1.79-4.06,4.79-10.87,3.66-12.41-.1-.14-.3-.32-.87-.25-9.73,1.13-17.37-.7-24.76-2.48-1.04-.25-2.08-.5-3.13-.74-.11,1.26-.58,2.39-1.39,3.23-5.13,5.3-10.54,9.3-16.08,11.88-4.68,2.18-9.3,3.25-13.36,3.11-3.66-.13-6.66-1.28-8.24-3.15-1.52-1.8-1.85-4.86-.85-7.78,1.54-4.5,5.81-7.8,11.72-9.05,11.17-2.38,19.51-1.18,27.22.54-.08-.81-.32-1.64-.71-2.46-.8-1.66-2.62-3.97-6.68-5.57-2.25-.88-4.87-1.42-7.85-1.62-.56.19-1.29.35-2.19.52-1.03.19-1.86.41-2.66.63-2.19.58-3.92,1.04-7.75.4-3.83-.64-6.31-2.28-6.63-3.21-.09-.27-.04-.53.13-.71.32-.34.87-.25,1.25-.15.51.14,1.06.3,1.64.48,2.35.7,5.27,1.58,8.3,1.27,2.79-.28,5.38-.35,7.76-.21.46-.17.58-.3.6-.38.01-.05,0-.37-1.17-1.36-.97-.81-2.45-1.87-4.5-3.33-.38-.27-.79-.56-1.21-.86-3.41-2.43-6.88-.88-9.4.26-1.45.65-2.51,1.12-3.17.55-.62-.53-.57-1.68.15-4.23.59-2.07,1.51-4.35,3.8-5.62,2.64-1.45,6.61-1.32,12.48.42,2.47.73,4.22,1.63,6.07,2.59,1.47.76,2.98,1.54,4.91,2.24-1.36-1.18-4.12-3.2-7.77-5.18-4.32-2.35-10.74-5.13-16.77-4.97-6.76.17-7.32,2.5-7.69,4.04-.05.19-.09.36-.14.53-3.67,11.94-4.95,20.83-3.8,26.44.08.39.17.78.25,1.15.59,2.7,1.1,5.03-.57,6.96-3.52,4.06-7.46,3.37-9.06,2.44-.14-.08-.26-.16-.38-.23-3.11-.64-5.36-1.2-6.7-1.68-1.25-.45-1.73-.82-1.73-1.33,0-.05,0-.11,0-.11,0-.03,0-.06.02-.09.18-.58.98-1.16,1.96-1.41.88-.22,2.61-.35,4.26,1.28.45.44.76.79,1.02,1.06.51.56.81.88,1.6,1.38,0,0,.01,0,.02.01.13.08.26.16.42.25,1.35.79,4.72,1.34,7.82-2.23,1.35-1.56.91-3.57.35-6.11-.08-.38-.17-.77-.25-1.17-1.18-5.76.11-14.82,3.83-26.92.04-.14.08-.3.12-.47.42-1.72,1.11-4.6,8.62-4.79,6.25-.16,12.84,2.68,17.26,5.09,4.56,2.48,8.65,5.58,9.12,6.58.17.36.01.59-.06.68-.27.31-.69.17-.83.13-2.62-.83-4.48-1.79-6.28-2.72-1.81-.94-3.52-1.82-5.89-2.52-5.53-1.64-9.37-1.8-11.73-.5-1.98,1.09-2.8,3.15-3.33,5.03-.79,2.76-.52,3.16-.45,3.22.19.17,1.41-.37,2.13-.7,2.59-1.16,6.5-2.92,10.37-.16.42.3.82.59,1.21.86,4.61,3.27,6.33,4.5,6.07,5.7-.02.1-.06.19-.1.28,2.57.26,4.87.79,6.89,1.58,4.36,1.71,6.32,4.24,7.21,6.05.5,1.03.77,2.09.83,3.12,1.12.26,2.24.53,3.35.79,7.64,1.84,14.86,3.57,24.41,2.46.99-.11,1.51.29,1.77.64,1.36,1.84-.78,7.11-3.51,13.31.08-.02.16-.04.24-.06,1.91-.48,2.99-.82,3.08-2.29.2-3.36,1.39-4.59,2.34-5.02.94-.43,2.06-.25,3.01.47,1.2.92,1.82,2.45,1.58,3.9-.63,3.84.25,4.99.83,5.33.73.43,1.89.14,3.02-.76,1.48-1.17,2.79-3.32,2.18-5.27-.16-.51-.72-1.3-1.32-2.13-1.34-1.86-3-4.18-2.29-6.21.44-1.26,1.68-2.17,3.79-2.78,2.57-.74,4.01,1.55,5.4,3.76.56.89,1.14,1.81,1.78,2.51,2.63,2.88,3.68,5.7,3.11,8.38-1.19,5.6-9.13,9.08-12.95,10.75-.53.23-.99.43-1.33.6-10.29,4.92-15.18,1.06-15.83-.16-1.2-2.22.85-7.65.93-7.88.17-.44.38-.96.63-1.54-.12.05-.24.11-.35.17-2.28,1.24-2.97,7.07-3.52,11.76-.31,2.62-.57,4.88-1.06,6.27-1.19,3.37-7.29,6.95-12.19,9.37-5.77,2.84-12.05,5.11-15.03,5.8-3.43.8-7.68,2.34-12.19,3.98-8.54,3.1-18.35,6.66-26.62,6.67-5.38,0-10.1-1.51-13.41-5.63-2.04-2.54-1.62-5.65-1.18-8.93.38-2.84.78-5.77-.47-8.44-.37-.79-.66-1.51-.89-2.19-.59-.36-1.03-.89-1.33-1.62-.42-1-.76-4.61,1.42-5.77,0-.41-.06-.81-.16-1.2-.12-.46-.48-1.21-.8-1.88-.66-1.37-.97-2-.54-2.39.05-.04.1-.08.16-.1-1.18-1.02-1.38-2.54-1.38-3.92,0-1.6.45-2.62,1.33-3.03.37-.17.8-.22,1.26-.16-.24-.14-.39-.33-.46-.56-.15-.51.17-1.02.56-1.66.75-1.23,1.78-2.91.55-5.41-.62-1.24-1.63-1.85-2.71-2.49-1.15-.68-2.34-1.39-2.93-2.91-1.13-2.91.57-7.14,3.72-9.24,9.61-6.43,12.78-12.52,13.31-17.32-.14.06-.34.09-.6.02-1.05-.28-2.63-2.09-3.5-3.61-.62-1.09-1.32-2.33-1.01-3.89.2-1,.92-2.5,2.08-2.64-.87-2.69,3.34-14.3,15.02-28.24,3.35-4,18.84-6.47,35.28,3.3,14.04,8.34,16.08,15.56,18.24,23.2.75,2.65,1.52,5.38,2.82,8.26,2.15,4.79,3.73,7.53,5.9,8.3,2.72.97,6.64-.97,14.44-4.83,1.58-.78,3.38-1.67,5.33-2.62.43-.21.87-.42,1.31-.64,6.1-2.98,13.7-6.69,24.23-8.25,4.35-.65,8.67-.4,12.83.73,3.99,1.09,7.64,2.93,10.86,5.47,6.33,5.01,10.18,12.1,10.84,19.96.7,8.39-1.59,13.63-4.77,20.88-2.99,6.83-6.72,15.33-9.38,29.88-.87,4.78-3.06,8.69-6.5,11.62-2.87,2.44-6.62,4.16-10.86,4.98-2.11.41-4.29.57-6.38.51.92,3.17,3.76,5.83,8.26,7.75.25.11.37.39.26.64-.08.19-.26.3-.45.3h0Zm-.58-30c-2.79,0-8.25,1.98-12.77,5.26-2.59,1.88-8.28,6.76-5.25,11.58,1.09,1.73,4.75,3.12,9.3,3.43-.56-3.97,1.41-8.42,5.46-12.27,5.78-5.5,5.22-7.14,4.91-7.51-.28-.34-.86-.5-1.65-.5h0Zm-134.86-2.13s.07.03.1.04c2.09.79,6.46-.48,13.36-3.88.26-.13.54-.26.83-.4.8-.38,2.44-1.15,2.65-1.55,0,0-.02-.02-.04-.03-3.83-2.72-6.5-4.67-9.52-6.97-.26.56-.83.98-1.68,1.27,2.65.4,7.68,3.87,9.11,5.09.37.31.28.63.23.75-.24.55-.83.52-4.79.05-3.24-.39-8-.96-10.02-.39-.05.54-.17,1.1-.35,1.7-.4,1.31-.38,2.65.13,4.33h0Zm-.89-5.27c-.68.98-.66,2.65-.46,3.55-.1-1.02,0-1.96.29-2.9.07-.22.13-.44.18-.66h0Zm3.65-1.98c2.28,0,5.13.34,7.61.64,1.08.13,2.26.27,3.06.33-2.41-1.83-6.87-4.48-8.33-4.29-.39.05-.75.1-1.08.15-2.4.34-3.39.48-5.13-.46.1.23.22.46.32.67.36.74.73,1.51.87,2.06.09.37.15.73.17,1.11.69-.15,1.55-.21,2.51-.21h0Zm84.61-11.35c-.4.92-.74,1.71-.98,2.34-.77,2.01-1.71,5.71-.99,7.06.14.26,1.24,1.42,3.68,1.88,2.09.4,5.67.35,10.87-2.14.35-.17.82-.37,1.36-.61,3.67-1.61,11.3-4.95,12.38-10.06.5-2.35-.47-4.88-2.88-7.51-.7-.77-1.3-1.72-1.88-2.65-1.52-2.41-2.57-3.84-4.3-3.34-1.76.51-2.82,1.23-3.14,2.15-.54,1.55.96,3.64,2.16,5.31.67.94,1.26,1.75,1.46,2.42.74,2.39-.78,4.96-2.51,6.33-1.48,1.17-3.02,1.48-4.13.83-.98-.58-2-2.14-1.3-6.34.18-1.1-.29-2.26-1.21-2.96-.66-.51-1.39-.64-2-.36-1.01.46-1.63,1.95-1.77,4.19-.14,2.25-2.01,2.72-3.83,3.18-.33.08-.66.17-.99.26h0Zm-88.56.17c-.18,0-.35.03-.5.1-.62.29-.76,1.32-.76,2.14-.01,2.38.69,3.98,4.15,4.11,3.31.12,4.68-.61,4.85-1.27,0-.02,0-.05.01-.07-.44-.34-.89-.68-1.36-1.04-.13-.1-.33-.27-.57-.47-1.08-.91-4.14-3.49-5.82-3.49h0Zm47.05-19.63c-3.66,0-7.61.37-12.01,1.31-5.56,1.18-9.56,4.25-10.99,8.41-.88,2.56-.61,5.31.67,6.83,1.4,1.66,4.14,2.68,7.52,2.8,8.77.3,19.5-5.19,28.7-14.69.68-.7,1.06-1.68,1.13-2.76-4.62-1.04-9.47-1.9-15.02-1.9h0Zm-45.13,8.66c.34.23,1.53.77,5.71,1.69-.07-.08-.15-.16-.23-.25-.26-.28-.55-.6-.98-1.03-1.29-1.28-2.61-1.2-3.29-1.04-.62.15-1.04.44-1.21.62h0Zm27.04-18.94c.77.62,2.53,1.61,5.42,2.09,3.63.61,5.26.17,7.34-.38.31-.08.63-.17.97-.25-1.18.04-2.4.12-3.67.25-3.22.33-6.25-.58-8.68-1.31-.48-.15-.95-.28-1.38-.4h0Zm-19.43-19.79h-.03c-.52.04-1.08,1.01-1.25,1.86-.24,1.2.34,2.22.9,3.21.92,1.63,2.25,2.89,2.79,3.12.19-2.44-1.33-6.32-2.11-8.1-.1-.06-.21-.09-.3-.09h0Z"/>
    <path class="cls-1" d="m622.94,162.44s-.09,0-.13-.02c-.26-.07-.41-.34-.34-.61.05-.17.09-.33.14-.5.48-1.64.93-3.18.05-4.45-1.34-1.94-5.72-3.18-13.39-3.8-4.13-.33-5.48-2.24-5.89-3.79-1.25-4.74,4.49-12.22,14.61-19.06,4.25-2.87,8.03-7.5,10.36-12.68,2.35-5.23,2.88-10.3,1.45-13.92-2.03-5.12-7.69-7.08-16.37-5.67-8.55,1.39-13.33.88-14.61-1.56-.8-1.53.46-4.02,1.65-5.84,2.64-4.01,7.4-8.53,12.43-11.78,4.41-2.85,11.15-6.15,18.18-5.65,10.58.76,14.77,3.32,20.37,12.47,2.46,4.02,4.29,8.37,6.07,12.57,2.44,5.8,4.75,11.29,8.34,14.81,3.95,3.88,9.05,4.95,16.04,3.37.26-.06.53.11.59.37.06.26-.11.53-.37.59-7.34,1.66-12.73.51-16.94-3.62-3.73-3.66-6.07-9.23-8.56-15.13-1.76-4.17-3.57-8.48-6-12.44-5.46-8.91-9.31-11.27-19.61-12-11.57-.83-24.7,9.34-29.72,16.99-1.44,2.2-2.04,4.01-1.6,4.85.59,1.12,3.13,2.75,13.58,1.05,4.76-.78,8.7-.56,11.71.64,2.76,1.1,4.69,3,5.73,5.63,1.53,3.86,1,9.21-1.46,14.68-2.41,5.35-6.31,10.12-10.71,13.09-11.11,7.51-15.14,14.45-14.21,18,.59,2.24,3.05,2.9,5.02,3.06,8.21.66,12.56,1.96,14.12,4.22,1.14,1.65.6,3.5.08,5.28-.05.16-.09.33-.14.49-.06.22-.26.36-.47.36h0Z"/>
    <path class="cls-1" d="m687.96,84.09c-.89,0-1.76-.09-2.61-.28-4.91-1.1-6.99-5.11-9.39-9.76-2.25-4.35-4.8-9.28-10.32-12.64-6.03-3.67-13.23-5.7-22.66-6.38l-.46-.03c-8.35-.6-14.39-1.03-22.63-2.11-26.92-3.5-36.47-17.32-44.15-28.42-4.54-6.56-8.46-12.22-14.95-14.09-4.85-1.39-9.22-1.34-12.98.17-4.37,1.75-8.03,5.44-10.6,10.66-2.58,5.25-3.92,11.79-3.88,18.9,0,.27-.22.49-.49.49h0c-.27,0-.49-.22-.49-.49-.04-7.27,1.34-13.96,3.98-19.34,2.67-5.45,6.52-9.3,11.11-11.14,3.96-1.59,8.54-1.65,13.61-.2,6.83,1.96,10.84,7.76,15.48,14.47,7.57,10.94,16.99,24.56,43.47,28,8.22,1.07,14.24,1.5,22.58,2.1l.46.03c9.59.69,16.93,2.76,23.1,6.52,5.75,3.5,8.37,8.56,10.68,13.03,2.29,4.43,4.27,8.25,8.74,9.25,2.31.51,4.8.26,7.42-.74.25-.1.54.03.63.28s-.03.54-.28.63c-1.85.71-3.65,1.07-5.38,1.07h0Z"/>
    <path class="cls-1" d="m668.52,63.24c-.23,0-.44-.17-.48-.41-.78-4.43-3.2-14.72-10.01-25.93-2.52.46-5.13,1.07-7.85,1.7-6.92,1.62-14.77,3.44-23.2,3.11-9.67-.38-18.67-3.55-27.51-9.69-3.21-2.22-6.42-5.11-9.83-8.16-9.93-8.89-21.18-18.97-36.5-16.2-.3.05-.47-.07-.55-.19-.11-.15-.13-.36-.04-.52.08-.16.19-.37,3.84-1.47,1.98-.6,5.22-1.5,9.44-2.41,7.14-1.54,18.16-3.32,30.17-3.05,13.66.31,25.09,3.25,34.94,9,13.16,7.69,21.86,17.52,27.59,26.79,6.34-1.1,12.11-1.18,17.5,1.74.24.13.33.43.2.67-.13.24-.43.33-.67.2-5.03-2.72-10.48-2.7-16.48-1.7,6.74,11.23,9.15,21.5,9.94,25.94.05.27-.13.52-.4.57-.03,0-.06,0-.09,0h0Zm-110.21-57.03c13.1,0,23.07,8.93,31.99,16.92,3.38,3.03,6.58,5.89,9.73,8.08,19.49,13.53,35.66,9.76,49.93,6.43,2.6-.6,5.1-1.19,7.52-1.64-5.66-9.05-14.2-18.62-27.04-26.12-9.7-5.67-20.97-8.57-34.46-8.87-16.62-.37-31.72,3.17-38.69,5.22.34-.01.69-.02,1.03-.02h0Z"/>
  </g>
  <path class="cls-2" d="m1200.33,109.93c-13.3-13.48-29.94-25.93-44.82-22.02-18.01,4.73-16.45,28.93-40.66,50.82-16.89,15.27-43.88,27.22-68.89,23.72-34.1-4.77-34.13-33.98-71.15-47.44-44.79-16.28-103.65,5.06-111.81,32.75-.4,1.35-3.61,12.82,2.26,21.46,9.99,14.72,34.75,4.22,46.31,19.2,8.84,11.46,2.91,28.68,2.26,30.49-1.77,4.93-7.33,16.96-30.49,27.11-39.96,17.5-55.72-4.15-98.26,7.91-24.48,6.94-25.4,14.78-66.64,27.11,0,0-40.5,12.11-48.99.99-2.6-3.4-2.96-6.78-2.96-6.78-.14-1.24.04-1.6.71-6.49.35-2.55.68-5.01.94-7.86.12-1.29.3-3.38.38-6.02.01-.36.12-4.53-.19-8.33-.55-6.81-2.48-13.08-3.72-16.61"/>
  <path class="cls-2" d="m521.3,241.74c-.34,2.4-1.14,5.88-3.29,9.41-2.68,4.4-6.14,6.74-7.81,7.91-10.46,7.32-13.02,12.34-18.78,16.33-4.05,2.81-14.81,8.66-40.66,3.39-50.91-10.38-57.75-42.96-90.35-44.05-30.51-1.02-43.64,26.88-100.52,40.66-6.88,1.67-18.92,4.22-28.24-2.26-9.21-6.4-13.66-20.17-11.29-31.62,3.73-18.06,22.22-19.85,23.72-33.88,1.39-13.04-12.46-31.31-28.24-33.88-28.33-4.62-38.74,45.31-90.35,57.6-17.74,4.23-22.39-.27-39.53,6.78-24.41,10.04-30.22,25.44-49.69,28.24-7.98,1.15-20,.43-36-9.53"/>
</svg>