<?xml version="1.0" encoding="UTF-8"?>
<svg id="Layer_1" data-name="Layer 1" xmlns="http://www.w3.org/2000/svg" viewBox="0 0 1201.39 238.05">
  <defs>
    <style>
      .cls-1 {
        fill: none;
        stroke: #1d1d1b;
        stroke-linecap: round;
        stroke-linejoin: round;
        stroke-width: 2px;
      }
    </style>
  </defs>
  <path class="cls-1" d="m1200.39,149.71c-82.46-97.54-116.45-116.21-130.26-108.42-26.99,15.21,24.5,130.67-11.29,153.98-35.79,23.3-112.08-76.04-171.67-49.69-43.62,19.28-45.71,91.52-80.19,91.48-22.25-.02-32.87-30.1-59.63-26.14-17.06,2.53-21.51,16.32-38.92,15.11-10.67-.74-24.73-6.47-32.74-19.13-12.49-19.77-23.28-54.5-6.44-92.34,4.13-9.28,13.19-22.95,12.02-43.05-.81-14.02-8.31-30.61-17.4-41.52-30.75-36.9-73.29-34.82-104.56-14.61-7.74,5-20.95,18.45-26.74,32.31-6.86,16.43-8.61,33.96-5.88,46.02,3.65,16.13-18.85,37.97-15.66,45.36,2.53,5.86,14.72,5.52,16.7,2.84,1.98-2.69-10.89-5-9.61-2.53s8.6,3.07,9.04,7.7c.44,4.64-3.12,7.99-2.91,10.37.16,1.77,1.63,1.84,3.2,2.19,1.57.35,10.6.47,10.23-1.96-.35-2.28-6.72,2.17-10.08,6.28-1.73,2.11-1.63,7.92,5.45,9.3,7.08,1.38-4.33,13.76,7.81,20.88s41.76,3.78,48.15-7.46c1.51-2.66,1.59-3.95.96-4.2-2.02-.79-11.32,9.31-3.08,19.62,5.13,6.42,7.29,16.34,7.45,25.58.04,2.18,1.85,3.94,4.03,3.9,18.95-.32,95.5-9.59,87.92-1.12-7.5,8.39-52.56-56.23-27.53-111.72,3.99-8.85,12.59-21.91,11.48-41.12-.78-13.39-7.36-29.74-16.62-39.65-12.27-13.13-38.59-27.34-63.32-23.13-24.74,4.21-42.12,22.28-40.71,41.91,1.52,21.16,26.7,32.01,34.76,32.54,6.85.44,6.59-2.3,11.02-3.6,1.01-.3,1.28-1.51,1.71-2.48,1.91-4.31,3.28-19.77,5.14-23.32,1.5-2.87,5.53-12.53,17.81-11.88-4.33.87-7.87,2.92-10.72,5.67-3.51,3.39-4.41,8.66-1.6,9.86,3.47,1.48,10.14-.46,15.41-6.29,5.2-5.75,12.26-18.5,7.37-15.87-4.9,2.63-13.94-1.02-20.9,3.26-5.22,3.21-6.6,7.8-6.6,7.8,0,0,1.63-9.97-7.97-16.4-10.11-6.77-31.52-5.96-26.38-2.5,5.14,3.46,5.11,9.78,9.05,16.95,5.61,10.21,19.26,18.03,20.24,8.05,1.38-13.93-18.69-20.95-18.69-20.95,0,0,12.2.92,18.51,10.63,4.25,6.54,2.28,29.02,3.68,35.29.17.77.56,1.6,1.33,1.78,3.81.89,8.04,4.2,11.22,4.2,21.87.07,38.92-12.29,37.39-31.78-1.44-18.46-27.88-30.33-48.02-38.86-18.87-7.99-39.41-16.68-62.9-11.09-29.47,7-47.18,29.62-60.99,48.56-38.24,52.46-29.36,74.33-55.34,102.78-39.59,43.36-121.69,54.54-144.56,27.11-33.5-40.19,42.71-156.07,27.11-164.89-12.51-7.07-57.1,70.43-101.65,60.99-17.8-3.77-18.52-17.81-38.4-20.33-33.51-4.25-52.09,33.05-74.54,24.85-14.61-5.33-11.58-22.89-29.36-38.4C44.99,33,20.46,31.6,1,33.33"/>
</svg>