<?xml version="1.0" encoding="UTF-8"?>
<svg id="Layer_1" data-name="Layer 1" xmlns="http://www.w3.org/2000/svg" viewBox="0 0 1201.33 242.62">
  <defs>
    <style>
      .cls-1 {
        fill: none;
        stroke: #231f20;
        stroke-miterlimit: 10;
      }

      .cls-1, .cls-2 {
        fill-rule: evenodd;
      }

      .cls-2 {
        fill: #010101;
      }
    </style>
  </defs>
  <path class="cls-2" d="m500.49,201.6l59.9,1.6,7.73-9.02-32.75-1.35c-.19.13-.36.23-.5.31-2.48,1.33-5.03,1.12-7.2-.71-.14-.12-.19-.3-.12-.47.07-.17.23-.28.41-.27l7.16.29c.92-.65,2.24-1.79,2.28-2.44.15-4.47.16-8.95.02-13.42-.13-4.21-.39-8.41-.73-12.61-.63-7.73-1.55-15.53-2.85-23.18-.72-4.21-1.84-10.83-3.63-14.68-.78-1.54-10.86-11.76-12.59-12.24,0,.04,0,.08.01.1.54,2.95,3.85,21.58,1.49,24.31-2.57,2.98-.15,7.77-2.81,11.56-3.09,4.4-5.48,9.25-7.54,14.2-1.09,2.63-2.06,5.38-3.12,8.05,3.13,1.72,6.5,3.65,7.22,4.05.25.14.77.43,1.47.82,2.57-1.16,5.01-3.93,7.74-1.8.96.75,2.53,1.57,3.2,2.56.83,1.23,1.39,3.5.93,5.02.72.19,1.3.38,1.5.55,1.05.92,1.46,2.07,1.1,3.14.01,0,.03-.01.04-.02.52-.89,2.6,1.36,2.96,1.71.4.39,1.98,1.91,2.03,2.44.16,1.55-3.33-.56-3.66-.76-.49-.29-2.47-1.4-2.68-2.3-.41.06-.85.11-1.32.16.08.04.16.08.24.12,1.03.57,1.07,2.24-.19,2.83-.14.06-.29.13-.45.19.04.01.07.03.11.04.54.19.67,1.14.56,1.62-.29,1.21-1.76,1.82-2.83,2.12-.06.02-.13.04-.19.05.05.02.1.04.15.07,1.49.72-1.39,2.78-2.04,3.07-1.3.58-3.43.44-4.87.54-2.7.2-5.66.81-8.33.24-2.01-.44-1.33-1.91-1.93-2.92-.71-1.2-2.1-1.8-2.45-3.39-.24-1.11.54-1.51.42-2.41-.16-1.19-1.17-2.5-1.29-3.77-.2-2.21,2.25-1.87,2.29-4.25,0-.34-.2-.66-.53-.96-1.46,1.95-2.95,4.94-3.36,5.84-.63,1.37-1.19,2.78-1.64,4.22-.92,2.93,2.84,4.79,2.4,5.72-.12.26-.39.31-.65.3-6.52-.27-29.72-3.11-29.73-11.69-.01-6.54,3.38-10.68,6.4-16.15,5.4-9.8,11.09-20.05,15.42-30.36,2.5-5.94,4.33-12.03,6.19-18.19.74-2.46,2.49-8.91,4.32-10.65,1.67-1.59,3.73-2.41,5.98-2.84-.03,0-.05-.01-.08-.02-.38-.1-1.26-.23-1.24-.75.01-.27.22-.41.46-.47,3.04-.86,8.66-2.74,10.49-5.43,5.81-8.55,7.46-22.43,10.86-32.33,2.24-6.54,6.04-12.63,11.08-17.39,2.39-2.26,7.19-6,10.63-6.24,7.52-.52,11.28,1.16,15.93,6.3-.05-.09-.1-.18-.15-.26-.79-1.32-1.82-2.42-3.01-3.38-.4-.32-1.89-1.18-1.71-1.75.09-.27.34-.35.6-.38,6.01-.48,12.01,2.85,16.81,6.12,3.88,2.65,8.93,7.71,9.96,12.45.79,3.67,1.23,11.3-.19,14.72-.06.15-.19.27-.35.3-.78.15-1.43-2.65-1.59-3.13-.2-.63-.39-1.26-.59-1.89-.26,2.28-.7,4.54-1.17,6.79-.26,1.23-.74,2.96-.83,4.19-.35,5.04-1.22,9.93-1.14,15.03.07,4.28,1.21,8.8,1.02,12.94-.11,2.5-1.7,10.2-4.48,14.43,1.08.74,2.22,1.58,2.46,2,4.21,7.58-4.58,50.06-6.86,60.67,2.78.8,26.54.88,31.03.24-2.32-1.54-4.48-3.42-6.45-5.35-3.22-3.16-6.09-6.63-8.9-10.15-.35-.44-2.1-2.7-3.3-4.08-.39,5.26-.89,10.52-1.17,15.81-.02.29-.07.66-.44.7-.77.07-.9-2.65-.96-3.09-.24-2.01-.4-4.05-.47-6.07-.06-1.73-.36-8.42,1.65-9.21.17-.07.41,0,.68.15.36-5.13.59-10.26.41-15.44-.18-4.96-.21-9.89-.03-14.85.12-3.35.34-6.69.44-10.04.14-4.66-.11-9.07-.7-13.7-.05-.37-.09-.92.34-1.09,1.58-.62,5.54,10.29,5.92,11.4.56,1.62,1.07,3.27,1.46,4.94,1.22,5.16,1.35,9.4,5.26,13.51,3.4,3.57,6.11,9.04,8.66,13.29,1.26,2.1,2.59,4.19,4.1,6.13.32.41,1.51,1.29,1.96,1.66,1.21,1,2.4,2.03,3.49,3.16.32.33.63.66.92,1,1.3,1.5,2.11,3.14,2.88,4.94.46,1,7.34.47,8.8.54,1.01.05,2.01.09,3.02.14,3.17.13,6.36.23,9.53.44.81.06,4.59.17,4.95,1.08.03.06.04.13.05.19.95-.07,1.79,0,2.38.24,5.7,2.39,13.62-.6,19.5,2.05,2.69,1.21,5.36,2.48,8.04,3.73.74.34,1.58.5,2.31.87,2.44,1.25,3.93,2.81,6.06,4.34.77.55,2.26,1.3,2.82,1.97.34.4.52.93.4,1.45-.33,1.4-2.2,1.3-3.27,1.05-.19-.04-.41-.12-.65-.23-.75.81-3.32.68-4.28.21-.92-.46-1.92-1.31-2.8-1.99.51.98.69,1.76.17,2.05-2.87,1.62-8.87-4.03-11.74-5.12-2.3-.87-5.87-2.23-8.54-2.6.45.27.97.53,1.16.63.65.32,1.4.52,2.07.81,2.06.89,2.76,2.96,1.69,4.96-.66,1.24-2.9.59-3.97.46-.95-.12-1.91-.25-2.86-.4-.63-.1-.98-.62-1.48-.74-1.03-.26-3.9-.2-4.98.11l-6.8,1.16c-1.96.82-4.35,1.62-5.8,2.21l60.05,4.07,32.43-65.56c.07-.15.21-.23.38-.23l26.61-.08c.15,0,.28.07.36.2.08.13.09.27.03.41l-31.02,65.27c-.06.12-.15.2-.28.23-3.8.94-7.61,1.87-11.41,2.81,4.53-.35,10.94-.7,18.64-.66.14,0,.36,0,.64,0,1.81.01,11.34.09,16.68.77,8.75,1.12,15.24,5.02,15.15,5.25-.08.22-6.1-2.64-15.24-4.08-4.57-.72-7.9-.55-19.39-.53-8.96.01-16.35.3-21.36.56-4.65,1.15-9.31,2.29-13.96,3.44-.04.01-.08.01-.13.01l-71.19-4.56c-.12,0-.21-.06-.29-.14-.08-.09-.11-.19-.1-.31l.27-3.96c.02-.23.22-.41.45-.39l72.14,4.89h13.21s15.51-3.87,15.51-3.87l30.64-64.48-25.68.07-32.44,65.58c-.08.16-.23.24-.41.23l-61.72-4.18c-.2-.01-.38-.12-.44-.33-.19-.63,1.44-1.1,1.82-1.26.56-.23,1.13-.45,1.7-.66l-13.83,2.35s-.06,0-.09,0c-3.12-.18-6.42-1.31-9.53-1.86-2.3-.41-6.23-.18-8.16-1.29-.18-.1-.35-.2-.52-.31-.09.02-.18.05-.26.07-1.4.4-4.4.41-5.9.45-3.38.1-6.78.12-10.16.1-3.73-.02-7.49-.08-11.22-.26-.57-.03-5.63,0-5.39-1.14,2.11-9.77,11.07-53.06,7.01-60.36-.14-.26-1.2-1.02-2.21-1.72-1.45,1.89-3.19,2.81-5.19,1.68-1.48-.83-3.02-4.8-4.29-8.63-.55,1.41-1.25,3.75-1.84,4.4-.55.6-.96,1.13-1.35,1.62.58,4.07.89,8.4,1.2,12.44.57,7.38.97,14.79,1.18,22.18.18,6.41.23,12.87-.08,19.27-.21,4.39-4.4,5.63-4.5,8.76-.08,2.42-11.75,1.52-13.31,1.46-3.01-.12-6.05-.29-9.06-.27-.34,0-.67-.08-.91-.32-1.1-1.1,1.38-6.63,1.83-7.93,1.76-5.07,2.94-10.13,2.86-15.53-.07-4.41-.44-8.83-.93-13.21-.63-5.72-1.48-11.41-2.21-17.11-.57-4.51-1.19-9.43-1.04-13.98.01-.33.06-.72.4-.87.62-.28,3.02,1.98,3.6,2.39,2.94,2.08,6.33,3.43,9.82,4.29,2.06.51,5.47,1.45,7.46.42,1.4-.72,2.12-1.41,2.79-2.21-.05-.34-.1-.68-.16-1.02-.51-3.12-2.51-12.46-1.58-15.3.06-.19.18-.36.35-.47,1.54-1.01,3.58,2.81,3.98,3.8.4.99,1.03,3.05,1.77,5.34.43-.25.92-.1,1.5.74,1.66,2.43,3.96,4.4,6.33,6.11.24.17.68.46,1.19.81,2.6-3.89,4.2-11.31,4.32-14,.18-4.1-.96-8.63-1.03-12.89-.08-5.13.79-10.03,1.15-15.1.09-1.27.58-3.03.84-4.3.48-2.27.91-4.55,1.17-6.86.06-.54.12-1.16.17-1.84-.34-1.07-.69-2.15-1.05-3.21-.76-2.24-1.64-4.69-2.77-6.77-.09-.15-.07-.33.04-.47.11-.14.29-.19.45-.13.7.22,1.33.58,1.88,1.08,2.3,2.1,2.51,6.24,2.29,9.53.64,2.07,1.39,4.46,1.84,5.64,1-3.55.56-10.19-.13-13.41-.97-4.51-5.92-9.42-9.61-11.93-4.43-3.02-10.01-6.17-15.61-6.01.47.36,1.08.79,1.31.99,1.24,1.06,2.29,2.29,3.07,3.73.41.74.73,1.5.97,2.28,1.79,1.98,3.56,3.61,6.25,4.63,6.05,2.3,8.69,5.64,8.73,12.34.01,1.84.88,3.55.71,5.54-.14,1.71-2.31,3.6-2.57,5.13-.58,3.3.84,5.18.97,8.11.2,4.52-3.31,2.59-4.4,3.92-.36.44-.1,1.89-.13,2.5-.07,1.39-1.78,1.06-2.11,1.94-.03.57.91,1.81.73,2.82-.13.75-.72.94-.86,1.26-.18,3.29-.1,6.77-4.09,7.48-1.34.24-2.71.21-4.06.12-8.11-.53-15.34-7.77-17.74-15.23-.12-.37-.23-.74-.33-1.11-.12.67-.22,1.34-.31,2-.66,4.69-.78,10.34-2.06,14.81-1.4,4.88-4.52,11.73-9.58,13.85-.64.27-1.31.42-1.99.47-4.54.27-9.67-4.79-12.78-7.65-1.61-1.47-3.23-2.97-4.97-4.3-2.11-1.62-4.5-2.81-7.02-3.64-.11-.04-.22-.07-.33-.11-2.87.31-5.47,1.05-7.39,2.87-1.64,1.56-3.43,8.06-4.09,10.28-1.86,6.19-3.71,12.3-6.22,18.27-4.34,10.34-10.04,20.61-15.45,30.44-2.91,5.29-6.31,9.43-6.3,15.74.01,5.99,14.72,9.04,19.03,9.78,3.08.53,6.21.89,9.38,1.04-.41-.46-1.04-1.13-1.27-1.45-.83-1.18-1.26-2.53-.81-3.95.59-1.89,2.8-7.31,5.1-10.32-1.31-.8-3.29-1.48-4.04-2.15-.72-.64,1.1-1.13,1.45-1.32.84-.44,1.61-1.06,2.01-1.94.01-.02.02-.05.03-.07-.23-.16-.46-.32-.69-.49-1.26-.9-2.47-1.87-3.73-2.75-1.07-.75-.15-2.35.74-2.36.39,0,2.55,1.11,5.01,2.44,1.05-2.64,2-5.37,3.09-7.97,2.08-5.01,4.5-9.91,7.63-14.36,2.51-3.58,0-8.31,2.86-11.62.55-.64.62-3.75.62-4.52,0-6.13-1.21-13.09-2.3-19.09-.06-.34-.05-.74.25-.97,1.32-1.01,6.89,4.91,7.73,5.76,1.03,1.04,5.67,5.71,6.19,6.84,1.83,3.95,2.96,10.6,3.69,14.9,1.31,7.67,2.23,15.49,2.86,23.25.35,4.21.6,8.43.74,12.65.14,4.49.13,8.98-.02,13.47-.03.75-.9,1.71-1.8,2.46l32.58,1.34c.17,0,.3.1.37.25s.04.32-.07.44l-8.42,9.83c-.09.1-.2.15-.33.15l-61.92-1.65c-.2,0-.36-.14-.4-.34-.04-.19.06-.38.24-.47,1.51-.8,3.01-1.6,4.52-2.4-2.93.05-6.59-.13-10.73-.94-3.85-.75-7.12-1.85-9.69-2.92,4.12,1.17,9.2,2.22,15.06,2.59,3.24.21,6.24.17,8.93,0,.03,0,.17,0,.29.11.06.06.11.13.12.22.04.2-.05.39-.24.47-2.09.96-4.17,1.91-6.26,2.87Zm33.18-8.84l-4.27-.18c1.35.69,2.81.74,4.27.18h0Zm-28.33-20.38c-.23.57-.47,1.14-.72,1.7,1.67,1.14,3.38,2.19,5.15,3.17.19.11.41.19.65.27.99-.13,1.96-.33,2.88-.63-.29-.16-.57-.32-.85-.48-.86-.48-4.12-2.37-7.11-4.03h0Zm-1.07,2.48c-.77,1.64-1.85,1.95-3.14,2.57.96.58,2.42,1.07,3.53,1.75.76-.85,1.52-1.39,2.22-1.41.63-.02,1.28-.04,1.93-.09-1.56-.88-3.07-1.82-4.55-2.82h0Zm1.1,4.83c.51.45.84.98.83,1.64-.05,2.76-2.43,2.61-2.29,4.16.1,1.14,1.12,2.51,1.29,3.74.14,1.07-.58,1.62-.43,2.34.26,1.21,1.73,2.1,2.35,3.14.57.96.05,2.24,1.39,2.53,2.54.55,5.52-.07,8.09-.25,1.27-.09,3.47.02,4.59-.47.35-.15,1.65-1.13,1.9-1.59-.37-.16-.85-.29-1.37-.4-1.11.19-2.25.32-3.32.41-.71.06-8.19.8-7.74-.82.35-1.26,5.94-.95,6.93-.9,1.07.06,2.72.18,4.13.45.57-.1,1.13-.23,1.66-.38.7-.2,1.93-.64,2.21-1.41.08-.22.07-.61.01-.73-.42-.15-.85-.28-1.29-.4-1.92.47-4.41.82-5.75.87-1.94.08-4-.14-5.89-.57-.55-.13-3.08-.64-2.9-1.54.3-1.5,8.83-.58,9.92-.45,1.5.18,3.11.43,4.63.82.63-.16,1.17-.34,1.55-.52.62-.29.6-1.05.14-1.33-.48-.27-1.13-.5-1.89-.7-2.1.13-4.13.16-4.65.15-1.44-.02-2.9-.11-4.32-.33-1.39-.21-2.82-.71-4.06-1.39-.37-.2-2.32-1.26-1.43-1.87.42-.29,5.31.99,5.99,1.12,2.14.41,5.88.76,8.58,1.47,1.34-.08,2.67-.18,3.58-.32.54-.99.26-1.93-.65-2.72-.44-.32-4.14-1.01-4.84-1.15-.89-.17-4.55-.81-5.18-1.23-.88-.59-1.78-1.16-2.7-1.7-.93-.56-2.69-.64-4.06-1-1.17.15-2.35.22-3.48.25-.44.01-.98.43-1.54,1.07h0Zm12.91,14.41c-.27-.02-.52-.03-.73-.04-.72-.04-4.04-.13-5.49.15,1.61.2,5.33-.03,6.23-.1h0Zm4.05-3.79c-.93-.17-1.86-.3-2.75-.41-1.13-.14-6.91-.6-8.67-.21,1.58.79,6.36,1.15,7.61,1.1.88-.04,2.36-.22,3.81-.48h0Zm-1.71-3.67c-1.93-.31-3.87-.54-5.13-.78-.69-.13-3.04-.75-4.46-1.04,1.23.73,3.44,1.39,4.24,1.51,1.39.21,2.81.29,4.21.32.24,0,.64,0,1.14,0h0Zm-5.4-9.66c3.19,1.76,8.46,4.61,9.98,5.05.06.01.12.03.19.04.41-1.25-.12-3.33-.81-4.35-.56-.82-2.19-1.72-3.02-2.37-.5-.39-1.05-.65-1.7-.62-1.15.06-3.13,1.44-4.63,2.25h0Zm-.94.44c-.54.21-1.11.39-1.7.54.85.15,1.69.33,2.29.69.93.55,1.84,1.13,2.73,1.73.36.23,2.54.66,3.9.92-.1-.06-.18-.1-.23-.12-2.35-1.19-4.68-2.47-6.99-3.75h0Zm-2.17-71.14c4.85-.49,10.3.22,14.57-1.2,5.06-1.69,8.47-7.97,10.47-12.54,1.96-4.47,3.82-8.99,5.74-13.48,2.98-6.98,11.34-27.9,19.67-29.53.23-.1.48-.15.69.03.61.5-.63,2.47-.89,2.96-1.04,1.93-2.11,3.84-3.12,5.78-2.91,5.6-5.53,11.57-6.98,17.73-.87,3.68-1.34,7.56-1,11.35.32-1.13.7-2.24,1.16-3.3,1.97-4.56,4.99-8.01,8.66-11.27,1.67-1.48,5.63-4.44,6.47-6.41,1.8-4.21,3.09-9.25,1.76-13.73-.33-.37-.67-.75-1.01-1.14-4.8-5.54-8.29-7.3-15.91-6.77-3.19.22-7.89,3.91-10.11,6.01-4.94,4.66-8.66,10.64-10.86,17.05-3.45,10.05-5.04,23.82-10.96,32.53-1.79,2.64-6.61,4.46-9.98,5.48.5.15,1.1.3,1.63.44h0Zm39.46-16.64c.18.98.42,1.95.73,2.91,2.3,7.12,9.23,14.15,16.99,14.65,1.28.08,2.59.11,3.85-.11,3.46-.62,3.25-3.88,3.4-6.69.03-.6.79-.88.88-1.36.13-.74-.96-2.23-.7-2.93.48-1.29,2.04-1.1,2.07-1.73.05-.95-.33-2.2.32-2.99,1.5-1.83,4.38.45,4.21-3.34-.14-3.02-1.58-4.77-.96-8.3.29-1.63,2.45-3.66,2.56-5.05.15-1.85-.7-3.65-.72-5.46-.04-6.35-2.46-9.39-8.18-11.56-2.32-.88-3.99-2.18-5.55-3.76.77,4.28-.45,8.87-2.14,12.82-.94,2.19-4.85,5.08-6.68,6.71-3.58,3.17-6.53,6.53-8.45,10.97-.72,1.66-1.23,3.43-1.63,5.23h0Zm-37.37,17.33c2.07.81,4.02,1.88,5.79,3.24,1.75,1.35,3.39,2.86,5.02,4.35,3.14,2.87,9.14,9.02,13.88,7.03,4.78-2.01,7.78-8.71,9.09-13.31,1.27-4.41,1.38-10.07,2.04-14.7.18-1.31.41-2.64.69-3.96-.8-4.56-.32-9.31.73-13.79,1.42-6.01,3.92-11.83,6.73-17.31.39-.76,3.55-6.46,4.28-8.1-7.75,1.94-16.01,22.47-18.79,28.97-1.92,4.49-3.78,9.01-5.75,13.49-2.12,4.83-5.63,11.22-10.98,13-3.68,1.22-8.38.87-12.75,1.09h0Zm56.89,12.03c-.78-2.4-1.44-4.61-1.9-5.76-.22-.55-1.9-3.72-2.74-3.37-.84,2.57,1.14,12.02,1.61,14.9.01.09.03.18.04.27.26-.33.55-.68.9-1.06.61-.68,1.22-3.53,2.09-4.97h0Zm38.12,70.03c4.75-1.22,7.85-.55,12.54.85,3.93,1.18,6.79,1.66,10.87.62,2.67-.68,6-1.64,8.29-3.19,1.9-1.28,1.84-2.79,2.07-4.47-.24-1.05-.29-2.19-.14-3.39.25-1.99,3.54-3.55,6.38-4.01-1.68-.67-14.88-1.04-16.67-1.13-.73-.04-1.46-.03-2.19-.02-1.5.03-6.6.61-7.34-1.02-.81-1.77-1.44-3.22-2.75-4.74-.29-.33-.58-.65-.89-.97-1.07-1.1-2.24-2.12-3.42-3.1-.52-.43-1.69-1.29-2.08-1.79-1.53-1.96-2.88-4.08-4.15-6.21-2.51-4.18-5.21-9.64-8.55-13.15-4.07-4.28-4.2-8.55-5.47-13.9-.39-1.64-.89-3.26-1.44-4.86-.46-1.34-3.17-8.32-4.59-10.37.57,4.55.8,8.91.67,13.51-.1,3.35-.32,6.69-.44,10.04-.17,4.94-.14,9.85.03,14.79.19,5.4-.06,10.75-.45,16.09,1.4,1.29,3.16,3.75,3.57,4.26,2.89,3.62,5.83,7.2,9.14,10.45,2.12,2.08,4.46,4.1,7,5.68h0Zm34.39-8.39s.04-.07.05-.11c.4-.79,1-1.47,1.65-2.06.28-.25,1.47-1.1,2.49-1.83-2.04.6-3.96,1.69-4.12,2.91-.05.37-.07.73-.08,1.08h0Zm-33.33,9.01c1.82.83,5.64.71,7.64,1.07,3.05.54,6.34,1.66,9.39,1.84l17.68-3.01c.99-.41,2.06-.9,2.57-1.22-1.86-.86-3.18-2.16-3.96-3.76-.18,1.21-.56,2.33-2.2,3.45-2.38,1.61-5.77,2.6-8.55,3.31-4.24,1.09-7.24.6-11.32-.63-4.24-1.27-7.11-1.93-11.23-1.05h0Zm37.66-.6l4.07-.69c1.18-.35,4.19-.4,5.36-.11.53.13,1.05.67,1.41.73.94.15,1.88.28,2.83.4.54.07,2.8.6,3.13-.02.82-1.55.33-3.09-1.28-3.79-.69-.3-1.44-.5-2.11-.83-.48-.24-2.64-1.21-2.32-1.98.12-.29.43-.35.7-.33,2.82.16,7,1.74,9.67,2.75,2.41.91,8.85,6.4,10.95,5.27.07-.43-.71-1.63-1.69-2.94-1.21-.91-2.41-1.84-3.52-2.87-.6-.55-4.15-3.13-3.13-4.04.89-.79,3.1,1.35,3.69,2,.46.51,2.25,2.46,3.65,4.38.49.37.98.73,1.47,1.1.9.68,2.05,1.71,3.03,2.2.37.18,2.61.53,3.1.13-2.05-1.18-4.92-3.59-5.92-4.72-1.91-2.16.02-2.72.91-1.84,1.64,1.62,4.46,3.85,5.7,5.65.12.17.2.32.25.46.26.13.5.22.7.26.83.19,3.13.16,2.04-1.14-.45-.53-2.02-1.36-2.67-1.82-2.09-1.5-3.58-3.06-5.95-4.28-.71-.36-1.56-.52-2.28-.86-2.67-1.25-5.33-2.51-8.02-3.72-5.68-2.56-13.62.41-19.48-2.04-.56-.23-1.47-.26-2.48-.12-.32.32-.75.6-1.01.78-.97.67-1.95,1.29-2.83,2.09-.57.52-1.11,1.12-1.47,1.82-.32.63-.49,1.23-.59,1.81.52,2.21,2,3.98,4.41,4.98.18.08.33.21.37.41.07.28-.19.6-.67.93h0Zm28.28-4.55c-.51-.61-.94-1.09-1.16-1.33-.31-.34-1.57-1.52-2.27-1.83.62.7,2.59,2.4,2.9,2.69.17.16.35.32.52.47h0Zm9.69,4.24c-1.38-1.47-3.36-3.09-4.57-4.29-.05-.05-.17-.11-.27-.14.12.26.48.69.59.81.71.8,2.57,2.41,4.26,3.62h0Zm22.98,12.05h-9.88s-71.74-4.87-71.74-4.87l-.21,3.12,70.7,4.53,11.13-2.78h0Zm-120.24-31.9c-.14-.13-.24-.21-.31-.23-1.34.53-1.16,7.19-1.11,8.39.03.8.17,3.29.38,5.41.3-4.53.72-9.04,1.05-13.56h0Zm-8.38-42.28c-.54-.37-1-.68-1.18-.81-2.45-1.77-4.81-3.8-6.53-6.32-.05-.07-.34-.46-.46-.45-.03,0-.05.02-.08.04,1.29,3.92,2.87,8.23,4.16,8.95.44.25.93.39,1.43.34.96-.09,1.85-.75,2.65-1.76h0Zm-12.72.4c-.61.65-1.34,1.25-2.56,1.88-2.26,1.16-5.72.23-8.05-.35-3.43-.84-6.77-2.15-9.7-4.14-.35-.23-2.36-1.86-3.08-2.4-.14,4.48.47,9.34,1.04,13.79.73,5.71,1.57,11.4,2.21,17.13.49,4.41.87,8.85.93,13.29.08,5.5-1.12,10.65-2.91,15.81-.26.75-2.57,6.51-2.03,7.06.07.07.22.08.31.08,1.94,0,21.49,1.1,21.53-.37.11-3.57,4.3-4.69,4.5-8.77.31-6.38.26-12.83.08-19.21-.21-7.38-.61-14.78-1.18-22.14-.29-3.78-.57-7.82-1.09-11.65h0Zm19.91-58.57c-.07-2.67-.64-5.47-2.58-6.77.89,1.85,1.61,3.89,2.26,5.78.06.19.17.54.32.99h0Zm-82.85,103.52c-2.25-1.24-4.21-2.27-4.67-2.35-.2.05-.63.59-.29.83,1.26.88,2.47,1.86,3.73,2.76.18.13.37.26.55.39.23-.54.46-1.08.68-1.63h0Zm23.72,14.91c.25.55,2.82,2.12,4.2,2.72-.89-.99-2.66-2.68-3.22-3.01-.23.11-.56.21-.97.29h0Z"/>
  <path class="cls-1" d="m740.27,199.75c3.61-.2,8.26-.11,13.55.85,2.34.42,5.08.94,8.47,2.26,1.68.65,6.6,2.71,11.95,7.34,4.93,4.26,4.9,6.11,9.04,10.35,4.03,4.13,10.5,8.98,14.49,9.69,12.58,2.26,27.52-31.59,45.74-63.81,25.43-44.95,38.14-67.43,53.65-68.89,26.17-2.47,30.88,48.89,77.36,73.41,56.61,29.86,140.42,1.58,147.39-29.36,3.5-15.55-14.12-24.11-9.04-41.22,6.26-21.06,36.27-19.24,60.99-43.48,17.11-16.78,24.03-38.55,26.96-56.8"/>
  <path class="cls-1" d="m504.69,198.81c-2.64.03-6.31-.08-10.64-.66,0,0-9.83-1.32-18.82-5.08-11.52-4.82-16.02-26.73-28.71-33.13-16.65-8.4-30.97,18.08-57.6,17.79-37.35-.41-56.12-53-74.54-46.31-11.16,4.06-5.24,23.71-23.72,53.08-11.81,18.77-26.06,29.56-30.49,32.75-16.28,11.74-37.21,15.36-79.06,22.59-17.09,2.95-26.81,3.81-33.88-2.26-6.82-5.86-9.07-16.36-7.91-24.85,3.19-23.23,31.26-26.56,32.75-44.05,1.28-15-17.61-33.11-37.27-38.4-33.06-8.9-52.2,22.78-82.45,16.94-14.46-2.79-33.79-14.6-51.91-57.2"/>
</svg>