<?xml version="1.0" encoding="UTF-8"?>
<svg id="Layer_1" data-name="Layer 1" xmlns="http://www.w3.org/2000/svg" viewBox="0 0 1200.6 224.86">
  <defs>
    <style>
      .cls-1 {
        fill: #010101;
      }

      .cls-2 {
        fill: none;
        stroke: #231f20;
        stroke-miterlimit: 10;
      }
    </style>
  </defs>
  <path class="cls-1" d="m779.19,143.02c.55-.77,1.24-1.92,1.74-3.45,0,0,.08-.25.15-.48.34-1.22.86-3.93-.39-6.82-.67-1.55-1.75-2.93-3.2-4.01-4.4-3.28-8.93-2.65-13.04-1.73,3.66-5.14,4.45-11.44,2.14-17.54-2.77-7.31-9.37-12.89-16.42-13.88-10.24-1.44-15.94,2.31-18.91,5.7-4.75,5.42-5.49,12.96-4.17,17.67l.37,1.31.76-1.13c1.3-1.93,4.19-3.51,7.55-4.13,2.47-.45,7.26-.75,11.69,2.35,3.79,2.66,5.88,6.9,5.72,11.63-.19,5.52-3.35,10.66-8.45,13.75l-2.19,1.33,2.56-.16c8.24-.52,19.02-.24,30.89.86-2.36,1.81-5.75,3.08-10.36,3.02-26.72-.32-88.42,12.47-92.34,13.29l-28.25-11.7.22-16.58,18.18,3.89-.69-37.94-18.3.11-.43,32.38-11.34-2.43-.12-33.77-17.61-.32.44,31.68,16.04,3.43.05,15.17-25.28-9.65.67-52.31,67.58,1.58-1.73,4.5,1.63,59.27,18.19-1.44.31,6.11,30.12-5.41-1.09-53.52,12.15-.96-24-72.25-28.15,62.63-5.62-.13,30.24-78.6.48-1.25-79.63,27.02-.16-19.75-10.65-10.36-9.93,4.91-.42,32.39-19.48,6.61,17.57,30.66,1.44-.08-.09,6.81-3.75-.09-19.65-37.94-60.16-37.46-5.4,11.98-7.89-12.06-32.81,81.83,10.29.72,30.63-67.88,45.69,69.8.18.28,37.15.27-.97,45.43-7.65,2.41,1.53-41.14-31.63-.18-.43,46.63-12.43,5.37-23.89-6.34.08-1.22,23.5,2.32,1.21-55.12c0-.15-5.35-9.29-16.07-27.42-7.99-13.52-15.98-27.03-15.98-27.03l-.61-1.03-25.54,54.99c-.08.16-.12.35-.11.56.79,14.35,2.81,51.88,2.71,53.23l-.05.6.6.08c7.53.96,23.56,3.6,26.77,4.13l-.39,5.71-39.45-11.48-.68,6.77,27.07,5.68-.22,5.76c-4.47-1.51-26.51-8.8-39.65-10.07-13.76-1.33-33.47-2.16-49.39,1.44-2.04-.86-4.03-1.83-5.74-3.08,21.1-4.72,42.15-6.14,62.93-4.21l.22.02.19-.13c3.78-2.55,6.18-6.11,6.93-10.29.76-4.27-.25-8.85-2.71-12.27-2.14-2.97-4.44-4.94-6.64-6.24-.3-3.13-1.16-6.36-2.54-9.43-2.81-6.24-7.49-11.06-13.17-13.57-8.96-3.96-23.83-3.08-32.23,5.24-4.52,4.47-8.63,12.69-2.97,26.6-5.87.11-10.63,1.9-13.45,5.1-2.5,2.83-3.44,6.64-2.81,11.32.28,2.08,1.14,3.82,1.14,3.82.78,1.62,1.74,2.77,2.44,3.48-5.59,2.83-13.34,5.69-22.59,5.65-16.83-.07-28.84-9.7-28.99-9.41-.15.29,12.18,11.15,29.63,11.33,10.37.11,18.6-3.59,23.45-6.35.85.63,1.84,1.3,2.98,1.94,1.31.74,2.55,1.3,3.65,1.72l.19.08.2-.05c15.78-3.61,35.46-2.78,49.18-1.46,14.45,1.4,39.9,10.19,40.16,10.28l.8.28.33-8.52-27-5.66.42-4.14,39.5,11.49.57-8.41-.56-.09c-.19-.03-18.22-3.03-26.83-4.16-.13-5.91-2.57-50.32-2.7-52.76l24.53-52.81c4.28,7.24,29.67,50.16,31.26,52.93l-1.18,53.59-22.2-2.19,2.89-46.93-22.76-1.3,4.33,47.96,14.21,1.4-.14,2.3,25.09,6.66.21.06,13.58-5.86.43-46.19,29.08.16-1.55,41.63,10.22-3.21,1.02-47.61-37.76-.28-45.94-70.19,5.14-11.4,58.65,36.52,19.83,38.3,4.5.1-.69,53.2,27.81,10.61-.06-16.73,11.32,2.42-.23,17.68,29.4,12.17.19-.04c.64-.14,63.37-13.31,91.23-13.31.09,0,.48.02,1.02,0,4.94-.1,9.03-2.03,12.12-4.11,2.52.73,6.04,1.57,10.31,2.04,2.8.31,5.88.65,9.22.28,8.55-.95,14.57-6.07,14.49-6.21-.06-.11-3.66,2.66-9.79,4.05-4.74,1.07-8.68.8-11.67.56-2.83-.22-6.68-.76-11.11-2.16Zm-133.51-43.37l15.83-.1.64,35.11-16.88-3.61.41-31.4h0Zm-29.06,25.27l-.4-29.37,15.08.27.12,32.26-14.79-3.16h0Zm74.56-30.63l18.36-.33-2.92,50.14-12.89,1.02-2.55-50.84h0Zm-8.49-9.93l27.16-60.44,22.47,67.66-11.74.92,1.09,53.63-27.66,4.97-.24-4.72,14.02-1.11,3.06-52.59-21.02.38,2.61,52.17-16.91,1.34-1.59-57.69,1.8-4.68,6.91.16h0ZM607.86,5.7l8.44-4.17,9.64,9.37.16,19.64-18.65,6.33.4-31.17h0Zm-.42,32.51l18.67-6.34.18,21.6-8.38,19.1-10.93.6.45-34.96h0Zm-.47,36.22l11.78-.64,8.8-20.05-.19-22.29,77.48-26.29-29.92,77.77-68.05-1.59.09-6.9h0Zm-121.51,12.53l-7.69-.54,31.27-77.98,7.01,10.71-30.59,67.81h0Zm-13.78,35.03c-1.49,6.12-5.77,9.42-11.75,9.06-3.78-.23-6.78-2.24-7.82-5.24-1-2.88,0-6.04,2.68-8.45,2.77-2.49,6.36-3.85,10.06-3.85.53,0,1.07.03,1.6.09,1.63.17,3.62.66,5.72,1.79.17,2.32.01,4.57-.48,6.61h0Zm-64.23,17.71c-.59-4.3.25-7.77,2.5-10.32,3.56-4.03,9.6-4.68,13.1-4.68.12,0,.23,0,.35,0h.97s-.38-.88-.38-.88c-5.92-13.79-2-21.79,2.33-26.08,7.78-7.7,22.22-8.79,30.84-4.98,8.59,3.8,13.76,12.77,14.86,21.12-1.99-.95-3.87-1.38-5.44-1.55-4.59-.49-9.2,1-12.64,4.08-3.07,2.76-4.2,6.42-3.02,9.8,1.22,3.48,4.64,5.81,8.93,6.08,6.64.41,11.4-3.24,13.05-10.01.47-1.92.66-3.99.58-6.12,1.84,1.21,3.73,2.95,5.52,5.43,2.23,3.1,3.19,7.43,2.49,11.31-.67,3.78-2.82,7-6.21,9.35-21.16-1.93-42.59-.43-64.07,4.48-1.94-1.75-3.35-3.98-3.77-7.03h0Zm102.75-.66l-4.1-45.47,20.04,1.14-2.81,45.63-13.13-1.3Zm95.53-65.8l-.75.04-16.42-28.66,17.61-5.98-.45,34.6h0Zm171.53,69.93c-8.51-.82-16.49-1.23-23.43-1.23-2.32,0-4.52.05-6.59.14,4.36-3.36,7-8.27,7.18-13.5.17-5.16-2.1-9.79-6.25-12.71-4.8-3.37-9.98-3.05-12.64-2.56-3.08.57-5.83,1.92-7.51,3.63-.81-4.52.3-10.85,4.18-15.28,3.97-4.54,10.12-6.37,17.79-5.29,6.61.93,12.81,6.19,15.42,13.08,1.39,3.67,2.84,10.84-3.03,17.71l-1.25,1.46,2.22-.52c4.4-1.04,8.96-2.12,13.4,1.19,3.13,2.33,4.28,6.12,3,9.9-.46,1.36-1.28,2.75-2.48,3.99h0Z"/>
  <path class="cls-2" d="m781.45,144.52c4.75,1.45,11.97,2.75,19.95.66,4.07-1.07,7.07-2.69,9.04-3.76,8.91-4.88,10.08-9.18,14.68-11.67,9.26-5.01,16.14,6.14,31.15,6.31,17.52.19,21.43-14.84,41.22-16.94,12.64-1.34,17.92,4.06,28.24,6.21,42.14,8.77,76.96-55.9,98.82-46.31,18.13,7.96.67,55.28,28.24,74.54,13.75,9.61,23.57,1.65,44.05,14.12,17.34,10.55,19.49,21.85,32.19,33.88,11.6,10.99,32.24,22.81,71.58,22.8"/>
  <path class="cls-2" d="m406.67,149.61c-4.4,1.92-12.72,4.82-23.15,3.86-1.31-.12-5.69-.58-11.11-2.45-3.77-1.3-16.58-5.72-22.59-15.81-6.64-11.16,1.56-20.31-4.05-25.32-7.98-7.14-30.2,5.57-31.62,6.4-15.59,9.08-14.93,17.06-27.86,22.02-12.08,4.64-14.85-1.48-29.74,1.69-22.21,4.74-26.74,20.63-38.96,18.64-11.07-1.8-20.25-16.92-22.02-30.49-4.23-32.42,33.69-57.05,27.11-66.07-4.24-5.8-22.47.89-33.88,5.08-16.14,5.93-41.24,15.14-55.91,38.96-12.48,20.27-4.15,29.6-16.94,44.05-12.43,14.04-27.58,13.47-48.28,20.33-17.84,5.91-41.95,18.05-67.29,45.74"/>
</svg>