<svg xmlns="http://www.w3.org/2000/svg" version="1.1" xmlns:xlink="http://www.w3.org/1999/xlink" xmlns:svgjs="http://svgjs.com/svgjs" width="1440" height="560" preserveAspectRatio="none" viewBox="0 0 1440 560"><g mask="url(&quot;#SvgjsMask1006&quot;)" fill="none"><path d="M1524.59 138.41C1354.69 143.68 1214.3 402.06 897.66 401.61 581.03 401.16 461.31-19 270.74-40.48" stroke="rgba(135, 110, 125, 0.5)" stroke-width="2"></path><path d="M1618.35 340.12C1491.1 337.47 1398.69 174.28 1139.77 166.52 880.85 158.76 793.09-51.26 661.19-56.66" stroke="rgba(135, 110, 125, 0.5)" stroke-width="2"></path><path d="M1595.49 518.21C1454.84 517.23 1291.33 405.53 1049.18 383.81 807.04 362.09 885.15 41.77 776.03-5.4" stroke="rgba(135, 110, 125, 0.5)" stroke-width="2"></path><path d="M1452.58 180.39C1290.12 181.69 1141.66 343.35 823.34 342.79 505.03 342.23 374.43-1.02 194.11-13.06" stroke="rgba(135, 110, 125, 0.5)" stroke-width="2"></path><path d="M1727.68 190.28C1628.31 190.01 1532.05 120.28 1336.41 120.28 1140.78 120.28 1144.95 191.13 945.15 190.28 745.34 189.43 667.34-33.69 553.88-42.24" stroke="rgba(135, 110, 125, 0.5)" stroke-width="2"></path></g><defs><mask id="SvgjsMask1006"><rect width="1440" height="560" fill="#ffffff"></rect></mask></defs></svg>