<?xml version="1.0" encoding="UTF-8"?>
<svg id="Layer_1" data-name="Layer 1" xmlns="http://www.w3.org/2000/svg" viewBox="0 0 290.09 1201.7">
  <defs>
    <style>
      .cls-1, .cls-2 {
        fill: #010101;
      }

      .cls-3 {
        fill: #231f20;
      }

      .cls-4, .cls-5, .cls-6 {
        fill: none;
        stroke: #1d1d1b;
      }

      .cls-4, .cls-6 {
        stroke-miterlimit: 10;
      }

      .cls-2 {
        fill-rule: evenodd;
      }

      .cls-5 {
        stroke-miterlimit: 1;
        stroke-width: .75px;
      }

      .cls-6 {
        stroke-width: .5px;
      }
    </style>
  </defs>
  <path class="cls-4" d="m220.39,915.96c14.28-.25,28.56-.51,42.84-.76,12.19.02,22.42,3.75,24.78,10.47,1.13,3.21.33,6.73-1.07,12.87-.65,2.84-1.93,8.28-5.27,14.31-.92,1.66-7.33,12.95-17.32,18.07-11.97,6.14-25.46,1.55-33.51-.75,0,0-44.47-17.58-90.73-2.26-26.88,8.9-32.98,21.76-60.24,25.22-36.74,4.67-53.02-15.21-67.76-4.14-15.47,11.62-16.01,47.38,1.51,68.52,2.33,2.82,15.2,18.34,32.75,17.69,16.79-.61,20.28-15.37,48.94-33.88,16.08-10.39,32.07-20.72,48.56-16.19,14.87,4.08,28.48,19.78,24.85,28.61-3.58,8.71-22.89,8.19-24.81,8.12-2-8,1-24-11.58-23.34.8.32,1.67.6,2.52.59-.77-.36-1.64-.51-2.52-.59,4.46.34,10.4,5.48,9.53,10.41-1,5.68-8.24-.94-9.58-3.06-1.27-2.01-2-4.31-3.27-6.33-1.13-1.79-4.14-3.97-.73-4.68,6.68-1.39,16.52,3.29,15.68,10.93.38-1.03.8-2.13.81-3.22-.53.94-.69,2.13-.81,3.22,2.72-5.54,8.73-4.96,13.95-4.93-2,4-4,9-9,11-3,1-3-1-3-2,0-4,3-6,6.4-6.24-.97-.06-1.96-.13-2.92,0,.89.25,1.97.17,2.92,0-4.4-.76-6.4,1.24-7.4,3.24-3,5-2,12-6,16-7,5-14-2-18-7-5-6-4-15,1-21,5-5,11-6,17-8,13-2,24,5,32,14,9,11,8,25,0,36-6,19-4,41,11,56,1,0,3,1,2-1s-3-2-5-2c-13,2-25,3-37,4-1,0-2-1-2-2-2-6-4-12-5-18,0-2,2-3,3-4-2.05,3.68-6.3,2.66,0,0-3,7-12,9-19,8-6-1-7-8-11-13-2-2-1-3-1.02-4.38.79-2.65,3.26-2.04,5.02-3.62-.92,1.77-4.68,3.31-6,1-1.01-1.76,1.42-3.9,1.07-5.81-.57-3.11-1.89-1.36-3.49-2.25-2.7-1.49,1.36-2.97,3.42-.94-3.12,3.34-2.06-2.03,0,0-3,2-7,3-8-1-1-6,6-9,7-14,1-9-1-18,2-27,1-2,2-5,3-7s2-4,4-6,4-3,5-5c12-9,27-11,41-5,14,6,21,20,22,35-14.5,33.36-10.28,50.06-4.53,59.02,16.3,25.38,62.53,16.09,72.94,42.82,5.61,14.4.85,27.95.85,27.95-2.09,5.93-5.33,10.16-7.62,12.71"/>
  <path class="cls-3" d="m243.03,864.23c-.6-2.65-1.22-3.42-1.66-3.98-.47-.59-.7-.88-.34-4.32.49-4.62-2.72-6.74-5.83-8.78-1.39-.92-2.83-1.86-3.93-3.03-3.3-3.51-5.44-12.45-5.67-13.41.72-3.86.24-6.6-1.44-8.14-1.71-1.57-4.06-1.34-4.69-1.24-9.79-4.08-19.66-8.98-21.12-9.72l-1.89-7.26c-.05-.19-.23-.33-.44-.34-.21,0-.4.12-.47.31-.45,1.3-1.11,2.04-1.92,2.58-.05-1.3.06-2.79.41-4.46.04-.21-.07-.42-.28-.5s-.44-.02-.57.15c-.04.06-4.41,5.84-11.2,5.23-2.24-.2-4.1-1.86-5.61-3.99.33-1.72.51-3.07.55-3.49.01-.1-.01-.21-.07-.29-3.9-5.67-3.14-15.3-2.45-20.07,2.34-1.65,5.74-2.18,10.11-1.55,8.95,1.28,11.88,4.16,12.83,5.77-.76,5.55-1.54,10.51-1.56,10.6-.03.21.09.41.3.48.65.23,1.28.19,1.86-.12,1.7-.91,2.38-3.98,2.45-4.33.99-2.97,1-4.83.03-5.68-.57-.5-1.31-.49-1.8-.4-.06-.2-.16-.45-.3-.74.38-2.8.76-5.74,1.03-8.27,2.03.31,3.62.17,4,.13h0c7.28-.74,10.92-2.08,11.45-4.22.77-3.09-5.34-6.82-11.81-10.76-3.04-1.86-6.19-3.78-8.45-5.56-9-7.07-16.16-9.79-21.27-8.06-3.9,1.32-6.57,5.21-7.91,11.58-1.42,6.71-1.01,10.58,1.25,11.85,1.2.68,2.71.44,4.08-.09l-.39,8.63c0,.19.12.37.31.44.19.07.41,0,.53-.15.43-.52,1.63-1.73,2.73-2.01-.09.45-.22,1.13-.35,1.98-2.25,1.75-2.94,4.04-3.14,5.14-1.03-.43-2.17-.71-2.92-.14-.76.58-.87,1.79-.34,3.81.86,3.26,1.93,5.12,3.18,5.53.27.09.5.1.7.08.41,1.55,1.84,6.36,4.37,10.08-.31,1.48-.71,3.09-1.21,4.59-.68-.58-2-2.02-3.09-5.14-.07-.2-.27-.32-.49-.3-.22.02-.39.18-.42.39l-.88,6.48c-.74.83-6.61,7.05-16.65,7.34-.35.01-8.39.4-10.82,6.34-.01.03-.02.06-.03.09-.45,2.62-2.18,9.56-4.69,10.23-3.19.84-4.89,2.34-5.69,5.02-.15.49-1.03,1.16-2.06,1.95-3.02,2.3-8.06,6.14-8.56,14.82,0,.1-.08,8.75,4.96,17.04.1.17.31.25.51.21s.35-.2.37-.4c.01-.14,1.37-14,7.44-18.28,1.56-1.1,3.34-1.47,5.26-1.08.07.01.13.01.2,0,.19-.04,4.57-.97,6.26-1.61.38-.15.83-.22,1.32-.19-.01,3.83.38,6.47.39,6.53.03.17.16.32.34.37.18.05.37,0,.49-.14.19-.22.43-.33.75-.34,1.03-.05,2.49.9,3.55,1.72-.02.88-.04,1.78-.06,2.72-2.1-1.57-5.56-2.71-6.13-2.89-.05-.02-.1-.02-.15-.02-.57,0-.88.27-1.05.49-.67.94.11,2.92.27,3.31.04.1.12.19.23.23,1.27.6,1.92,1.21,1.89,1.77-.05.96-2,1.87-2.77,2.16-2.24.07-4.12,2.66-5.24,4.66-.7-.33-1.28-.82-1.63-1.54-.74-1.51-1.1-3.16-1.46-4.75-.6-2.68-1.16-5.21-3.46-6.3-.12-.06-.25-.06-.37-.02s-.22.13-.27.24c-.31.68-7.49,16.68-1.45,19.38,1.66.74,3.21.82,4.59.23,2.65-1.14,3.71-4.33,3.81-4.63.16-.39.39-.91.68-1.49,2.72.79,6.26.01,7.55-.33.6,2.64.18,5.77-.27,9.07-.55,4.1-1.12,8.33.16,12.17.71,2.11,1.93,3.67,3.86,4.83-.14,3.48-.36,7.1-.7,10.85-.21,2.36-.46,4.66-.74,6.9-3.72-.08-7.45-.15-11.17-.23-.26,0-.53,0-.79-.01-4.1-.05-11.52-.05-11.53.14,0,.19,6.92.57,12.73.76,4.82.17,8.77.21,11.4.21.14-1.46.32-3.3.46-4.76.43-4.46.85-8.92,1.27-13.37,1.15.56,2.52,1,4.13,1.36,4.88,1.09,12.17,1.42,22.25,1.89l.46.02c17.92.82,25.65-1.62,27.59-2.38,1.56,4.72,2.82,16.5,2.83,16.63.02.23.23.4.47.4,3.72-.13,7.43-.26,11.15-.38,1.59-.35,2.37-.61,2.35-.8-.02-.21-1.01-.32-2.96-.33-3.37.21-6.74.41-10.11.62-.25-2.24-1.47-12.83-3-16.9-.04-.12-.15-.22-.27-.27s-.27-.04-.39.02c-.07.03-7.24,3.44-27.6,2.5l-.46-.02c-14.02-.64-22.02-1.01-26.38-3.33.47-9.36.81-20.59,1.03-30.16l3.17.27v7.59c0,.1.79,9.66,8.86,9.66h31.18c.36.02,4.63.24,7.36-2.17,1.45-1.28,2.19-3.06,2.19-5.29v-7.84h4.75c.29,1.06.76,2.24,1.4,3.56.04.07.09.14.17.18.17.11,4.21,2.61,9.02,1.36.82.1,4.9.57,6.29-.42.79-.56.79-1.5.78-2.58,0-1.29-.02-2.89,1.04-4.91,1.26-2.39,2.87-7.28.91-10.42-1.06-1.69-2.96-2.59-5.67-2.69-.03,0-.06,0-.1,0-.06,0-5.6.89-7.79.03-.2-.08-.42-.02-.55.14-1.17,1.42-4.71,5.07-6.99,4.96h-.02c-.24,0-1.35.02-2.49.28-3.51-5.92-10.42-5.43-10.95-5.38h-20.78c1.15-2.53,3.57-6.12,8.06-6.12,6.89,0,7.58,4.35,7.58,4.39.03.22.23.39.47.39h3.35c.25,0,.46-.19.47-.43,0-.22,1.06-21.93,4.34-28.78.06-.13.05-.29-.03-.42-.08-.13-.22-.21-.37-.22-.22-.01-21.53-1.33-27.37-3.08.53-.49,1.36-1.3,2.22-2.28,4.45-.6,8.65-.98,11.91-.91,1.51,2.59,6.56,2.96,6.77,2.97.26.02.48-.17.5-.41.07-.8-.23-1.48-.89-2.02-1.06-.86-3.12-1.28-5.75-1.38-.27-.78-.08-1.72.54-2.79,1.62-2.78,3.45-3.61,5.21-4.41.21-.1.42-.19.63-.29.5,3.97,2.34,5.94,2.45,6.06.04.04.08.07.12.09l20.41,10.32c-3.32,6.9-3.13,14.16-2.37,19.07.84,5.41,2.48,9.12,2.55,9.27.1.22.36.32.59.25,4.76-1.6,8.67-1.51,11.64.27,4.77,2.86,5.51,9.17,5.52,9.23,0,.02,0,.05.01.07,3.3,11.68,1.88,15.42.1,16.51-3.29,2.01-10.01-3.22-10.08-3.27-.16-.13-.4-.14-.57-.02-.17.12-.24.33-.17.52.11.3,2.87,7.29,9.47,7.62,1.8.09,3.56-.81,5.23-2.68,3.74-4.17,6.38-12.82,5.32-17.46Zm-44.56-78.99s.32-.12.68-.12c.23,0,.48.05.67.22.38.33.84,1.39-.3,4.78,0,.02,0,.04-.01.05-.16.83-.85,3.13-2,3.75-.22.12-.46.17-.7.14.19-1.19.73-4.73,1.31-8.81.12.04.24.05.36,0Zm.07-11.04c-2.57-.57-5.63-1.98-7.63-5.31,3.59.95,6.76,1.28,7.92,1.37-.02,1-.13,2.36-.28,3.94Zm-27.51-10.27c-.02.05-.04.1-.04.16l-.23,5.03c-1.29.56-2.68.86-3.65.31-1.27-.71-2.43-3.18-.8-10.9,1.28-6.04,3.73-9.71,7.3-10.91,4.78-1.61,11.64,1.05,20.36,7.91,2.31,1.82,5.48,3.75,8.54,5.62,5.63,3.44,12.02,7.34,11.4,9.81-.42,1.67-3.99,2.86-10.64,3.54h-.01c-.17.02-1.74.2-3.79-.13.19-1.86.3-3.45.3-4.53,0-.24-.19-.43-.44-.45-.07,0-4.31-.27-9.02-1.63-2.51-4.87-8.15-7.39-12.53-7.39h-.12c-3.19.03-5.61,1.33-6.64,3.55Zm2.81,3.34c-.45.36-1.22.9-2.12,1.38l.2-4.44c.9-1.84,2.99-2.91,5.75-2.94h.11c3.84,0,8.72,2.08,11.24,6.1-2.38-.78-4.79-1.84-6.77-3.3-.1-.08-.23-.11-.36-.09-.13.02-.24.09-.32.19-.11.15-2.7,3.59-7.38,3-.02,0-.04,0-.06,0h0c-.11,0-.22.04-.3.1Zm-2.53,10.3l.36-7.87c1.23-.6,2.23-1.32,2.61-1.62,4.24.45,6.91-2.06,7.77-3.03,2.28,1.59,5,2.7,7.6,3.48,2.16,4.23,5.8,5.91,8.8,6.55h0c-.24,2.22-.55,4.76-.89,7.26-1.53-1.82-5-4.17-12.87-5.29-4.19-.6-7.57-.18-10.07,1.24.17-1.02.31-1.63.31-1.66.03-.12,0-.26-.08-.36-.08-.1-.2-.17-.34-.18-1.2-.1-2.41.76-3.2,1.48Zm-32.11,94.8c-.42.82-.66,1.43-.69,1.51,0,.01,0,.02-.01.03,0,.03-.98,3.1-3.3,4.09-1.12.48-2.4.4-3.8-.23-4.2-1.88-.37-13.03,1.7-17.75,1.54,1.02,2,3.08,2.52,5.44.36,1.64.74,3.33,1.52,4.94.45.93,1.18,1.56,2.06,1.97h0Zm13.26-5.54l-2.29-.2.22-1.7h2.11c-.01.62-.03,1.25-.04,1.9Zm.06-2.79h-2.54c-.24,0-.44.17-.47.39l-.34,2.55c-.02.12.02.24.1.34.08.09.2.15.32.17l2.84.25c-.23,9.41-.56,20.44-1.01,29.69-1.47-1-2.43-2.32-3.01-4.07-1.22-3.65-.67-7.79-.13-11.79.48-3.58.94-6.96.13-9.86-.03-.12-.12-.22-.23-.28-.11-.06-.25-.07-.37-.03-.06.02-4.32,1.28-7.31.5,1.1-1.93,2.74-4.09,4.44-4.09.06,0,.11,0,.16-.03.34-.12,3.36-1.23,3.46-2.98.05-.92-.7-1.78-2.24-2.54-.3-.77-.58-1.94-.31-2.32.02-.03.06-.08.2-.1,2.26.72,5.05,1.98,6.32,3.17,0,.34-.01.68-.02,1.03Zm39.03-46.1c.29.23.47.5.54.8-1.15-.15-3.86-.62-5.13-1.98,2.14.13,3.75.5,4.59,1.18Zm-19.75-25.19c-.04-.15-.15-.27-.3-.32-.15-.05-.32-.02-.45.07,0,0-.18.11-.46,0-.42-.15-1.51-.94-2.55-4.89-.57-2.17-.18-2.75.01-2.9.25-.19.89-.26,2.51.5.14.07.31.06.45-.01s.23-.21.23-.36c0-.03.16-2.43,2.09-4.43-.66,5.09-1.08,13.9,2.66,19.49h0c-.08.64-.2,1.42-.35,2.29-2.53-4.16-3.82-9.35-3.84-9.44Zm-1.69,17.25c.05-.06.08-.14.1-.22l.66-4.85c1.16,2.53,2.4,3.66,2.99,4.08h0c-.95,2.54-2.21,4.56-3.79,4.68-.01,0-.03,0-.04,0-.32.05-3.16.54-6.84,1.44,4.49-2.24,6.9-5.1,6.93-5.14Zm-22.99,40.11c-.62-.03-1.19.07-1.68.25-1.49.56-5.36,1.41-6.02,1.55-.53-.1-1.05-.15-1.56-.15h0c-1.57,0-3.03.47-4.36,1.41-5.28,3.72-7.13,13.76-7.65,17.5-4.2-7.69-4.13-15.26-4.13-15.34.47-8.26,5.31-11.95,8.21-14.15,1.24-.95,2.14-1.63,2.37-2.4.71-2.37,2.17-3.64,5.04-4.4,3.49-.92,5.15-9.67,5.36-10.9,2.23-5.35,9.89-5.72,9.96-5.73.75-.02,1.47-.07,2.17-.15-4.83,1.75-9.22,4.08-10.36,6.96-.59,1.49-.3,3.01.87,4.53-1.13,1.35-5.61,7.13-3.66,11.94.84,2.07,2.75,3.64,5.69,4.71-.16,1.54-.24,3.01-.27,4.35Zm5.53,7.9c-1.07-.76-2.44-1.53-3.61-1.48-.25.01-.48.06-.7.14-.11-1.01-.29-2.98-.29-5.49,1.02.31,2.14,1.05,3.23,2.42.01.02.03.03.04.05.05.04.56.52,1.39,1.15-.02,1-.04,2.07-.06,3.2Zm.08-4.35c-.39-.32-.65-.55-.72-.62-1.3-1.64-2.69-2.48-3.95-2.79.02-1.3.09-2.71.24-4.19,1.33.41,2.84.73,4.54.95-.01.9-.05,3.28-.11,6.64Zm58.77,13.51h6.11v1.97h-5.98c-.16-.76-.2-1.42-.13-1.97Zm-2.15-7.01s.09,0,.13,0c2.84,0,6.49-3.99,7.42-5.06,2.49.74,7.35.01,7.93-.08,2.34.09,3.97.84,4.85,2.25,1.53,2.45.59,6.67-.94,9.57-1.16,2.2-1.15,4-1.14,5.31,0,1.03,0,1.58-.4,1.86-.86.61-3.95.47-5.69.23-.02,0-.04,0-.07,0h0s-.09,0-.13.02c-4.02,1.09-7.57-.78-8.22-1.15-.55-1.13-.95-2.16-1.22-3.07h6.22c.26,0,.47-.2.47-.45v-2.87c0-.25-.21-.45-.47-.45h-6.31c.1-.2.23-.38.38-.54,1.6-1.61,5.91-.46,7.43.12.12.04.25.04.36,0,.12-.05.2-.14.25-.25.51-1.27.47-2.32-.13-3.09-1.15-1.49-3.91-1.34-4.03-1.34-.08,0-.16.03-.23.07-3.35,2.12-7.28.44-8.08.06-.13-.33-.27-.64-.41-.94.79-.16,1.59-.21,2.04-.21Zm-2.45,1.61c.04.1.11.18.21.24.2.11,4.91,2.61,9.11.05.74-.02,2.43.12,3.09.98.34.44.39,1.05.16,1.83-1.47-.49-5.99-1.76-8,.25-.32.32-.56.7-.71,1.15h-3.28v-2.74c0-.25-.21-.45-.47-.45h-48.65c.33-.79,1.07-2.28,2.44-3.75,2.63-2.84,6.21-4.28,10.65-4.28h2.32c-.16.43-.27.78-.33,1.02-7.65.16-9.72,5.17-9.8,5.38-.05.14-.03.29.05.41.09.12.23.19.39.19h40.59c.23,0,.43-.16.46-.37.09-.5.61-.84,1.27-1.08.18.36.35.75.51,1.16Zm-10.96-6.71s.04,0,.06,0c.3-.03,6.63-.67,9.96,4.76-.74.28-1.38.71-1.65,1.36h0s-39.48,0-39.48,0c.79-1.3,3.2-4.2,8.97-4.2.22,0,.41-.15.46-.35,0-.02.15-.65.5-1.56h21.18Zm-25.49-35.31c-.12.1-.17.25-.15.4.03.15.13.28.28.34,4.33,1.76,23.78,3.09,27.7,3.34-2.93,7.03-3.98,25.01-4.14,28.1h-2.53c-.36-1.2-1.98-4.78-8.42-4.78-5.23,0-7.9,4.27-9.07,7.01h-2.67c-11.29,0-14.18,9.15-14.21,9.25-.04.13-.01.28.08.39.09.11.23.18.38.18h48.84v2.74c0,.25.21.45.47.45h3.55c-.06.58-.02,1.24.12,1.97h0s-5.01,0-5.01,0c-.26,0-.47.2-.47.45v8.28c0,1.97-.63,3.53-1.89,4.63-2.48,2.2-6.63,1.94-6.67,1.94h-31.24c-7.06,0-7.88-8.42-7.92-8.81v-7.95c0-.23-.19-.42-.43-.44l-3.66-.32c.02-.67.03-1.33.04-1.98h.22c.22,0,.4-.14.46-.34.17-.66-.1-1.3-.63-1.9.02-.95.04-1.88.06-2.78.04.04.08.07.12.11.03.03.06.05.09.07,1.07.61,3.14.21,4.41-.54.95-.56,1.1-1.12,1.07-1.5-.05-.54-.51-.98-1.37-1.31-1.64-.63-3.14-1.58-4.21-2.37.08-4.34.12-7.23.12-7.74,0-.23-.17-.42-.41-.45-1.9-.23-3.56-.58-4.98-1.03.52-4.36,1.74-9.19,4.33-13.26,0-.01.01-.02.02-.03.11-.2,2.51-4.88.53-10.4,5.15-1.2,12.34-2.66,19.15-3.64-.76.81-1.48,1.49-1.98,1.93Zm-16.87,38.98c.02-1.14.04-2.23.06-3.24,1.06.73,2.4,1.52,3.87,2.09.56.21.77.43.78.56.01.14-.18.39-.63.66-1.05.63-2.7.89-3.38.56-.12-.11-.37-.34-.71-.62Zm19.76-41.92c-9.92,1.37-20.04,3.73-20.8,3.91-.13.03-.24.11-.3.23-.06.11-.07.25-.02.37,2.09,5.2-.16,9.85-.31,10.14h0c-2.62,4.12-3.87,8.99-4.42,13.39-2.55-.97-4.2-2.34-4.92-4.12-1.98-4.87,3.68-11.26,3.74-11.32.15-.16.15-.4,0-.57-1.15-1.37-1.46-2.66-.95-3.94,2.55-6.42,24.01-10.18,24.8-10.31,2.03-.17,3.51-2.43,4.55-5.15.83.36,1.3.87,1.45,1.55.34,1.59-1.17,3.91-2.82,5.83Zm19.36-9.38c-.3.15-.62.29-.95.44-1.81.82-3.86,1.75-5.63,4.78-.69,1.18-.92,2.25-.71,3.2-.18,0-.36,0-.54,0-2.99,0-6.55.31-10.19.78,1.48-1.86,2.77-4.08,2.39-5.83-.21-.98-.91-1.73-2.06-2.21.46-1.34.83-2.75,1.11-4.04,1.56,1.97,3.47,3.46,5.77,3.66,5.31.47,9.15-2.53,10.94-4.33-.17,1.31-.2,2.49-.14,3.55Zm44.28,73.69c-1.47,1.64-2.97,2.43-4.46,2.36-4.13-.21-6.66-3.44-7.84-5.45,1.78,1.16,4.78,2.83,7.35,2.83.83,0,1.61-.17,2.29-.59,3.01-1.84,3.11-7.55.31-17.46-.07-.59-.94-6.85-5.95-9.86-3.13-1.88-7.18-2.05-12.03-.5-.97-2.42-5.8-15.74.15-27.61.11-.22.02-.47-.2-.59l-20.72-10.48c-.29-.33-1.82-2.28-2.19-5.87.83-.48,1.59-1.09,2.17-2.08l1.61,6.18c.03.12.12.23.24.29.11.05,10.87,5.48,21.5,9.89.09.04.19.05.29.03,0,0,.38-.07.92-.07h0c.85,0,2.11.18,3.08,1.07,1.44,1.33,1.83,3.83,1.14,7.42-.01.06,0,.12,0,.17.09.41,2.27,10.04,5.91,13.91,1.17,1.25,2.66,2.23,4.09,3.17,3.01,1.99,5.86,3.86,5.43,7.96-.38,3.64-.13,4.12.53,4.95.39.5.94,1.18,1.5,3.63.9,3.94-1.29,12.42-5.12,16.69Z"/>
  <path class="cls-1" d="m240.89,628.69c-.04-.08-2.72-.58-3.98-.71.5-.6.86-1.26,1.07-1.9.73-2.16.04-4.42-1.75-5.75-2.24-1.67-4.54-1.35-6.64-.88,1.86-2.62,2.26-5.82,1.09-8.92-1.41-3.72-4.77-6.56-8.36-7.06-5.21-.73-8.11,1.17-9.62,2.9-2.41,2.76-2.79,6.59-2.12,8.99l.19.67.39-.57c.66-.98,2.13-1.79,3.84-2.1,1.25-.23,3.7-.38,5.95,1.2,1.93,1.36,2.99,3.51,2.91,5.92-.1,2.81-1.7,5.42-4.3,6.99l-1.12.68,1.3-.08c4.19-.26,9.68-.12,15.72.44-1.2.92-2.92,1.57-5.27,1.54-13.6-.16-44.99,6.35-46.98,6.76l-14.37-5.95.11-8.44,9.25,1.98-.35-19.3-9.31.06-.22,16.48-5.77-1.23-.06-17.18-8.96-.16.22,16.12,8.16,1.74.03,7.72-12.86-4.91.34-26.62,34.39.8-.88,2.29.83,30.15,9.25-.74.16,3.11,15.33-2.75-.55-27.23,6.18-.49-12.21-36.76-14.32,31.86-2.86-.07,15.39-39.99.25-.64-40.52,13.75-.08-10.05-5.42-5.27-5.05,2.5-.21,16.48-9.91,3.36,8.94,15.6.73-.04-.04,3.46-1.91-.04-10-19.3-30.61-19.06-2.75,6.09-4.02-6.14-16.7,41.63,5.23.37,15.58-34.53,23.25,35.52.09.14,18.9.14-.49,23.12-3.89,1.22.78-20.93-16.09-.09-.22,23.72-6.32,2.73-12.15-3.22.04-.62,11.96,1.18.62-28.04c0-.08-2.72-4.73-8.18-13.95-4.07-6.88-8.13-13.75-8.13-13.75l-.31-.52-13,27.98c-.04.08-.06.18-.06.28.4,7.3,1.43,26.39,1.38,27.08l-.02.3.3.04c3.83.49,11.99,1.83,13.62,2.1l-.2,2.9-20.07-5.84-.35,3.45,13.77,2.89-.11,2.93c-2.27-.77-13.49-4.48-20.17-5.12-7-.68-17.03-1.1-25.13.73-1.04-.44-2.05-.93-2.92-1.57,10.74-2.4,21.44-3.12,32.02-2.14h.11s.09-.05.09-.05c1.92-1.3,3.14-3.11,3.52-5.24.39-2.17-.13-4.5-1.38-6.24-1.09-1.51-2.26-2.52-3.38-3.18-.15-1.59-.59-3.23-1.29-4.8-1.43-3.18-3.81-5.63-6.7-6.91-4.56-2.01-12.12-1.57-16.4,2.66-2.3,2.27-4.39,6.46-1.51,13.53-2.99.06-5.41.97-6.85,2.6-1.27,1.44-1.75,3.38-1.43,5.76.21,1.55.89,2.73,1.81,3.66-.76.08-1.65.22-2.61.48-.87.23.33.43,1.69.18.49-.09.97-.18,1.45-.28.45.4,1.03.86,1.76,1.28.68.4,1.32.68,1.86.88l.09.04.1-.02c8.03-1.84,18.04-1.42,25.02-.74,7.35.71,20.3,5.18,20.43,5.23l.41.14.17-4.33-13.74-2.88.21-2.11,20.1,5.85.29-4.28-.29-.05c-.09-.02-9.27-1.54-13.65-2.11-.07-3.01-1.31-25.6-1.37-26.84l12.48-26.87c2.18,3.68,15.09,25.52,15.91,26.93l-.6,27.26-11.29-1.11,1.47-23.88-11.58-.66,2.2,24.4,7.23.71-.07,1.17,12.77,3.39.11.03,6.91-2.98.22-23.5,14.8.08-.79,21.18,5.2-1.64.52-24.22-19.21-.14-23.38-35.71,2.62-5.8,29.84,18.58,10.09,19.48,2.29.05-.35,27.07,14.15,5.4-.03-8.51,5.76,1.23-.12,9,14.96,6.19.1-.02c.32-.07,32.24-6.77,46.42-6.77.18,0,.35,0,.52,0,2.84.03,4.86-.87,6.17-2.09,1.46.14,2.96.32,4.48.52.02-.13.04-.26.06-.4Zm-71.71-22.92h0s8.05-.05,8.05-.05l.33,17.86-8.59-1.84.21-15.98Zm-14.78,12.86l-.21-14.94,7.67.14.06,16.41-7.52-1.61Zm37.94-15.58l9.34-.17-1.49,25.51-6.56.52-1.3-25.86Zm-4.32-5.05l13.82-30.75,11.43,34.43-5.97.47.56,27.29-14.07,2.53-.12-2.4,7.14-.57,1.56-26.76-10.69.19,1.33,26.54-8.6.68-.81-29.35.92-2.38,3.51.08Zm-38.08-40.02l4.29-2.12,4.9,4.77.08,9.99-9.49,3.22.2-15.86Zm-.21,16.54l9.5-3.22.09,10.99-4.26,9.72-5.56.3.23-17.79h0Zm-.24,18.43h0l6-.33,4.48-10.2-.09-11.34,39.42-13.38-15.22,39.57-34.62-.81.05-3.51Zm-61.82,6.38h0s-3.91-.27-3.91-.27l15.91-39.68,3.57,5.45-15.57,34.5Zm-7.01,17.82h0c-.76,3.12-2.94,4.79-5.98,4.61-1.92-.12-3.45-1.14-3.98-2.66-.51-1.46,0-3.07,1.36-4.3,1.41-1.27,3.24-1.96,5.12-1.96.27,0,.54.01.81.04.83.09,1.84.34,2.91.91.09,1.18,0,2.32-.25,3.36Zm-32.68,9.01h0c-.3-2.19.13-3.95,1.27-5.25,1.81-2.05,4.88-2.38,6.67-2.38.06,0,.12,0,.18,0h.49s-.19-.45-.19-.45c-3.01-7.02-1.02-11.09,1.19-13.27,3.96-3.92,11.31-4.47,15.69-2.53,4.37,1.93,7,6.5,7.56,10.75-1.01-.48-1.97-.7-2.77-.79-2.34-.25-4.68.51-6.43,2.08-1.56,1.4-2.14,3.27-1.54,4.98.62,1.77,2.36,2.96,4.55,3.09,3.38.21,5.8-1.65,6.64-5.09.24-.98.33-2.03.29-3.12.94.62,1.9,1.5,2.81,2.76,1.14,1.58,1.62,3.78,1.27,5.75-.34,1.92-1.43,3.56-3.16,4.76-10.77-.98-21.67-.22-32.6,2.28-.99-.89-1.71-2.03-1.92-3.58Zm52.28-.34l-2.09-23.14,10.2.58-1.43,23.21-6.68-.66Zm48.61-33.48h0l-.38.02-8.35-14.58,8.96-3.04-.23,17.6Zm87.27,35.58h0c-4.33-.42-8.39-.62-11.92-.62-1.18,0-2.3.02-3.35.07,2.22-1.71,3.56-4.21,3.65-6.87.09-2.63-1.07-4.98-3.18-6.46-2.44-1.72-5.08-1.55-6.43-1.3-1.57.29-2.97.97-3.82,1.85-.41-2.3.15-5.52,2.13-7.78,2.02-2.31,5.15-3.24,9.05-2.69,3.37.47,6.52,3.15,7.85,6.65.71,1.86,1.44,5.51-1.54,9.01l-.64.74,1.13-.27c2.24-.53,4.56-1.08,6.82.6,1.59,1.19,2.18,3.12,1.53,5.04-.23.69-.65,1.4-1.26,2.03Z"/>
  <g>
    <path class="cls-1" d="m86.16,428.32c-1.55,0-2.59-.48-3.11-1.44-.81-1.51-.26-4.07,1.69-7.83,1.31-2.53,3.24-5.54,5.73-8.96,6.5-8.93,14.81-13.16,20.64-15.14,6.94-2.35,12.62-2.37,14.56-1.83.15.04.3.09.46.15-1.06-1.5-2.42-2.9-3.68-4.19-.48-.49-.94-.96-1.35-1.41-10.13-10.98-10.78-19.59-10.99-22.42-.02-.26-.03-.46-.05-.62-.04-.31-.07-.62-.11-.93-.55-4.8-1.25-10.78-2.79-11.63-.23-.12-.46-.12-.73.01-3.32,1.61-6.3,3.76-9.38,6.77-5.07,4.96-13.05,6.71-19.47,8.11-4.5.98-8.38,1.83-9.18,3.49-.25.52-.19,1.13.17,1.86l.22.45c2.08,4.18,4.21,8.45,6.11,12.87,1.01-.19,2.04-.34,3.11-.47.74-.09,1.33.11,1.76.58,1.44,1.61.66,6.26-.47,11.29,2.39,6.27,4.88,13.54,2.41,17.51-1.03,1.65-2.84,2.6-5.4,2.83-.27.02-.5-.06-.68-.25-.73-.79-.32-3.33.61-8.54.15-.83.3-1.7.46-2.61.3-1.77.79-3.87,1.31-6.09.21-.92.43-1.86.65-2.8-.18-.47-.36-.94-.54-1.4-.51-1.32-.99-2.58-1.4-3.71-.67-1.91-1.41-3.78-2.2-5.63-21.64,4.23-22.77,20.79-23.54,31.95-.28,4.07-1.9,9.3-2.05,9.21-.15-.09-.19-.28-.1-.43,1.04-1.68,1.27-4.99,1.53-8.82.41-5.96.91-13.38,4.52-19.79,1.97-3.49,4.71-6.35,8.14-8.49,3.11-1.94,6.88-3.35,11.25-4.22-1.87-4.36-3.98-8.59-6.04-12.72l-.22-.45c-.45-.9-.51-1.71-.17-2.4.93-1.94,4.76-2.77,9.61-3.83,6.34-1.39,14.23-3.11,19.16-7.95,3.12-3.06,6.16-5.25,9.54-6.88.45-.22.91-.22,1.31,0,1.83,1.01,2.48,6.65,3.11,12.1.04.31.07.62.11.93.02.17.04.38.06.64.21,2.78.84,11.22,10.82,22.04.41.44.86.91,1.34,1.4,1.45,1.49,3.13,3.22,4.28,5.12,2.7,1.45,6.57,4.91,9.98,9.8,3.41,4.89,7.46,12.76,7.69,22.78,0,.3-.13,1.22-.3,1.22s-.32-.87-.32-1.15c-.21-9.9-4.21-17.67-7.58-22.5-2.97-4.25-6.35-7.45-8.89-9.08,1.08,2.27,1.27,4.76-.63,7.37-3,4.12-8.99,10.54-16.81,16.18-5.94,4.29-14.9,9.49-23.8,9.92-.13,0-.26,0-.39,0h0Zm36.65-34.86c-2.78,0-6.96.55-11.49,2.09-5.75,1.95-13.94,6.12-20.34,14.91-5.95,8.18-8.57,13.91-7.38,16.12.43.8,1.41,1.17,2.92,1.1,15.08-.72,32.86-15.85,40.13-25.85,1.96-2.69,1.5-5.25.12-7.59-.46-.24-.89-.42-1.25-.52-.6-.17-1.53-.27-2.71-.27h0Zm-43.74,4.69c-.14.63-.29,1.26-.44,1.89-.52,2.21-1,4.3-1.3,6.05-.16.91-.31,1.77-.46,2.61-.71,3.98-1.31,7.41-.76,8.01.03.04.08.06.16.05,2.39-.21,4-1.04,4.93-2.53,2.21-3.54.1-10.15-2.13-16.08h0Zm-3.9-11.92c.77,1.82,1.49,3.67,2.16,5.54.4,1.13.88,2.37,1.39,3.7.07.17.13.34.2.52.95-4.4,1.57-8.51.41-9.81-.29-.32-.69-.45-1.22-.38-1.02.12-1.99.27-2.93.44h0Z"/>
    <path class="cls-1" d="m130.81,373.07s-.08,0-.12-.03c-3.15-1.34-5.1-3.25-5.68-5.55-3.07-.18-5.72-1.1-6.59-2.49-1.56-2.48-.28-5.48,3.51-8.23,3.53-2.56,8.79-4.44,10.05-2.93.81.97-.26,2.87-3.18,5.64-2.47,2.35-3.66,5.05-3.27,7.41,1.3.04,2.69-.05,4.09-.32,3.38-.65,9.25-2.83,10.58-10.09,1.71-9.36,4.1-14.82,6.03-19.2,1.99-4.54,3.43-7.83,2.99-13.02-.41-4.84-2.78-9.21-6.68-12.3-4.12-3.26-9.32-4.62-14.64-3.83-6.62.98-11.42,3.33-15.27,5.21-.29.14-.57.28-.84.41-1.24.6-2.39,1.17-3.4,1.67-4.18,2.07-6.67,3.31-8.52,3.31-.42,0-.81-.06-1.18-.2-1.59-.57-2.68-2.42-4.12-5.63-.85-1.88-1.35-3.65-1.83-5.36-1.4-4.96-2.61-9.24-11.36-14.43-5.81-3.45-10.89-4.23-14.13-4.27-4-.05-6.73,1.01-7.58,2.03-4.26,5.09-6.6,9.22-7.81,11.78-1.53,3.23-1.82,5.13-1.65,5.64.03.05.1.21.21.45.57.44.95,1.28,1.05,1.5,1.34,3.16,2.09,9.48-8.06,16.27-1.78,1.19-2.76,3.55-2.14,5.15.3.77.9,1.13,1.61,1.54.7.42,1.49.89,1.97,1.85.94,1.9.12,3.25-.38,4.06-.12.19-.28.45-.29.55,0,0,.01,0,.03.01,2.2,1.1,4.72,2.63,4.99,4.01,2.05,1.57,3.79,2.85,6.36,4.66.28.2.31.44.3.57-.05.53-.81.93-2.06,1.52-.18.09-.36.17-.52.25-4.24,2.09-7,2.93-8.61,2.61.1.27.23.55.36.84.87,1.87.61,3.84.35,5.73-.26,1.96-.51,3.81.62,5.22,5.07,6.32,16.03,2.34,24.84-.86,2.89-1.05,5.62-2.04,7.85-2.56,3.82-.89,15.67-5.74,16.92-9.28.29-.82.46-2.3.65-3.86.39-3.3.82-7.04,2.57-7.98.28-.15.58-.27.87-.36.06-.14.12-.27.18-.42,1.14-2.59,3.06-6.93,2.33-7.92-.07-.09-.19-.2-.55-.16-6.2.72-11.08-.45-15.79-1.58-.66-.16-1.33-.32-2-.47-.07.8-.37,1.52-.89,2.06-3.27,3.38-6.73,5.93-10.26,7.58-2.98,1.39-5.93,2.08-8.53,1.99-2.33-.08-4.25-.81-5.26-2.01-.97-1.15-1.18-3.1-.54-4.96.98-2.87,3.71-4.97,7.48-5.78,7.13-1.52,12.45-.76,17.37.34-.05-.51-.2-1.05-.45-1.57-.51-1.06-1.67-2.54-4.26-3.55-1.43-.56-3.11-.91-5.01-1.03-.36.12-.82.22-1.4.33-.66.12-1.18.26-1.7.4-1.4.37-2.5.67-4.95.25-2.45-.41-4.03-1.45-4.23-2.05-.06-.17-.03-.34.08-.46.2-.22.55-.16.8-.09.33.09.68.19,1.05.3,1.5.45,3.36,1.01,5.3.81,1.78-.18,3.43-.23,4.95-.13.29-.11.37-.19.38-.24,0-.03,0-.23-.75-.87-.62-.52-1.56-1.19-2.87-2.12-.25-.17-.5-.36-.77-.55-2.18-1.55-4.39-.56-6,.16-.93.42-1.6.72-2.02.35-.39-.34-.37-1.07.1-2.7.38-1.32.96-2.78,2.43-3.58,1.69-.93,4.22-.84,7.97.27,1.57.47,2.69,1.04,3.87,1.65.94.48,1.9.98,3.13,1.43-.87-.75-2.63-2.04-4.96-3.31-2.76-1.5-6.85-3.27-10.7-3.17-4.31.11-4.67,1.59-4.91,2.58-.03.12-.06.23-.09.34-2.34,7.62-3.16,13.29-2.43,16.87.05.25.11.5.16.74.38,1.72.7,3.21-.36,4.44-2.25,2.59-4.76,2.15-5.78,1.56-.09-.05-.17-.1-.24-.15-1.98-.41-3.42-.77-4.27-1.07-.79-.28-1.1-.52-1.1-.85,0-.03,0-.07,0-.07,0-.02,0-.04.01-.05.11-.37.63-.74,1.25-.9.56-.14,1.66-.22,2.72.82.28.28.49.5.65.68.33.36.51.56,1.02.88,0,0,0,0,.01,0,.08.05.17.1.27.16.86.5,3.01.85,4.99-1.42.86-.99.58-2.27.23-3.9-.05-.24-.11-.49-.16-.74-.75-3.68.07-9.46,2.44-17.18.03-.09.05-.19.08-.3.26-1.1.71-2.93,5.5-3.05,3.99-.1,8.19,1.71,11.01,3.25,2.91,1.59,5.52,3.56,5.82,4.2.11.23,0,.38-.04.43-.17.2-.44.11-.53.08-1.67-.53-2.86-1.14-4.01-1.73-1.15-.6-2.24-1.16-3.76-1.61-3.53-1.04-5.98-1.15-7.49-.32-1.26.69-1.78,2.01-2.13,3.21-.5,1.76-.33,2.02-.29,2.05.12.11.9-.24,1.36-.45,1.65-.74,4.15-1.86,6.62-.1.27.19.52.37.77.55,2.94,2.09,4.04,2.87,3.87,3.63-.01.06-.04.12-.07.18,1.64.16,3.11.5,4.4,1.01,2.78,1.09,4.04,2.7,4.6,3.86.32.66.49,1.34.53,1.99.72.16,1.43.34,2.13.51,4.88,1.17,9.48,2.28,15.58,1.57.63-.07.96.18,1.13.41.87,1.18-.5,4.54-2.24,8.49.05-.01.1-.03.15-.04,1.22-.31,1.91-.52,1.97-1.46.13-2.14.88-2.93,1.49-3.2.6-.27,1.32-.16,1.92.3.76.59,1.16,1.56,1.01,2.49-.4,2.45.16,3.18.53,3.4.47.27,1.21.09,1.93-.48.94-.75,1.78-2.12,1.39-3.36-.1-.33-.46-.83-.84-1.36-.85-1.19-1.91-2.67-1.46-3.96.28-.8,1.07-1.38,2.42-1.77,1.64-.47,2.56.99,3.45,2.4.36.57.73,1.16,1.13,1.6,1.68,1.84,2.35,3.64,1.99,5.35-.76,3.57-5.83,5.79-8.26,6.86-.34.15-.63.28-.85.38-6.56,3.14-9.68.67-10.1-.1-.76-1.42.54-4.88.6-5.02.11-.28.25-.61.4-.98-.08.03-.15.07-.22.11-1.46.79-1.89,4.51-2.24,7.51-.2,1.67-.37,3.11-.68,4-.76,2.15-4.65,4.44-7.78,5.98-3.68,1.81-7.69,3.26-9.59,3.7-2.19.51-4.9,1.49-7.78,2.54-5.45,1.98-11.71,4.25-16.99,4.25-3.43,0-6.45-.96-8.55-3.59-1.3-1.62-1.03-3.6-.75-5.7.24-1.81.5-3.68-.3-5.39-.23-.5-.42-.96-.57-1.4-.38-.23-.66-.57-.85-1.03-.26-.64-.49-2.94.9-3.68,0-.26-.04-.52-.1-.77-.07-.29-.31-.77-.51-1.2-.42-.88-.62-1.28-.34-1.52.03-.03.07-.05.1-.07-.75-.65-.88-1.62-.88-2.5,0-1.02.29-1.67.85-1.93.24-.11.51-.14.8-.1-.15-.09-.25-.21-.29-.36-.09-.32.11-.65.36-1.06.48-.79,1.14-1.86.35-3.45-.39-.79-1.04-1.18-1.73-1.59-.74-.44-1.5-.89-1.87-1.85-.72-1.85.37-4.55,2.37-5.9,6.13-4.1,8.15-7.99,8.49-11.05-.09.04-.22.06-.38.01-.67-.18-1.68-1.34-2.23-2.31-.4-.7-.84-1.49-.64-2.48.13-.64.59-1.59,1.33-1.68-.56-1.72,2.13-9.12,9.58-18.02,2.14-2.55,12.02-4.13,22.51,2.1,8.96,5.32,10.26,9.93,11.64,14.8.48,1.69.97,3.44,1.8,5.27,1.37,3.05,2.38,4.8,3.76,5.3,1.74.62,4.23-.62,9.21-3.08,1.01-.5,2.15-1.07,3.4-1.67.27-.13.55-.27.84-.41,3.89-1.9,8.74-4.27,15.46-5.26,2.78-.41,5.53-.26,8.19.47,2.54.69,4.88,1.87,6.93,3.49,4.04,3.2,6.49,7.72,6.91,12.74.45,5.35-1.02,8.7-3.04,13.32-1.91,4.36-4.29,9.78-5.98,19.06-.56,3.05-1.95,5.55-4.15,7.41-1.83,1.56-4.23,2.66-6.93,3.18-1.34.26-2.74.36-4.07.33.59,2.02,2.4,3.72,5.27,4.94.16.07.23.25.17.41-.05.12-.17.19-.29.19h0Zm-.37-19.14c-1.78,0-5.27,1.27-8.14,3.35-1.65,1.2-5.28,4.31-3.35,7.39.69,1.1,3.03,1.99,5.94,2.19-.36-2.53.9-5.37,3.48-7.83,3.68-3.51,3.33-4.55,3.13-4.79-.18-.21-.55-.32-1.05-.32h0Zm-86.04-1.36s.04.02.06.03c1.33.5,4.12-.31,8.52-2.47.17-.08.35-.17.53-.25.51-.24,1.55-.73,1.69-.99,0,0-.01-.01-.03-.02-2.44-1.73-4.15-2.98-6.08-4.45-.17.35-.53.63-1.07.81,1.69.26,4.9,2.47,5.81,3.25.23.2.18.4.15.48-.15.35-.53.33-3.06.03-2.06-.25-5.1-.61-6.4-.25-.03.34-.11.7-.23,1.09-.26.84-.24,1.69.08,2.76h0Zm-.57-3.36c-.44.63-.42,1.69-.3,2.27-.06-.65,0-1.25.18-1.85.04-.14.08-.28.11-.42h0Zm2.33-1.26c1.45,0,3.27.22,4.85.41.69.08,1.44.17,1.95.21-1.54-1.16-4.38-2.86-5.31-2.74-.25.03-.48.07-.69.1-1.53.22-2.17.3-3.27-.29.07.14.14.3.2.43.23.47.46.96.55,1.32.06.23.1.47.11.71.44-.1.99-.13,1.6-.13h0Zm53.98-7.24c-.26.58-.47,1.09-.63,1.49-.49,1.28-1.09,3.64-.63,4.5.09.17.79.91,2.35,1.2,1.33.25,3.62.22,6.94-1.36.23-.11.52-.24.86-.39,2.34-1.03,7.21-3.16,7.9-6.42.32-1.5-.3-3.11-1.84-4.79-.45-.49-.83-1.1-1.2-1.69-.97-1.54-1.64-2.45-2.75-2.13-1.13.32-1.8.79-2,1.37-.34.99.61,2.32,1.38,3.39.43.6.8,1.12.93,1.54.47,1.53-.5,3.17-1.6,4.04-.94.75-1.93.95-2.63.53-.62-.37-1.27-1.37-.83-4.04.12-.7-.19-1.44-.77-1.89-.42-.32-.89-.41-1.28-.23-.64.29-1.04,1.24-1.13,2.67-.09,1.44-1.28,1.74-2.44,2.03-.21.05-.42.11-.63.16h0Zm-56.5.11c-.12,0-.23.02-.32.06-.4.18-.48.84-.48,1.37,0,1.52.44,2.54,2.64,2.62,2.11.08,2.99-.39,3.09-.81,0-.01,0-.03,0-.04-.28-.22-.57-.44-.87-.67-.09-.07-.21-.17-.36-.3-.69-.58-2.64-2.23-3.71-2.23h0Zm30.02-12.52c-2.33,0-4.86.24-7.66.83-3.55.76-6.1,2.71-7.01,5.37-.56,1.64-.39,3.39.43,4.36.89,1.06,2.64,1.71,4.8,1.79,5.6.19,12.44-3.31,18.31-9.37.43-.45.68-1.07.72-1.76-2.95-.66-6.04-1.21-9.58-1.21h0Zm-28.79,5.53c.22.15.98.49,3.64,1.08-.05-.05-.09-.1-.14-.16-.17-.18-.35-.38-.63-.66-.82-.82-1.67-.77-2.1-.66-.4.09-.66.28-.77.4h0Zm17.25-12.08c.49.39,1.62,1.03,3.46,1.33,2.31.39,3.36.11,4.68-.24.2-.05.4-.11.62-.16-.75.03-1.53.08-2.34.16-2.05.21-3.99-.37-5.54-.83-.31-.09-.6-.18-.88-.26h0Zm-12.4-12.63h-.02c-.33.03-.69.64-.8,1.18-.15.76.22,1.42.57,2.05.59,1.04,1.44,1.84,1.78,1.99.12-1.55-.85-4.03-1.34-5.17-.07-.04-.13-.06-.19-.06h0Z"/>
    <path class="cls-1" d="m115.46,370.51s-.06,0-.09-.01c-.17-.05-.26-.22-.22-.39.03-.11.06-.21.09-.32.3-1.04.59-2.03.03-2.84-.85-1.24-3.65-2.03-8.54-2.42-2.63-.21-3.5-1.43-3.75-2.42-.79-3.02,2.86-7.8,9.32-12.16,2.71-1.83,5.12-4.78,6.61-8.09,1.5-3.34,1.84-6.57.92-8.88-1.3-3.27-4.91-4.52-10.45-3.62-5.46.89-8.51.56-9.32-1-.51-.98.29-2.57,1.05-3.73,1.68-2.56,4.72-5.44,7.93-7.52,2.81-1.82,7.11-3.92,11.6-3.6,6.75.48,9.42,2.12,13,7.95,1.57,2.56,2.74,5.34,3.87,8.02,1.56,3.7,3.03,7.2,5.32,9.45,2.52,2.48,5.77,3.16,10.23,2.15.17-.04.34.07.37.24.04.17-.07.34-.24.37-4.69,1.06-8.12.33-10.81-2.31-2.38-2.34-3.88-5.89-5.46-9.65-1.12-2.66-2.28-5.41-3.83-7.94-3.48-5.69-5.94-7.19-12.51-7.66-7.38-.53-15.76,5.96-18.96,10.84-.92,1.4-1.3,2.56-1.02,3.1.37.72,2,1.76,8.66.67,3.04-.5,5.55-.36,7.47.41,1.76.7,2.99,1.91,3.66,3.59.98,2.46.64,5.88-.93,9.37-1.54,3.41-4.03,6.46-6.83,8.35-7.09,4.79-9.66,9.22-9.07,11.48.38,1.43,1.95,1.85,3.2,1.95,5.24.42,8.02,1.25,9.01,2.69.73,1.05.38,2.23.05,3.37-.03.1-.06.21-.09.31-.04.14-.16.23-.3.23h0Z"/>
    <path class="cls-1" d="m156.94,320.52c-.57,0-1.12-.06-1.66-.18-3.13-.7-4.46-3.26-5.99-6.22-1.44-2.78-3.06-5.92-6.58-8.07-3.85-2.34-8.44-3.64-14.46-4.07l-.29-.02c-5.33-.38-9.18-.66-14.44-1.34-17.17-2.23-23.27-11.05-28.17-18.13-2.89-4.18-5.4-7.8-9.54-8.99-3.1-.89-5.88-.85-8.28.11-2.79,1.12-5.13,3.47-6.76,6.8-1.64,3.35-2.5,7.52-2.47,12.06,0,.17-.14.31-.31.31h0c-.17,0-.31-.14-.31-.31-.03-4.64.85-8.9,2.54-12.34,1.71-3.48,4.16-5.93,7.09-7.11,2.53-1.01,5.45-1.06,8.68-.13,4.36,1.25,6.91,4.95,9.88,9.23,4.83,6.98,10.84,15.67,27.74,17.86,5.24.68,9.09.96,14.41,1.34l.29.02c6.12.44,10.8,1.76,14.74,4.16,3.67,2.23,5.34,5.46,6.81,8.31,1.46,2.83,2.72,5.27,5.57,5.9,1.47.33,3.07.17,4.73-.47.16-.06.34.02.4.18s-.02.34-.18.4c-1.18.45-2.33.68-3.43.68h0Z"/>
    <path class="cls-1" d="m144.54,307.21c-.15,0-.28-.11-.31-.26-.5-2.82-2.04-9.39-6.38-16.54-1.61.29-3.27.68-5.01,1.09-4.42,1.03-9.43,2.2-14.8,1.98-6.17-.24-11.91-2.27-17.55-6.18-2.05-1.42-4.1-3.26-6.27-5.21-6.33-5.67-13.51-12.11-23.29-10.33-.19.03-.3-.05-.35-.12-.07-.1-.08-.23-.03-.33.05-.1.12-.23,2.45-.94,1.26-.38,3.33-.96,6.02-1.54,4.55-.98,11.59-2.12,19.25-1.95,8.72.2,16.01,2.07,22.29,5.74,8.39,4.91,13.94,11.18,17.6,17.09,4.04-.7,7.73-.75,11.17,1.11.15.08.21.27.13.42-.08.15-.27.21-.42.13-3.21-1.74-6.69-1.72-10.52-1.08,4.3,7.17,5.84,13.72,6.34,16.55.03.17-.08.33-.25.36-.02,0-.04,0-.05,0h0Zm-70.31-36.38c8.36,0,14.72,5.7,20.41,10.8,2.16,1.93,4.2,3.76,6.21,5.16,12.44,8.63,22.75,6.22,31.85,4.1,1.66-.39,3.25-.76,4.8-1.05-3.61-5.78-9.06-11.88-17.25-16.67-6.19-3.61-13.38-5.47-21.99-5.66-10.6-.24-20.23,2.02-24.68,3.33.22,0,.44-.01.66-.01h0Z"/>
  </g>
  <path class="cls-2" d="m264.08,119.78c-.05-.08-.12-.12-.12-.12-.05-.02-.1-.04-.16-.04l-21.02.06c-.13,0-.24.07-.3.19l-25.62,51.78-47.43-3.21c1.14-.47,3.03-1.1,4.58-1.75l5.37-.91c.85-.25,3.12-.29,3.93-.09.39.1.67.51,1.17.59.75.12,1.5.22,2.26.32.85.11,2.62.61,3.14-.36.84-1.58.29-3.21-1.34-3.91-.53-.23-1.12-.39-1.63-.64-.15-.07-.56-.28-.92-.49,2.1.3,4.93,1.37,6.74,2.06,2.27.86,7.01,5.32,9.27,4.04.4-.23.27-.84-.14-1.62.69.54,1.48,1.21,2.21,1.57.76.38,2.79.48,3.38-.16.19.08.36.15.51.18.84.19,2.32.27,2.58-.83.1-.41-.05-.83-.32-1.15-.45-.53-1.62-1.11-2.23-1.55-1.68-1.21-2.86-2.44-4.79-3.43-.58-.3-1.24-.42-1.83-.69-2.11-.99-4.22-1.99-6.35-2.94-4.65-2.09-10.9.27-15.4-1.62-.46-.19-1.13-.25-1.88-.19,0-.05-.02-.1-.04-.15-.28-.72-3.27-.81-3.91-.86-2.5-.17-5.02-.25-7.53-.35-.8-.03-1.59-.07-2.39-.11-1.16-.06-6.59.37-6.95-.43-.61-1.42-1.25-2.71-2.28-3.9-.23-.27-.48-.54-.73-.79-.86-.89-1.8-1.71-2.76-2.49-.35-.29-1.29-.98-1.54-1.31-1.19-1.53-2.24-3.18-3.24-4.84-2.01-3.36-4.16-7.68-6.84-10.5-3.09-3.25-3.19-6.6-4.15-10.67-.31-1.32-.71-2.62-1.15-3.9-.3-.88-3.43-9.49-4.68-9-.34.13-.3.57-.27.86.47,3.65.66,7.14.55,10.82-.08,2.64-.26,5.28-.35,7.93-.14,3.91-.11,7.81.03,11.73.15,4.09-.04,8.15-.32,12.19-.21-.12-.4-.17-.53-.12-1.59.62-1.35,5.91-1.3,7.27.06,1.6.18,3.21.37,4.79.04.35.15,2.5.76,2.44.29-.03.34-.32.35-.55.22-4.18.61-8.33.92-12.49.95,1.09,2.33,2.88,2.6,3.22,2.22,2.78,4.49,5.52,7.03,8.02,1.55,1.52,3.26,3.01,5.09,4.22-3.54.5-22.31.44-24.51-.19,1.8-8.38,8.75-41.92,5.42-47.91-.19-.33-1.09-1-1.94-1.58,2.2-3.34,3.45-9.43,3.54-11.4.15-3.27-.76-6.84-.81-10.22-.06-4.03.62-7.89.9-11.87.07-.97.45-2.34.65-3.31.38-1.77.72-3.56.92-5.36.16.5.31,1,.47,1.49.12.38.64,2.59,1.25,2.48.13-.02.23-.12.28-.24,1.12-2.7.78-8.73.15-11.63-.81-3.74-4.8-7.74-7.86-9.83-3.79-2.58-8.53-5.21-13.27-4.83-.2.02-.4.08-.47.3-.14.45,1.04,1.13,1.35,1.38.94.76,1.75,1.63,2.38,2.67.04.07.08.14.12.21-3.68-4.06-6.64-5.39-12.58-4.97-2.71.19-6.51,3.14-8.4,4.93-3.98,3.75-6.98,8.57-8.75,13.73-2.68,7.82-3.99,18.78-8.58,25.54-1.44,2.13-5.88,3.61-8.29,4.29-.18.05-.35.16-.36.37-.02.41.68.52.98.6.02,0,.04.01.06.02-1.78.34-3.41.99-4.72,2.24-1.44,1.37-2.83,6.47-3.41,8.41-1.46,4.86-2.92,9.67-4.89,14.37-3.42,8.14-7.91,16.23-12.17,23.97-2.38,4.32-5.06,7.59-5.05,12.76.01,6.77,18.33,9.02,23.48,9.23.2,0,.41-.04.51-.24.35-.73-2.62-2.2-1.89-4.51.36-1.13.8-2.25,1.3-3.33.33-.71,1.5-3.08,2.65-4.61.26.24.42.49.42.76-.03,1.88-1.97,1.62-1.81,3.36.09,1.01.89,2.04,1.02,2.98.09.71-.52,1.03-.33,1.9.27,1.26,1.37,1.73,1.93,2.68.48.8-.06,1.96,1.53,2.3,2.11.46,4.45-.03,6.58-.19,1.14-.08,2.82.02,3.85-.43.51-.23,2.78-1.86,1.61-2.42-.04-.02-.07-.04-.11-.05.05-.01.1-.03.15-.04.85-.24,2-.72,2.23-1.67.09-.38-.02-1.13-.44-1.28-.03-.01-.06-.02-.09-.03.13-.05.25-.1.36-.15,1-.47.96-1.78.15-2.24-.06-.03-.12-.07-.19-.1.37-.04.72-.08,1.04-.13.17.71,1.73,1.59,2.12,1.82.26.16,3.02,1.83,2.89.6-.04-.42-1.29-1.62-1.61-1.92-.28-.27-1.92-2.06-2.34-1.35,0,0-.02,0-.03.01.28-.84-.04-1.75-.87-2.48-.15-.13-.62-.28-1.18-.43.36-1.2-.08-2.99-.74-3.96-.53-.78-1.77-1.43-2.53-2.02-2.16-1.68-4.08.51-6.11,1.42-.55-.31-.97-.54-1.16-.65-.57-.32-3.23-1.84-5.7-3.2.84-2.11,1.6-4.28,2.46-6.36,1.63-3.91,3.51-7.74,5.95-11.21,2.1-2.99.19-6.77,2.22-9.13,1.86-2.16-.75-16.87-1.18-19.2,0-.02,0-.05-.01-.08,1.37.38,9.33,8.45,9.95,9.67,1.41,3.05,2.3,8.27,2.86,11.6,1.03,6.04,1.75,12.2,2.25,18.3.27,3.31.47,6.64.58,9.96.11,3.53.1,7.07-.01,10.6-.03.51-1.08,1.41-1.8,1.92l-5.66-.23c-.14,0-.27.08-.32.21-.05.14-.01.28.1.37,1.72,1.44,3.73,1.61,5.69.56.11-.06.25-.14.4-.24l25.87,1.06-6.1,7.12-47.31-1.26h0s4.95-2.27,4.95-2.27c.14-.07.22-.22.19-.37-.03-.16-.17-.26-.32-.26-2.43-.47-4.37-.45-5.68-.34-2.48.2-5.54.92-5.53,1,0,0,0,0,0,0,.14,0,.32,0,.54,0,0,0,.66,0,1.32-.02,1.23-.05,2.5-.4,4.33-.52.68-.04,1.24-.03,2.38,0,2.07.05,2.2.19,2.21.26.01.07-.1.2-.73.42-.66.2-1.17.4-1.51.54-1.03.43-1.46.73-2.49,1.13-.53.2-.96.34-1.23.41-.02.01-.11.06-.16.16-.03.06-.04.14-.02.21.03.15.16.26.32.27l48.9,1.3c.1,0,.19-.04.26-.12l6.65-7.77c.09-.1.11-.23.05-.35-.05-.12-.16-.19-.29-.2l-25.73-1.06c.71-.6,1.4-1.35,1.42-1.94.12-3.54.13-7.09.01-10.64-.11-3.33-.31-6.67-.58-9.99-.5-6.13-1.22-12.3-2.26-18.36-.58-3.4-1.47-8.65-2.92-11.77-.42-.9-4.08-4.58-4.89-5.4-.67-.67-5.07-5.35-6.11-4.55-.24.18-.25.49-.2.76.87,4.74,1.81,10.24,1.82,15.08,0,.6-.05,3.06-.49,3.57-2.25,2.61-.27,6.35-2.26,9.18-2.47,3.51-4.38,7.38-6.03,11.34-.85,2.06-1.61,4.21-2.44,6.29-1.94-1.05-3.65-1.93-3.95-1.93-.71,0-1.43,1.27-.59,1.86.99.7,1.95,1.47,2.94,2.17.18.13.36.26.55.39,0,.02-.02.04-.02.05-.32.7-.92,1.18-1.59,1.53-.28.15-1.71.54-1.15,1.04.6.53,2.16,1.06,3.19,1.7-1.82,2.38-3.56,6.66-4.03,8.15-.35,1.12-.02,2.19.64,3.12.18.25.68.78,1,1.14-2.5-.12-4.98-.41-7.41-.82-3.4-.58-15.02-2.99-15.03-7.72,0-4.98,2.67-8.26,4.97-12.43,4.28-7.76,8.78-15.87,12.21-24.04,1.98-4.72,3.44-9.54,4.91-14.43.53-1.76,1.94-6.89,3.23-8.12,1.52-1.44,3.57-2.02,5.84-2.27.09.03.17.05.26.08,1.99.66,3.88,1.59,5.54,2.88,1.37,1.05,2.65,2.23,3.92,3.4,2.46,2.25,6.51,6.26,10.1,6.04.54-.03,1.07-.16,1.57-.37,3.99-1.68,6.46-7.09,7.57-10.94,1.01-3.53,1.1-8,1.63-11.7.07-.52.16-1.05.25-1.58.08.29.16.58.26.87,1.9,5.89,7.6,11.61,14.01,12.03,1.06.07,2.15.09,3.2-.1,3.15-.56,3.09-3.31,3.23-5.91.11-.25.58-.4.68-.99.14-.8-.6-1.77-.58-2.23.26-.7,1.61-.43,1.67-1.53.02-.48-.18-1.63.1-1.98.86-1.04,3.64.48,3.48-3.09-.1-2.32-1.23-3.8-.77-6.41.21-1.21,1.92-2.7,2.03-4.05.13-1.57-.55-2.92-.56-4.37-.03-5.29-2.11-7.93-6.89-9.75-2.13-.81-3.53-2.1-4.94-3.66-.19-.61-.44-1.22-.76-1.8-.62-1.13-1.44-2.11-2.43-2.95-.18-.15-.67-.5-1.04-.78,4.42-.12,8.83,2.36,12.33,4.74,2.91,1.98,6.82,5.87,7.59,9.43.55,2.54.89,7.79.1,10.59-.35-.93-.95-2.82-1.45-4.46.17-2.6,0-5.87-1.81-7.53-.43-.39-.93-.67-1.48-.85-.13-.04-.27,0-.36.11-.09.11-.1.25-.03.37.89,1.64,1.59,3.58,2.19,5.34.29.84.56,1.69.83,2.54-.04.53-.09,1.03-.13,1.45-.21,1.82-.55,3.62-.93,5.42-.21,1.01-.6,2.39-.67,3.4-.28,4-.97,7.88-.9,11.92.05,3.36.96,6.94.81,10.18-.1,2.13-1.36,7.99-3.41,11.06-.41-.27-.75-.5-.94-.64-1.87-1.35-3.68-2.91-5-4.82-.45-.66-.84-.78-1.18-.58-.59-1.81-1.09-3.43-1.4-4.22-.31-.78-1.92-3.8-3.14-3-.14.09-.23.22-.28.37-.73,2.24.85,9.61,1.25,12.08.04.27.09.53.12.8-.53.63-1.1,1.18-2.21,1.75-1.57.81-4.27.07-5.89-.33-2.75-.68-5.43-1.74-7.76-3.38-.46-.33-2.35-2.11-2.84-1.89-.27.12-.31.43-.32.69-.12,3.59.37,7.48.82,11.04.57,4.51,1.24,9,1.74,13.52.38,3.46.68,6.95.73,10.43.06,4.26-.87,8.26-2.26,12.26-.35,1.02-2.31,5.39-1.45,6.26.19.19.45.26.72.26,2.37-.01,4.78.12,7.15.21,1.24.05,10.45.76,10.51-1.15.08-2.47,3.39-3.45,3.55-6.92.24-5.06.2-10.16.06-15.22-.16-5.84-.48-11.69-.93-17.52-.25-3.19-.48-6.61-.95-9.82.31-.38.64-.8,1.07-1.28.46-.51,1.02-2.36,1.45-3.47,1.01,3.02,2.22,6.15,3.39,6.81,1.58.89,2.96.16,4.1-1.33.8.55,1.64,1.16,1.75,1.36,3.2,5.77-3.87,39.95-5.54,47.67-.19.9,3.8.88,4.25.9,2.94.15,5.91.19,8.86.21,2.67.02,5.35,0,8.02-.08,1.18-.04,3.55-.05,4.66-.36.07-.02.14-.04.21-.06.14.08.27.16.41.24,1.53.88,4.63.7,6.45,1.02,2.46.43,5.07,1.32,7.53,1.47.03,0,.05,0,.07,0l10.92-1.86c-.45.17-.89.35-1.34.52-.3.12-1.59.49-1.44.99.05.16.19.25.35.26l48.74,3.3c.14,0,.26-.06.32-.18l25.62-51.79,20.28-.06-24.2,50.93-12.25,3.06h-10.43s-56.97-3.87-56.97-3.87c-.18-.01-.34.13-.35.31l-.21,3.13c0,.09.02.17.08.24.06.07.14.11.23.11l56.23,3.6s.07,0,.1,0l11.42-2.86c1.19-.04,4.24-.2,4.73-.21,1.05-.04,1.79.05,1.8-.02,0-.05-.51-.16-.67-.19-.35-.07-.63-.1-.67-.11,0,0-1-.1-2.53-.13h0l9.83-2.46c.1-.02.18-.09.22-.18,20.37-42.87,24.52-51.79,24.48-51.87Zm-134.88,29.97c-.26,3.57-.59,7.13-.83,10.71-.16-1.67-.27-3.64-.3-4.27-.04-.95-.18-6.21.88-6.63.05.02.13.08.24.18h0s0,0,0,0c0,0,0,0,0,0Zm-46.78,18.71l3.37.14c-1.16.45-2.3.41-3.37-.14Zm-.09-4.74c.44.26,1.84,1.59,2.55,2.38-1.08-.47-3.12-1.71-3.31-2.14.33-.07.59-.14.77-.23Zm-1.68-2.47c.72.63.94,1.37.51,2.15-.72.11-1.77.19-2.83.25-2.13-.56-5.09-.83-6.78-1.16-.54-.11-4.4-1.11-4.73-.89-.71.48.84,1.32,1.13,1.48.97.53,2.11.93,3.21,1.09,1.12.17,2.28.24,3.41.26.42,0,2.02-.02,3.68-.12.6.16,1.11.34,1.49.55.37.23.38.82-.11,1.05-.3.14-.73.28-1.22.41-1.2-.31-2.47-.51-3.66-.65-.86-.1-7.59-.83-7.83.36-.14.71,1.86,1.11,2.29,1.21,1.49.34,3.12.52,4.65.45,1.05-.04,3.02-.32,4.54-.69.35.09.69.2,1.02.31.05.09.05.4,0,.57-.22.61-1.19.96-1.74,1.11-.42.12-.86.22-1.31.3-1.11-.22-2.42-.31-3.26-.36-.79-.04-5.2-.28-5.48.71-.35,1.28,5.55.7,6.11.65.84-.07,1.74-.17,2.62-.32.41.09.79.19,1.08.32-.2.36-1.23,1.13-1.5,1.25-.88.39-2.63.3-3.63.37-2.03.15-4.39.63-6.39.2-1.06-.23-.64-1.23-1.1-1.99-.49-.82-1.65-1.52-1.86-2.48-.12-.57.45-1,.34-1.85-.13-.97-.93-2.05-1.02-2.95-.11-1.22,1.77-1.11,1.81-3.29,0-.53-.25-.95-.65-1.3h0c.44-.51.87-.84,1.22-.85.89-.02,1.82-.07,2.75-.19,1.08.29,2.47.35,3.2.79.72.43,1.43.88,2.13,1.35.5.34,3.39.84,4.09.97.55.11,3.47.65,3.82.91Zm-5.16,2.52c-.4,0-.71.01-.9,0-1.11-.02-2.23-.08-3.32-.25-.64-.1-2.38-.62-3.35-1.2,1.13.23,2.98.72,3.53.82.99.19,2.53.38,4.05.62h0Zm1.35,2.9h0s0,0,0,0c-1.14.21-2.31.35-3,.38-.99.04-4.76-.24-6.01-.87,1.39-.31,5.96.06,6.85.17.7.08,1.44.19,2.17.32,0,0,0,0,0,0Zm-3.2,2.99c-.71.06-3.64.24-4.92.08,1.15-.21,3.77-.14,4.34-.11.17,0,.37.02.58.03Zm-2.41-13.52c1.18-.64,2.75-1.73,3.66-1.77.51-.02.95.18,1.34.49.66.51,1.95,1.22,2.39,1.87.54.8.96,2.45.64,3.43-.05-.01-.1-.02-.15-.03-1.2-.35-5.36-2.59-7.88-3.99,0,0,0,0,0,0h0s0,0,0,0Zm-.74.35s0,0,0,0c1.83,1.01,3.66,2.02,5.52,2.96.04.02.11.05.19.1-1.07-.21-2.8-.55-3.08-.73-.71-.48-1.43-.93-2.16-1.36-.48-.28-1.13-.42-1.81-.54.46-.11.91-.25,1.34-.42h0s0,0,0,0Zm-7.07-3.99h0c2.37,1.32,4.94,2.81,5.62,3.18.22.12.45.25.67.38-.73.23-1.5.39-2.28.5-.19-.06-.36-.13-.51-.21-1.4-.77-2.75-1.61-4.07-2.5.19-.44.38-.89.57-1.34Zm-1.56.65c-.99-.71-1.95-1.48-2.95-2.18-.27-.19.07-.61.23-.65.37.06,1.92.87,3.69,1.85h0c-.18.43-.35.86-.54,1.28-.15-.1-.29-.2-.44-.31Zm-1.76,3.34c1.02-.49,1.87-.74,2.48-2.03h0c1.17.79,2.37,1.54,3.6,2.23-.52.04-1.03.06-1.53.07-.56.01-1.15.44-1.75,1.11-.88-.54-2.04-.92-2.79-1.39Zm39.16-69.34c-.22,1.04-.4,2.09-.54,3.12-.52,3.66-.61,8.12-1.61,11.61-1.04,3.63-3.41,8.92-7.18,10.51-3.75,1.57-8.49-3.28-10.96-5.55-1.29-1.18-2.58-2.37-3.97-3.43-1.4-1.07-2.94-1.91-4.57-2.56,0,0,0,0,0,0h0s0,0,0,0c3.45-.17,7.16.1,10.07-.86,4.22-1.41,7-6.45,8.67-10.27,1.55-3.53,3.02-7.1,4.54-10.65,2.19-5.14,8.71-21.35,14.84-22.88-.58,1.3-3.07,5.8-3.38,6.4-2.22,4.33-4.2,8.93-5.32,13.67-.83,3.54-1.21,7.29-.58,10.89Zm15.61-28.21c1.23,1.25,2.55,2.27,4.38,2.97,4.52,1.72,6.43,4.11,6.46,9.13,0,1.43.69,2.85.57,4.31-.09,1.1-1.8,2.71-2.03,3.99-.49,2.78.65,4.16.76,6.55.13,3-2.14,1.2-3.33,2.64-.52.63-.22,1.61-.25,2.37-.02.5-1.26.35-1.63,1.36-.2.55.66,1.73.56,2.31-.07.38-.67.6-.69,1.07-.12,2.23.05,4.8-2.69,5.29-1,.18-2.04.15-3.04.09-6.13-.4-11.61-5.94-13.42-11.57-.24-.75-.43-1.52-.57-2.3h0c.31-1.42.72-2.82,1.28-4.13,1.52-3.51,3.84-6.16,6.67-8.67,1.45-1.28,4.54-3.57,5.28-5.3,1.33-3.12,2.3-6.74,1.69-10.12Zm-.92-.98c1.05,3.54.03,7.52-1.39,10.84-.66,1.56-3.79,3.9-5.11,5.06-2.9,2.57-5.29,5.3-6.84,8.9-.36.84-.66,1.71-.91,2.61-.27-2.99.1-6.06.79-8.97,1.15-4.86,3.21-9.58,5.51-14,.8-1.54,1.64-3.04,2.46-4.57.21-.38,1.19-1.94.71-2.33-.17-.14-.37-.1-.55-.02-6.58,1.29-13.18,17.81-15.53,23.32-1.52,3.55-2.99,7.11-4.53,10.65-1.58,3.61-4.27,8.57-8.27,9.91-3.38,1.12-7.67.56-11.51.95h0c-.41-.11-.89-.24-1.29-.35,2.66-.81,6.47-2.25,7.88-4.33,4.67-6.88,5.94-17.76,8.66-25.69,1.74-5.06,4.68-9.78,8.58-13.47,1.75-1.66,5.46-4.57,7.99-4.75,6.02-.42,8.78.98,12.57,5.35.27.31.53.61.79.9Zm14.07,11.67c-.51-1.49-1.08-3.11-1.79-4.57,1.53,1.03,1.98,3.24,2.03,5.35-.11-.36-.2-.63-.25-.78Zm-14.61,56.24c.45,5.82.77,11.66.93,17.49.14,5.04.18,10.13-.06,15.17-.16,3.22-3.47,4.11-3.55,6.93-.04,1.16-15.48.28-17.01.29-.07,0-.19,0-.24-.06-.43-.43,1.4-4.99,1.6-5.57,1.41-4.08,2.36-8.15,2.3-12.49-.05-3.5-.35-7.01-.74-10.49-.5-4.52-1.17-9.02-1.74-13.53-.45-3.51-.93-7.35-.82-10.89.57.43,2.16,1.71,2.43,1.89,2.32,1.57,4.96,2.6,7.66,3.27,1.84.45,4.58,1.19,6.36.28.96-.5,1.54-.96,2.02-1.48,0,0,0,0,0,0h0s0,0,0,0c.41,3.03.63,6.22.86,9.2Zm.3-11.6c-.27.3-.5.58-.71.84-.01-.07-.02-.14-.03-.21-.37-2.27-1.94-9.74-1.27-11.77.67-.28,1.99,2.23,2.16,2.66.37.91.89,2.65,1.5,4.55h0c-.69,1.14-1.17,3.39-1.65,3.93Zm8.89,2.08c-.63.8-1.34,1.31-2.1,1.39-.4.04-.78-.07-1.13-.27-1.02-.57-2.27-3.97-3.29-7.07.02-.02.04-.03.06-.03.09-.01.32.3.36.35,1.36,1.98,3.22,3.59,5.16,4.99.15.11.51.35.94.64h0Zm56.81,39.29c4.62,1.94,10.9-.41,15.38,1.61,2.13.96,4.23,1.95,6.34,2.94.57.27,1.24.39,1.8.68,1.88.96,3.05,2.2,4.7,3.38.51.37,1.76,1.02,2.11,1.44.86,1.02-.95,1.05-1.61.9-.15-.04-.34-.11-.55-.21-.04-.11-.1-.23-.19-.37-.98-1.43-3.21-3.18-4.51-4.47-.71-.7-2.23-.25-.72,1.45.79.89,3.05,2.8,4.67,3.73-.39.31-2.16.04-2.45-.1-.77-.39-1.68-1.2-2.39-1.73-.38-.29-.77-.58-1.16-.87-1.11-1.51-2.52-3.06-2.88-3.46-.47-.51-2.21-2.21-2.91-1.58-.81.72,2,2.76,2.47,3.19.88.81,1.82,1.55,2.78,2.27.78,1.04,1.39,1.98,1.34,2.32-1.66.89-6.74-3.45-8.65-4.17-2.1-.8-5.41-2.05-7.63-2.17-.22-.01-.46.03-.56.26-.25.61,1.45,1.37,1.83,1.56.53.26,1.12.42,1.66.65,1.27.55,1.66,1.76,1.01,2.99-.26.49-2.04.07-2.47.02-.75-.09-1.49-.2-2.23-.31-.28-.05-.69-.47-1.11-.58-.93-.23-3.3-.19-4.23.08l-3.22.55h0c.38-.26.58-.51.53-.74-.04-.16-.15-.26-.29-.32-1.91-.79-3.07-2.19-3.48-3.94.08-.46.21-.93.46-1.43.28-.55.71-1.02,1.16-1.44.69-.63,1.47-1.12,2.23-1.65.21-.14.54-.36.8-.61.8-.11,1.52-.09,1.96.1Zm26.62,9.77c-1.34-.95-2.81-2.23-3.36-2.86-.09-.1-.37-.43-.46-.64.08.02.18.07.22.11.96.95,2.52,2.23,3.61,3.39Zm-7.65-3.35h0c-.14-.12-.28-.25-.41-.37-.25-.23-1.8-1.57-2.29-2.12.55.25,1.55,1.18,1.79,1.45.17.19.51.57.91,1.05Zm-25.72-3.12s-.03.06-.04.08c0-.28.03-.56.06-.85.12-.97,1.64-1.83,3.25-2.3-.81.57-1.75,1.24-1.97,1.44-.51.47-.99,1.01-1.3,1.63Zm-27.2,6.71h0c-2-1.25-3.86-2.85-5.53-4.49-2.62-2.57-4.94-5.39-7.22-8.26-.32-.4-1.71-2.35-2.82-3.37.3-4.22.51-8.44.35-12.71-.14-3.9-.16-7.78-.03-11.68.09-2.64.27-5.29.35-7.93.11-3.63-.08-7.07-.53-10.67,1.12,1.62,3.26,7.14,3.62,8.19.43,1.26.83,2.54,1.13,3.84,1,4.23,1.1,7.6,4.32,10.98,2.63,2.77,4.77,7.08,6.75,10.38,1.01,1.69,2.07,3.36,3.28,4.91.31.4,1.23,1.07,1.64,1.41.94.77,1.86,1.57,2.7,2.44.24.25.48.5.7.76,1.04,1.2,1.54,2.34,2.17,3.74.58,1.28,4.61.83,5.8.8.58-.01,1.15-.01,1.73.02,1.41.07,11.84.36,13.16.89-2.24.36-4.84,1.59-5.04,3.16-.12.94-.08,1.84.11,2.68-.19,1.33-.14,2.51-1.64,3.53-1.8,1.22-4.44,1.98-6.54,2.52-3.23.83-5.48.44-8.59-.49-3.7-1.11-6.15-1.63-9.9-.67Zm14.29,2.78c-2.41-.14-5-1.03-7.41-1.45-1.58-.28-4.59-.19-6.03-.84,0,0,0,0,0,0h0s0,0,0,0c3.25-.7,5.52-.18,8.87.83,3.22.97,5.59,1.35,8.94.49,2.19-.56,4.87-1.34,6.75-2.61,1.3-.88,1.6-1.77,1.74-2.72.62,1.26,1.66,2.29,3.13,2.97-.4.26-1.25.64-2.03.96l-13.96,2.37Zm55.64,8.7l-55.84-3.58.17-2.46,56.66,3.84h7.81s0,0,0,0l-8.79,2.2Z"/>
  <path class="cls-5" d="m49.6,629.95c-3.29.61-8.4,1.33-14.64,1.15-14.25-.4-19.58-5.01-24.47-2.07-5.89,3.54-7.2,15.69-3.95,24.85,5.35,15.09,22.97,16.45,43.48,27.11,29.47,15.31,59.39,46.92,54.21,65.51-4.65,16.7-33.48,8.04-60.42,32.75-22.51,20.65-34.01,55.39-27.11,85.84,2,8.84,6.03,26.61,20.89,37.46,9.39,6.85,28.22,8.58,65.88,12.05,5.02.46,12.99,1.12,22.96,1.51,5.04.2,9.33.27,12.59.31"/>
  <path class="cls-6" d="m53.83,401.36l-1.79,5.51-.52,2.96-.52,3.95-.24,3.01-.14,2.4-.14,1.41-1.54,6.9c-.97,4.04-2.87,10.11-6.84,16.58-3.75,6.12-5.44,9.18-11.86,15.25-3.12,2.94-8.13,8.59-10.16,16.94-3.61,14.84,3.75,31.87,14.4,38.12,18.94,11.12,36.03-19.05,74.54-21.18,44.83-2.47,60.9,36.25,96.56,27.11,29.57-7.58,32.25-37.72,49.98-35.58,30.64,3.71,40.51,92.81,30.49,121.13-1.72,4.87-5.4,15.27-15.44,20.8-1.94,1.07-7.25,3.18-13.88,3.53-3.29.17-6.52-.13-9.84-.45-2.49-.24-4.68-.54-7.06-1.06-1.21-.26-2.22-.52-2.95-.72"/>
  <path class="cls-6" d="m228.77,174.59c5.29-.24,16.43-.02,28.5,6.07,11.07,5.58,17.35,13.29,19.48,16.09,3.55,4.68,13.87,19.86,11.01,39.81-1.9,13.27-9.3,21.96-14.4,27.95-14.93,17.53-25.33,13.73-35.58,26.26-14.27,17.44-9.86,44.07-6.78,62.68,4.59,27.71,13.87,31.76,12.71,53.36-.33,6.16-1.73,23.5-14.4,38.96-17.8,21.73-44.67,23.48-49.98,23.72-13,.59-28.92-9.05-32.19-19.48-1.38-4.43-2.63-16.26-2.56-19.34.03-1.32,0-2.64,0-3.95,0-.99.01-1.82-.12-2.94-.1-.91-.26-1.65-.38-2.16"/>
  <path class="cls-6" d="m185.27.24c-.8.28-2.05.78-3.39,1.69-2.53,1.72-3.11,3.49-6,5.93-.99.83-2.08,1.68-3.31,2.55-18.93,13.28-38.9,7.28-63.53,8.47-2.31.11-33.81.37-59.29,16.94C21.18,54.38,5.12,90.07,7.11,122.21c.64,10.43,2.24,36.23,21.18,47.01,10.17,5.79,21.17,4.86,27.18,3.81"/>
</svg>