<?xml version="1.0" encoding="UTF-8"?>
<svg id="Layer_1" data-name="Layer 1" xmlns="http://www.w3.org/2000/svg" viewBox="0 0 890.14 714.79">
  <defs>
    <style>
      .cls-1, .cls-2 {
        fill: none;
        stroke: #231f20;
        stroke-miterlimit: 10;
      }

      .cls-1, .cls-3 {
        fill-rule: evenodd;
      }

      .cls-4, .cls-3 {
        fill: #010101;
      }

      .cls-5 {
        fill: #231f20;
      }
    </style>
  </defs>
  <g>
    <path class="cls-4" d="m119.83,630.88c-3.47,0-5.8-1.08-6.95-3.21-1.82-3.37-.58-9.1,3.79-17.5,2.94-5.66,7.25-12.4,12.82-20.05,14.53-19.97,33.13-29.44,46.18-33.86,15.53-5.27,28.22-5.31,32.58-4.1.33.09.67.2,1.02.34-2.36-3.35-5.42-6.5-8.22-9.38-1.08-1.11-2.09-2.15-3.02-3.16-22.66-24.57-24.1-43.83-24.58-50.16-.04-.58-.08-1.03-.12-1.38-.08-.68-.16-1.38-.24-2.07-1.24-10.74-2.79-24.1-6.24-26.01-.5-.28-1.02-.27-1.64.03-7.44,3.59-14.1,8.4-20.98,15.14-11.33,11.11-29.19,15.01-43.55,18.15-10.06,2.2-18.75,4.1-20.53,7.82-.56,1.16-.43,2.52.38,4.15l.5,1.01c4.66,9.34,9.43,18.9,13.66,28.8,2.25-.42,4.57-.77,6.95-1.06,1.66-.2,2.98.24,3.94,1.31,3.23,3.6,1.47,14.01-1.04,25.25,5.35,14.02,10.93,30.29,5.39,39.17-2.3,3.69-6.36,5.81-12.09,6.32-.6.05-1.13-.14-1.52-.57-1.63-1.78-.71-7.46,1.36-19.11.33-1.86.67-3.79,1.02-5.83.68-3.97,1.78-8.66,2.93-13.62.48-2.06.97-4.17,1.44-6.27-.4-1.06-.81-2.1-1.2-3.13-1.14-2.96-2.22-5.76-3.12-8.3-1.51-4.26-3.16-8.46-4.91-12.6-48.41,9.45-50.94,46.52-52.65,71.46-.29,4.3-.56,8.17-1.02,11.49-.48,3.46-1.08,6-2.6,8.88-2.88,5.44-7.52,8.25-7.7,8.06-.18-.18,3.81-2.99,6.51-8.8,1.36-2.91,1.98-5.41,2.36-8.06.49-3.39.76-7.38,1.06-11.67.91-13.33,2.05-29.93,10.12-44.26,4.4-7.81,10.53-14.19,18.21-18.98,6.95-4.33,15.38-7.49,25.16-9.44-4.19-9.76-8.9-19.21-13.51-28.44l-.5-1.01c-1-2.01-1.13-3.82-.39-5.38,2.07-4.33,10.64-6.21,21.49-8.58,14.18-3.1,31.82-6.96,42.87-17.78,6.99-6.85,13.77-11.74,21.35-15.4,1.01-.49,2.03-.49,2.92,0,4.09,2.25,5.55,14.87,6.96,27.07.08.7.16,1.39.24,2.07.04.38.08.85.12,1.44.47,6.21,1.89,25.1,24.21,49.31.92.99,1.93,2.03,3,3.13,3.25,3.34,7,7.2,9.58,11.45,10.97,7.78,18.08,16.11,22.33,21.92,0,0,12.9,17.63,16.33,38.71.78,4.78.38,9.04.38,9.04-.19,2.05-.54,3.64-.75,4.61-.96,4.37-2.44,7.87-2.64,7.81-.19-.06,1.03-3.36,1.6-8.75.22-2.07.28-3.88.28-5.27,0,0,0-3.43-.47-7.06-2.62-19.87-15.87-38.28-15.87-38.28-3.92-5.44-10.26-13.02-19.88-20.32,2.42,5.09,2.83,10.65-1.4,16.48-17.13,23.56-37.56,36.17-37.6,36.2h0c-7.15,5.72-22.13,16.4-43.46,20.7-2.55.51-6.19,1.14-10.64,1.52Zm81.98-77.97c-6.23,0-15.57,1.24-25.7,4.68-12.85,4.36-31.18,13.69-45.5,33.36-13.32,18.3-19.18,31.11-16.5,36.06.97,1.79,3.16,2.62,6.52,2.45,33.73-1.62,73.5-35.46,89.76-57.82,4.38-6.02,3.36-11.74.28-16.98-1.04-.54-1.98-.93-2.81-1.16-1.34-.37-3.42-.59-6.05-.59h0Zm-97.83,10.49c-.32,1.4-.65,2.81-.98,4.22-1.15,4.94-2.24,9.61-2.92,13.54-.35,2.04-.69,3.97-1.02,5.83-1.58,8.89-2.94,16.58-1.71,17.92.08.08.17.14.36.12,5.34-.48,8.94-2.33,11.03-5.67,4.94-7.93.23-22.71-4.76-35.97h0Zm-8.73-26.65c1.72,4.07,3.34,8.2,4.82,12.4.89,2.52,1.97,5.31,3.11,8.27.15.38.3.77.44,1.15,2.13-9.85,3.52-19.04.91-21.94-.64-.72-1.54-1-2.73-.85-2.27.28-4.46.6-6.56.98h0Z"/>
    <path class="cls-4" d="m219.69,507.27c-.09,0-.18-.02-.27-.06-7.04-2.99-11.41-7.26-12.71-12.41-6.87-.41-12.79-2.46-14.74-5.56-3.49-5.55-.62-12.26,7.86-18.41,7.89-5.72,19.67-9.92,22.47-6.56,1.8,2.17-.59,6.41-7.11,12.62-5.53,5.27-8.19,11.29-7.32,16.57,2.91.1,6.02-.11,9.15-.71,7.56-1.46,20.69-6.32,23.66-22.57,3.83-20.93,9.18-33.14,13.48-42.96,4.45-10.16,7.67-17.51,6.7-29.12-.91-10.83-6.22-20.6-14.94-27.51-9.21-7.3-20.84-10.34-32.74-8.57-14.81,2.2-25.54,7.44-34.16,11.65-.64.31-1.27.62-1.88.92-2.78,1.35-5.34,2.62-7.6,3.74-9.36,4.64-14.92,7.39-19.07,7.4-.94,0-1.81-.14-2.63-.44-3.56-1.28-5.99-5.41-9.22-12.59-1.89-4.2-3.01-8.16-4.09-11.99-3.14-11.09-5.84-20.67-25.4-32.29-13-7.72-24.36-9.45-31.6-9.54-8.95-.11-15.06,2.27-16.96,4.53-9.53,11.39-14.77,20.61-17.48,26.35-3.42,7.22-4.08,11.48-3.7,12.62.06.12.23.48.46,1.01,1.27.98,2.13,2.86,2.34,3.35,3.01,7.07,4.67,21.2-18.03,36.39-3.98,2.66-6.17,7.94-4.78,11.52.66,1.71,2.02,2.52,3.59,3.45,1.57.93,3.34,1.98,4.4,4.13,2.11,4.26.26,7.27-.84,9.08-.26.43-.62,1.01-.65,1.23.01,0,.03.02.06.03,4.92,2.45,10.55,5.87,11.17,8.96,4.59,3.51,8.49,6.36,14.22,10.43.64.45.69.99.67,1.26-.1,1.19-1.81,2.08-4.61,3.4-.4.19-.8.38-1.16.56-9.48,4.68-15.66,6.56-19.25,5.85.23.6.5,1.22.81,1.88,1.96,4.19,1.36,8.58.79,12.83-.59,4.38-1.15,8.52,1.39,11.68,11.33,14.14,35.86,5.23,55.56-1.92,6.47-2.35,12.58-4.57,17.56-5.73,8.55-1.99,35.06-12.85,37.85-20.75.65-1.83,1.03-5.14,1.44-8.64.87-7.38,1.85-15.75,5.74-17.86.63-.34,1.29-.6,1.95-.81.13-.3.27-.61.41-.93,2.56-5.8,6.84-15.51,5.22-17.71-.15-.2-.43-.45-1.24-.36-13.88,1.61-24.78-1-35.33-3.54-1.48-.36-2.97-.71-4.47-1.06-.16,1.79-.83,3.41-1.99,4.6-7.33,7.57-15.05,13.27-22.95,16.95-6.67,3.11-13.27,4.64-19.07,4.44-5.22-.18-9.5-1.82-11.76-4.49-2.17-2.57-2.64-6.93-1.21-11.1,2.2-6.42,8.3-11.13,16.72-12.92,15.94-3.39,27.85-1.69,38.85.77-.11-1.15-.45-2.35-1.02-3.51-1.15-2.37-3.74-5.67-9.54-7.95-3.21-1.26-6.95-2.03-11.2-2.31-.8.27-1.84.5-3.12.74-1.47.27-2.65.59-3.8.89-3.12.83-5.59,1.49-11.07.57-5.47-.92-9.01-3.25-9.46-4.58-.13-.38-.06-.75.19-1.02.46-.49,1.24-.35,1.79-.21.73.2,1.52.43,2.35.68,3.35,1.01,7.52,2.26,11.84,1.82,3.98-.41,7.68-.51,11.07-.3.66-.24.83-.42.86-.54.02-.07.01-.52-1.68-1.94-1.38-1.16-3.5-2.66-6.43-4.75-.55-.39-1.12-.8-1.72-1.22-4.87-3.47-9.81-1.26-13.42.36-2.08.93-3.58,1.61-4.53.78-.88-.76-.82-2.4.22-6.04.84-2.95,2.15-6.21,5.43-8.01,3.77-2.07,9.43-1.88,17.82.6,3.52,1.04,6.02,2.33,8.66,3.7,2.1,1.08,4.25,2.2,7.01,3.2-1.95-1.69-5.88-4.56-11.09-7.4-6.17-3.36-15.32-7.32-23.93-7.1-9.65.25-10.45,3.57-10.98,5.76-.07.27-.13.52-.2.76-5.24,17.04-7.07,29.73-5.43,37.73.11.56.24,1.11.35,1.64.84,3.85,1.57,7.18-.81,9.93-5.02,5.79-10.65,4.81-12.92,3.48-.2-.11-.38-.22-.54-.33-4.44-.91-7.65-1.72-9.56-2.4-1.78-.64-2.47-1.17-2.47-1.9,0-.07,0-.15,0-.15,0-.04.01-.08.03-.12.25-.83,1.4-1.66,2.8-2.01,1.26-.32,3.72-.5,6.08,1.83.64.63,1.09,1.12,1.45,1.52.73.8,1.15,1.26,2.28,1.97,0,0,.02.01.03.02.18.11.38.23.6.36,1.93,1.12,6.74,1.91,11.16-3.19,1.93-2.22,1.3-5.09.5-8.72-.12-.54-.24-1.1-.36-1.66-1.68-8.23.15-21.15,5.46-38.42.06-.2.12-.43.17-.67.59-2.45,1.58-6.56,12.3-6.83,8.92-.23,18.32,3.82,24.64,7.26,6.51,3.55,12.34,7.96,13.01,9.4.24.51.02.85-.09.97-.38.44-.99.25-1.19.19-3.74-1.18-6.39-2.55-8.96-3.88-2.58-1.33-5.02-2.59-8.41-3.6-7.89-2.34-13.37-2.57-16.75-.71-2.83,1.55-3.99,4.5-4.75,7.17-1.12,3.93-.74,4.52-.65,4.59.28.24,2.01-.53,3.04-1,3.7-1.66,9.28-4.16,14.81-.23.6.43,1.17.84,1.72,1.22,6.57,4.67,9.04,6.42,8.66,8.13-.03.14-.08.28-.15.4,3.67.37,6.96,1.12,9.84,2.25,6.22,2.44,9.03,6.05,10.28,8.64.71,1.47,1.1,2.99,1.18,4.45,1.61.37,3.19.75,4.78,1.13,10.91,2.62,21.21,5.09,34.84,3.51,1.41-.16,2.15.41,2.53.92,1.94,2.63-1.11,10.15-5.01,18.99.12-.03.23-.06.35-.09,2.73-.68,4.27-1.17,4.4-3.26.29-4.8,1.98-6.55,3.34-7.17,1.34-.61,2.94-.36,4.29.67,1.71,1.31,2.59,3.49,2.25,5.56-.91,5.48.35,7.12,1.19,7.61,1.04.61,2.7.2,4.31-1.08,2.11-1.67,3.98-4.74,3.12-7.53-.23-.73-1.03-1.86-1.89-3.05-1.91-2.66-4.28-5.97-3.27-8.86.62-1.79,2.39-3.09,5.41-3.96,3.67-1.06,5.73,2.21,7.71,5.37.8,1.27,1.62,2.58,2.54,3.58,3.76,4.11,5.25,8.14,4.44,11.96-1.69,7.99-13.03,12.96-18.48,15.34-.76.33-1.41.62-1.89.85-14.68,7.02-21.66,1.51-22.6-.23-1.71-3.17,1.21-10.91,1.33-11.24.24-.63.55-1.37.9-2.2-.17.08-.34.16-.5.25-3.26,1.76-4.23,10.09-5.02,16.79-.44,3.74-.82,6.96-1.51,8.94-1.7,4.81-10.4,9.92-17.4,13.37-8.23,4.05-17.2,7.29-21.45,8.28-4.89,1.14-10.97,3.34-17.39,5.68-12.19,4.43-26.2,9.51-38,9.51-7.68,0-14.42-2.15-19.13-8.03-2.91-3.63-2.31-8.06-1.68-12.75.55-4.05,1.11-8.23-.67-12.05-.52-1.12-.94-2.16-1.27-3.12-.84-.51-1.47-1.28-1.9-2.31-.59-1.43-1.09-6.57,2.02-8.23,0-.59-.08-1.16-.22-1.71-.17-.65-.68-1.73-1.14-2.68-.95-1.96-1.38-2.86-.77-3.4.07-.06.15-.11.23-.15-1.68-1.45-1.98-3.62-1.97-5.6.01-2.29.65-3.74,1.9-4.32.53-.25,1.14-.31,1.79-.23-.34-.2-.56-.47-.65-.8-.21-.73.24-1.45.8-2.38,1.07-1.76,2.55-4.16.78-7.72-.88-1.78-2.33-2.64-3.86-3.55-1.64-.98-3.35-1.99-4.18-4.15-1.61-4.15.82-10.19,5.31-13.19,13.72-9.18,18.23-17.87,19-24.72-.2.08-.48.13-.86.03-1.5-.4-3.76-2.99-4.99-5.16-.89-1.56-1.89-3.33-1.44-5.55.29-1.42,1.31-3.57,2.97-3.76-1.25-3.84,4.77-20.4,21.44-40.31,4.78-5.71,26.89-9.23,50.35,4.71,20.04,11.91,22.95,22.21,26.04,33.11,1.07,3.78,2.17,7.68,4.02,11.79,3.07,6.83,5.33,10.75,8.42,11.85,3.88,1.39,9.47-1.38,20.6-6.89,2.26-1.12,4.82-2.39,7.61-3.74.61-.3,1.24-.6,1.88-.91,8.71-4.25,19.55-9.55,34.58-11.78,6.22-.92,12.38-.57,18.32,1.05,5.69,1.55,10.91,4.18,15.5,7.81,9.03,7.15,14.53,17.27,15.47,28.49,1.01,11.97-2.27,19.45-6.81,29.8-4.27,9.75-9.59,21.88-13.38,42.65-1.25,6.83-4.37,12.41-9.27,16.58-4.09,3.49-9.45,5.94-15.5,7.11-3.01.58-6.12.81-9.1.73,1.32,4.52,5.36,8.33,11.79,11.06.36.15.52.56.37.92-.11.27-.37.43-.64.43v-.02Zm-.83-42.8c-3.98,0-11.78,2.83-18.22,7.5-3.69,2.68-11.81,9.65-7.49,16.53,1.55,2.47,6.78,4.45,13.28,4.9-.8-5.67,2.02-12.01,7.79-17.51,8.24-7.85,7.44-10.19,7-10.72-.4-.48-1.22-.71-2.35-.71h0Zm-192.47-3.04s.1.04.14.06c2.99,1.13,9.22-.69,19.06-5.54.37-.18.77-.37,1.18-.57,1.14-.54,3.48-1.64,3.79-2.22-.01-.01-.03-.03-.06-.05-5.47-3.88-9.27-6.66-13.59-9.95-.38.79-1.19,1.4-2.39,1.81,3.78.58,10.97,5.53,13.01,7.26.52.45.41.89.33,1.07-.35.79-1.18.75-6.84.07-4.62-.55-11.42-1.36-14.31-.56-.07.77-.24,1.57-.51,2.43-.58,1.87-.54,3.79.18,6.17h0Zm-1.27-7.52c-.98,1.4-.94,3.78-.66,5.07-.14-1.46,0-2.8.41-4.13.1-.32.18-.63.25-.94h0Zm5.21-2.83c3.25,0,7.32.49,10.86.91,1.55.18,3.22.38,4.37.47-3.44-2.61-9.8-6.4-11.89-6.12-.56.07-1.08.15-1.55.21-3.43.48-4.84.68-7.32-.66.15.32.31.66.46.96.51,1.06,1.04,2.15,1.24,2.94.13.52.21,1.05.25,1.58.98-.21,2.21-.3,3.59-.3h0Zm120.74-16.2c-.57,1.31-1.06,2.44-1.4,3.34-1.1,2.87-2.45,8.15-1.41,10.08.2.37,1.77,2.03,5.25,2.69,2.98.57,8.09.5,15.51-3.05.5-.24,1.17-.53,1.93-.87,5.24-2.29,16.13-7.06,17.67-14.35.71-3.35-.67-6.96-4.11-10.72-1-1.09-1.86-2.46-2.69-3.78-2.17-3.45-3.66-5.49-6.14-4.77-2.52.73-4.02,1.76-4.48,3.07-.77,2.21,1.37,5.19,3.09,7.58.96,1.34,1.79,2.5,2.09,3.45,1.06,3.42-1.11,7.08-3.58,9.04-2.11,1.67-4.32,2.12-5.89,1.19-1.4-.82-2.85-3.06-1.86-9.05.26-1.57-.42-3.22-1.72-4.22-.94-.72-1.99-.91-2.86-.51-1.43.66-2.33,2.78-2.53,5.98-.2,3.21-2.87,3.88-5.46,4.53-.47.12-.94.24-1.41.37h0Zm-126.39.24c-.26,0-.5.04-.71.14-.89.41-1.08,1.89-1.08,3.05-.02,3.39.98,5.69,5.92,5.86,4.72.17,6.68-.87,6.92-1.81,0-.03.01-.07.02-.1-.63-.48-1.27-.98-1.94-1.49-.19-.15-.47-.38-.81-.67-1.54-1.3-5.9-4.98-8.31-4.98h0Zm67.14-28.01c-5.22,0-10.86.53-17.15,1.87-7.93,1.69-13.65,6.07-15.69,12.01-1.26,3.66-.87,7.58.96,9.75,2,2.37,5.91,3.83,10.73,4,12.52.43,27.83-7.4,40.96-20.97.97-1,1.51-2.39,1.62-3.94-6.6-1.48-13.52-2.71-21.44-2.71h0Zm-64.41,12.36c.48.33,2.18,1.1,8.15,2.42-.1-.11-.21-.23-.32-.35-.37-.4-.79-.86-1.4-1.47-1.84-1.82-3.73-1.71-4.69-1.49-.89.21-1.48.62-1.73.89h0Zm38.58-27.02c1.09.88,3.61,2.29,7.74,2.99,5.17.87,7.51.25,10.47-.54.44-.12.89-.24,1.38-.36-1.68.06-3.43.17-5.24.36-4.6.47-8.92-.83-12.39-1.87-.69-.21-1.35-.41-1.97-.58h0Zm-27.73-28.25h-.05c-.75.06-1.54,1.44-1.78,2.65-.35,1.71.49,3.17,1.29,4.58,1.32,2.32,3.21,4.12,3.98,4.45.27-3.48-1.9-9.01-3-11.56-.15-.08-.29-.12-.43-.12h0Z"/>
    <path class="cls-4" d="m185.35,501.55c-.06,0-.13,0-.19-.03-.37-.1-.59-.49-.48-.87.07-.24.14-.47.21-.71.68-2.34,1.32-4.54.08-6.35-1.91-2.77-8.16-4.54-19.11-5.42-5.89-.47-7.82-3.2-8.4-5.41-1.78-6.76,6.4-17.44,20.85-27.21,6.07-4.1,11.46-10.7,14.79-18.1,3.36-7.47,4.11-14.7,2.06-19.86-2.9-7.31-10.98-10.11-23.37-8.09-12.21,1.99-19.03,1.26-20.85-2.23-1.14-2.19.65-5.74,2.35-8.34,3.76-5.73,10.56-12.17,17.74-16.82,6.29-4.07,15.91-8.77,25.94-8.06,15.1,1.08,21.07,4.74,29.08,17.79,3.52,5.74,6.13,11.94,8.66,17.94,3.49,8.28,6.78,16.11,11.91,21.13,5.64,5.54,12.91,7.06,22.89,4.81.38-.09.75.15.84.53.09.38-.15.75-.53.84-10.48,2.38-18.16.73-24.18-5.17-5.32-5.22-8.67-13.17-12.21-21.59-2.51-5.95-5.1-12.11-8.56-17.75-7.79-12.72-13.29-16.08-27.98-17.13-16.51-1.18-35.24,13.32-42.41,24.25-2.06,3.13-2.91,5.72-2.28,6.92.84,1.6,4.46,3.93,19.38,1.5,6.8-1.11,12.42-.8,16.71.92,3.94,1.57,6.69,4.28,8.18,8.04,2.19,5.51,1.43,13.15-2.09,20.96-3.43,7.63-9.01,14.44-15.28,18.69-15.86,10.72-21.61,20.63-20.28,25.69.84,3.2,4.36,4.14,7.16,4.37,11.71.94,17.93,2.8,20.15,6.02,1.62,2.36.86,4.99.11,7.54-.07.23-.14.47-.2.7-.09.31-.37.51-.67.51h0Z"/>
    <path class="cls-4" d="m278.14,389.72c-1.27,0-2.51-.14-3.72-.41-7.01-1.56-9.98-7.29-13.41-13.92-3.21-6.21-6.85-13.25-14.72-18.04-8.61-5.24-18.89-8.14-32.34-9.1l-.66-.05c-11.92-.86-20.53-1.48-32.3-3.01-38.41-4.99-52.05-24.71-63.01-40.55-6.47-9.36-12.07-17.44-21.33-20.1-6.92-1.99-13.16-1.91-18.52.24-6.23,2.5-11.46,7.76-15.13,15.22-3.68,7.49-5.59,16.82-5.54,26.98,0,.39-.31.7-.7.7h0c-.38,0-.7-.31-.7-.7-.06-10.37,1.91-19.92,5.68-27.6,3.82-7.77,9.3-13.27,15.86-15.9,5.66-2.27,12.19-2.36,19.42-.28,9.74,2.8,15.47,11.07,22.1,20.65,10.8,15.61,24.25,35.05,62.04,39.96,11.73,1.53,20.33,2.14,32.22,3l.66.05c13.68.98,24.16,3.94,32.96,9.3,8.21,4.99,11.94,12.22,15.24,18.59,3.27,6.32,6.09,11.78,12.47,13.2,3.29.73,6.86.38,10.59-1.06.36-.14.77.04.91.4s-.04.77-.4.91c-2.64,1.02-5.2,1.53-7.67,1.53h0Z"/>
    <path class="cls-4" d="m250.4,359.97c-.33,0-.63-.24-.69-.58-1.11-6.32-4.57-21-14.28-37.01-3.59.66-7.32,1.52-11.2,2.43-9.88,2.31-21.09,4.92-33.11,4.44-13.8-.55-26.64-5.07-39.26-13.83-4.58-3.18-9.17-7.29-14.03-11.64-14.17-12.69-30.23-27.08-52.1-23.12-.43.08-.66-.1-.79-.27-.16-.21-.18-.51-.06-.74.11-.22.27-.52,5.49-2.1,2.82-.85,7.45-2.14,13.47-3.44,10.18-2.2,25.92-4.74,43.05-4.35,19.5.44,35.81,4.64,49.86,12.85,18.78,10.98,31.19,25,39.37,38.23,9.05-1.57,17.28-1.69,24.98,2.48.34.18.47.61.28.95-.18.34-.61.47-.95.28-7.17-3.88-14.96-3.85-23.53-2.43,9.62,16.03,13.06,30.69,14.18,37.02.07.38-.19.74-.57.81-.04,0-.08.01-.12.01h0Zm-157.29-81.38c18.7,0,32.92,12.75,45.65,24.15,4.83,4.33,9.39,8.41,13.89,11.54,27.82,19.3,50.89,13.92,71.25,9.18,3.7-.86,7.28-1.7,10.73-2.34-8.08-12.92-20.27-26.57-38.59-37.28-13.84-8.09-29.93-12.23-49.18-12.66-23.72-.53-45.26,4.53-55.22,7.45.49-.02.98-.03,1.47-.03h0Z"/>
  </g>
  <path class="cls-5" d="m732.07,450.78c-3.18.86-7.38,1.6-12.28,1.41-1.94-.08-3.72-.29-5.33-.56-.15-.11-.4-.16-.45-.34-.67-2.5-1.21-9.51-1.64-18.24-1.14.58-2.49,1.04-4.07,1.42-4.81,1.13-11.99,1.48-21.92,1.96l-.45.02c-17.66.85-25.27-1.68-27.18-2.47-1.54,4.9-2.78,17.12-2.79,17.25-.02.24-.22.42-.46.42-1.96.3-4.07.53-6.3.66-5.6.33-10.61-.06-14.82-.71,2.89.02,5.79.05,8.68.07,1.75.09,3.74.1,5.93-.07,2.28-.17,4.32-.5,6.09-.88.41-2.53,2.83-17.16,2.96-17.53.04-.13.14-.23.27-.28.13-.05.26-.04.38.02.07.03,7.13,3.56,27.2,2.59l.45-.02c13.81-.67,21.69-1.05,25.99-3.45-.46-9.71-.79-21.36-1.02-31.29l-3.12.28v7.87c0,.1-.78,10.02-8.73,10.02h-30.72c-.36.02-4.56.25-7.25-2.25-1.43-1.33-2.16-3.17-2.16-5.49v-8.13h-4.68c-.28,1.1-.75,2.33-1.38,3.7-.03.08-.09.14-.16.19-.17.11-4.15,2.71-8.88,1.41-.81.11-4.83.59-6.2-.43-.78-.58-.77-1.55-.76-2.68,0-1.34.02-3-1.02-5.09-1.24-2.48-2.83-7.55-.89-10.81,1.04-1.76,2.92-2.69,5.58-2.79.03,0,.06,0,.09,0,.06,0,5.52.92,7.68.03.19-.08.41-.02.54.14,1.16,1.47,4.64,5.26,6.88,5.15h.02c.23,0,1.33.02,2.46.29,3.45-6.14,10.26-5.63,10.79-5.58h20.48c-1.13-2.63-3.51-6.34-7.94-6.34-6.79,0-7.47,4.51-7.47,4.56-.03.23-.23.4-.46.4h-3.31c-.25,0-.45-.19-.46-.44,0-.23-1.05-22.75-4.28-29.86-.06-.14-.05-.3.03-.43.08-.13.22-.22.37-.22.22-.01,21.22-1.38,26.96-3.19-.52-.51-1.34-1.35-2.19-2.37-4.38-.63-8.53-1.01-11.74-.94-1.49,2.68-6.46,3.07-6.67,3.08-.25.02-.47-.17-.5-.42-.07-.83.23-1.54.88-2.09,1.05-.89,3.07-1.32,5.66-1.44.26-.81.08-1.78-.54-2.9-1.6-2.88-3.4-3.74-5.14-4.57-.21-.1-.42-.2-.62-.3-.49,4.12-2.31,6.16-2.42,6.28-.03.04-.08.07-.12.09l-20.11,10.7c3.27,7.16,3.08,14.68,2.33,19.78-.82,5.61-2.44,9.46-2.51,9.62-.09.22-.35.34-.58.25-4.69-1.66-8.54-1.56-11.47.28-4.7,2.96-5.43,9.51-5.43,9.58,0,.03,0,.05-.01.07-3.25,12.11-1.85,16-.1,17.12,3.24,2.08,9.87-3.34,9.93-3.39.16-.13.39-.14.56-.02.17.12.24.34.17.54-.11.31-2.82,7.56-9.33,7.91-1.77.09-3.5-.84-5.15-2.77-3.69-4.33-6.28-13.3-5.24-18.11.59-2.75,1.2-3.55,1.64-4.13.46-.61.69-.91.34-4.48-.48-4.79,2.68-6.99,5.74-9.11,1.37-.95,2.79-1.93,3.87-3.15,3.25-3.64,5.36-12.91,5.58-13.91-.71-4-.24-6.84,1.42-8.44,1.68-1.63,4-1.39,4.62-1.29,9.65-4.23,19.37-9.32,20.81-10.08l1.86-7.53c.05-.2.22-.34.43-.35.21,0,.39.12.46.32.45,1.34,1.1,2.11,1.89,2.68.05-1.35-.06-2.89-.41-4.62-.04-.22.07-.43.27-.52.2-.09.44-.02.56.16.04.06,4.35,6.05,11.04,5.42,2.2-.21,4.04-1.92,5.53-4.13-.33-1.78-.5-3.18-.55-3.62-.01-.11.01-.22.07-.31,3.84-5.88,3.09-15.87,2.41-20.82-2.31-1.72-5.66-2.26-9.96-1.61-8.82,1.33-11.7,4.32-12.64,5.99.75,5.76,1.52,10.9,1.54,11,.03.22-.09.43-.3.5-.64.24-1.26.2-1.83-.12-1.68-.95-2.35-4.13-2.42-4.49-.98-3.09-.99-5.01-.03-5.9.56-.51,1.29-.5,1.77-.42.06-.21.15-.47.3-.77-.38-2.91-.75-5.95-1.01-8.58-2,.32-3.56.18-3.94.13h0c-7.17-.77-10.76-2.16-11.28-4.38-.76-3.2,5.26-7.07,11.63-11.16,3-1.92,6.09-3.92,8.32-5.77,8.86-7.34,15.92-10.15,20.96-8.36,3.85,1.36,6.47,5.4,7.8,12.01,1.4,6.96.99,10.97-1.23,12.29-1.19.7-2.67.45-4.02-.09l.39,8.95c0,.2-.11.38-.3.45s-.4,0-.53-.15c-.42-.54-1.61-1.8-2.69-2.08.09.47.21,1.17.34,2.05,2.22,1.82,2.89,4.19,3.09,5.33,1.01-.45,2.13-.74,2.88-.14.75.6.85,1.86.33,3.95-.85,3.38-1.9,5.31-3.13,5.73-.26.09-.49.1-.69.08-.41,1.6-1.81,6.6-4.31,10.46.3,1.53.69,3.21,1.19,4.76.67-.6,1.97-2.09,3.05-5.33.07-.2.27-.34.48-.32.22.02.39.19.41.4l.87,6.72c.73.86,6.51,7.32,16.4,7.61.34.01,8.27.41,10.66,6.58.01.03.02.06.03.09.45,2.72,2.15,9.92,4.63,10.61,3.14.87,4.82,2.43,5.61,5.21.15.51,1.02,1.21,2.03,2.02,2.97,2.38,7.95,6.37,8.43,15.37,0,.11.08,9.07-4.89,17.68-.1.18-.3.26-.5.22-.2-.04-.34-.21-.36-.41-.01-.14-1.35-14.52-7.33-18.96-1.54-1.14-3.29-1.52-5.18-1.12-.06.01-.13.01-.2,0-.18-.04-4.5-1.01-6.17-1.67-.38-.15-.82-.23-1.3-.2.01,3.97-.37,6.71-.38,6.78-.03.18-.16.33-.33.38-.18.05-.36,0-.48-.15-.19-.23-.42-.34-.74-.35-1.01-.05-2.46.93-3.5,1.78.02.91.04,1.85.06,2.82,2.07-1.63,5.48-2.81,6.04-3,.05-.02.1-.02.15-.02.57,0,.87.28,1.03.51.66.98-.11,3.03-.27,3.43-.04.1-.12.19-.22.24-1.25.63-1.89,1.26-1.86,1.84.05.99,1.97,1.94,2.73,2.24,2.21.07,4.06,2.76,5.16,4.84.69-.34,1.26-.85,1.6-1.6.73-1.57,1.09-3.27,1.43-4.92.59-2.78,1.14-5.4,3.41-6.53.11-.06.25-.06.37-.02.12.04.22.13.27.25.3.7,7.38,17.3,1.42,20.1-1.64.77-3.16.85-4.52.24-2.61-1.18-3.66-4.5-3.75-4.81-.15-.4-.38-.94-.67-1.54-2.68.82-6.17.01-7.44-.34-.59,2.74-.17,5.99.27,9.41.54,4.25,1.11,8.64-.16,12.62-.69,2.19-1.9,3.81-3.8,5.01.41,8.52.92,15.43,1.54,18.17,2.12.2,4.25.4,6.37.59,1.34.07,2.77.09,4.28.05,2.4-.06,4.6-.28,6.59-.56Zm-19.83-50.12c.22,9.76.55,21.2.99,30.8,1.45-1.04,2.39-2.41,2.97-4.22,1.21-3.79.66-8.08.13-12.23-.47-3.71-.92-7.22-.13-10.23.03-.12.11-.23.22-.29s.24-.07.36-.03c.06.02,4.26,1.33,7.21.52-1.08-2.01-2.7-4.24-4.37-4.24-.06,0-.11,0-.16-.03-.34-.13-3.31-1.27-3.41-3.09-.05-.96.69-1.84,2.21-2.64.29-.8.57-2.02.3-2.41-.02-.03-.06-.09-.2-.1-2.22.75-4.98,2.05-6.23,3.29,0,.35.01.71.02,1.07h2.51c.23,0,.43.17.46.41l.33,2.65c.02.13-.02.25-.1.35-.08.1-.19.16-.32.17l-2.79.25h0Zm-57.38,1.46h4.94c.25,0,.46.21.46.46v8.59c0,2.04.63,3.66,1.86,4.8,2.45,2.28,6.53,2.01,6.57,2.01h30.77c6.96,0,7.77-8.73,7.8-9.14v-8.25c0-.24.18-.44.42-.46l3.61-.33c-.02-.69-.03-1.38-.04-2.05h-.22c-.21,0-.4-.14-.45-.35-.17-.69.09-1.35.62-1.98-.02-.99-.04-1.95-.06-2.88-.04.04-.08.08-.11.11-.03.03-.06.05-.09.07-1.05.63-3.09.22-4.34-.56-.93-.58-1.09-1.17-1.05-1.55.05-.56.5-1.01,1.35-1.36,1.62-.65,3.09-1.64,4.15-2.46-.08-4.5-.11-7.5-.12-8.03,0-.23.17-.44.4-.47,1.87-.24,3.51-.6,4.91-1.07-.51-4.52-1.71-9.54-4.27-13.75,0-.01-.01-.02-.02-.03-.1-.21-2.47-5.06-.53-10.79-5.07-1.24-12.16-2.76-18.87-3.78.75.84,1.46,1.55,1.95,2,.12.11.17.26.14.42-.03.16-.13.29-.27.35-4.26,1.83-23.43,3.21-27.3,3.47,2.89,7.29,3.92,25.94,4.08,29.15h2.5c.36-1.25,1.95-4.96,8.3-4.96,5.15,0,7.78,4.42,8.94,7.27h2.63c11.13,0,13.97,9.49,14,9.59.04.14.01.29-.08.41s-.22.19-.37.19h-48.12v2.84c0,.25-.21.46-.46.46h-3.5c.06.6.02,1.29-.11,2.05h0Zm-9.62-48.74c-.83,0-2.08.18-3.03,1.1-1.42,1.38-1.8,3.97-1.13,7.69.01.06,0,.12,0,.18-.09.42-2.24,10.41-5.82,14.43-1.16,1.29-2.62,2.31-4.03,3.29-2.97,2.06-5.77,4-5.35,8.26.38,3.78.13,4.28-.52,5.13-.39.51-.92,1.22-1.47,3.77-.88,4.09,1.27,12.88,5.04,17.32,1.45,1.7,2.93,2.52,4.4,2.45,4.07-.21,6.56-3.57,7.73-5.65-1.75,1.21-4.71,2.94-7.24,2.94-.82,0-1.59-.18-2.26-.61-2.96-1.9-3.06-7.83-.31-18.11.07-.62.92-7.11,5.86-10.22,3.09-1.95,7.07-2.12,11.85-.52.96-2.51,5.71-16.33-.15-28.63-.11-.22-.02-.49.2-.61l20.41-10.87c.28-.35,1.8-2.36,2.16-6.09-.82-.5-1.56-1.13-2.14-2.16l-1.59,6.41c-.03.13-.12.24-.23.3-.11.06-10.71,5.68-21.19,10.26-.09.04-.19.05-.28.03,0,0-.38-.08-.91-.08h0Zm80.05,52.1c.41.85.65,1.48.68,1.57,0,.01,0,.02.01.03,0,.03.96,3.21,3.25,4.24,1.1.5,2.36.42,3.74-.23,4.13-1.95.36-13.51-1.67-18.41-1.51,1.05-1.97,3.2-2.49,5.64-.36,1.7-.73,3.46-1.5,5.12-.45.97-1.17,1.62-2.03,2.04h0Zm-81.03,1.93s.09,0,.13.02c3.96,1.13,7.46-.81,8.1-1.2.54-1.17.94-2.24,1.2-3.18h-6.13c-.25,0-.46-.21-.46-.46v-2.97c0-.25.21-.46.46-.46h6.22c-.1-.21-.23-.4-.38-.56-1.58-1.67-5.82-.47-7.32.13-.12.05-.24.04-.36,0-.11-.05-.2-.14-.25-.26-.51-1.32-.47-2.4.13-3.21,1.13-1.54,3.85-1.39,3.97-1.39.08,0,.16.03.23.08,3.3,2.2,7.17.46,7.96.06.13-.34.26-.66.41-.97-.78-.16-1.57-.22-2.01-.22-.04,0-.09,0-.13,0-2.8,0-6.4-4.14-7.31-5.24-2.45.76-7.24.01-7.81-.08-2.3.09-3.91.88-4.78,2.33-1.51,2.54-.58,6.92.92,9.92,1.14,2.29,1.13,4.15,1.12,5.51,0,1.07,0,1.64.39,1.93.85.64,3.89.49,5.61.24.02,0,.04,0,.06,0h0Zm82.33-23.3c1.54,0,2.98.49,4.29,1.46,5.2,3.86,7.03,14.28,7.54,18.16,4.13-7.97,4.07-15.83,4.07-15.91-.46-8.57-5.23-12.39-8.09-14.68-1.23-.98-2.11-1.69-2.34-2.49-.7-2.46-2.14-3.78-4.97-4.57-3.44-.96-5.07-10.03-5.28-11.3-2.2-5.55-9.74-5.94-9.82-5.94-.73-.02-1.45-.08-2.14-.16,4.76,1.82,9.08,4.24,10.21,7.22.58,1.55.29,3.12-.85,4.7,1.11,1.4,5.53,7.4,3.6,12.39-.83,2.14-2.71,3.78-5.61,4.89.16,1.6.24,3.12.26,4.52.61-.03,1.17.07,1.65.26,1.47.59,5.28,1.46,5.93,1.61.52-.1,1.03-.16,1.53-.16h0Zm-78.57,18.01h5.89c.16-.79.2-1.47.13-2.05h-6.02v2.05Zm64.15-4.36c.01.65.03,1.3.04,1.97l2.25-.2-.22-1.76h-2.08Zm-57.39,1.39h3.23v-2.84c0-.25.21-.46.46-.46h47.93c-.33-.82-1.06-2.36-2.4-3.89-2.59-2.95-6.12-4.44-10.49-4.44h-2.28c.15.44.26.81.33,1.06,7.54.16,9.57,5.36,9.66,5.58.05.14.03.3-.05.43-.09.13-.23.2-.38.2h-39.99c-.23,0-.42-.16-.46-.39-.09-.52-.6-.87-1.25-1.12-.18.38-.35.77-.5,1.2-.04.1-.11.19-.21.25-.2.11-4.84,2.71-8.97.06-.73-.02-2.4.13-3.05,1.02-.34.46-.39,1.09-.16,1.89,1.45-.5,5.9-1.82,7.88.26.32.33.55.73.7,1.19h0Zm6.35-5.29h38.9c-.78-1.34-3.15-4.36-8.84-4.36-.22,0-.41-.15-.45-.37,0-.02-.15-.68-.49-1.62h-20.87s-.04,0-.06,0c-.29-.03-6.53-.69-9.81,4.94.73.29,1.36.74,1.62,1.41h0Zm49.92-5.9c-1.04.76-2.36,1.58-3.82,2.17-.55.22-.76.45-.77.58-.01.14.18.41.62.69,1.04.65,2.66.93,3.33.58.12-.11.36-.35.7-.64-.02-1.19-.04-2.31-.06-3.37h0Zm.92-.7c.02,1.04.04,2.15.06,3.32,1.05-.79,2.41-1.59,3.56-1.54.25.01.48.06.69.15.11-1.05.28-3.09.28-5.7-1,.32-2.11,1.09-3.18,2.51-.01.02-.03.03-.04.05-.05.05-.55.54-1.37,1.2h0Zm-.13-8.08c.01.94.05,3.4.11,6.89.39-.33.64-.57.71-.64,1.29-1.7,2.65-2.57,3.89-2.89-.02-1.34-.09-2.81-.24-4.34-1.31.42-2.8.75-4.48.99h0Zm.91-16.14c2.59,4.27,3.82,9.32,4.35,13.89,2.51-1.01,4.14-2.43,4.85-4.27,1.95-5.05-3.63-11.68-3.68-11.75-.14-.17-.15-.42,0-.59,1.14-1.42,1.44-2.76.94-4.09-2.51-6.66-23.66-10.56-24.44-10.7-2-.17-3.45-2.52-4.48-5.34-.81.38-1.28.9-1.42,1.6-.34,1.65,1.16,4.05,2.78,6.05,9.77,1.42,19.74,3.87,20.49,4.06.13.03.24.12.3.23.06.12.07.25.02.38-2.05,5.4.16,10.22.31,10.52h0Zm-34.53-15.24c-2.11.14-3.69.52-4.52,1.22-.29.24-.46.51-.53.83,1.13-.15,3.8-.64,5.05-2.05Zm2.04-.95c2.95,0,6.45.33,10.04.81-1.46-1.93-2.73-4.23-2.36-6.05.21-1.02.89-1.79,2.03-2.3-.46-1.39-.82-2.85-1.1-4.19-1.54,2.05-3.42,3.59-5.69,3.8-5.23.49-9.01-2.63-10.78-4.49.17,1.36.2,2.58.14,3.68.3.16.61.31.93.46,1.78.85,3.8,1.82,5.55,4.96.68,1.22.91,2.33.69,3.32.18,0,.35,0,.53,0Zm10.86-7.08c.94,2.64,2.18,4.73,3.73,4.85.01,0,.03,0,.04,0,.32.06,3.11.56,6.74,1.5-4.42-2.32-6.79-5.29-6.83-5.33-.05-.06-.08-.14-.09-.23l-.65-5.03c-1.14,2.63-2.36,3.79-2.95,4.24h0Zm-2.1-9.45c.08.66.19,1.47.35,2.37,2.49-4.32,3.76-9.7,3.78-9.79.03-.16.15-.28.3-.33.15-.05.32-.03.44.07,0,0,.18.11.46,0,.41-.16,1.48-.97,2.51-5.07.56-2.25.18-2.85-.01-3-.25-.2-.88-.27-2.47.52-.14.07-.31.06-.44-.01s-.22-.22-.23-.38c0-.03-.16-2.52-2.06-4.59.65,5.28,1.06,14.42-2.62,20.21h0Zm-22.81-15.34c-.23,0-.47.05-.66.22-.37.34-.82,1.44.29,4.95,0,.02,0,.04.01.06.16.86.83,3.25,1.97,3.89.22.13.45.17.69.15-.18-1.23-.72-4.91-1.29-9.14-.11.05-.24.05-.35,0,0,0-.32-.13-.67-.13h0Zm.69-10.4c.23,2.3.55,4.94.88,7.53,1.51-1.89,4.93-4.32,12.68-5.49,4.13-.62,7.46-.19,9.92,1.29-.17-1.06-.3-1.69-.31-1.72-.03-.13,0-.27.08-.37.08-.11.2-.17.33-.19,1.18-.1,2.37.79,3.16,1.53l-.35-8.17c-1.21-.62-2.2-1.37-2.57-1.68-4.18.47-6.81-2.14-7.65-3.15-2.24,1.65-4.92,2.8-7.49,3.61-2.13,4.38-5.71,6.13-8.67,6.8h0Zm-4.74-.6c.16.02,1.71.2,3.74-.13-.18-1.93-.3-3.58-.3-4.7,0-.25.19-.45.44-.46.07,0,4.25-.28,8.89-1.69,2.47-5.05,8.03-7.67,12.34-7.67h.12c3.14.03,5.52,1.38,6.54,3.68.02.05.04.11.04.17l.23,5.22c1.27.58,2.64.89,3.6.32,1.25-.74,2.4-3.3.79-11.31-1.26-6.26-3.68-10.07-7.2-11.32-4.71-1.67-11.46,1.09-20.06,8.2-2.27,1.88-5.4,3.89-8.42,5.83-5.55,3.57-11.84,7.61-11.23,10.17.41,1.73,3.94,2.97,10.48,3.67h.01,0Zm4.37-4.4c.02,1.04.13,2.45.28,4.08,2.53-.6,5.54-2.06,7.52-5.51-3.54.99-6.66,1.33-7.8,1.42Zm24.32-3.21c.11,0,.22.04.3.11.44.37,1.2.93,2.09,1.43l-.2-4.6c-.88-1.91-2.94-3.02-5.67-3.05h-.11c-3.79,0-8.6,2.16-11.07,6.33,2.34-.81,4.72-1.91,6.67-3.42.1-.08.23-.11.35-.09s.24.09.31.19c.11.15,2.66,3.72,7.27,3.11.02,0,.04,0,.06,0h0Z"/>
  <path class="cls-3" d="m50.6,188.09l45.57,1.22,5.88-6.86-24.91-1.02c-.14.1-.28.17-.38.23-1.89,1.01-3.83.85-5.48-.54-.11-.09-.14-.23-.09-.36.05-.13.17-.21.31-.2l5.45.22c.7-.5,1.7-1.36,1.73-1.85.11-3.4.12-6.81.01-10.21-.1-3.2-.3-6.4-.56-9.59-.48-5.88-1.18-11.81-2.17-17.63-.55-3.2-1.4-8.23-2.76-11.17-.59-1.17-8.26-8.94-9.58-9.31,0,.03,0,.06.01.07.41,2.24,2.93,16.42,1.14,18.49-1.95,2.27-.11,5.91-2.14,8.79-2.35,3.34-4.17,7.03-5.74,10.8-.83,2-1.57,4.09-2.37,6.12,2.38,1.31,4.95,2.77,5.49,3.08.19.11.59.33,1.12.62,1.96-.88,3.81-2.99,5.89-1.37.73.57,1.93,1.2,2.44,1.95.63.93,1.06,2.66.71,3.82.55.14.99.29,1.14.42.8.7,1.11,1.57.84,2.38.01,0,.02,0,.03-.01.4-.68,1.98,1.04,2.25,1.3.3.29,1.5,1.45,1.55,1.85.12,1.18-2.53-.43-2.79-.58-.37-.22-1.88-1.06-2.04-1.75-.31.05-.65.09-1,.12.06.03.12.06.18.09.78.44.81,1.7-.15,2.15-.1.05-.22.1-.35.14.03,0,.06.02.08.03.41.14.51.87.42,1.23-.22.92-1.34,1.38-2.15,1.61-.05.01-.1.03-.14.04.04.02.07.03.11.05,1.13.54-1.06,2.11-1.55,2.33-.99.44-2.61.33-3.71.41-2.05.15-4.31.62-6.34.18-1.53-.33-1.01-1.45-1.47-2.22-.54-.91-1.6-1.37-1.86-2.58-.18-.84.41-1.15.32-1.83-.12-.9-.89-1.9-.98-2.87-.15-1.68,1.71-1.42,1.74-3.24,0-.26-.15-.5-.4-.73-1.11,1.48-2.24,3.75-2.56,4.44-.48,1.04-.91,2.12-1.25,3.21-.7,2.23,2.16,3.65,1.82,4.35-.09.19-.3.24-.49.23-4.96-.21-22.61-2.37-22.62-8.89,0-4.98,2.57-8.12,4.87-12.29,4.11-7.45,8.44-15.25,11.73-23.09,1.9-4.52,3.3-9.15,4.71-13.84.56-1.87,1.9-6.78,3.29-8.1,1.27-1.21,2.83-1.83,4.55-2.16-.02,0-.04-.01-.06-.02-.29-.08-.96-.17-.94-.57,0-.21.17-.31.35-.36,2.31-.66,6.59-2.08,7.98-4.13,4.42-6.51,5.68-17.06,8.26-24.6,1.71-4.97,4.6-9.61,8.43-13.23,1.82-1.72,5.47-4.56,8.09-4.75,5.72-.4,8.58.88,12.12,4.79-.04-.07-.08-.13-.12-.2-.6-1-1.38-1.84-2.29-2.57-.3-.24-1.43-.9-1.3-1.33.06-.21.26-.27.45-.29,4.57-.36,9.14,2.17,12.78,4.66,2.95,2.01,6.79,5.87,7.57,9.47.6,2.79.94,8.6-.14,11.2-.05.12-.14.2-.27.23-.59.11-1.09-2.02-1.21-2.38-.15-.48-.3-.96-.45-1.44-.2,1.74-.53,3.46-.89,5.17-.2.93-.57,2.26-.63,3.19-.27,3.84-.93,7.55-.87,11.43.05,3.26.92,6.69.78,9.84-.08,1.9-1.29,7.76-3.41,10.98.82.56,1.69,1.2,1.87,1.52,3.2,5.77-3.49,38.08-5.22,46.15,2.11.61,20.19.67,23.6.19-1.77-1.17-3.41-2.6-4.9-4.07-2.45-2.4-4.64-5.04-6.77-7.72-.26-.33-1.6-2.05-2.51-3.1-.3,4-.68,8-.89,12.03-.01.22-.05.5-.34.53-.58.05-.69-2.02-.73-2.35-.18-1.53-.3-3.08-.36-4.61-.05-1.31-.28-6.41,1.25-7,.13-.05.31,0,.52.11.27-3.9.45-7.8.31-11.75-.13-3.77-.16-7.53-.03-11.3.09-2.55.26-5.09.33-7.63.1-3.54-.08-6.9-.53-10.42-.04-.28-.07-.7.26-.83,1.2-.47,4.22,7.83,4.51,8.67.42,1.23.81,2.49,1.11,3.76.93,3.92,1.03,7.15,4,10.28,2.58,2.72,4.65,6.87,6.59,10.11.96,1.6,1.97,3.19,3.12,4.66.25.32,1.15.98,1.49,1.26.92.76,1.82,1.55,2.65,2.4.24.25.48.5.7.76.99,1.14,1.61,2.39,2.19,3.76.35.76,5.58.36,6.7.41.77.04,1.53.07,2.3.1,2.41.1,4.84.17,7.25.34.62.04,3.49.13,3.76.82.02.05.03.1.04.14.72-.06,1.36,0,1.81.19,4.34,1.82,10.36-.45,14.83,1.56,2.05.92,4.08,1.88,6.11,2.84.56.26,1.2.38,1.76.66,1.85.95,2.99,2.14,4.61,3.3.59.42,1.72.99,2.15,1.5.26.3.4.71.31,1.1-.25,1.06-1.68.99-2.49.8-.14-.03-.31-.09-.49-.17-.57.62-2.53.52-3.26.16-.7-.35-1.46-.99-2.13-1.52.39.75.52,1.34.13,1.56-2.19,1.23-6.75-3.07-8.93-3.89-1.75-.66-4.47-1.69-6.49-1.98.34.2.74.4.88.48.49.24,1.06.39,1.57.62,1.57.68,2.1,2.25,1.29,3.77-.5.94-2.2.45-3.02.35-.73-.09-1.45-.19-2.17-.31-.48-.08-.75-.47-1.12-.57-.78-.19-2.97-.16-3.79.08l-5.17.88c-1.49.62-3.31,1.23-4.41,1.68l45.68,3.09,24.67-49.87c.06-.11.16-.18.29-.18l20.24-.06c.11,0,.21.05.27.15.06.1.07.21.02.31l-23.59,49.65s-.05.09-.09.12c-.05.04-.1.05-.12.06-.11.03-3.46.85-8.04,1.97,2.08-.06,4.85-.03,8.09.28,2.3.22,6.44.65,11.39,2.16,5.49,1.69,9.46,3.95,9.41,4.05-.04.1-3.7-1.94-9.32-3.39-4.16-1.07-7.43-1.31-12.61-1.69-2.76-.2-6.49-.4-10.95-.38l-11,2.75s-.06.01-.1,0l-54.16-3.47c-.09,0-.16-.04-.22-.11-.06-.07-.08-.14-.08-.23l.21-3.01c.01-.18.17-.31.34-.3l54.87,3.72h10.05s11.8-2.95,11.8-2.95l23.31-49.05-19.54.06-24.68,49.88c-.06.12-.18.19-.31.18l-46.95-3.18c-.15-.01-.29-.09-.34-.25-.14-.48,1.09-.84,1.39-.96.43-.17.86-.34,1.29-.51l-10.52,1.79s-.05,0-.07,0c-2.37-.14-4.88-.99-7.25-1.41-1.75-.31-4.74-.14-6.21-.98-.13-.08-.27-.15-.4-.24-.07.02-.13.04-.2.06-1.07.3-3.35.31-4.49.34-2.57.08-5.15.09-7.73.08-2.84-.02-5.7-.06-8.53-.2-.43-.02-4.28,0-4.1-.87,1.6-7.43,8.42-40.36,5.33-45.92-.11-.19-.91-.77-1.68-1.31-1.1,1.44-2.43,2.14-3.95,1.28-1.13-.63-2.29-3.65-3.27-6.56-.42,1.08-.95,2.86-1.4,3.35-.42.46-.73.86-1.03,1.23.44,3.09.67,6.39.91,9.46.43,5.61.74,11.25.9,16.87.14,4.87.18,9.79-.06,14.66-.16,3.34-3.35,4.28-3.42,6.66-.06,1.84-8.94,1.16-10.13,1.11-2.29-.09-4.6-.22-6.89-.21-.26,0-.51-.06-.69-.25-.83-.84,1.05-5.04,1.39-6.03,1.34-3.85,2.24-7.7,2.18-11.81-.05-3.35-.34-6.71-.71-10.05-.48-4.35-1.13-8.68-1.68-13.02-.44-3.43-.91-7.18-.79-10.63,0-.25.05-.55.31-.67.47-.21,2.29,1.5,2.74,1.82,2.24,1.58,4.82,2.61,7.47,3.26,1.57.39,4.16,1.1,5.68.32,1.07-.55,1.61-1.07,2.12-1.68-.04-.26-.08-.52-.12-.77-.39-2.38-1.91-9.48-1.2-11.64.05-.15.13-.27.27-.36,1.17-.77,2.72,2.14,3.02,2.89.3.76.78,2.32,1.35,4.06.33-.19.7-.08,1.14.56,1.27,1.85,3.01,3.35,4.81,4.65.18.13.51.35.9.62,1.98-2.96,3.19-8.6,3.29-10.65.14-3.12-.73-6.56-.78-9.8-.06-3.9.6-7.63.87-11.49.07-.97.44-2.3.64-3.27.37-1.72.7-3.46.89-5.22.05-.41.09-.89.13-1.4-.26-.82-.52-1.63-.8-2.44-.58-1.7-1.25-3.57-2.11-5.15-.06-.12-.05-.25.03-.36.09-.1.22-.14.34-.1.53.17,1.01.44,1.43.82,1.75,1.6,1.91,4.75,1.74,7.25.49,1.57,1.06,3.39,1.4,4.29.76-2.7.43-7.75-.1-10.2-.74-3.43-4.5-7.17-7.31-9.08-3.37-2.29-7.61-4.69-11.87-4.57.36.27.83.6,1,.75.95.81,1.74,1.74,2.34,2.84.31.56.55,1.14.74,1.73,1.36,1.5,2.71,2.74,4.76,3.52,4.6,1.75,6.61,4.29,6.64,9.39,0,1.4.67,2.7.54,4.21-.11,1.3-1.75,2.74-1.96,3.9-.44,2.51.64,3.94.74,6.17.15,3.44-2.52,1.97-3.35,2.98-.27.33-.07,1.44-.1,1.9-.05,1.06-1.35.8-1.6,1.47-.02.44.69,1.38.56,2.15-.1.57-.55.71-.66.96-.14,2.5-.08,5.15-3.11,5.69-1.02.18-2.06.16-3.09.09-6.17-.4-11.67-5.91-13.5-11.59-.09-.28-.17-.56-.25-.84-.09.51-.17,1.02-.24,1.52-.5,3.56-.59,7.87-1.57,11.27-1.06,3.71-3.44,8.92-7.29,10.54-.48.2-.99.32-1.52.35-3.45.21-7.35-3.65-9.73-5.82-1.23-1.12-2.46-2.26-3.78-3.27-1.61-1.24-3.42-2.13-5.34-2.77-.08-.03-.17-.05-.25-.08-2.18.24-4.16.8-5.62,2.19-1.24,1.19-2.61,6.13-3.12,7.82-1.42,4.71-2.82,9.36-4.73,13.9-3.3,7.86-7.64,15.68-11.76,23.15-2.22,4.02-4.8,7.18-4.79,11.98,0,4.56,11.2,6.88,14.48,7.44,2.34.4,4.73.67,7.14.79-.31-.35-.79-.86-.96-1.1-.63-.9-.96-1.93-.62-3.01.45-1.44,2.13-5.56,3.88-7.85-.99-.61-2.5-1.13-3.08-1.64-.55-.48.83-.86,1.1-1,.64-.33,1.22-.8,1.53-1.47,0-.02.02-.03.02-.05-.18-.12-.35-.25-.53-.37-.96-.68-1.88-1.42-2.84-2.09-.81-.57-.12-1.79.57-1.79.29,0,1.94.84,3.81,1.86.8-2.01,1.53-4.08,2.35-6.06,1.58-3.81,3.42-7.54,5.8-10.92,1.91-2.72,0-6.32,2.18-8.84.42-.49.47-2.86.47-3.44,0-4.66-.92-9.95-1.75-14.52-.05-.26-.04-.56.19-.74,1-.77,5.24,3.73,5.88,4.38.79.79,4.31,4.34,4.71,5.2,1.39,3,2.25,8.06,2.81,11.33,1,5.84,1.69,11.79,2.18,17.69.26,3.2.46,6.41.56,9.62.11,3.41.1,6.83-.01,10.25-.02.57-.68,1.3-1.37,1.87l24.79,1.02c.13,0,.23.08.28.19.05.12.03.24-.05.34l-6.41,7.48c-.06.08-.15.11-.25.11l-47.1-1.26c-.15,0-.28-.11-.31-.26-.03-.15.04-.29.18-.36l4.68-2.15c-2.68-.02-5.81.14-9.25.66-2.89.43-5.48,1.04-7.73,1.69.39-.18.96-.43,1.66-.71,4.14-1.62,7.67-1.92,10.52-2.15,1.61-.13,3.74-.23,6.27-.13.03,0,.13,0,.22.08.05.04.08.1.09.17.03.15-.04.3-.18.36-1.59.73-3.17,1.46-4.76,2.18Zm25.24-6.72l-3.25-.13c1.03.53,2.13.57,3.25.13h0Zm-21.55-15.51c-.18.44-.36.87-.55,1.29,1.27.86,2.57,1.67,3.92,2.41.15.08.31.15.49.2.75-.1,1.49-.25,2.19-.48-.22-.12-.43-.24-.65-.36-.65-.36-3.13-1.8-5.41-3.07h0Zm-.81,1.89c-.59,1.25-1.4,1.49-2.38,1.96.73.44,1.84.82,2.69,1.33.58-.65,1.16-1.06,1.69-1.07.48-.01.97-.03,1.47-.07-1.19-.67-2.34-1.39-3.46-2.15h0Zm.83,3.68c.39.34.64.74.63,1.25-.04,2.1-1.85,1.99-1.74,3.17.08.87.85,1.91.98,2.85.11.81-.44,1.23-.33,1.78.2.92,1.32,1.6,1.79,2.39.44.73.04,1.7,1.06,1.92,1.93.42,4.2-.05,6.16-.19.96-.07,2.64.02,3.49-.36.26-.12,1.25-.86,1.45-1.21-.28-.12-.65-.22-1.04-.31-.84.15-1.71.24-2.52.31-.54.05-6.23.61-5.89-.63.27-.96,4.52-.72,5.27-.68.81.04,2.07.13,3.14.34.43-.08.86-.17,1.27-.29.53-.15,1.47-.48,1.68-1.07.06-.17.06-.46,0-.55-.32-.11-.65-.21-.98-.3-1.46.36-3.36.62-4.37.66-1.47.06-3.04-.1-4.48-.44-.42-.1-2.35-.49-2.21-1.17.23-1.14,6.72-.44,7.54-.35,1.14.14,2.37.33,3.52.62.48-.12.89-.26,1.18-.39.47-.22.46-.8.11-1.01-.36-.2-.86-.38-1.43-.53-1.6.1-3.14.12-3.54.12-1.09-.02-2.2-.08-3.29-.25-1.06-.16-2.15-.54-3.09-1.05-.28-.15-1.76-.96-1.09-1.42.32-.22,4.04.75,4.56.85,1.62.31,4.47.58,6.53,1.12,1.02-.06,2.03-.14,2.72-.24.41-.75.2-1.47-.5-2.07-.34-.24-3.15-.77-3.68-.87-.67-.13-3.46-.61-3.94-.94-.67-.45-1.36-.88-2.05-1.3-.71-.42-2.05-.48-3.09-.76-.89.12-1.79.17-2.64.19-.34,0-.75.33-1.18.82h0Zm9.82,10.96c-.21-.01-.39-.03-.56-.03-.55-.03-3.07-.1-4.18.11,1.23.15,4.05-.02,4.74-.08h0Zm3.08-2.88c-.71-.13-1.41-.23-2.09-.31-.86-.1-5.26-.46-6.6-.16,1.2.6,4.84.88,5.79.84.67-.03,1.8-.16,2.9-.36h0Zm-1.3-2.79c-1.47-.23-2.95-.41-3.9-.59-.52-.1-2.31-.57-3.4-.79.93.55,2.61,1.06,3.23,1.15,1.05.16,2.14.22,3.2.24.19,0,.49,0,.87,0h0Zm-4.11-7.35c2.43,1.34,6.44,3.51,7.59,3.84.05.01.09.02.14.03.31-.95-.09-2.53-.62-3.31-.42-.63-1.67-1.31-2.3-1.8-.38-.3-.8-.5-1.29-.47-.87.04-2.38,1.09-3.52,1.71h0Zm-.71.34c-.41.16-.85.3-1.29.41.65.11,1.28.25,1.74.52.7.42,1.4.86,2.08,1.31.27.18,1.93.5,2.96.7-.08-.04-.14-.07-.18-.09-1.79-.91-3.56-1.88-5.32-2.85h0Zm-1.65-54.12c3.69-.37,7.83.17,11.08-.91,3.85-1.28,6.44-6.06,7.97-9.54,1.49-3.4,2.91-6.84,4.37-10.25,2.27-5.31,8.63-21.22,14.96-22.46.17-.08.36-.11.53.02.47.38-.48,1.88-.68,2.25-.79,1.47-1.6,2.92-2.37,4.4-2.21,4.26-4.2,8.8-5.31,13.49-.66,2.8-1.02,5.75-.76,8.64.24-.86.53-1.7.88-2.51,1.5-3.47,3.79-6.1,6.59-8.57,1.27-1.12,4.28-3.38,4.92-4.88,1.37-3.2,2.35-7.04,1.34-10.44-.25-.28-.51-.57-.76-.87-3.65-4.21-6.31-5.56-12.11-5.15-2.43.17-6,2.98-7.69,4.57-3.75,3.55-6.59,8.09-8.26,12.97-2.62,7.65-3.84,18.12-8.34,24.75-1.36,2-5.03,3.39-7.59,4.17.38.11.84.23,1.24.34h0Zm30.02-12.66c.14.75.32,1.49.55,2.21,1.75,5.42,7.02,10.76,12.93,11.14.97.06,1.97.08,2.93-.09,2.63-.47,2.47-2.95,2.59-5.09.03-.46.6-.67.67-1.03.1-.56-.73-1.7-.54-2.23.36-.98,1.55-.84,1.57-1.31.04-.73-.25-1.67.24-2.28,1.14-1.39,3.33.34,3.2-2.54-.1-2.3-1.2-3.63-.73-6.31.22-1.24,1.86-2.79,1.95-3.84.12-1.41-.54-2.78-.54-4.16-.03-4.83-1.87-7.14-6.22-8.79-1.77-.67-3.03-1.66-4.22-2.86.58,3.26-.35,6.75-1.63,9.75-.71,1.67-3.69,3.87-5.08,5.1-2.72,2.41-4.97,4.97-6.43,8.35-.54,1.26-.94,2.61-1.24,3.98h0Zm-28.43,13.18c1.57.62,3.06,1.43,4.4,2.46,1.33,1.02,2.58,2.18,3.82,3.31,2.39,2.19,6.95,6.86,10.56,5.34,3.64-1.53,5.92-6.63,6.92-10.12.96-3.35,1.05-7.66,1.55-11.18.14-1,.31-2.01.52-3.01-.61-3.47-.25-7.08.56-10.49,1.08-4.57,2.98-9,5.12-13.17.3-.58,2.7-4.91,3.26-6.17-5.9,1.48-12.18,17.09-14.29,22.04-1.46,3.42-2.88,6.85-4.37,10.26-1.61,3.68-4.28,8.54-8.35,9.89-2.8.93-6.38.66-9.7.83h0Zm43.28,9.15c-.59-1.83-1.1-3.5-1.45-4.38-.17-.42-1.44-2.83-2.08-2.57-.64,1.95.87,9.15,1.23,11.33.01.07.02.14.03.2.2-.25.42-.52.68-.81.47-.51.93-2.68,1.59-3.78h0Zm29,53.27c3.61-.93,5.97-.42,9.54.65,2.99.9,5.16,1.27,8.27.47,2.03-.52,4.57-1.25,6.3-2.43,1.44-.98,1.4-2.12,1.58-3.4-.18-.8-.22-1.67-.1-2.58.19-1.51,2.69-2.7,4.85-3.05-1.27-.51-11.32-.79-12.68-.86-.55-.03-1.11-.03-1.67-.01-1.14.02-5.02.46-5.58-.77-.61-1.35-1.1-2.45-2.09-3.6-.22-.25-.44-.5-.68-.74-.81-.84-1.7-1.61-2.6-2.35-.4-.33-1.29-.98-1.58-1.36-1.16-1.49-2.19-3.1-3.16-4.73-1.91-3.18-3.97-7.33-6.5-10-3.09-3.26-3.2-6.5-4.16-10.57-.3-1.25-.67-2.48-1.09-3.69-.35-1.02-2.41-6.33-3.49-7.89.43,3.46.61,6.78.51,10.27-.08,2.55-.25,5.09-.33,7.64-.13,3.75-.11,7.5.03,11.25.15,4.11-.05,8.18-.34,12.24,1.07.98,2.41,2.85,2.72,3.24,2.2,2.76,4.43,5.48,6.95,7.95,1.61,1.58,3.39,3.12,5.32,4.32h0Zm26.16-6.38s.03-.05.04-.08c.31-.6.76-1.12,1.26-1.57.21-.19,1.12-.84,1.89-1.39-1.55.46-3.01,1.28-3.13,2.22-.03.28-.05.55-.06.82h0Zm-25.35,6.85c1.38.63,4.29.54,5.81.81,2.32.41,4.82,1.26,7.14,1.4l13.45-2.29c.75-.32,1.57-.68,1.95-.93-1.41-.65-2.42-1.65-3.01-2.86-.13.92-.42,1.78-1.67,2.62-1.81,1.23-4.39,1.98-6.5,2.52-3.23.83-5.51.46-8.61-.48-3.23-.97-5.41-1.47-8.54-.8h0Zm28.65-.46l3.1-.53c.9-.27,3.18-.3,4.08-.08.4.1.8.51,1.07.56.71.11,1.43.21,2.15.3.41.05,2.13.46,2.38-.01.63-1.18.25-2.35-.98-2.88-.52-.23-1.09-.38-1.6-.63-.37-.18-2-.92-1.77-1.51.09-.22.32-.27.54-.25,2.14.12,5.32,1.32,7.35,2.09,1.83.69,6.73,4.87,8.33,4.01.05-.33-.54-1.24-1.29-2.24-.92-.69-1.84-1.4-2.68-2.19-.45-.42-3.16-2.38-2.38-3.08.67-.6,2.36,1.03,2.81,1.52.35.39,1.71,1.87,2.78,3.33.37.28.74.56,1.11.84.68.52,1.56,1.3,2.3,1.67.28.14,1.98.4,2.36.1-1.56-.9-3.74-2.73-4.5-3.59-1.45-1.64.01-2.07.69-1.4,1.25,1.24,3.39,2.93,4.34,4.3.09.13.15.24.19.35.2.1.38.17.53.2.63.14,2.38.12,1.55-.87-.34-.4-1.54-1.03-2.03-1.39-1.59-1.14-2.72-2.33-4.53-3.25-.54-.28-1.18-.39-1.74-.65-2.03-.95-4.06-1.91-6.1-2.83-4.32-1.94-10.36.31-14.82-1.55-.43-.18-1.11-.2-1.89-.09-.25.25-.57.45-.77.59-.74.51-1.49.98-2.15,1.59-.44.4-.85.86-1.11,1.38-.24.48-.37.93-.45,1.37.4,1.68,1.52,3.03,3.36,3.79.14.06.25.16.28.31.05.22-.14.46-.51.71h0Zm21.51-3.46c-.39-.46-.71-.83-.88-1.01-.23-.26-1.2-1.16-1.72-1.39.47.54,1.97,1.82,2.21,2.05.13.12.26.24.4.36h0Zm7.37,3.23c-1.05-1.12-2.55-2.35-3.48-3.27-.04-.04-.13-.08-.21-.1.09.2.36.53.45.62.54.61,1.95,1.83,3.24,2.75h0Zm17.48,9.17h-7.52s-54.57-3.7-54.57-3.7l-.16,2.37,53.78,3.45,8.47-2.12h0Zm-91.47-24.27c-.1-.1-.19-.16-.23-.18-1.02.4-.88,5.47-.85,6.38.02.61.13,2.51.29,4.11.23-3.45.55-6.88.79-10.32h0Zm-6.37-32.16c-.41-.28-.76-.51-.9-.62-1.87-1.35-3.66-2.89-4.97-4.8-.04-.06-.26-.35-.35-.34-.02,0-.04.01-.06.03.98,2.98,2.18,6.26,3.17,6.81.34.19.7.29,1.09.26.73-.07,1.41-.57,2.02-1.34h0Zm-9.68.3c-.47.5-1.02.95-1.95,1.43-1.72.89-4.35.17-6.12-.27-2.61-.64-5.15-1.64-7.38-3.15-.26-.18-1.79-1.41-2.34-1.82-.11,3.41.36,7.11.79,10.49.55,4.34,1.2,8.67,1.68,13.03.37,3.35.66,6.73.71,10.11.06,4.18-.85,8.1-2.21,12.03-.2.57-1.96,4.96-1.54,5.37.05.05.17.06.23.06,1.47,0,16.34.84,16.38-.28.08-2.71,3.27-3.57,3.42-6.67.23-4.85.2-9.76.06-14.61-.16-5.62-.46-11.24-.9-16.84-.22-2.87-.44-5.95-.83-8.86h0Zm15.14-44.55c-.05-2.03-.49-4.16-1.96-5.15.68,1.41,1.23,2.96,1.72,4.4.05.14.13.41.24.75h0Zm-63.03,78.74c-1.71-.94-3.2-1.72-3.56-1.78-.15.04-.48.45-.22.63.96.67,1.88,1.41,2.84,2.1.14.1.28.2.42.3.18-.41.35-.82.52-1.24h0Zm18.04,11.34c.19.42,2.15,1.61,3.19,2.07-.67-.75-2.02-2.04-2.45-2.29-.17.08-.43.16-.74.22h0Z"/>
  <path class="cls-4" d="m783.4,668.48c1.11-1.33,1.89-2.78,2.37-4.2,1.61-4.76.09-9.73-3.86-12.68-4.94-3.68-10.02-2.98-14.63-1.94,4.1-5.77,4.99-12.83,2.4-19.67-3.1-8.2-10.5-14.45-18.42-15.57-11.49-1.62-17.87,2.59-21.21,6.4-5.32,6.08-6.15,14.54-4.67,19.81l.41,1.47.85-1.26c1.46-2.16,4.7-3.94,8.47-4.63,2.77-.51,8.15-.85,13.11,2.64,4.26,2.99,6.59,7.74,6.41,13.05-.21,6.19-3.75,11.95-9.47,15.42l-2.46,1.49,2.87-.18c9.24-.58,21.33-.27,34.65.96-2.65,2.03-6.44,3.45-11.61,3.39-29.97-.35-99.16,13.99-103.56,14.91l-31.68-13.12.24-18.59,20.39,4.36-.78-42.55-20.53.13-.48,36.32-12.72-2.72-.14-37.87-19.75-.36.49,35.53,17.99,3.85.06,17.02-28.35-10.82.76-58.67,75.8,1.77-1.94,5.04,1.83,66.47,20.4-1.62.34,6.86,33.78-6.07-1.22-60.03,13.63-1.07-26.92-81.03-31.57,70.24-6.31-.15,33.91-88.16.54-1.41-89.31,30.31-.18-22.16-11.95-11.62-11.14,5.51-.47,36.32-21.85,7.41,19.7,34.39,1.61-.09-.1,7.63-4.2-.1-22.03-42.55-67.48-42.02-6.06,13.43-8.85-13.53-36.8,91.77,11.54.81,34.35-76.13,51.24,78.29.21.32,41.67.31-1.09,50.96-8.58,2.7,1.72-46.14-35.48-.2-.49,52.3-13.94,6.02-26.79-7.11.08-1.37,26.36,2.6,1.36-61.82c0-.17-6-10.42-18.02-30.76-8.96-15.16-17.93-30.32-17.93-30.32l-.68-1.15-28.65,61.67c-.09.18-.13.39-.13.63.88,16.09,3.15,58.18,3.04,59.7l-.05.67.67.08c8.44,1.07,26.42,4.03,30.02,4.63l-.44,6.4-44.25-12.87-.77,7.6,30.36,6.37-.25,6.46c-5.01-1.69-29.73-9.87-44.47-11.29-15.43-1.49-37.54-2.42-55.39,1.61-2.29-.97-4.52-2.06-6.44-3.45,23.67-5.29,47.27-6.88,70.58-4.73l.25.02.21-.14c4.24-2.86,6.93-6.85,7.77-11.55.86-4.78-.28-9.93-3.04-13.76-2.4-3.33-4.97-5.54-7.45-7-.34-3.51-1.3-7.13-2.85-10.57-3.16-7-8.4-12.41-14.77-15.22-10.05-4.44-26.73-3.46-36.15,5.87-5.07,5.01-9.68,14.23-3.33,29.83-6.59.12-11.92,2.14-15.09,5.72-2.8,3.17-3.86,7.45-3.15,12.69.32,2.35,1.28,4.28,1.28,4.28.88,1.8,1.97,3.06,2.75,3.83-3.81.77-10.9,2.76-17.44,8.54-6.87,6.09-9.73,13.37-9.46,13.55.33.22,4.99-10.26,15.95-16.59,4.56-2.63,8.95-3.81,12.18-4.4,2.32,1.92,5.12,3.29,7.86,4.44l.21.09.22-.05c17.7-4.05,39.77-3.12,55.16-1.63,16.2,1.57,44.75,11.43,45.04,11.53l.9.31.37-9.55-30.29-6.35.47-4.65,44.3,12.89.64-9.43-.63-.11c-.21-.03-20.44-3.4-30.09-4.66-.15-6.62-2.88-56.44-3.03-59.17l27.52-59.23c4.8,8.12,33.27,56.26,35.07,59.36l-1.32,60.1-24.9-2.46,3.24-52.64-25.52-1.46,4.85,53.79,15.94,1.57-.16,2.58,28.14,7.47.24.06,15.23-6.58.48-51.81,32.61.18-1.74,46.69,11.46-3.6,1.14-53.4-42.34-.31-51.53-78.73,5.77-12.78,65.78,40.96,22.24,42.95,5.05.12-.77,59.67,31.19,11.9-.07-18.77,12.7,2.72-.26,19.83,32.97,13.65.21-.05c.72-.15,71.07-14.93,102.32-14.93.39,0,.77,0,1.14,0,6.27.08,10.71-1.91,13.59-4.61.88.05,1.98.15,3.23.33,15.11,2.25,23.92,13.23,24.11,13,.2-.23-9.02-12.35-23.9-14.4-.96-.13-1.74-.2-2.23-.23Zm-149.31-48.97l17.75-.11.72,39.38-18.93-4.05.46-35.21h0Zm-32.59,28.34l-.45-32.94,16.91.31.13,36.18-16.58-3.55h0Zm83.63-34.35l20.59-.37-3.28,56.23-14.46,1.15-2.86-57.01h0Zm-9.52-11.14l30.47-67.79,25.21,75.89-13.16,1.04,1.23,60.15-31.02,5.57-.27-5.29,15.73-1.25,3.44-58.98-23.57.42,2.93,58.51-18.96,1.51-1.78-64.7,2.02-5.25,7.75.18h0Zm-83.94-88.22l9.47-4.68,10.81,10.51.18,22.03-20.91,7.1.45-34.96h0Zm-.47,36.46l20.94-7.11.2,24.23-9.39,21.42-12.25.67.51-39.21h0Zm-.52,40.62l13.22-.72,9.87-22.49-.21-25,86.9-29.49-33.55,87.22-76.32-1.78.1-7.74h0Zm-136.28,14.05l-8.62-.61,35.07-87.46,7.86,12.01-34.31,76.05h0Zm-15.46,39.29c-1.67,6.87-6.47,10.57-13.18,10.16-4.24-.26-7.6-2.51-8.77-5.87-1.13-3.23,0-6.77,3-9.47,3.11-2.79,7.14-4.32,11.28-4.32.6,0,1.2.03,1.8.1,1.82.2,4.06.74,6.42,2,.19,2.6.01,5.12-.54,7.41h0Zm-72.04,19.87c-.66-4.82.29-8.72,2.81-11.57,4-4.52,10.76-5.25,14.7-5.25.13,0,.26,0,.39,0h1.09s-.43-.98-.43-.98c-6.64-15.46-2.25-24.44,2.61-29.25,8.72-8.63,24.93-9.86,34.59-5.58,9.63,4.26,15.44,14.32,16.66,23.69-2.24-1.07-4.34-1.55-6.1-1.74-5.15-.55-10.32,1.12-14.17,4.58-3.44,3.1-4.71,7.21-3.39,10.99,1.36,3.91,5.2,6.52,10.02,6.82,7.45.46,12.79-3.63,14.64-11.23.53-2.15.74-4.47.65-6.87,2.07,1.36,4.19,3.31,6.19,6.09,2.5,3.47,3.57,8.34,2.8,12.69-.76,4.23-3.16,7.85-6.96,10.48-23.74-2.17-47.76-.48-71.86,5.03-2.18-1.96-3.76-4.47-4.23-7.88h0Zm115.24-.74l-4.6-51,22.47,1.28-3.15,51.17-14.73-1.45Zm107.14-73.8l-.84.05-18.42-32.15,19.76-6.7-.5,38.8h0Zm192.38,78.43c-9.54-.92-18.49-1.38-26.27-1.38-2.6,0-5.07.05-7.39.15,4.89-3.77,7.85-9.27,8.05-15.14.2-5.79-2.36-10.98-7.01-14.25-5.38-3.78-11.19-3.42-14.18-2.87-3.45.64-6.54,2.15-8.42,4.07-.91-5.06.34-12.17,4.69-17.14,4.45-5.09,11.35-7.14,19.95-5.93,7.42,1.04,14.37,6.94,17.29,14.67,1.56,4.11,3.18,12.16-3.4,19.86l-1.4,1.64,2.49-.59c4.94-1.17,10.05-2.38,15.02,1.33,3.51,2.62,4.8,6.87,3.37,11.1-.52,1.53-1.43,3.09-2.78,4.47h0Z"/>
  <path class="cls-2" d="m890.09,491.29c-14.27-1.37-39.77-1.51-65.88,12.05-14.69,7.63-35.16,18.25-39.91,39.72-4.44,20.07,6.55,41.27,20.33,52.52,20.76,16.94,37.09,5.57,55.91,22.02,16.93,14.8,26.57,44.35,14.87,64-9.11,15.31-28.01,19.31-29.36,19.58-5.3,1.05-13.95,2.75-22.12-1.51-9.54-4.97-9.39-13.36-19.86-21.74-6.54-5.23-13.52-7.51-18.54-8.61"/>
  <path class="cls-2" d="m364.09,674.78c-4.49,1.72-7.82,3.9-10.02,5.58-3.57,2.72-5.74,5.33-6.28,6-1.2,1.47-3.17,3.92-4.59,7.34-2.29,5.51-.58,7.34-2.19,11.01-2.6,5.92-10.03,8.03-12.85,8.75-7.43,1.9-13.75.19-19.91-1.55-8.3-2.35-14.03-5.56-15.25-6.21-17.88-9.58-42.62,6.75-68.14,6.59-32.44-.2-32.26-26.84-65.13-30.12-32.78-3.27-39.21,22.6-85.84,25.6-13,.84-44.54,2.7-59.11-17.32-8.72-11.98-11.73-32.34-3.58-40.94,4.84-5.11,15.08-7.63,21.58-15.3,2.78-3.27,4.46-6.98,4.46-6.98,1.41-3.11,2.01-5.91,2.29-7.84"/>
  <path class="cls-2" d="m249.62,615.06c.25,1.85.49,4.6.28,7.91-.36,5.78-1.86,9.9-2.54,11.95-1.67,5.03-5.25,15.84-2.92,24.28,2.99,10.8,15.17,15.94,18.45,17.32,13.57,5.72,26.35,1.64,30.12.38,16.04-5.38,24.41-18,33.88-32.75,14.09-21.93,22.91-35.66,20.33-51.95-3.28-20.73-20.85-19.37-38.96-52.52-6.89-12.61-16.7-31.17-11.86-52.52.84-3.69,3.9-16.4,15.25-27.11,3.56-3.36,13.42-12.38,28.8-13.55,4.21-.32,18.33-1.39,27.11,6.78,2.17,2.02,3.69,4.31,7.62,6.4,5.68,3.03,11.37,2.97,13.55,2.92,4.14-.09,7.11-1.01,9.9-1.86,4.08-1.26,7.98-2.51,11.28-5.92.69-.72,2.06-2.26,3.33-4.83,5.49-11.13,3.19-29.65,10.01-45.42,1.84-4.24,6.42-14.42,17.15-19.72,8.4-4.15,17.47-3.79,17.54-3.41.05.26-3.95.64-9.28,3.02-3.32,1.48-8.19,3.66-11.61,8.03-4.55,5.82-6.82,15.89-3.12,19.21,4.96,4.44,20.43-3.42,30.01-12.25,12.74-11.73,19.71-29.41,17.1-31.4-.58-.44-1.45,0-2.75.48-9.64,3.52-14.56-1.71-25.61-.24-3.1.41-10.14,1.35-15.1,6.59-4.97,5.24-5.29,12.07-5.86,11.96-1.05-.2,7.35-22.84-.69-43.64-1.52-3.92-5.01-12.62-13.74-18.55-14.2-9.65-31.94-4.99-31.95-4.47-.01.4,10.47-.61,23.36,4.81,5.69,2.39,10.17,5.33,13.4,9.96,1.01,1.45,5.12,7.35,3.09,10.65-1.34,2.18-5.05,2.71-12.71,1.72-12.39-1.6-25.83-3.34-38.82-14.43-10.59-9.04-17.85-21.7-16.15-23.37.68-.67,2.45.78,5.5,1.72,8.19,2.51,14.63-2.07,21.99-4.47,11.27-3.66,27.65-3.14,35.39,4.81,7.11,7.31,5.98,18.57,7.79,18.44,2.32-.17,1.77-18.82,7.72-32.05,2.29-5.1,5.46-10.35,5.46-10.35,2.28-3.78,3.33-5.76,4.92-7.3,2.89-2.8,6.99-5.14,18.09-6.87,12.45-1.94,24.02-1.61,24.05-.92.02.3-5.49,1.19-16.49,2.98-4,.65-11.66,1.87-17.92,5.95-.63.41-1.08.74-1.32.92-2.63,1.98-7.14,5.38-7.56,10.54-.36,4.52,2.59,8.31,3.05,8.89.03.03.3.38.62.73,4.27,4.72,14.07,7.1,24.14,5.61.99-.15,1.71-.29,1.97-.34,15.16-3.07,26.37-16.24,27.72-17.87,10.94-13.16,15.77-30.66,13.06-32.3-.84-.51-2.07.71-4.35,2.06-7.63,4.52-13.65,2.64-26.8,2.98-10.57.27-17.79.45-26.11,4.12-8.43,3.72-12.5,8.6-13.97,10.54-1.94,2.56-3.09,5.12-4.12,7.33-2.4,5.14-3.58,9.59-4.42,13.3-3.75,16.58-2.95,28.59-2.26,37.84.31,4.13.8,8.21,2.54,8.61,1.87.43,4.45-3.52,5.51-5.51,1.52-2.86,1.4-4.51,2.54-8.19,0,0,1.46-4.7,3.67-8.19,5.24-8.26,21.7-8.22,29.53-8.21,8.68.02,17.24,1.42,19.92-2.99.77-1.27,1.45-3.65,2.07-3.54.63.11.67,2.68.69,3.44.24,14.27-9.28,26.11-9.28,26.11-2.41,3-14.72,18.3-28.86,16.15-4.55-.69-11.38-3.51-12.02-7.9-.32-2.14.92-4.07,2.06-5.5,9.1-11.37,29.69-12.29,29.55-13.74-.1-.95-9.06-2.01-17.87,1.03-5.68,1.96-10.37,5.31-12.37,7.22-.14.13-1.54,1.47-3.5,3.34-1.52,1.44-2.29,2.18-3.02,2.85-.87.8-1.24,1.12-3.79,3.39-1.12,1-2.61,2.32-2.74,2.45-3.59,3.24-4.67,13.87-5.15,17.18-1.79,12.12-9.77,21.57-11.68,20.96-1.79-.58,2.32-9.85-2.41-18.21-2.13-3.76-5.38-6.14-9.8-8.45-21.37-11.12-52.2-11.01-52.9-6.91-.13.77.84,1.49,1.52,2.05,10.01,8.1,10.98,21.37,17.63,33.02,9.3,16.3,28.68,27.55,35.8,23.32,2.63-1.56,3.19-4.99,3.63-7.64,2.42-14.64-13.28-27.4-17.2-30.58-3.71-3.02-10-7.33-19.21-10.23,34.52,18.36,36.06,20.71,36.06,20.71,12.52,19.03-2.46,52.93,7.16,68.75,1.14,1.88,2.58,3.46,2.58,3.46,7.99,9.38,19.08,11.9,22.89,12.77,4.03.92,15.24,2.91,27.67-1.69,16.14-5.98,15.38-16.08,32.19-25.98,6.02-3.55,21.32-12.56,36.14-8.47,19.56,5.39,18.22,28.07,35.58,31.06,14.02,2.41,23.65-10.89,40.09-10.16,6.92.3,11.33.39,20.14.56.82.02,2.28.04,4.24,0,5.09-.11,9.24-.61,12.05-1.04"/>
  <path class="cls-1" d="m716.07,451.34c3.71.59,10.05,1.09,17.32-1.08,0,0,4.46-1.33,8.56-3.76,13.35-7.91,14.02-23.14,23.53-31.25,11.28-9.61,22.97.97,51.01-2.64,5.89-.76,42.27-5.43,46.59-21.18,5.31-19.36-44.62-30.94-56.75-75.39-6.14-22.5-1.82-50.58,11.01-71.15,15.31-24.55,34.78-25.62,37.27-44.89,2.37-18.34-14.85-20.48-18.64-48.28-2.97-21.79,6.46-28.94,1.08-56.16-2.51-12.7-6.23-19.59-10.38-24.76-2.23-2.77-9.86-12.01-23.5-15.78-20.13-5.57-36.48,5.42-38.85,7.07-2.7,1.88-11.36,8.08-15.94,19.27-4.42,10.76.01,13.78-3.51,27.44-4,15.54-12.65,23.01-9.34,27.05,2.21,2.7,9,2.92,9.96,1.69.04-.05.13-.17.12-.33-.05-1.19-5.58-2.23-5.9-1.45-.04.1.01.21.04.27.87,1.67,4.85,2.7,5.39,4.59.5,1.76-1.92,4.47-1.73,6.18.04.38.2.61.24.66.4.55,1.19.62,1.67.65,2.07.1,6.1-.29,6.1-1.17,0-.13-.09-.23-.12-.26-.75-.71-4.6,1.01-5.89,4-.28.66-.83,1.92-.31,3.02.4.84,1.45,1.4,3.56,2.52,1.03.54.93.42,1.07.55,1.88,1.62-.85,5.6.71,9.02.64,1.4,1.73,2.13,2.88,2.88,7.74,5.12,25.67,3.06,28.71-4.45.15-.37.9-2.32.57-2.5-.49-.27-3.87,3.15-3.82,6.89.03,1.81.84,2.36,1.98,4.81,3.13,6.72.77,10.6,4.44,15.25,0,0,.89,1.13,2.4,2.33,11.46,9.07,51.52-4.67,52.73-1.4.1.28-.09.68-.3.74-2.46.68-25.4-36.29-16.42-66.61,2.81-9.49,7.42-13.87,6.85-24.52-.68-12.54-7.89-21.33-9.91-23.64-.82-.93-17.12-18.98-37.76-13.79-10.68,2.68-25.44,12.32-24.27,24.99,1.17,12.8,17.72,19.26,20.73,19.4,1.56.07,3.12-.33,3.12-.33.9-.24,2.31-.62,3.45-1.81.25-.26.65-.73,1.02-1.48,1.68-3.41.98-9.08,3.06-13.9.56-1.3,1.96-4.41,5.25-6.04,2.57-1.27,5.35-1.16,5.37-1.04.01.08-1.21.2-2.84.92-1.02.45-2.51,1.12-3.55,2.46-1.39,1.78-2.09,4.86-.96,5.88,1.52,1.36,6.25-1.05,9.19-3.75,3.9-3.59,6.04-9,5.23-9.61-.21-.16-.58.03-.84.15-4.41,2.02-8.76-.46-12.46,1.94-2.73,1.77-3.14,4.91-3.93,4.65-.78-.25.18-3.04-1.2-5.97-.91-1.92-2.38-2.98-3.55-3.81-6.43-4.51-15.99-3.37-16.2-2.12-.04.24.26.46.47.63,3.07,2.48,3.36,6.54,5.4,10.11,2.85,4.99,8.78,8.43,10.96,7.14.95-.56,1.08-1.96,1.11-2.34,0,0,.3-3.26-11.15-12.49,7.33,1.39,9.97,4.14,11.04,6.34,2.78,5.68-.54,16.55,2.19,21.05.36.59.79,1.06.79,1.06s2.12,2.3,6.69,2.51c5.45.25,22.34-8.23,22.3-18.95-.01-3.07-1.43-9.96-28.63-23.17-31.14-15.12-57.54-19.82-58.8-20.03-39.53-6.73-70.7-12.04-94.87,6.78-3.7,2.88-22.54,17.55-22.87,38.12-.47,29.05,36.45,39.92,33.04,61.84-3.41,21.87-43.31,31.22-47.44,32.19-35.42,8.3-64.21-8.9-72-13.55-12.63-7.55-26.42-15.79-31.34-31.34-6.46-20.41,9.43-31.02,2.71-48.22-7.34-18.79-33.63-24.86-50.99-28.86-9.07-2.09-32.46-7.17-57.89,2.63-8.6,3.31-28.8,11.09-28.63,23.14.12,8.83,11.15,18.36,22.3,18.93,5.88.3,10.29-1.97,12.59-3.2,10.26-5.45,21.17-19.21,16.55-28.58-3.92-7.95-17.77-10.17-27.49-6.16-8.25,3.4-16.27,12.43-14.3,19.61.43,1.58,1.9,5.09,11.78,9.24,15.93,6.7,39.11,8.96,42.07,1.68,2.32-5.7-7.76-17.31-14.33-23.07-.06-.05-.27-.24-.54-.47-7.43-6.32-24.38-16.86-33.38-12.61-11.96,5.66-14.34,39.53.28,47.35,10.81,5.78,31.67-2.29,33.38-14.85,1.2-8.83-7.29-18.31-16.55-21.01-14.02-4.09-30.08,7.26-29.73,14.85.13,2.79,2.46,4.67,6.17,7.56,5.13,4,16.83,13.13,31.16,9.51,8.07-2.04,19.8-8.84,20.73-19.38,1.08-12.32-13.29-22.2-24.27-24.96-20.65-5.19-36.95,12.85-37.76,13.77-2.04,2.33-9.23,11.1-9.91,23.61-.58,10.63,4.04,15.01,6.85,24.49,8.97,30.29-13.96,67.22-16.42,66.54-.22-.06-.41-.46-.3-.74,1.21-3.26,41.28,10.46,52.73,1.4,1.51-1.2,2.4-2.32,2.4-2.32,3.67-4.65,1.31-8.52,4.44-15.24,1.14-2.45,1.96-3,1.98-4.81.05-3.73-3.33-7.15-3.82-6.88-.33.18.42,2.14.57,2.5,3.04,7.51,20.97,9.55,28.71,4.44,1.15-.76,2.24-1.48,2.88-2.88,1.55-3.41-1.17-7.39.7-9,.15-.12.05,0,1.07-.55,2.12-1.12,3.17-1.68,3.56-2.52.47-1.02.14-2.26-.31-3.02-1.4-2.36-5.56-2.72-6.56-1.38-.33.44-.4,1.18-.09,1.47.88.8,4.01-2.54,6.74-2.67.27-.01,1.22-.02,1.67-.65.19-.26.22-.54.24-.66.19-1.71-2.23-4.41-1.73-6.17.54-1.89,4.52-2.92,5.39-4.59.03-.06.08-.17.04-.27-.32-.78-5.85.26-5.9,1.45,0,.16.09.28.12.33.96,1.23,7.75,1.01,9.96-1.69,3.31-4.03-5.34-11.49-9.34-27.01-3.51-13.65.91-16.66-3.51-27.41-4.58-11.17-13.23-17.35-15.94-19.24-2.36-1.64-18.73-12.65-38.89-7.05-13.48,3.74-21.06,12.8-23.46,15.75-2.81,3.46-10.17,12.51-10.38,24.73-.04,2.42.22,3.96,7.17,25.64,4.45,13.88,5.17,15.82,5.02,19.79-.31,8.18-3.89,14.11-7.78,20.55-3.36,5.56-8.64,14.3-18.64,21.18-14.94,10.28-28.14-1.23-39.95,9.32-3.22,2.88-4.61,5.68-9.37,7.72-1.27.55-6.59,2.66-17.98.19-13.72-2.98-17.44-8.54-31.72-11.2-3.72-.69-6.79-.94-8.66-1.04"/>
  <path class="cls-1" d="m54.67.02c1.31,27.15-5.01,45.44-10.69,56.82C29.05,86.78,7.27,91.81,5.01,117.84c-1.34,15.52,5.9,19.45,2.54,38.96-2.91,16.88-10.07,24.03-5.65,31.91,4.17,7.43,16.38,11.5,24.56,8.47,6.39-2.36,7.58-8.04,15.85-10.69,4.67-1.5,8.98-1.2,11.89-.71"/>
</svg>