<?xml version="1.0" encoding="UTF-8"?>
<svg id="Layer_1" data-name="Layer 1" xmlns="http://www.w3.org/2000/svg" viewBox="0 0 1200.17 286.22">
  <defs>
    <style>
      .cls-1 {
        fill: #231f20;
      }

      .cls-2 {
        fill: none;
        stroke: #231f20;
        stroke-miterlimit: 10;
      }
    </style>
  </defs>
  <path class="cls-1" d="m649.49,282.18c-.25-.17-.64-.26-.71-.55-1.06-3.99-1.92-15.16-2.61-29.09-1.81.92-3.96,1.66-6.49,2.26-7.67,1.8-19.12,2.35-34.96,3.12l-.72.03c-28.16,1.36-40.3-2.68-43.35-3.95-2.46,7.81-4.43,27.3-4.45,27.51-.04.38-.35.66-.74.66-2.95,1.46-7.42,3.21-12.99,3.55-8.05.49-13.79-2.25-17.52-3.61-19.4-7.1-39.99,2.81-40.08,2.3-.1-.52,21.17-11.46,39.91-4.71,3.69,1.33,9.64,4.2,18.07,3.76,5.09-.26,9.22-1.63,11.94-2.77.65-4.01,4.51-27.37,4.71-27.95.07-.2.23-.36.43-.44.2-.08.42-.07.61.03.11.06,11.37,5.69,43.37,4.13l.72-.03c22.02-1.06,34.6-1.67,41.45-5.51-.74-15.48-1.27-34.06-1.63-49.9l-4.98.45v12.56c-.01.16-1.25,15.97-13.92,15.97h-49c-.57.04-7.27.39-11.56-3.59-2.28-2.12-3.44-5.06-3.44-8.75v-12.97h-7.46c-.45,1.75-1.19,3.71-2.2,5.9-.06.12-.15.23-.26.3-.27.18-6.61,4.33-14.17,2.25-1.29.17-7.7.94-9.88-.69-1.24-.93-1.23-2.48-1.22-4.27.01-2.13.03-4.79-1.63-8.12-1.98-3.96-4.51-12.05-1.42-17.24,1.66-2.8,4.66-4.29,8.91-4.44.05,0,.1,0,.15.01.09.01,8.8,1.47,12.25.04.31-.13.66-.03.86.23,1.84,2.35,7.41,8.39,10.98,8.21h.04c.37,0,2.13.03,3.92.46,5.51-9.8,16.37-8.98,17.21-8.9h32.66c-1.8-4.19-5.6-10.12-12.66-10.12-10.82,0-11.91,7.19-11.92,7.27-.05.37-.36.64-.73.64h-5.27c-.4,0-.72-.31-.74-.71-.01-.36-1.67-36.28-6.82-47.62-.1-.22-.09-.48.04-.69.13-.21.34-.34.59-.36.35-.02,33.84-2.21,43-5.09-.83-.81-2.14-2.16-3.49-3.78-6.99-1-13.6-1.61-18.72-1.5-2.38,4.28-10.31,4.89-10.64,4.91-.4.03-.75-.27-.79-.68-.11-1.33.36-2.45,1.4-3.34,1.67-1.42,4.89-2.11,9.03-2.29.42-1.29.13-2.84-.85-4.62-2.55-4.6-5.42-5.97-8.19-7.29-.33-.16-.66-.32-.99-.48-.78,6.57-3.68,9.83-3.86,10.02-.06.06-.12.11-.2.15l-32.06,17.07c5.22,11.41,4.91,23.42,3.72,31.54-1.32,8.95-3.89,15.08-4,15.34-.15.36-.56.54-.93.41-7.47-2.65-13.62-2.49-18.29.45-7.49,4.73-8.66,15.16-8.67,15.27,0,.04-.01.08-.02.11-5.19,19.32-2.95,25.52-.16,27.31,5.17,3.32,15.73-5.32,15.84-5.4.26-.21.62-.23.9-.03.27.19.38.54.27.86-.18.49-4.5,12.06-14.89,12.61-2.83.15-5.59-1.34-8.22-4.43-5.88-6.9-10.02-21.21-8.36-28.89.95-4.38,1.91-5.66,2.62-6.59.74-.97,1.1-1.46.54-7.15-.76-7.64,4.28-11.14,9.15-14.53,2.18-1.51,4.44-3.08,6.17-5.02,5.19-5.8,8.56-20.59,8.91-22.19-1.14-6.39-.38-10.91,2.26-13.46,2.69-2.59,6.38-2.21,7.37-2.05,15.38-6.74,30.89-14.86,33.19-16.07l2.97-12.01c.08-.32.36-.55.69-.56.34-.01.63.19.73.51.71,2.14,1.75,3.37,3.02,4.27.07-2.15-.1-4.61-.65-7.37-.07-.34.11-.69.43-.82.32-.14.69-.03.89.25.07.1,6.93,9.65,17.61,8.65,3.51-.33,6.45-3.07,8.81-6.59-.52-2.84-.79-5.08-.87-5.77-.02-.17.02-.34.11-.49,6.13-9.38,4.93-25.31,3.85-33.2-3.68-2.74-9.02-3.6-15.89-2.56-14.07,2.12-18.66,6.89-20.16,9.55,1.2,9.18,2.43,17.38,2.45,17.54.05.34-.14.68-.47.8-1.03.38-2.01.32-2.92-.2-2.67-1.51-3.74-6.59-3.86-7.17-1.56-4.92-1.57-7.99-.04-9.4.9-.82,2.05-.81,2.83-.66.1-.33.24-.75.47-1.23-.6-4.64-1.19-9.49-1.61-13.68-3.19.52-5.69.29-6.28.21h0c-11.44-1.23-17.16-3.44-17.99-6.98-1.2-5.11,8.39-11.27,18.56-17.81,4.78-3.07,9.72-6.25,13.28-9.19,14.14-11.7,25.39-16.19,33.43-13.34,6.14,2.18,10.32,8.62,12.43,19.15,2.23,11.09,1.58,17.5-1.96,19.6-1.89,1.12-4.26.72-6.42-.15l.62,14.28c.01.32-.18.61-.48.72s-.64.01-.84-.24c-.67-.86-2.56-2.87-4.3-3.32.14.74.34,1.86.55,3.27,3.54,2.9,4.61,6.69,4.94,8.51,1.62-.71,3.4-1.18,4.59-.23,1.19.96,1.36,2.96.53,6.3-1.35,5.39-3.03,8.47-5,9.14-.42.14-.79.16-1.09.13-.65,2.56-2.89,10.52-6.87,16.68.48,2.45,1.11,5.12,1.9,7.6,1.07-.95,3.14-3.34,4.86-8.5.11-.33.43-.54.77-.5.34.03.62.3.66.64l1.39,10.72c1.16,1.37,10.38,11.67,26.16,12.14.54.02,13.19.66,17.01,10.49.02.05.03.1.04.15.71,4.33,3.43,15.81,7.38,16.92,5.01,1.39,7.68,3.88,8.95,8.3.23.81,1.62,1.92,3.23,3.22,4.74,3.8,12.67,10.16,13.45,24.51,0,.17.13,14.47-7.79,28.19-.16.28-.48.42-.8.35s-.55-.34-.58-.66c-.02-.23-2.16-23.16-11.7-30.23-2.46-1.82-5.24-2.43-8.27-1.79-.1.02-.21.02-.31,0-.29-.07-7.18-1.61-9.84-2.67-.6-.24-1.3-.36-2.08-.32.02,6.33-.59,10.7-.61,10.81-.04.29-.25.52-.53.61-.28.08-.58-.01-.77-.24-.3-.36-.68-.54-1.18-.57-1.61-.08-3.92,1.48-5.58,2.84.03,1.45.06,2.95.09,4.5,3.3-2.6,8.74-4.48,9.64-4.78.07-.03.16-.04.23-.04.9,0,1.39.44,1.64.82,1.05,1.56-.17,4.83-.43,5.47-.07.17-.19.31-.35.39-1.99,1-3.02,2.01-2.97,2.93.08,1.58,3.14,3.1,4.36,3.58,3.52.11,6.47,4.4,8.23,7.72,1.1-.54,2.01-1.36,2.56-2.55,1.16-2.5,1.73-5.22,2.29-7.85.94-4.43,1.82-8.62,5.43-10.42.18-.09.39-.1.58-.03.19.07.34.21.42.4.48,1.12,11.77,27.59,2.27,32.06-2.62,1.23-5.04,1.36-7.21.38-4.16-1.88-5.84-7.17-5.98-7.67-.24-.64-.61-1.5-1.07-2.46-4.27,1.3-9.84.02-11.87-.54-.94,4.37-.28,9.55.42,15.01.87,6.78,1.77,13.78-.26,20.13-1.11,3.49-3.03,6.07-6.06,7.99.65,13.58,1.46,24.61,2.45,28.98,3.8,1.48,9.44,3.24,16.45,3.9,5.33.5,9.79.19,13.67-.28,18.83-2.3,32.95-9.76,33.01-9.6.07.16-14.4,7.98-33.18,10.73-4.71.69-9.16.98-14.17.56-7-.59-12.62-2.36-16.37-3.83Zm-3.54-81.28c.36,15.57.88,33.82,1.58,49.12,2.31-1.66,3.82-3.84,4.74-6.73,1.92-6.04,1.05-12.89.2-19.5-.76-5.92-1.47-11.51-.21-16.31.05-.2.18-.36.36-.46s.39-.12.58-.06c.09.03,6.79,2.12,11.49.83-1.73-3.2-4.31-6.76-6.97-6.76-.09,0-.17-.01-.25-.04-.54-.2-5.28-2.03-5.44-4.92-.08-1.53,1.1-2.94,3.52-4.21.47-1.27.91-3.21.48-3.84-.03-.05-.1-.14-.31-.16-3.55,1.2-7.93,3.27-9.94,5.25.01.57.02,1.13.04,1.7h4c.37,0,.69.28.73.65l.53,4.22c.03.2-.03.4-.16.55-.13.16-.31.25-.51.27l-4.46.41h0Zm-91.51,2.33h7.87c.41,0,.74.33.74.74v13.71c0,3.25,1,5.83,2.96,7.66,3.9,3.63,10.41,3.21,10.48,3.2h49.08c11.1,0,12.39-13.93,12.44-14.58v-13.15c0-.38.29-.7.67-.74l5.75-.52c-.03-1.11-.05-2.2-.07-3.27h-.34c-.34,0-.64-.23-.72-.56-.27-1.1.15-2.16.98-3.15-.03-1.58-.06-3.11-.09-4.59-.06.06-.13.12-.18.18-.04.04-.09.08-.14.11-1.67,1-4.93.35-6.92-.9-1.49-.93-1.73-1.86-1.68-2.48.08-.89.8-1.61,2.15-2.16,2.58-1.04,4.93-2.62,6.61-3.92-.12-7.18-.18-11.95-.19-12.81,0-.37.27-.69.64-.74,2.98-.38,5.59-.95,7.82-1.7-.82-7.21-2.73-15.21-6.81-21.94-.01-.02-.02-.03-.03-.05-.17-.33-3.95-8.07-.84-17.2-8.09-1.98-19.4-4.4-30.1-6.03,1.2,1.34,2.33,2.46,3.12,3.19.18.17.27.42.23.67-.04.25-.21.46-.44.55-6.8,2.91-37.36,5.11-43.53,5.53,4.61,11.63,6.25,41.37,6.51,46.48h3.98c.57-1.99,3.11-7.91,13.24-7.91,8.22,0,12.41,7.06,14.26,11.6h4.19c17.75,0,22.28,15.14,22.32,15.29.06.22.02.46-.12.65s-.36.3-.59.3h-76.75v4.53c0,.41-.33.74-.74.74h-5.58c.1.96.04,2.05-.18,3.27h0Zm-15.35-77.73c-1.33,0-3.32.29-4.83,1.76-2.27,2.2-2.87,6.33-1.8,12.27.02.1.01.19,0,.28-.14.68-3.56,16.61-9.28,23.01-1.84,2.07-4.17,3.68-6.43,5.25-4.73,3.28-9.2,6.39-8.53,13.17.6,6.03.21,6.82-.83,8.19-.62.82-1.47,1.95-2.35,6.01-1.41,6.52,2.02,20.55,8.04,27.62,2.31,2.72,4.67,4.03,7.01,3.91,6.49-.34,10.47-5.69,12.32-9.01-2.79,1.92-7.51,4.68-11.55,4.68-1.3,0-2.53-.28-3.61-.98-4.73-3.04-4.89-12.49-.49-28.88.11-.98,1.47-11.34,9.34-16.31,4.92-3.11,11.28-3.39,18.9-.83,1.53-4,9.11-26.04-.24-45.67-.17-.36-.03-.78.32-.97l32.56-17.33c.45-.55,2.87-3.76,3.45-9.71-1.31-.79-2.49-1.8-3.42-3.45l-2.53,10.23c-.05.2-.18.38-.37.48-.17.09-17.09,9.06-33.79,16.36-.14.06-.3.08-.45.04-.01,0-.6-.12-1.45-.12h0Zm127.67,83.09c.65,1.36,1.03,2.37,1.09,2.5,0,.02.01.04.02.05.01.05,1.54,5.12,5.19,6.76,1.75.79,3.76.66,5.97-.37,6.59-3.1.58-21.55-2.67-29.37-2.42,1.68-3.14,5.1-3.97,9-.57,2.71-1.17,5.51-2.39,8.16-.71,1.54-1.86,2.58-3.23,3.25h0Zm-129.22,3.08c.07,0,.14.01.2.03,6.32,1.81,11.9-1.29,12.92-1.91.86-1.87,1.5-3.57,1.92-5.08h-9.78c-.41,0-.74-.33-.74-.74v-4.74c0-.41.33-.74.74-.74h9.92c-.16-.34-.36-.63-.6-.89-2.52-2.66-9.28-.75-11.68.2-.18.07-.39.07-.57,0-.18-.08-.32-.23-.4-.41-.81-2.11-.74-3.83.2-5.12,1.81-2.46,6.15-2.22,6.33-2.21.13,0,.25.05.36.12,5.26,3.51,11.44.73,12.7.09.2-.54.42-1.06.65-1.55-1.24-.26-2.5-.35-3.2-.35-.07,0-.14,0-.2,0-4.47,0-10.2-6.6-11.65-8.36-3.91,1.22-11.55.02-12.45-.13-3.68.15-6.24,1.4-7.62,3.72-2.4,4.05-.92,11.04,1.47,15.83,1.82,3.65,1.8,6.62,1.79,8.79-.01,1.7.01,2.61.63,3.07,1.36,1.02,6.2.78,8.94.39.03,0,.07,0,.1,0h.01Zm131.31-37.17c2.46,0,4.75.78,6.85,2.33,8.3,6.16,11.21,22.77,12.02,28.95,6.59-12.72,6.49-25.24,6.48-25.37-.74-13.67-8.35-19.77-12.9-23.41-1.95-1.57-3.37-2.7-3.73-3.96-1.12-3.92-3.42-6.03-7.92-7.28-5.49-1.53-8.09-16-8.43-18.02-3.51-8.85-15.53-9.47-15.66-9.48-1.17-.04-2.31-.12-3.41-.25,7.59,2.9,14.49,6.76,16.28,11.52.93,2.46.47,4.98-1.36,7.49,1.77,2.23,8.81,11.8,5.75,19.76-1.32,3.42-4.31,6.03-8.94,7.79.25,2.55.38,4.97.42,7.2.98-.05,1.87.11,2.64.42,2.34.93,8.42,2.33,9.46,2.57.83-.16,1.65-.25,2.45-.25h0Zm-125.3,28.73h9.39c.25-1.25.31-2.35.2-3.27h-9.59v3.27Zm102.3-6.96c.02,1.03.04,2.08.07,3.14l3.59-.33-.35-2.81h-3.31Zm-91.53,2.21h5.15v-4.53c0-.41.33-.74.74-.74h76.44c-.52-1.3-1.69-3.76-3.83-6.2-4.13-4.7-9.76-7.08-16.73-7.08h-3.64c.24.71.42,1.29.52,1.69,12.02.26,15.27,8.55,15.4,8.91.08.23.05.48-.08.68-.14.2-.37.32-.61.32h-63.78c-.36,0-.67-.26-.73-.62-.14-.82-.96-1.39-2-1.78-.28.6-.55,1.23-.79,1.91-.06.17-.18.3-.33.39-.31.18-7.72,4.32-14.31.09-1.16-.03-3.82.2-4.86,1.62-.54.73-.62,1.74-.25,3.02,2.31-.81,9.41-2.91,12.57.42.5.53.88,1.16,1.12,1.9h0Zm10.13-8.43h62.04c-1.24-2.14-5.02-6.96-14.1-6.96-.35,0-.65-.24-.72-.58,0-.04-.24-1.08-.79-2.58h-33.28s-.06,0-.09,0c-.47-.05-10.42-1.1-15.64,7.88,1.16.47,2.16,1.18,2.59,2.25h0Zm79.61-9.42c-1.66,1.2-3.77,2.52-6.09,3.46-.88.35-1.21.72-1.23.92-.02.23.28.65.99,1.09,1.65,1.03,4.24,1.48,5.31.92.18-.18.58-.56,1.12-1.03-.04-1.89-.07-3.69-.1-5.37h0Zm1.46-1.12c.03,1.65.06,3.43.1,5.3,1.67-1.26,3.84-2.53,5.68-2.45.4.02.76.1,1.1.24.18-1.67.45-4.94.45-9.08-1.6.51-3.37,1.73-5.08,4.01-.02.03-.04.06-.07.08-.07.07-.88.86-2.18,1.91h0Zm-.2-12.88c.02,1.49.07,5.42.17,10.98.62-.53,1.02-.91,1.13-1.02,2.05-2.72,4.23-4.1,6.21-4.61-.03-2.14-.14-4.48-.38-6.93-2.09.68-4.47,1.2-7.14,1.58h0Zm1.46-25.75c4.12,6.82,6.08,14.87,6.94,22.15,4.01-1.6,6.6-3.88,7.73-6.81,3.11-8.05-5.78-18.63-5.87-18.73-.23-.27-.24-.66-.01-.94,1.81-2.26,2.3-4.4,1.5-6.52-4-10.62-37.73-16.83-38.97-17.06-3.19-.28-5.51-4.03-7.15-8.52-1.3.6-2.04,1.44-2.27,2.56-.54,2.63,1.84,6.46,4.43,9.64,15.59,2.26,31.48,6.17,32.68,6.47.21.05.38.19.48.37.1.19.11.41.04.61-3.28,8.61.26,16.3.49,16.78h0Zm-55.07-24.3c-3.36.22-5.89.82-7.21,1.95-.46.39-.73.82-.84,1.32,1.8-.24,6.07-1.03,8.06-3.27Zm3.26-1.51c4.7,0,10.29.52,16.02,1.29-2.33-3.08-4.35-6.75-3.76-9.64.33-1.63,1.42-2.86,3.23-3.66-.73-2.22-1.3-4.55-1.75-6.68-2.45,3.26-5.46,5.72-9.07,6.06-8.34.78-14.37-4.19-17.18-7.17.27,2.16.32,4.12.22,5.87.47.25.97.49,1.49.74,2.84,1.36,6.07,2.9,8.85,7.91,1.08,1.95,1.45,3.72,1.11,5.29.28,0,.56,0,.85,0Zm17.33-11.3c1.5,4.2,3.48,7.55,5.95,7.74.02,0,.05,0,.07,0,.51.09,4.96.89,10.75,2.39-7.05-3.71-10.83-8.43-10.89-8.51-.08-.1-.13-.23-.15-.36l-1.04-8.02c-1.82,4.19-3.77,6.05-4.7,6.76h0Zm-3.35-15.07c.12,1.05.31,2.34.55,3.78,3.97-6.89,6-15.47,6.03-15.62.06-.25.24-.45.47-.53.24-.08.5-.04.7.11.01,0,.28.18.73,0,.66-.25,2.37-1.55,4-8.09.9-3.59.29-4.55-.02-4.79-.4-.32-1.4-.43-3.94.83-.22.11-.49.1-.7-.02s-.35-.35-.37-.6c0-.04-.25-4.02-3.28-7.32,1.03,8.42,1.69,23-4.18,32.23h0Zm-36.38-24.47c-.36,0-.75.08-1.05.36-.59.55-1.32,2.3.47,7.9,0,.03.01.06.02.09.26,1.38,1.33,5.18,3.14,6.2.35.2.72.28,1.1.24-.29-1.97-1.15-7.82-2.05-14.58-.18.07-.38.08-.57,0,0,0-.51-.2-1.07-.2h0Zm1.11-16.59c.37,3.67.87,7.88,1.4,12.01,2.4-3.01,7.86-6.89,20.23-8.76,6.59-.99,11.9-.3,15.82,2.05-.27-1.69-.48-2.7-.49-2.74-.04-.21,0-.42.13-.59.13-.17.32-.28.53-.3,1.88-.16,3.79,1.26,5.04,2.44l-.57-13.02c-1.93-.99-3.5-2.19-4.1-2.67-6.67.74-10.85-3.41-12.21-5.02-3.58,2.63-7.85,4.47-11.94,5.76-3.4,6.99-9.11,9.78-13.83,10.84h0Zm-7.56-.96c.26.03,2.73.33,5.96-.21-.29-3.08-.47-5.71-.47-7.49,0-.39.3-.71.69-.74.11,0,6.77-.45,14.17-2.69,3.94-8.06,12.8-12.23,19.69-12.23h.18c5.01.06,8.81,2.19,10.43,5.87.04.08.06.17.06.27l.36,8.33c2.03.92,4.21,1.42,5.74.52,1.99-1.18,3.82-5.26,1.26-18.03-2.01-9.99-5.87-16.06-11.48-18.05-7.52-2.67-18.28,1.74-31.99,13.08-3.63,3-8.61,6.2-13.42,9.3-8.85,5.69-18.88,12.14-17.92,16.22.65,2.76,6.28,4.73,16.71,5.86h.02,0Zm6.97-7.02c.04,1.65.2,3.91.45,6.51,4.04-.95,8.84-3.28,11.99-8.78-5.65,1.57-10.63,2.12-12.44,2.27Zm38.79-5.11c.17,0,.34.06.48.17.71.59,1.92,1.49,3.33,2.29l-.32-7.34c-1.41-3.05-4.7-4.82-9.04-4.87h-.17c-6.04,0-13.71,3.44-17.65,10.1,3.74-1.29,7.52-3.05,10.63-5.46.16-.13.37-.18.57-.15s.38.14.5.31c.17.24,4.24,5.94,11.59,4.96.03,0,.07,0,.1,0h0Z"/>
  <path class="cls-2" d="m534.38,284.23c-6.27-2.77-16.22-6.14-28.24-5.46-16.62.94-21.5,8.72-31.81,6.59-15.68-3.25-12.75-23.64-28.8-33.51-26.15-16.07-66.05,18.41-80.19,3.39-6.01-6.39-3.68-17.84-3.39-19.2,2.26-10.42,10.33-12.32,23.72-28.24,8.59-10.22,15.42-18.34,13.55-25.98-.97-3.94-4.81-10.04-21.46-14.68-55-15.35-126.65,19.42-141.18,1.13-12.14-15.3,29.12-50.72,15.81-75.67-11.68-21.89-59.64-25.01-96-13.55-50.14,15.8-60.27,53.65-88.09,51.95-18.25-1.12-42.24-19.14-67.84-92.54"/>
  <path class="cls-2" d="m1199.98,201.03c-25.94-11.26-46.57-12.47-60.24-11.67-41.21,2.41-79.15,26.64-123.86,29.18-6.14.35-17.27.56-25.41-6.78-6.12-5.51-10.95-15.64-8.47-24.56,3.18-11.42,15.51-10.66,27.95-25.41,2.24-2.66,15.68-18.59,11.86-28.8-7.07-18.87-76.06-25.86-98.26,3.39-19.03,25.07,6.08,63.9-11.2,75.95-15.9,11.09-40.47-19.51-70.78-7.53-15.09,5.97-26.55,20.49-36.52,33.13-14.61,18.52-11.46,23.25-20.71,28.61-17.17,9.96-29.89-5.28-58.82,3.29-9.36,2.77-9.39,4.77-25.79,10.16-15.13,4.98-24.63,6.42-34.54,5.36-4.64-.49-8.4-1.43-10.92-2.16"/>
</svg>