<?xml version="1.0" encoding="UTF-8"?>
<svg id="line_art" data-name="line art" xmlns="http://www.w3.org/2000/svg" viewBox="0 0 1190.55 841.89">
  <defs>
    <style>
      .cls-1 {
        fill: #231f20;
      }
    </style>
  </defs>
  <path class="cls-1" d="m1151.86,806.49h-598.76c-.91,0-1.7-.61-1.93-1.48-2.88-10.79-5.21-41.05-7.07-78.75-4.91,2.5-10.73,4.5-17.57,6.11-20.75,4.87-51.75,6.37-94.65,8.45l-1.95.09c-76.23,3.69-109.1-7.26-117.34-10.68-6.65,21.14-11.99,73.91-12.05,74.46-.1,1.02-.96,1.8-1.99,1.8H34.56c-1.1,0-2-.9-2-2s.9-2,2-2h262.18c1.05-10.02,6.26-57.46,12.76-75.66.19-.55.62-.98,1.16-1.19.54-.21,1.14-.18,1.66.09.29.15,30.78,15.39,117.41,11.19l1.95-.09c59.62-2.88,93.65-4.53,112.21-14.91-1.99-41.91-3.43-92.2-4.4-135.08l-13.48,1.23v33.85s0,.09,0,.14c-.03.43-3.38,43.24-37.67,43.24h-132.64c-1.55.1-19.69,1.06-31.29-9.71-6.18-5.74-9.31-13.7-9.31-23.68v-35.1h-20.2c-1.23,4.73-3.22,10.05-5.96,15.96-.15.33-.4.62-.71.82-.73.49-17.9,11.71-38.35,6.08-3.5.47-20.85,2.55-26.75-1.87-3.37-2.52-3.34-6.71-3.3-11.55.04-5.77.09-12.96-4.42-21.98-5.36-10.72-12.2-32.61-3.85-46.67,4.5-7.58,12.61-11.62,24.11-12.03.14,0,.27,0,.41.03.24.04,23.81,3.98,33.15.12.83-.34,1.78-.09,2.34.61,4.99,6.35,20.05,22.7,29.72,22.23.03,0,.07,0,.1,0,1,0,5.76.07,10.6,1.25,14.91-26.52,44.31-24.3,46.58-24.08h88.4c-4.88-11.34-15.17-27.39-34.28-27.39-29.3,0-32.24,19.47-32.26,19.67-.13.99-.98,1.74-1.98,1.74h-14.27c-1.07,0-1.95-.84-2-1.91-.04-.98-4.52-98.22-18.47-128.9-.27-.6-.23-1.29.11-1.86.34-.56.93-.93,1.59-.97.95-.06,91.6-5.97,116.41-13.78-2.24-2.2-5.78-5.84-9.44-10.22-18.93-2.7-36.81-4.37-50.68-4.07-6.44,11.58-27.9,13.24-28.81,13.3-1.09.09-2.04-.74-2.14-1.83-.3-3.59.98-6.63,3.79-9.03,4.52-3.85,13.25-5.71,24.45-6.2,1.13-3.5.36-7.7-2.31-12.51-6.91-12.44-14.67-16.15-22.18-19.73-.9-.43-1.8-.86-2.69-1.3-2.11,17.79-9.97,26.61-10.44,27.12-.15.17-.33.31-.53.41l-86.8,46.2c14.12,30.9,13.3,63.39,10.07,85.39-3.56,24.23-10.54,40.82-10.84,41.52-.41.97-1.51,1.45-2.51,1.1-20.23-7.17-36.88-6.75-49.51,1.22-20.27,12.8-23.43,41.05-23.46,41.34-.01.11-.03.21-.06.31-14.05,52.3-7.99,69.07-.42,73.93,14,9,42.59-14.4,42.88-14.63.7-.58,1.69-.61,2.43-.09.74.52,1.04,1.47.73,2.32-.48,1.33-12.19,32.65-40.3,34.13-7.65.4-15.13-3.63-22.24-11.98-15.91-18.69-27.12-57.42-22.63-78.2,2.56-11.86,5.17-15.31,7.08-17.83,1.99-2.63,2.99-3.95,1.45-19.35-2.07-20.69,11.58-30.16,24.78-39.32,5.91-4.1,12.03-8.35,16.7-13.58,14.04-15.71,23.16-55.74,24.11-60.06-3.08-17.29-1.02-29.54,6.11-36.44,7.27-7.02,17.26-5.99,19.95-5.56,41.64-18.25,83.62-40.23,89.84-43.51l8.05-32.52c.21-.86.97-1.48,1.86-1.52.91-.03,1.7.52,1.98,1.37,1.93,5.8,4.73,9.12,8.18,11.57.2-5.82-.26-12.48-1.76-19.96-.18-.93.3-1.86,1.17-2.23.87-.37,1.88-.09,2.42.69.18.26,18.77,26.13,47.66,23.42,9.51-.89,17.46-8.31,23.86-17.85-1.42-7.7-2.15-13.74-2.36-15.61-.05-.46.06-.93.31-1.32,16.59-25.4,13.35-68.52,10.41-89.88-9.96-7.41-24.42-9.74-43.02-6.94-38.08,5.75-50.52,18.65-54.56,25.86,3.25,24.85,6.57,47.06,6.63,47.49.14.93-.39,1.84-1.28,2.17-2.78,1.04-5.44.87-7.9-.53-7.24-4.08-10.13-17.83-10.44-19.4-4.22-13.32-4.26-21.64-.11-25.45,2.43-2.22,5.56-2.18,7.66-1.8.26-.9.66-2.03,1.28-3.32-1.63-12.55-3.23-25.69-4.37-37.03-8.63,1.4-15.39.78-17,.57v.02c-30.97-3.34-46.44-9.34-48.7-18.91-3.26-13.82,22.72-30.52,50.23-48.2,12.93-8.31,26.31-16.91,35.94-24.89,38.27-31.68,68.72-43.82,90.49-36.1,16.61,5.89,27.94,23.33,33.66,51.84,6.03,30.03,4.29,47.38-5.3,53.06-5.12,3.03-11.54,1.96-17.37-.4l1.68,38.65c.04.87-.49,1.66-1.31,1.96-.82.3-1.73.04-2.27-.65-1.81-2.33-6.93-7.76-11.63-8.99.38,2.01.92,5.04,1.48,8.86,9.57,7.85,12.49,18.1,13.36,23.03,4.38-1.93,9.21-3.2,12.43-.61,3.23,2.59,3.69,8.02,1.43,17.06-3.65,14.59-8.2,22.92-13.53,24.75-1.13.39-2.13.44-2.96.34-1.76,6.92-7.82,28.49-18.6,45.16,1.3,6.62,3,13.85,5.13,20.56,2.89-2.58,8.49-9.03,13.15-23,.3-.88,1.16-1.45,2.09-1.36.93.09,1.67.81,1.79,1.73l3.75,29.03c3.15,3.72,28.1,31.58,70.81,32.87,1.47.06,35.7,1.79,46.04,28.39.05.13.09.26.11.4,1.93,11.73,9.28,42.81,19.97,45.79,13.55,3.77,20.79,10.5,24.22,22.48.63,2.19,4.39,5.21,8.75,8.71,12.83,10.28,34.3,27.49,36.4,66.35,0,.46.34,39.17-21.09,76.32-.44.76-1.31,1.14-2.16.95-.85-.19-1.48-.91-1.56-1.78-.06-.62-5.84-62.69-31.66-81.84-6.65-4.93-14.19-6.57-22.38-4.85-.28.06-.57.06-.85,0-.79-.18-19.43-4.35-26.63-7.23-1.62-.65-3.52-.98-5.62-.86.05,17.13-1.61,28.97-1.65,29.25-.11.78-.68,1.42-1.44,1.64-.76.22-1.57-.04-2.08-.64-.82-.98-1.83-1.47-3.19-1.53-4.37-.22-10.61,4.01-15.1,7.68.08,3.92.16,7.99.24,12.18,8.92-7.04,23.67-12.13,26.09-12.94.2-.07.42-.1.63-.1,2.44,0,3.76,1.2,4.45,2.21,2.85,4.21-.47,13.07-1.16,14.81-.18.45-.52.83-.96,1.05-5.39,2.7-8.17,5.44-8.03,7.94.23,4.29,8.5,8.39,11.8,9.68,9.54.3,17.51,11.91,22.27,20.89,2.99-1.47,5.44-3.68,6.92-6.9,3.13-6.77,4.69-14.13,6.19-21.26,2.54-12,4.94-23.33,14.71-28.21.49-.25,1.06-.28,1.58-.09.52.19.93.58,1.15,1.09,1.31,3.04,31.87,74.69,6.15,86.79-7.08,3.33-13.65,3.68-19.52,1.03-11.27-5.09-15.8-19.41-16.2-20.75-.66-1.74-1.65-4.07-2.9-6.66-11.55,3.53-26.63.05-32.12-1.46-2.54,11.83-.75,25.84,1.15,40.62,2.35,18.34,4.78,37.3-.7,54.5-3,9.44-8.21,16.43-16.41,21.62,1.77,36.77,3.96,66.62,6.64,78.46h597.19c1.1,0,2,.9,2,2s-.9,2-2,2Zm-608.34-220.02c.97,42.15,2.37,91.54,4.29,132.96,6.24-4.5,10.33-10.39,12.82-18.22,5.21-16.36,2.84-34.88.54-52.78-2.05-16.03-3.99-31.16-.57-44.15.14-.53.49-.98.97-1.24.48-.26,1.05-.32,1.57-.15.25.08,18.37,5.74,31.11,2.24-4.67-8.66-11.66-18.31-18.87-18.31-.24,0-.47-.04-.69-.12-1.46-.54-14.29-5.49-14.72-13.33-.23-4.13,2.98-7.96,9.54-11.39,1.27-3.45,2.45-8.7,1.3-10.39-.09-.14-.26-.38-.85-.44-9.6,3.24-21.48,8.86-26.9,14.21.03,1.53.06,3.06.1,4.61h10.82c1.01,0,1.86.75,1.98,1.75l1.43,11.42c.07.54-.09,1.08-.43,1.5-.34.42-.84.69-1.38.74l-12.06,1.1Zm-247.73,6.33h21.31c1.1,0,2,.9,2,2v37.1c0,8.81,2.7,15.79,8.02,20.73,10.57,9.83,28.19,8.68,28.37,8.67.05,0,.1,0,.15,0h132.71c30.04,0,33.53-37.7,33.67-39.46v-35.6c0-1.03.79-1.9,1.82-1.99l15.57-1.42c-.07-3-.13-5.95-.19-8.86h-.93c-.92,0-1.72-.62-1.94-1.51-.74-2.97.41-5.84,2.66-8.53-.09-4.27-.17-8.42-.25-12.43-.17.17-.34.33-.49.48-.12.12-.25.22-.39.3-4.53,2.72-13.35.94-18.74-2.43-4.02-2.52-4.69-5.03-4.55-6.7.21-2.41,2.17-4.37,5.81-5.85,6.99-2.82,13.34-7.09,17.9-10.61-.33-19.43-.49-32.36-.52-34.67-.01-1.01.74-1.88,1.74-2.01,8.07-1.04,15.14-2.58,21.18-4.6-2.22-19.52-7.39-41.17-18.43-59.38-.03-.05-.05-.09-.08-.14-.45-.9-10.68-21.84-2.27-46.57-21.89-5.36-52.51-11.91-81.47-16.32,3.24,3.63,6.3,6.67,8.44,8.63.5.46.73,1.14.62,1.81-.11.67-.56,1.24-1.18,1.5-18.41,7.89-101.14,13.84-117.84,14.97,12.48,31.47,16.93,111.99,17.62,125.83h10.78c1.54-5.38,8.42-21.4,35.83-21.4,22.24,0,33.59,19.1,38.59,31.39h11.35c48.04,0,60.31,40.99,60.43,41.4.17.6.05,1.25-.33,1.75-.38.5-.97.8-1.6.8h-207.76v12.27c0,1.1-.9,2-2,2h-15.11c.26,2.6.1,5.55-.49,8.84Zm-41.55-210.42c-3.6,0-8.99.78-13.08,4.76-6.14,5.96-7.78,17.14-4.86,33.21.05.26.04.52-.01.77-.39,1.83-9.65,44.96-25.12,62.28-4.99,5.59-11.3,9.97-17.41,14.2-12.81,8.89-24.91,17.29-23.08,35.64,1.63,16.31.56,18.46-2.24,22.16-1.68,2.22-3.98,5.27-6.36,16.27-3.82,17.66,5.48,55.62,21.76,74.76,6.26,7.35,12.65,10.9,18.98,10.58,17.57-.92,28.33-15.4,33.35-24.4-7.56,5.21-20.33,12.68-31.27,12.68-3.52,0-6.85-.77-9.76-2.64-12.8-8.22-13.23-33.8-1.32-78.19.3-2.66,3.99-30.69,25.29-44.14,13.32-8.41,30.53-9.17,51.15-2.24,4.13-10.84,24.65-70.5-.65-123.62-.46-.97-.08-2.12.87-2.63l88.13-46.91c1.23-1.5,7.76-10.19,9.33-26.28-3.54-2.14-6.75-4.88-9.25-9.33l-6.85,27.68c-.14.55-.5,1.02-1,1.29-.46.24-46.25,24.52-91.46,44.3-.39.17-.82.21-1.23.12-.04,0-1.62-.33-3.93-.33Zm345.6,224.92c1.77,3.69,2.8,6.41,2.94,6.77.02.05.03.1.05.14.04.14,4.16,13.86,14.05,18.31,4.75,2.14,10.19,1.8,16.15-1.01,17.85-8.4,1.57-58.33-7.23-79.5-6.54,4.55-8.5,13.8-10.74,24.37-1.55,7.34-3.16,14.92-6.47,22.1-1.93,4.18-5.03,6.99-8.75,8.81Zm-349.8,8.33c.19,0,.37.03.55.08,17.11,4.89,32.2-3.48,34.98-5.16,2.32-5.07,4.06-9.67,5.2-13.74h-26.47c-1.1,0-2-.9-2-2v-12.84c0-1.1.9-2,2-2h26.85c-.43-.91-.98-1.71-1.63-2.4-6.81-7.19-25.13-2.04-31.62.55-.5.2-1.05.19-1.54-.02-.49-.21-.87-.62-1.07-1.12-2.19-5.7-2.01-10.37.55-13.85,4.89-6.67,16.64-6.02,17.14-5.98.35.02.69.14.98.33,14.24,9.5,30.97,1.97,34.38.25.55-1.46,1.13-2.86,1.75-4.19-3.35-.71-6.76-.95-8.66-.96-.18,0-.37.01-.55.01-12.09,0-27.62-17.87-31.55-22.64-10.58,3.3-31.26.05-33.71-.36-9.95.4-16.88,3.78-20.62,10.07-6.5,10.95-2.49,29.88,3.98,42.84,4.94,9.87,4.88,17.92,4.84,23.79-.03,4.6.03,7.07,1.7,8.32,3.67,2.75,16.79,2.1,24.2,1.05.09-.01.19-.02.28-.02Zm355.45-100.6c6.66,0,12.87,2.11,18.54,6.31,22.47,16.67,30.34,61.64,32.54,78.38,17.85-34.42,17.56-68.33,17.55-68.69-2-37-22.6-53.51-34.91-63.37-5.29-4.25-9.12-7.31-10.1-10.73-3.03-10.61-9.25-16.32-21.45-19.72-14.86-4.14-21.89-43.32-22.81-48.79-9.49-23.96-42.05-25.63-42.38-25.65-3.17-.1-6.24-.33-9.22-.69,20.54,7.85,39.22,18.29,44.08,31.18,2.51,6.67,1.27,13.48-3.69,20.27,4.8,6.03,23.86,31.94,15.56,53.48-3.57,9.26-11.68,16.31-24.21,21.1.68,6.89,1.02,13.46,1.13,19.5,2.64-.13,5.07.31,7.14,1.14,6.33,2.53,22.78,6.31,25.6,6.95,2.25-.44,4.46-.67,6.62-.67Zm-339.18,77.77h25.43c.67-3.39.85-6.35.54-8.84h-25.97v8.84Zm276.93-18.83c.06,2.8.12,5.62.19,8.5l9.73-.88-.95-7.61h-8.97Zm-247.78,5.99h13.93v-12.27c0-1.1.9-2,2-2h206.92c-1.41-3.52-4.57-10.19-10.37-16.79-11.19-12.72-26.43-19.17-45.29-19.17h-9.85c.66,1.92,1.13,3.5,1.42,4.58,32.54.7,41.33,23.14,41.69,24.11.23.61.14,1.3-.23,1.84-.37.54-.99.86-1.64.86h-172.66c-.98,0-1.81-.71-1.97-1.67-.37-2.23-2.59-3.77-5.41-4.83-.77,1.62-1.5,3.34-2.15,5.18-.16.45-.48.82-.89,1.06-.85.49-20.9,11.69-38.73.24-3.13-.08-10.34.54-13.16,4.39-1.45,1.97-1.67,4.72-.67,8.18,6.26-2.18,25.48-7.87,34.02,1.14,1.36,1.43,2.37,3.15,3.03,5.15Zm27.43-22.83h167.94c-3.35-5.8-13.6-18.83-38.17-18.83-.94,0-1.76-.66-1.96-1.58-.02-.1-.65-2.92-2.13-6.98h-90.09c-.08,0-.16,0-.24-.01-1.26-.14-28.21-2.98-42.35,21.33,3.13,1.27,5.85,3.19,7,6.08Zm215.5-25.48c-4.49,3.26-10.2,6.82-16.49,9.36-2.38.96-3.28,1.94-3.33,2.49-.05.61.76,1.76,2.68,2.96,4.48,2.8,11.48,4,14.37,2.5.5-.49,1.57-1.52,3.02-2.78-.1-5.12-.18-9.98-.26-14.53Zm3.96-3.03c.08,4.47.16,9.28.26,14.35,4.53-3.4,10.39-6.86,15.37-6.64,1.07.05,2.06.26,2.97.64.48-4.53,1.22-13.36,1.23-24.59-4.32,1.38-9.11,4.69-13.74,10.85-.06.08-.12.15-.19.22-.2.2-2.37,2.33-5.9,5.17Zm-.55-34.87c.05,4.04.2,14.67.46,29.73,1.67-1.43,2.75-2.46,3.07-2.77,5.55-7.35,11.46-11.1,16.81-12.48-.09-5.8-.39-12.12-1.02-18.75-5.66,1.83-12.1,3.25-19.32,4.27Zm3.94-69.7c11.16,18.45,16.47,40.24,18.8,59.97,10.85-4.34,17.86-10.5,20.92-18.43,8.42-21.8-15.65-50.42-15.89-50.71-.62-.73-.64-1.8-.04-2.55,4.9-6.12,6.23-11.9,4.06-17.65-10.83-28.74-102.13-45.57-105.5-46.18-8.63-.75-14.91-10.9-19.36-23.06-3.51,1.63-5.53,3.9-6.15,6.92-1.46,7.13,4.99,17.5,11.99,26.1,42.2,6.13,85.23,16.71,88.46,17.51.56.14,1.03.51,1.29,1.01.27.51.3,1.1.1,1.64-8.87,23.3.7,44.12,1.32,45.42Zm-149.08-65.79c-9.09.59-15.95,2.23-19.53,5.28-1.24,1.05-1.98,2.22-2.28,3.57,4.88-.65,16.42-2.78,21.81-8.85Zm8.82-4.1c12.73,0,27.86,1.41,43.36,3.5-6.3-8.35-11.78-18.27-10.18-26.1.9-4.41,3.85-7.74,8.75-9.91-1.97-6.01-3.53-12.31-4.73-18.08-6.63,8.83-14.78,15.49-24.55,16.41-22.58,2.12-38.9-11.34-46.52-19.4.74,5.85.87,11.14.59,15.88,1.28.67,2.63,1.32,4.03,1.99,7.7,3.68,16.42,7.85,23.95,21.4,2.93,5.28,3.93,10.08,3,14.33.76-.01,1.52-.02,2.3-.02Zm46.9-30.58c4.06,11.38,9.42,20.43,16.12,20.95.06,0,.13.01.19.02,1.37.24,13.44,2.42,29.11,6.46-19.09-10.03-29.33-22.83-29.49-23.03-.22-.28-.36-.62-.41-.98l-2.81-21.71c-4.92,11.34-10.2,16.38-12.72,18.29Zm-9.07-40.79c.33,2.83.83,6.33,1.49,10.22,10.76-18.65,16.23-41.88,16.32-42.27.15-.67.64-1.21,1.28-1.44.64-.23,1.36-.11,1.9.31.03.02.77.48,1.97.02,1.78-.69,6.41-4.19,10.84-21.9,2.43-9.72.78-12.31-.05-12.97-1.08-.86-3.8-1.17-10.66,2.26-.6.3-1.32.28-1.9-.06-.58-.34-.96-.95-.99-1.63,0-.12-.69-10.87-8.88-19.82,2.79,22.8,4.58,62.25-11.31,87.26Zm-98.49-66.25c-.98,0-2.03.23-2.83.97-1.6,1.48-3.56,6.22,1.27,21.39.02.08.04.16.06.24.7,3.73,3.6,14.03,8.5,16.78.95.54,1.94.75,2.99.64-.79-5.33-3.12-21.18-5.56-39.47-.49.2-1.04.21-1.53,0-.02,0-1.38-.55-2.9-.55Zm3-44.9c1,9.93,2.36,21.33,3.79,32.52,6.5-8.14,21.27-18.66,54.75-23.71,17.84-2.69,32.21-.82,42.82,5.55-.73-4.57-1.3-7.3-1.33-7.43-.12-.56,0-1.15.35-1.61.34-.46.86-.75,1.44-.8,5.09-.44,10.25,3.4,13.63,6.61l-1.53-35.25c-5.22-2.69-9.48-5.93-11.11-7.24-18.05,2.01-29.38-9.23-33.04-13.58-9.68,7.11-21.26,12.1-32.33,15.59-9.2,18.93-24.67,26.48-37.43,29.35Zm-20.47-2.61c.71.09,7.4.88,16.13-.58-.79-8.35-1.28-15.47-1.28-20.27,0-1.06.82-1.93,1.88-2,.29-.02,18.34-1.23,38.36-7.28,10.66-21.81,34.65-33.1,53.29-33.1.17,0,.33,0,.5,0,13.56.15,23.85,5.94,28.24,15.89.1.23.16.47.17.72l.98,22.54c5.5,2.5,11.39,3.85,15.54,1.4,5.39-3.19,10.35-14.25,3.41-48.82-5.43-27.03-15.88-43.47-31.07-48.86-20.35-7.22-49.49,4.7-86.61,35.42-9.82,8.13-23.3,16.79-36.33,25.17-23.96,15.4-51.11,32.86-48.5,43.92,1.77,7.48,16.99,12.81,45.24,15.85.02,0,.04,0,.06,0Zm18.88-19c.1,4.48.54,10.59,1.21,17.63,10.94-2.57,23.93-8.88,32.46-23.78-15.29,4.26-28.77,5.73-33.67,6.15Zm105-13.84c.47,0,.93.17,1.29.47,1.91,1.61,5.2,4.03,9.01,6.19l-.86-19.88c-3.82-8.25-12.71-13.04-24.47-13.17-.15,0-.31,0-.46,0-16.35,0-37.11,9.31-47.79,27.33,10.12-3.48,20.37-8.26,28.78-14.78.43-.34.99-.48,1.53-.4.54.08,1.03.39,1.34.84.46.66,11.48,16.08,31.38,13.43.09-.01.18-.02.26-.02Z"/>
</svg>