<?xml version="1.0" encoding="utf-8"?>
<!-- Generator: Adobe Illustrator 27.1.1, SVG Export Plug-In . SVG Version: 6.00 Build 0)  -->
<svg version="1.1" id="Layer_1" xmlns="http://www.w3.org/2000/svg" xmlns:xlink="http://www.w3.org/1999/xlink" x="0px" y="0px"
	 viewBox="0 0 801.5 1021.4" style="enable-background:new 0 0 801.5 1021.4;" xml:space="preserve">
<style type="text/css">
	.st0{fill:#00522A;stroke:#876E7D;stroke-width:11;stroke-linecap:round;stroke-linejoin:round;}
</style>
<path class="st0" d="M164.5,1013.3c12.7,0.5,30.2-0.3,50.2-5.4c9.3-2.4,27-7.7,47-19.6c0,0,18.9-11.2,33.9-26
	c41.4-40.8,0.8-136,40.5-231.4c7.4-17.6,30.1-69.3,84.4-97.2c22.7-11.6,51.1-18.8,86.7-16.9c-41.6,8.4-75.6,28-103,54.5
	c-33.7,32.6-42.4,83.2-15.4,94.7c33.3,14.3,97.4-4.4,148-60.4c42.8-47.3,98.7-143.9,84.3-154.8c-2.8-2.2-7.2,0-13.5,2.4
	c-45.9,17.5-68.6-9.6-126.3-1.2c-16.2,2.4-47.1,6.9-57,27.4c-3.6,7.5-2,12-6.8,21.5c-8.3,16.3-27.9,31.9-37.3,28.2
	c-20.7-8.1,29.8-102.8-5.8-200.7c-5.5-15.1-22.8-60.9-67.8-91.5c-70-47.6-157.5-24.6-157.6-22c-0.1,2,51.6-3,115.2,23.7
	c28.1,11.8,50.2,26.3,66.1,49.1c5,7.2,25.2,36.3,15.2,52.5c-6.6,10.8-24.9,13.4-62.7,8.5c-61.1-7.9-127.4-16.5-191.4-71.1
	C39.4,333,3.6,270.6,12,262.4c3.3-3.3,12.1,3.9,27.1,8.5c40.1,12.3,71-10,108.4-22c71-22.8,158.6-10.4,174.5,23.7
	c4.6,9.9,2.4,19.9,13.1,41.5c4.7,9.5,7.8,12.8,20.3,31.6c22.8,34.1,23.1,38.6,26,38.4c19.3-1.5-21-196.5,68.2-265.7
	c25.1-19.5,57.7-26.8,89.2-33.9c62.3-14,118.4-7.9,118.6-4.5c0.1,2.4-27.4,3.2-81.3,14.7c-64,13.6-82.7,24.8-94.9,33.9
	c-13.6,10.2-35,26.4-37.3,51.9c-2.1,24.5,14.6,43.5,18.1,47.4c38.1,43.2,115.5,28.5,128.7,26c73.7-14,118.1-65.9,136.7-88.1
	c54-64.8,77.8-151.2,64.4-159.2c-4.1-2.5-10.2,3.5-21.5,10.2C732.7,39,703,29.8,638.2,31.4c-52.1,1.3-87.7,2.2-128.8,20.3
	c-41.6,18.3-61.6,42.4-68.9,51.9c-3.7,4.8-12.2,16.6-20.3,36.1c-15.6,37.2-14.1,64.8-13.9,141.6c0.2,72-0.9,110.5,10.2,112.9
	c3,0.7,9.2-4.1,21.5-13.6c11.1-8.5,16.6-12.8,20.3-19.2c7-12.1,2.2-21.3,4.4-29.8c8-30.6,82.6-45.4,140.6-45.7
	c41.9-0.2,84.8,7.3,98.2-14.7c3.8-6.3,7.1-18,10.2-17.5c3.1,0.5,3.3,13.2,3.4,16.9c1.2,70.4-45.7,128.8-45.7,128.8
	c-11.9,14.8-72.6,90.2-142.3,79.6c-19.8-3-55-15.5-59.3-39c-4.6-25.3,29.1-49.5,41.3-58.2c53.9-38.7,114.8-32.6,114.6-36.7
	c-0.2-3.4-43.6-10.5-88.1,5.1c-32,11.2-55.2,30.6-61,35.6c-8.9,7.6-11.2,11.2-32.2,30.5c-23.6,21.8-26.4,22.6-32.2,28.8
	c-21.5,22.9-17.2,47.5-25.4,84.7c-13.2,59.8-48.3,106.3-57.6,103.3c-8.8-2.8,11.5-48.6-11.9-89.8c-10.5-18.6-26.6-30.1-48.3-41.6
	C159.6,444.9,8.2,447.7,6,467.9c-0.3,3,2,6.4,7.5,10.1c49.3,33.3,49.1,94,86.9,162.8c53.9,98,185,173.2,194.4,77.3
	C308,584.3,115.3,516.9,115.3,516.9c114.1,22,158.3,66.4,177.8,102.1c45.2,83,38,267.8,60.1,341.1c1.4,4.7,4.3,13.5,11.3,22.6
	c20.5,26.7,57.7,32.2,84.4,32.7"/>
</svg>
