<?xml version="1.0" encoding="UTF-8"?>
<svg id="Layer_1" data-name="Layer 1" xmlns="http://www.w3.org/2000/svg" viewBox="0 0 4521.86 2343.48">
  <defs>
    <style>
      .cls-1 {
        fill: none;
        stroke: #1d1d1b;
        stroke-linecap: round;
        stroke-linejoin: round;
        stroke-width: 12px;
      }
    </style>
  </defs>
  <path class="cls-1" d="m4515.86,2215.76c-192.07-90.98-345.69-15.31-545.89,90.98-200.65,106.53-468.39-80.87-512.2-299.9-43.81-219.03,254.12-160.21,186.25,15.15-55.92,144.49-218.77,155.93-373.84,145.15-102.5-7.13-237.55-62.14-314.42-183.74-120-189.85-223.62-523.45-61.86-886.8,39.69-89.15,126.65-220.39,115.46-413.5-7.8-134.66-79.84-293.96-167.15-398.73-295.36-354.43-703.93-334.44-1004.21-140.29-74.29,48.03-201.21,177.24-256.8,310.3-65.92,157.79-82.69,326.2-56.46,441.99,35.1,154.87-181.08,364.69-150.41,435.62,24.33,56.28,141.36,53.06,160.42,27.24,19.06-25.82-104.57-47.99-92.31-24.33,12.26,23.66,82.61,29.46,86.8,73.99,4.19,44.53-30,76.75-27.94,99.57,1.54,17.02,15.67,17.67,30.72,21.03,15.05,3.36,101.82,4.56,98.24-18.8-3.35-21.88-64.56,20.87-96.85,60.33-16.61,20.31-15.64,76.08,52.34,89.31,67.98,13.23-41.6,132.11,75.03,200.51,116.63,68.4,401.07,36.27,462.45-71.63,14.53-25.54,15.23-37.95,9.21-40.31-19.41-7.61-108.72,89.42-29.58,188.4,49.27,61.63,69.97,156.91,71.51,245.69.36,20.94,17.75,37.81,38.7,37.46,181.99-3.03,917.21-92.14,844.44-10.71-72.02,80.6-504.81-540.02-264.44-1072.94,38.32-84.95,120.95-210.46,110.26-394.88-7.45-128.6-70.68-285.64-159.62-380.77-117.87-126.09-370.6-262.56-608.17-222.12-237.56,40.44-404.53,213.94-390.96,402.49,14.63,203.27,256.47,307.46,333.84,312.47,65.75,4.26,63.25-22.05,105.86-34.58,9.72-2.86,12.31-14.55,16.42-23.81,18.37-41.38,31.5-189.84,49.36-223.93,14.42-27.52,53.14-120.32,171.06-114.08-41.63,8.36-75.59,28.01-103,54.46-33.74,32.56-42.39,83.15-15.39,94.71,33.32,14.26,97.38-4.37,147.98-60.38,49.92-55.25,117.78-177.67,70.74-152.43-47.04,25.24-133.88-9.76-200.76,31.32-50.15,30.8-63.34,74.93-63.34,74.93,0,0,15.61-95.8-76.55-157.54-97.08-65.03-302.68-57.26-253.35-23.99,49.33,33.27,49.07,93.97,86.93,162.81,53.91,98.02,184.96,173.21,194.43,77.32,13.22-133.82-179.51-201.22-179.51-201.22,0,0,117.17,8.85,177.82,102.11,40.83,62.78,21.94,278.71,35.3,338.97,1.64,7.37,5.38,15.34,12.74,17.05,36.6,8.52,77.2,40.29,107.78,40.38,210.06.66,373.77-117.99,359.13-305.26-11.9-152.28-140.55-309.92-461.17-373.18-698.94-137.92-1112.97,199.03-1141.31,329.82-44.27,204.34,163.32,208.25,161.68,41.99-1.27-128.54-179.85-237.26-347.86-128.27-201.25,130.54-473.34,313.22-927.44,40.76"/>
</svg>