<?xml version="1.0" encoding="UTF-8"?>
<svg id="Layer_1" data-name="Layer 1" xmlns="http://www.w3.org/2000/svg" viewBox="0 0 6000 4000">
  <defs>
    <style>
      .cls-1 {
        fill: #fff;
      }
    </style>
  </defs>
  <rect class="cls-1" width="6000" height="4000"/>
  <path d="m5122.52,2730.76c11.8-14.18,20.13-29.51,25.23-44.58,17.11-50.54,1-103.44-41.04-134.78-52.49-39.12-106.45-31.63-155.42-20.58,43.58-61.28,52.99-136.34,25.46-209.05-32.97-87.1-111.62-153.57-195.71-165.4-122.05-17.19-189.93,27.49-225.34,67.97-56.55,64.65-65.39,154.46-49.67,210.54l4.38,15.6,9.06-13.43c15.51-22.98,49.98-41.85,89.95-49.22,29.39-5.41,86.56-8.98,139.29,28.05,45.22,31.76,70.06,82.29,68.15,138.65-2.23,65.78-39.87,127.03-100.67,163.84l-26.12,15.82,30.47-1.91c98.19-6.16,226.7-2.91,368.16,10.23-28.11,21.62-68.48,36.69-123.42,35.99-318.45-3.76-1053.71,148.65-1100.43,158.42l-336.66-139.43,2.6-197.58,216.71,46.35-8.24-452.11-218.15,1.36-5.08,385.91-135.19-28.91-1.44-402.41-209.83-3.81,5.21,377.49,191.11,40.87.65,180.83-301.24-114.98,8.03-623.44,805.44,18.83-20.62,53.6,19.43,706.32,216.78-17.22,3.65,72.85,358.99-64.48-12.99-637.85,144.85-11.41-286.01-861.07-335.42,746.34-67.02-1.57,360.37-936.76,5.74-14.94-949.01,322.03-1.95-235.42-126.98-123.45-118.33,58.51-4.97,385.95-232.19,78.79,209.35,365.42,17.14-.94-1.04,81.12-44.64-1.04-234.13-452.17-716.99-446.46-64.41,142.74-94.08-143.74-391.07,975.17,122.61,8.59,364.98-808.92,544.5,831.89,2.2,3.36,442.78,3.26-11.57,541.45-91.19,28.69,18.24-490.32-376.98-2.13-5.16,555.7-148.08,63.95-284.67-75.52.9-14.57,280.11,27.64,14.41-656.86q.06-2.7-191.5-326.81c-95.24-161.14-190.48-322.16-190.48-322.16l-7.25-12.27-304.42,655.34c-.92,1.96-1.39,4.15-1.36,6.65,9.39,170.99,33.49,618.26,32.25,634.32l-.57,7.13,7.1.9c89.69,11.42,280.79,42.86,319,49.18l-4.64,68-470.17-136.78-8.15,80.72,322.61,67.64-2.66,68.67c-53.25-18.01-315.93-104.85-472.49-119.99-163.98-15.85-398.9-25.69-588.55,17.14-24.33-10.26-48.06-21.85-68.44-36.68,251.51-56.25,502.29-73.12,749.96-50.23l2.66.25,2.22-1.49c45.07-30.36,73.61-72.78,82.53-122.69,9.09-50.84-2.99-105.5-32.31-146.21-25.51-35.42-52.86-58.92-79.17-74.37-3.57-37.3-13.79-75.75-30.3-112.36-33.54-74.38-89.29-131.83-156.97-161.74-106.74-47.18-283.98-36.75-384.16,62.39-53.83,53.27-102.89,151.24-35.37,316.99-70,1.29-126.66,22.7-160.34,60.82-29.8,33.72-41.05,79.11-33.43,134.89,4.96,36.32,20.84,63.95,42.51,85.75-180.72,42.56-361.77,105.3-542.31,188.08l6.25,13.63c182.97-83.89,366.44-147.09,549.53-189.45,24.64,20.35,54.41,35.01,83.56,47.2l2.22.93,2.35-.54c188.1-43.01,422.56-33.19,586.12-17.37,172.19,16.65,475.53,121.43,478.58,122.49l9.56,3.32,3.93-101.5-321.81-67.48,4.99-49.38,470.75,136.95,6.84-100.18-6.71-1.12c-2.21-.37-217.15-36.12-319.77-49.54-1.57-70.39-30.6-599.69-32.19-628.73l292.38-629.42c51.03,86.27,353.54,597.81,372.6,630.79l-14.01,638.62-264.55-26.11,34.42-559.32-271.21-15.5,51.55,571.62,169.38,16.71-1.69,27.39,299.06,79.34,2.51.66,161.81-69.88,5.12-550.52,346.56,1.95-18.46,496.09,121.74-38.3,12.13-567.42-449.95-3.31-547.53-836.53,61.29-135.83,698.94,435.22,236.32,456.4,53.68,1.25-8.17,634.07,331.45,126.5-.72-199.43,134.93,28.86-2.77,210.75,350.34,145.09,2.27-.48c7.61-1.61,755.16-158.65,1087.29-158.65,4.1,0,8.15.02,12.13.07,66.61.81,113.82-20.29,144.45-48.99,227.22,22.46,485.18,70.04,703.51,144.59l4.84-14.2c-215.7-73.65-469.83-121.1-695.39-144.13Zm-1586.59-520.36l188.62-1.18,7.62,418.4-201.17-43.02,4.92-374.19Zm-346.3,301.19l-4.82-350.04,179.66,3.26,1.38,384.47-176.22-37.69Zm888.61-365.01l218.83-3.92-34.81,597.53-153.67,12.21-30.35-605.83Zm-101.19-118.4l323.72-720.3,267.84,806.36-139.86,11.02,13.02,639.19-329.6,59.21-2.82-56.26,167.14-13.28,36.51-626.73-250.5,4.48,31.14,621.73-201.47,16.01-18.92-687.53,21.47-55.82,82.33,1.92Zm-891.9-937.44l100.6-49.74,114.88,111.69,1.95,234.1-222.21,75.4,4.79-371.46Zm-4.99,387.37l222.55-75.52,2.14,257.47-99.83,227.58-130.22,7.1,5.37-416.63Zm-5.56,431.66l140.44-7.66,104.83-238.96-2.21-265.63,923.39-313.33-356.55,926.83-810.97-18.96,1.06-82.29Zm-1448.14,149.34l-91.64-6.43,372.69-929.35,83.56,127.66-364.61,808.11Zm-164.25,417.49c-17.78,72.99-68.78,112.27-140.04,107.92-45.06-2.78-80.78-26.69-93.23-62.41-11.96-34.31-.03-71.94,31.9-100.67,33-29.69,75.84-45.94,119.86-45.94,6.35,0,12.72.34,19.08,1.02,19.39,2.08,43.1,7.85,68.21,21.3,2.02,27.68.15,54.44-5.77,78.77Zm-765.45,211.08c-7-51.26,3.03-92.63,29.81-122.93,42.48-48.08,114.38-55.81,156.15-55.81,1.41,0,2.78,0,4.12.02l11.54.14-4.55-10.6c-70.59-164.33-23.86-259.73,27.77-310.83,92.67-91.71,264.86-104.73,367.54-59.34,102.34,45.23,164.02,152.16,177.04,251.73-23.77-11.32-46.13-16.46-64.79-18.47-54.75-5.88-109.65,11.86-150.58,48.68-36.58,32.91-50.05,76.56-36.03,116.76,14.48,41.52,55.27,69.27,106.47,72.44,79.16,4.89,135.88-38.6,155.54-119.34,5.58-22.89,7.84-47.53,6.9-72.97,21.96,14.43,44.5,35.15,65.77,64.69,26.59,36.92,37.98,88.57,29.71,134.8-8.04,45-33.59,83.46-73.95,111.39-252.21-23.03-507.54-5.07-763.55,53.4-23.17-20.82-39.97-47.49-44.92-83.77Zm1224.52-7.92l-48.87-541.94,238.81,13.64-33.46,543.74-156.48-15.44Zm1138.51-784.21l-8.91.49-195.69-341.59,209.92-71.23-5.31,412.33Zm2044.21,833.37c-101.37-9.82-196.5-14.65-279.17-14.65-27.61,0-53.88.54-78.48,1.61,51.92-40.02,83.4-98.5,85.52-160.85,2.08-61.51-25.07-116.71-74.52-151.43-57.22-40.18-118.93-36.37-150.63-30.52-36.7,6.77-69.46,22.83-89.52,43.28-9.65-53.81,3.6-129.3,49.81-182.13,47.29-54.07,120.57-75.86,211.96-63,78.83,11.09,152.69,73.73,183.77,155.86,16.54,43.68,33.83,129.17-36.13,211.01l-14.91,17.45,26.42-6.25c52.48-12.43,106.75-25.3,159.64,14.13,37.29,27.8,51.01,72.99,35.79,117.94-5.49,16.24-15.21,32.8-29.55,47.54Z"/>
</svg>