<?xml version="1.0" encoding="UTF-8"?>
<svg id="Layer_1" data-name="Layer 1" xmlns="http://www.w3.org/2000/svg" viewBox="0 0 100.51 128.23">
  <defs>
    <style>
      .cls-1 {
        fill: #145027;
        stroke: #876e7d;
        stroke-miterlimit: 10;
      }
    </style>
  </defs>
  <path class="cls-1" d="m20.48,127.46c2.74.12,4.97-.15,6.33-.68,2.48-.97,3.6-2.68,7.01-3.68,1.23-.36,1.55-1.83,2.07-3,2.32-5.22,3.97-23.93,6.22-28.23,1.82-3.47,6.7-15.17,21.56-14.38-5.25,1.05-9.53,3.53-12.98,6.86-4.25,4.1-5.34,10.48-1.94,11.94,4.2,1.8,12.27-.55,18.65-7.61,5.39-5.96,12.44-18.14,10.62-19.51-.36-.27-.9,0-1.71.3-6.06,2.21-9.02-1.18-15.92-.15-1.92.29-6.3.84-9.39,4.1-3.09,3.26-3.29,7.5-3.64,7.44-.65-.12,4.57-14.2-.43-27.12-.94-2.44-3.11-7.84-8.54-11.53-8.83-6-19.85-3.1-19.86-2.78,0,.25,6.51-.38,14.52,2.99,3.54,1.49,6.32,3.31,8.33,6.19.63.9,3.18,4.57,1.92,6.62-.83,1.35-3.14,1.68-7.9,1.07-7.7-.99-16.05-2.07-24.13-8.97C4.71,41.72.2,33.85,1.25,32.82c.42-.42,1.52.49,3.42,1.07,5.05,1.55,8.95-1.27,13.67-2.78,7.18-2.3,17.11-1.76,21.99,2.99,4.63,4.5,3.29,11.39,4.84,11.46,2.29.1-.54-22.52,11.25-30.89,3.59-2.55,8.27-3.6,11.25-4.27,7.86-1.77,14.92-1,14.95-.57.02.3-3.46.4-10.25,1.85-8.06,1.72-10.43,3.12-11.96,4.27-1.71,1.29-4.42,3.32-4.7,6.55-.27,3.09,1.84,5.48,2.28,5.98,4.8,5.45,14.55,3.59,16.23,3.27,9.28-1.77,14.89-8.3,17.23-11.1,6.81-8.17,9.8-19.06,8.11-20.07-.52-.32-1.29.44-2.7,1.28-4.74,2.81-8.48,1.64-16.66,1.85-6.57.17-11.06.28-16.23,2.56-5.24,2.31-7.77,5.35-8.68,6.55-.82,1.08-1.65,2.42-2.56,4.56-2.38,5.58-1.91,8.64-3.1,18.04-.73,5.73-2.03,13.68.17,15.25.06.04.11.07.16.1,2.17,1.12,6.34-1.08,7.69-4.06.99-2.2-.27-3.23.43-5.12,2.07-5.56,16.47-5.76,17.72-5.77,5.28-.03,10.69.92,12.38-1.86.48-.79.9-2.27,1.29-2.2.39.07.42,1.67.43,2.14.15,8.87-5.77,16.23-5.77,16.23-1.5,1.86-9.15,11.37-17.94,10.04-2.83-.43-7.07-2.18-7.47-4.91-.2-1.33.57-2.53,1.28-3.42,5.66-7.06,18.46-7.64,18.36-8.54-.06-.59-5.58-1.3-11.1.64-4.04,1.42-6.96,3.86-7.69,4.48-1.12.96-1.42,1.41-4.06,3.84-2.98,2.75-3.33,2.85-4.06,3.63-2.7,2.89-2.17,5.99-3.2,10.68-1.66,7.54-6.09,13.4-7.26,13.03-1.11-.36,1.44-6.12-1.49-11.32-1.32-2.34-3.36-3.79-6.09-5.25C19.86,55.82.78,56.17.5,58.72c-.04.38.25.81.95,1.27,6.22,4.19,6.19,11.84,10.96,20.52,6.8,12.35,23.31,21.83,24.51,9.75,1.67-16.87-22.63-25.36-22.63-25.36,0,0,14.77,1.12,22.41,12.87,5.15,7.91,2.77,35.13,4.45,42.73.21.93.68,1.93,1.61,2.15,5.75,1.33,9.96,5.04,13.59,5.09"/>
</svg>